{
	"asset":{
		"generator":"Khronos glTF Blender I/O v4.3.47",
		"version":"2.0"
	},
	"scene":0,
	"scenes":[
		{
			"name":"Scene",
			"nodes":[
				0,
				1,
				2
			]
		}
	],
	"nodes":[
		{
			"mesh":0,
			"name":"navMesh2",
			"rotation":[
				0.7070798277854919,
				0.006170592736452818,
				0.006170593202114105,
				0.7070799469947815
			],
			"scale":[
				0.009999999776482582,
				0.009999999776482582,
				0.009999999776482582
			],
			"translation":[
				0.685581624507904,
				-0.11819927394390106,
				-0.9775814414024353
			]
		},
		{
			"mesh":1,
			"name":"navMesh2.001",
			"rotation":[
				0.007958944886922836,
				-0.7168622612953186,
				-0.6971214413642883,
				0.008184322156012058
			],
			"scale":[
				-0.009999999776482582,
				-0.009999999776482582,
				-0.010000000707805157
			],
			"translation":[
				19.880882263183594,
				0.4195803701877594,
				-0.09424185752868652
			]
		},
		{
			"mesh":2,
			"name":"navMesh2.002",
			"rotation":[
				-0.6971214413642883,
				0.00818443950265646,
				-0.007958830334246159,
				0.7168622612953186
			],
			"scale":[
				-0.009999999776482582,
				-0.009999999776482582,
				-0.010000000707805157
			],
			"translation":[
				-19.292081832885742,
				0.022127538919448853,
				-0.7589579224586487
			]
		}
	],
	"materials":[
		{
			"doubleSided":true,
			"name":"standardSurface1",
			"pbrMetallicRoughness":{
				"metallicFactor":0,
				"roughnessFactor":0.5527864098548889
			}
		},
		{
			"doubleSided":true,
			"name":"ground1",
			"pbrMetallicRoughness":{
				"metallicFactor":0,
				"roughnessFactor":0.5527864098548889
			}
		}
	],
	"meshes":[
		{
			"name":"Mesh",
			"primitives":[
				{
					"attributes":{
						"POSITION":0,
						"NORMAL":1,
						"TEXCOORD_0":2
					},
					"indices":3,
					"material":0
				},
				{
					"attributes":{
						"POSITION":4,
						"NORMAL":5,
						"TEXCOORD_0":6
					},
					"indices":7,
					"material":1
				}
			]
		},
		{
			"name":"Mesh.001",
			"primitives":[
				{
					"attributes":{
						"POSITION":8,
						"NORMAL":9,
						"TEXCOORD_0":10
					},
					"indices":3,
					"material":0
				},
				{
					"attributes":{
						"POSITION":11,
						"NORMAL":12,
						"TEXCOORD_0":13
					},
					"indices":7,
					"material":1
				}
			]
		},
		{
			"name":"Mesh.002",
			"primitives":[
				{
					"attributes":{
						"POSITION":14,
						"NORMAL":15,
						"TEXCOORD_0":16
					},
					"indices":3,
					"material":0
				},
				{
					"attributes":{
						"POSITION":17,
						"NORMAL":18,
						"TEXCOORD_0":19
					},
					"indices":7,
					"material":1
				}
			]
		}
	],
	"accessors":[
		{
			"bufferView":0,
			"componentType":5126,
			"count":231,
			"max":[
				1000.6710815429688,
				-158.39712524414062,
				26.90206527709961
			],
			"min":[
				-999.9963989257812,
				-1011.646728515625,
				-101.65608215332031
			],
			"type":"VEC3"
		},
		{
			"bufferView":1,
			"componentType":5126,
			"count":231,
			"type":"VEC3"
		},
		{
			"bufferView":2,
			"componentType":5126,
			"count":231,
			"type":"VEC2"
		},
		{
			"bufferView":3,
			"componentType":5123,
			"count":1080,
			"type":"SCALAR"
		},
		{
			"bufferView":4,
			"componentType":5126,
			"count":189,
			"max":[
				929.5784301757812,
				1099.5621337890625,
				8.934814453125
			],
			"min":[
				-1070.8892822265625,
				248.595458984375,
				-128.00479125976562
			],
			"type":"VEC3"
		},
		{
			"bufferView":5,
			"componentType":5126,
			"count":189,
			"type":"VEC3"
		},
		{
			"bufferView":6,
			"componentType":5126,
			"count":189,
			"type":"VEC2"
		},
		{
			"bufferView":7,
			"componentType":5123,
			"count":960,
			"type":"SCALAR"
		},
		{
			"bufferView":8,
			"componentType":5126,
			"count":231,
			"max":[
				1000.6527709960938,
				-176.18051147460938,
				44.89748764038086
			],
			"min":[
				-1000.556640625,
				-1028.56982421875,
				-93.00740051269531
			],
			"type":"VEC3"
		},
		{
			"bufferView":9,
			"componentType":5126,
			"count":231,
			"type":"VEC3"
		},
		{
			"bufferView":10,
			"componentType":5126,
			"count":231,
			"type":"VEC2"
		},
		{
			"bufferView":11,
			"componentType":5126,
			"count":189,
			"max":[
				929.5784301757812,
				1099.5621337890625,
				8.934814453125
			],
			"min":[
				-1070.8892822265625,
				248.595458984375,
				-128.00479125976562
			],
			"type":"VEC3"
		},
		{
			"bufferView":12,
			"componentType":5126,
			"count":189,
			"type":"VEC3"
		},
		{
			"bufferView":13,
			"componentType":5126,
			"count":189,
			"type":"VEC2"
		},
		{
			"bufferView":14,
			"componentType":5126,
			"count":231,
			"max":[
				954.0250244140625,
				-198.6479949951172,
				51.61653137207031
			],
			"min":[
				-1047.1143798828125,
				-1055.315673828125,
				-56.06785583496094
			],
			"type":"VEC3"
		},
		{
			"bufferView":15,
			"componentType":5126,
			"count":231,
			"type":"VEC3"
		},
		{
			"bufferView":16,
			"componentType":5126,
			"count":231,
			"type":"VEC2"
		},
		{
			"bufferView":17,
			"componentType":5126,
			"count":189,
			"max":[
				929.6027221679688,
				1098.887451171875,
				13.150390625
			],
			"min":[
				-1070.8992919921875,
				250.1501922607422,
				-138.84640502929688
			],
			"type":"VEC3"
		},
		{
			"bufferView":18,
			"componentType":5126,
			"count":189,
			"type":"VEC3"
		},
		{
			"bufferView":19,
			"componentType":5126,
			"count":189,
			"type":"VEC2"
		}
	],
	"bufferViews":[
		{
			"buffer":0,
			"byteLength":2772,
			"byteOffset":0,
			"target":34962
		},
		{
			"buffer":0,
			"byteLength":2772,
			"byteOffset":2772,
			"target":34962
		},
		{
			"buffer":0,
			"byteLength":1848,
			"byteOffset":5544,
			"target":34962
		},
		{
			"buffer":0,
			"byteLength":2160,
			"byteOffset":7392,
			"target":34963
		},
		{
			"buffer":0,
			"byteLength":2268,
			"byteOffset":9552,
			"target":34962
		},
		{
			"buffer":0,
			"byteLength":2268,
			"byteOffset":11820,
			"target":34962
		},
		{
			"buffer":0,
			"byteLength":1512,
			"byteOffset":14088,
			"target":34962
		},
		{
			"buffer":0,
			"byteLength":1920,
			"byteOffset":15600,
			"target":34963
		},
		{
			"buffer":0,
			"byteLength":2772,
			"byteOffset":17520,
			"target":34962
		},
		{
			"buffer":0,
			"byteLength":2772,
			"byteOffset":20292,
			"target":34962
		},
		{
			"buffer":0,
			"byteLength":1848,
			"byteOffset":23064,
			"target":34962
		},
		{
			"buffer":0,
			"byteLength":2268,
			"byteOffset":24912,
			"target":34962
		},
		{
			"buffer":0,
			"byteLength":2268,
			"byteOffset":27180,
			"target":34962
		},
		{
			"buffer":0,
			"byteLength":1512,
			"byteOffset":29448,
			"target":34962
		},
		{
			"buffer":0,
			"byteLength":2772,
			"byteOffset":30960,
			"target":34962
		},
		{
			"buffer":0,
			"byteLength":2772,
			"byteOffset":33732,
			"target":34962
		},
		{
			"buffer":0,
			"byteLength":1848,
			"byteOffset":36504,
			"target":34962
		},
		{
			"buffer":0,
			"byteLength":2268,
			"byteOffset":38352,
			"target":34962
		},
		{
			"buffer":0,
			"byteLength":2268,
			"byteOffset":40620,
			"target":34962
		},
		{
			"buffer":0,
			"byteLength":1512,
			"byteOffset":42888,
			"target":34962
		}
	],
	"buffers":[
		{
			"byteLength":44400,
			"uri":"riaNavMesh.bin"
		}
	]
}
