{
    "asset": {
        "version": "2.0",
        "generator": "Open Asset Import Library (assimp v3.1.118612264)"
    },
    "accessors": [
        {
            "bufferView": 0,
            "byteOffset": 0,
            "componentType": 5126,
            "count": 121,
            "type": "VEC3",
            "max": [
                16.08911895751953,
                20.155303955078126,
                -16.233339309692384
            ],
            "min": [
                -16.08911895751953,
                0.17528629302978517,
                -16.233341217041017
            ]
        },
        {
            "bufferView": 1,
            "byteOffset": 0,
            "componentType": 5126,
            "count": 121,
            "type": "VEC3",
            "max": [
                0.0,
                4.773140176439483e-7,
                1.0
            ],
            "min": [
                0.0,
                -4.773139608005295e-7,
                1.0
            ]
        },
        {
            "bufferView": 2,
            "byteOffset": 0,
            "componentType": 5126,
            "count": 121,
            "type": "VEC4",
            "max": [
                1.0,
                1.0,
                1.0,
                1.0
            ],
            "min": [
                -4.196300906755823e-8,
                -4.19629309078573e-8,
                -4.1963005514844556e-8,
                -4.196300906755823e-8
            ]
        },
        {
            "bufferView": 3,
            "byteOffset": 0,
            "componentType": 5126,
            "count": 121,
            "type": "VEC2",
            "max": [
                1.0,
                1.0
            ],
            "min": [
                0.6627429723739624,
                0.773252010345459
            ]
        },
        {
            "bufferView": 4,
            "byteOffset": 0,
            "componentType": 5123,
            "count": 600,
            "type": "SCALAR",
            "max": [
                120.0
            ],
            "min": [
                0.0
            ]
        },
        {
            "bufferView": 5,
            "byteOffset": 0,
            "componentType": 5126,
            "count": 121,
            "type": "VEC3",
            "max": [
                -15.845008850097657,
                20.155303955078126,
                27.54381561279297
            ],
            "min": [
                -15.845008850097657,
                0.17528629302978517,
                -17.587629318237306
            ]
        },
        {
            "bufferView": 6,
            "byteOffset": 0,
            "componentType": 5126,
            "count": 121,
            "type": "VEC3",
            "max": [
                1.0,
                1.3092044781615187e-8,
                2.1131047844846763e-7
            ],
            "min": [
                1.0,
                -1.6391913604252296e-8,
                -1.0565523211880645e-7
            ]
        },
        {
            "bufferView": 7,
            "byteOffset": 0,
            "componentType": 5126,
            "count": 121,
            "type": "VEC4",
            "max": [
                1.0,
                1.0,
                1.0,
                1.0
            ],
            "min": [
                -0.9900590777397156,
                -0.9900590777397156,
                -0.9900590777397156,
                -0.9900590777397156
            ]
        },
        {
            "bufferView": 8,
            "byteOffset": 0,
            "componentType": 5126,
            "count": 121,
            "type": "VEC2",
            "max": [
                0.7110773324966431,
                0.38035744428634646
            ],
            "min": [
                0.23733362555503846,
                0.11971765756607056
            ]
        },
        {
            "bufferView": 9,
            "byteOffset": 0,
            "componentType": 5123,
            "count": 600,
            "type": "SCALAR",
            "max": [
                120.0
            ],
            "min": [
                0.0
            ]
        },
        {
            "bufferView": 10,
            "byteOffset": 0,
            "componentType": 5126,
            "count": 121,
            "type": "VEC3",
            "max": [
                14.78018569946289,
                20.155303955078126,
                29.808277130126954
            ],
            "min": [
                14.780183792114258,
                0.17528629302978517,
                -18.454814910888673
            ]
        },
        {
            "bufferView": 11,
            "byteOffset": 0,
            "componentType": 5126,
            "count": 121,
            "type": "VEC3",
            "max": [
                -1.0,
                5.162314096196496e-7,
                1.975992489633427e-7
            ],
            "min": [
                -1.0,
                -2.88274804916e-7,
                -9.879961027081663e-8
            ]
        },
        {
            "bufferView": 12,
            "byteOffset": 0,
            "componentType": 5126,
            "count": 121,
            "type": "VEC4",
            "max": [
                1.0,
                1.0,
                1.0,
                1.0
            ],
            "min": [
                -1.0220299628826979e-7,
                -9.768433528734022e-8,
                -1.182822018108709e-7,
                -1.0220299628826979e-7
            ]
        },
        {
            "bufferView": 13,
            "byteOffset": 0,
            "componentType": 5126,
            "count": 121,
            "type": "VEC2",
            "max": [
                0.5058514475822449,
                0.5554149746894836
            ],
            "min": [
                0.0,
                0.2862333059310913
            ]
        },
        {
            "bufferView": 14,
            "byteOffset": 0,
            "componentType": 5123,
            "count": 600,
            "type": "SCALAR",
            "max": [
                120.0
            ],
            "min": [
                0.0
            ]
        },
        {
            "bufferView": 15,
            "byteOffset": 0,
            "componentType": 5126,
            "count": 121,
            "type": "VEC3",
            "max": [
                16.08911895751953,
                20.155303955078126,
                25.203380584716798
            ],
            "min": [
                -16.08911895751953,
                0.17528629302978517,
                25.203380584716798
            ]
        },
        {
            "bufferView": 16,
            "byteOffset": 0,
            "componentType": 5126,
            "count": 121,
            "type": "VEC3",
            "max": [
                0.0,
                0.0,
                -1.0
            ],
            "min": [
                0.0,
                0.0,
                -1.0
            ]
        },
        {
            "bufferView": 17,
            "byteOffset": 0,
            "componentType": 5126,
            "count": 121,
            "type": "VEC4",
            "max": [
                1.0,
                1.0,
                1.0,
                1.0
            ],
            "min": [
                -0.9961280226707459,
                -0.9961280226707459,
                -0.9961280226707459,
                -0.9961280226707459
            ]
        },
        {
            "bufferView": 18,
            "byteOffset": 0,
            "componentType": 5126,
            "count": 121,
            "type": "VEC2",
            "max": [
                1.0,
                0.7995291352272034
            ],
            "min": [
                0.6627429723739624,
                0.5727811455726624
            ]
        },
        {
            "bufferView": 19,
            "byteOffset": 0,
            "componentType": 5123,
            "count": 600,
            "type": "SCALAR",
            "max": [
                120.0
            ],
            "min": [
                0.0
            ]
        }
    ],
    "buffers": [
        {
            "byteLength": 28032,
            "uri": "lobby_walls.bin"
        }
    ],
    "bufferViews": [
        {
            "buffer": 0,
            "byteOffset": 0,
            "byteLength": 1452,
            "target": 34962
        },
        {
            "buffer": 0,
            "byteOffset": 1452,
            "byteLength": 1452,
            "target": 34962
        },
        {
            "buffer": 0,
            "byteOffset": 2904,
            "byteLength": 1936,
            "target": 34962
        },
        {
            "buffer": 0,
            "byteOffset": 4840,
            "byteLength": 968,
            "target": 34962
        },
        {
            "buffer": 0,
            "byteOffset": 5808,
            "byteLength": 1200,
            "target": 34963
        },
        {
            "buffer": 0,
            "byteOffset": 7008,
            "byteLength": 1452,
            "target": 34962
        },
        {
            "buffer": 0,
            "byteOffset": 8460,
            "byteLength": 1452,
            "target": 34962
        },
        {
            "buffer": 0,
            "byteOffset": 9912,
            "byteLength": 1936,
            "target": 34962
        },
        {
            "buffer": 0,
            "byteOffset": 11848,
            "byteLength": 968,
            "target": 34962
        },
        {
            "buffer": 0,
            "byteOffset": 12816,
            "byteLength": 1200,
            "target": 34963
        },
        {
            "buffer": 0,
            "byteOffset": 14016,
            "byteLength": 1452,
            "target": 34962
        },
        {
            "buffer": 0,
            "byteOffset": 15468,
            "byteLength": 1452,
            "target": 34962
        },
        {
            "buffer": 0,
            "byteOffset": 16920,
            "byteLength": 1936,
            "target": 34962
        },
        {
            "buffer": 0,
            "byteOffset": 18856,
            "byteLength": 968,
            "target": 34962
        },
        {
            "buffer": 0,
            "byteOffset": 19824,
            "byteLength": 1200,
            "target": 34963
        },
        {
            "buffer": 0,
            "byteOffset": 21024,
            "byteLength": 1452,
            "target": 34962
        },
        {
            "buffer": 0,
            "byteOffset": 22476,
            "byteLength": 1452,
            "target": 34962
        },
        {
            "buffer": 0,
            "byteOffset": 23928,
            "byteLength": 1936,
            "target": 34962
        },
        {
            "buffer": 0,
            "byteOffset": 25864,
            "byteLength": 968,
            "target": 34962
        },
        {
            "buffer": 0,
            "byteOffset": 26832,
            "byteLength": 1200,
            "target": 34963
        }
    ],
    "materials": [
        {
            "name": "standardSurface1",
            "pbrMetallicRoughness": {
                "baseColorFactor": [
                    0.4000000059604645,
                    0.4000000059604645,
                    0.4000000059604645,
                    1.0
                ],
                "metallicFactor": 0.0
            }
        }
    ],
    "meshes": [
        {
            "name": "pPlane2",
            "primitives": [
                {
                    "mode": 4,
                    "material": 0,
                    "indices": 4,
                    "attributes": {
                        "POSITION": 0,
                        "NORMAL": 1,
                        "TANGENT": 2,
                        "TEXCOORD_0": 3
                    }
                }
            ]
        },
        {
            "name": "pPlane3",
            "primitives": [
                {
                    "mode": 4,
                    "material": 0,
                    "indices": 9,
                    "attributes": {
                        "POSITION": 5,
                        "NORMAL": 6,
                        "TANGENT": 7,
                        "TEXCOORD_0": 8
                    }
                }
            ]
        },
        {
            "name": "pPlane5",
            "primitives": [
                {
                    "mode": 4,
                    "material": 0,
                    "indices": 14,
                    "attributes": {
                        "POSITION": 10,
                        "NORMAL": 11,
                        "TANGENT": 12,
                        "TEXCOORD_0": 13
                    }
                }
            ]
        },
        {
            "name": "pPlane6",
            "primitives": [
                {
                    "mode": 4,
                    "material": 0,
                    "indices": 19,
                    "attributes": {
                        "POSITION": 15,
                        "NORMAL": 16,
                        "TANGENT": 17,
                        "TEXCOORD_0": 18
                    }
                }
            ]
        }
    ],
    "nodes": [
        {
            "name": "RootNode",
            "matrix": [
                0.009999999776482582,
                0.0,
                0.0,
                0.0,
                0.0,
                0.009999999776482582,
                0.0,
                0.0,
                0.0,
                0.0,
                0.009999999776482582,
                0.0,
                0.0,
                0.0,
                0.0,
                1.0
            ],
            "children": [
                1
            ]
        },
        {
            "name": "lobby",
            "children": [
                2,
                3,
                4,
                5
            ]
        },
        {
            "name": "pPlane2",
            "mesh": 0
        },
        {
            "name": "pPlane3",
            "mesh": 1
        },
        {
            "name": "pPlane5",
            "mesh": 2
        },
        {
            "name": "pPlane6",
            "mesh": 3
        }
    ],
    "scenes": [
        {
            "nodes": [
                0
            ]
        }
    ],
    "scene": 0
}