{
    "asset" : {
        "generator" : "Khronos glTF Blender I/O v1.2.75",
        "version" : "2.0"
    },
    "scene" : 0,
    "scenes" : [
        {
            "name" : "Scene",
            "nodes" : [
                0
            ]
        }
    ],
    "nodes" : [
        {
            "mesh" : 0,
            "name" : "Brain_Final"
        }
    ],
    "materials" : [
        {
            "doubleSided" : true,
            "emissiveFactor" : [
                0,
                0,
                0
            ],
            "name" : "Brain_Baked",
            "normalTexture" : {
                "index" : 0,
                "texCoord" : 0
            },
            "pbrMetallicRoughness" : {
                "baseColorTexture" : {
                    "index" : 1,
                    "texCoord" : 0
                },
                "metallicFactor" : 0,
                "metallicRoughnessTexture" : {
                    "index" : 2,
                    "texCoord" : 0
                }
            }
        }
    ],
    "meshes" : [
        {
            "name" : "Brain",
            "primitives" : [
                {
                    "attributes" : {
                        "POSITION" : 0,
                        "NORMAL" : 1,
                        "TEXCOORD_0" : 2
                    },
                    "indices" : 3,
                    "material" : 0
                }
            ]
        }
    ],
    "textures" : [
        {
            "source" : 0
        },
        {
            "source" : 1
        },
        {
            "source" : 2
        }
    ],
    "images" : [
        {
            "mimeType" : "image/png",
            "name" : "NORMAL_Baked",
            "uri" : "NORMAL_Baked.png"
        },
        {
            "mimeType" : "image/png",
            "name" : "COLOUR_Baked",
            "uri" : "COLOUR_Baked.png"
        },
        {
            "mimeType" : "image/png",
            "name" : "METAL_ROUGH_baked",
            "uri" : "METAL_ROUGH_baked.png"
        }
    ],
    "accessors" : [
        {
            "bufferView" : 0,
            "componentType" : 5126,
            "count" : 3782,
            "max" : [
                0.3128495216369629,
                0.5805368423461914,
                0.3064557611942291
            ],
            "min" : [
                -0.2818496525287628,
                -0.00017206108896061778,
                -0.3137381672859192
            ],
            "type" : "VEC3"
        },
        {
            "bufferView" : 1,
            "componentType" : 5126,
            "count" : 3782,
            "type" : "VEC3"
        },
        {
            "bufferView" : 2,
            "componentType" : 5126,
            "count" : 3782,
            "type" : "VEC2"
        },
        {
            "bufferView" : 3,
            "componentType" : 5123,
            "count" : 21930,
            "type" : "SCALAR"
        }
    ],
    "bufferViews" : [
        {
            "buffer" : 0,
            "byteLength" : 45384,
            "byteOffset" : 0
        },
        {
            "buffer" : 0,
            "byteLength" : 45384,
            "byteOffset" : 45384
        },
        {
            "buffer" : 0,
            "byteLength" : 30256,
            "byteOffset" : 90768
        },
        {
            "buffer" : 0,
            "byteLength" : 43860,
            "byteOffset" : 121024
        }
    ],
    "buffers" : [
        {
            "byteLength" : 164884,
            "uri" : "Brain.bin"
        }
    ]
}
