{
  "accessors": [
    {
      "bufferView": 2,
      "componentType": 5126,
      "count": 24,
      "max": [
        484.86624145507812,
        1265.873046875,
        67.737091064453125
      ],
      "min": [
        -603.034423828125,
        -1211.652099609375,
        17.920135498046875
      ],
      "type": "VEC3"
    },
    {
      "bufferView": 2,
      "byteOffset": 288,
      "componentType": 5126,
      "count": 24,
      "max": [
        1,
        1,
        0
      ],
      "min": [
        -1,
        0,
        0
      ],
      "type": "VEC3"
    },
    {
      "bufferView": 1,
      "componentType": 5126,
      "count": 24,
      "max": [
        0.28847000002861023,
        0.52960199117660522
      ],
      "min": [
        0.26237699389457703,
        0.52866899967193604
      ],
      "type": "VEC2"
    },
    {
      "bufferView": 0,
      "componentType": 5125,
      "count": 24,
      "max": [
        23
      ],
      "min": [
        0
      ],
      "type": "SCALAR"
    },
    {
      "bufferView": 2,
      "byteOffset": 576,
      "componentType": 5126,
      "count": 8423,
      "max": [
        561.19537353515625,
        1230.635498046875,
        1108.70556640625
      ],
      "min": [
        -598.1644287109375,
        -1207.558349609375,
        -17.610595703125
      ],
      "type": "VEC3"
    },
    {
      "bufferView": 2,
      "byteOffset": 101652,
      "componentType": 5126,
      "count": 8423,
      "max": [
        1,
        1,
        1
      ],
      "min": [
        -1,
        -1,
        -1
      ],
      "type": "VEC3"
    },
    {
      "bufferView": 1,
      "byteOffset": 192,
      "componentType": 5126,
      "count": 8423,
      "max": [
        0.99887102842330933,
        0.99107599258422852
      ],
      "min": [
        0.13100700080394745,
        0.12356399744749069
      ],
      "type": "VEC2"
    },
    {
      "bufferView": 0,
      "byteOffset": 96,
      "componentType": 5125,
      "count": 20862,
      "max": [
        8422
      ],
      "min": [
        0
      ],
      "type": "SCALAR"
    },
    {
      "bufferView": 2,
      "byteOffset": 202728,
      "componentType": 5126,
      "count": 4160,
      "max": [
        195.54144287109375,
        1254.23095703125,
        1108.7054443359375
      ],
      "min": [
        -127.54600524902344,
        -714.76312255859375,
        104.58206939697266
      ],
      "type": "VEC3"
    },
    {
      "bufferView": 2,
      "byteOffset": 252648,
      "componentType": 5126,
      "count": 4160,
      "max": [
        1,
        1,
        1
      ],
      "min": [
        -1,
        -1,
        -1
      ],
      "type": "VEC3"
    },
    {
      "bufferView": 1,
      "byteOffset": 67576,
      "componentType": 5126,
      "count": 4160,
      "max": [
        0.9733080267906189,
        0.99107599258422852
      ],
      "min": [
        0.48000198602676392,
        0.023908000439405441
      ],
      "type": "VEC2"
    },
    {
      "bufferView": 0,
      "byteOffset": 83544,
      "componentType": 5125,
      "count": 10518,
      "max": [
        4159
      ],
      "min": [
        0
      ],
      "type": "SCALAR"
    },
    {
      "bufferView": 2,
      "byteOffset": 302568,
      "componentType": 5126,
      "count": 9693,
      "max": [
        497.25198364257812,
        1237.341064453125,
        124.30702209472656
      ],
      "min": [
        -559.09619140625,
        -1032.5406494140625,
        -1.0040630102157593
      ],
      "type": "VEC3"
    },
    {
      "bufferView": 2,
      "byteOffset": 418884,
      "componentType": 5126,
      "count": 9693,
      "max": [
        1,
        1,
        1
      ],
      "min": [
        -1,
        -1,
        -1
      ],
      "type": "VEC3"
    },
    {
      "bufferView": 1,
      "byteOffset": 100856,
      "componentType": 5126,
      "count": 9693,
      "max": [
        0.61144500970840454,
        0.9620400071144104
      ],
      "min": [
        0.15426699817180634,
        0.77424097061157227
      ],
      "type": "VEC2"
    },
    {
      "bufferView": 0,
      "byteOffset": 125616,
      "componentType": 5125,
      "count": 31812,
      "max": [
        9692
      ],
      "min": [
        0
      ],
      "type": "SCALAR"
    },
    {
      "bufferView": 2,
      "byteOffset": 535200,
      "componentType": 5126,
      "count": 12096,
      "max": [
        335.23171997070312,
        199.79475402832031,
        100.58721160888672
      ],
      "min": [
        -348.19332885742188,
        -876.16888427734375,
        -1.0041220188140869
      ],
      "type": "VEC3"
    },
    {
      "bufferView": 2,
      "byteOffset": 680352,
      "componentType": 5126,
      "count": 12096,
      "max": [
        1,
        1,
        1
      ],
      "min": [
        -1,
        -1,
        -1
      ],
      "type": "VEC3"
    },
    {
      "bufferView": 1,
      "byteOffset": 178400,
      "componentType": 5126,
      "count": 12096,
      "max": [
        0.50853997468948364,
        0.90298497676849365
      ],
      "min": [
        0.15426699817180634,
        0.77424097061157227
      ],
      "type": "VEC2"
    },
    {
      "bufferView": 0,
      "byteOffset": 252864,
      "componentType": 5125,
      "count": 18432,
      "max": [
        12095
      ],
      "min": [
        0
      ],
      "type": "SCALAR"
    },
    {
      "bufferView": 2,
      "byteOffset": 825504,
      "componentType": 5126,
      "count": 9064,
      "max": [
        597.55499267578125,
        1331.441162109375,
        1006.6817626953125
      ],
      "min": [
        -698.17584228515625,
        -1263.1583251953125,
        -25.544275283813477
      ],
      "type": "VEC3"
    },
    {
      "bufferView": 2,
      "byteOffset": 934272,
      "componentType": 5126,
      "count": 9064,
      "max": [
        1,
        1,
        1
      ],
      "min": [
        -1,
        -1,
        -1
      ],
      "type": "VEC3"
    },
    {
      "bufferView": 1,
      "byteOffset": 275168,
      "componentType": 5126,
      "count": 9064,
      "max": [
        0.99936497211456299,
        0.99812102317810059
      ],
      "min": [
        0.0016230000182986259,
        0.012879000045359135
      ],
      "type": "VEC2"
    },
    {
      "bufferView": 0,
      "byteOffset": 326592,
      "componentType": 5125,
      "count": 22620,
      "max": [
        9063
      ],
      "min": [
        0
      ],
      "type": "SCALAR"
    },
    {
      "bufferView": 2,
      "byteOffset": 1043040,
      "componentType": 5126,
      "count": 9674,
      "max": [
        558.3817138671875,
        1255.19775390625,
        635.7303466796875
      ],
      "min": [
        -603.40264892578125,
        -1224.0855712890625,
        -8.5801315307617188
      ],
      "type": "VEC3"
    },
    {
      "bufferView": 2,
      "byteOffset": 1159128,
      "componentType": 5126,
      "count": 9674,
      "max": [
        1,
        1,
        1
      ],
      "min": [
        -1,
        -1,
        -1
      ],
      "type": "VEC3"
    },
    {
      "bufferView": 1,
      "byteOffset": 347680,
      "componentType": 5126,
      "count": 9674,
      "max": [
        0.74312198162078857,
        0.8001059889793396
      ],
      "min": [
        0.03774699941277504,
        0.21269600093364716
      ],
      "type": "VEC2"
    },
    {
      "bufferView": 0,
      "byteOffset": 417072,
      "componentType": 5125,
      "count": 18636,
      "max": [
        9673
      ],
      "min": [
        0
      ],
      "type": "SCALAR"
    },
    {
      "bufferView": 2,
      "byteOffset": 1275216,
      "componentType": 5126,
      "count": 7763,
      "max": [
        650,
        1334.5517578125,
        508.79830932617188
      ],
      "min": [
        -623.05419921875,
        -1231.671875,
        -18.640758514404297
      ],
      "type": "VEC3"
    },
    {
      "bufferView": 2,
      "byteOffset": 1368372,
      "componentType": 5126,
      "count": 7763,
      "max": [
        1,
        1,
        1
      ],
      "min": [
        -1,
        -1,
        -1
      ],
      "type": "VEC3"
    },
    {
      "bufferView": 1,
      "byteOffset": 425072,
      "componentType": 5126,
      "count": 7763,
      "max": [
        0.99887102842330933,
        0.99032098054885864
      ],
      "min": [
        0.0070500001311302185,
        0.28759700059890747
      ],
      "type": "VEC2"
    },
    {
      "bufferView": 0,
      "byteOffset": 491616,
      "componentType": 5125,
      "count": 18636,
      "max": [
        7762
      ],
      "min": [
        0
      ],
      "type": "SCALAR"
    },
    {
      "bufferView": 2,
      "byteOffset": 1461528,
      "componentType": 5126,
      "count": 8358,
      "max": [
        486.1881103515625,
        1290.825927734375,
        412.11154174804688
      ],
      "min": [
        -627.9873046875,
        -1236.60498046875,
        -1.3936769962310791
      ],
      "type": "VEC3"
    },
    {
      "bufferView": 2,
      "byteOffset": 1561824,
      "componentType": 5126,
      "count": 8358,
      "max": [
        1,
        1,
        1
      ],
      "min": [
        -1,
        -1,
        -1
      ],
      "type": "VEC3"
    },
    {
      "bufferView": 1,
      "byteOffset": 487176,
      "componentType": 5126,
      "count": 8358,
      "max": [
        0.65334701538085938,
        0.85102897882461548
      ],
      "min": [
        0.20781199634075165,
        0.51055300235748291
      ],
      "type": "VEC2"
    },
    {
      "bufferView": 0,
      "byteOffset": 566160,
      "componentType": 5125,
      "count": 24243,
      "max": [
        8357
      ],
      "min": [
        0
      ],
      "type": "SCALAR"
    },
    {
      "bufferView": 2,
      "byteOffset": 1662120,
      "componentType": 5126,
      "count": 9996,
      "max": [
        505.680419921875,
        1290.825927734375,
        413.88720703125
      ],
      "min": [
        -627.9873046875,
        -1236.60498046875,
        -9.5715179443359375
      ],
      "type": "VEC3"
    },
    {
      "bufferView": 2,
      "byteOffset": 1782072,
      "componentType": 5126,
      "count": 9996,
      "max": [
        1,
        1,
        1
      ],
      "min": [
        -1,
        -1,
        -1
      ],
      "type": "VEC3"
    },
    {
      "bufferView": 1,
      "byteOffset": 554040,
      "componentType": 5126,
      "count": 9996,
      "max": [
        0.63445299863815308,
        0.99158400297164917
      ],
      "min": [
        0.22449700534343719,
        0.46545299887657166
      ],
      "type": "VEC2"
    },
    {
      "bufferView": 0,
      "byteOffset": 663132,
      "componentType": 5125,
      "count": 17088,
      "max": [
        9995
      ],
      "min": [
        0
      ],
      "type": "SCALAR"
    },
    {
      "bufferView": 2,
      "byteOffset": 1902024,
      "componentType": 5126,
      "count": 1888,
      "max": [
        459.9266357421875,
        1290.825927734375,
        398.12240600585938
      ],
      "min": [
        -627.9873046875,
        -1236.60498046875,
        105.8292236328125
      ],
      "type": "VEC3"
    },
    {
      "bufferView": 2,
      "byteOffset": 1924680,
      "componentType": 5126,
      "count": 1888,
      "max": [
        1,
        1,
        1
      ],
      "min": [
        -1,
        -1,
        -1
      ],
      "type": "VEC3"
    },
    {
      "bufferView": 1,
      "byteOffset": 634008,
      "componentType": 5126,
      "count": 1888,
      "max": [
        0.37513899803161621,
        0.62389898300170898
      ],
      "min": [
        0.22449700534343719,
        0.51055300235748291
      ],
      "type": "VEC2"
    },
    {
      "bufferView": 0,
      "byteOffset": 731484,
      "componentType": 5125,
      "count": 2832,
      "max": [
        1887
      ],
      "min": [
        0
      ],
      "type": "SCALAR"
    }
  ],
  "asset": {
    "extras": {
      "author": "circles_xr (https://sketchfab.com/circles_xr)",
      "license": "CC-BY-4.0 (http://creativecommons.org/licenses/by/4.0/)",
      "source": "https://sketchfab.com/3d-models/province-house-99e59f1559854b0f960435c7d9c3f7a5",
      "title": "Province House"
    },
    "generator": "Sketchfab-9.24.0",
    "version": "2.0"
  },
  "bufferViews": [
    {
      "buffer": 0,
      "byteLength": 742812,
      "byteOffset": 0,
      "name": "floatBufferViews",
      "target": 34963
    },
    {
      "buffer": 0,
      "byteLength": 649112,
      "byteOffset": 742812,
      "byteStride": 8,
      "name": "floatBufferViews",
      "target": 34962
    },
    {
      "buffer": 0,
      "byteLength": 1947336,
      "byteOffset": 1391924,
      "byteStride": 12,
      "name": "floatBufferViews",
      "target": 34962
    }
  ],
  "buffers": [
    {
      "byteLength": 3339260,
      "uri": "scene.bin"
    }
  ],
  "images": [
    {
      "uri": "textures/aiStandardSurface1SG_baseColor.jpeg"
    },
    {
      "uri": "textures/aiStandardSurface1SG_metallicRoughness.png"
    }
  ],
  "materials": [
    {
      "doubleSided": true,
      "emissiveFactor": [
        0,
        0,
        0
      ],
      "name": "aiStandardSurface1SG",
      "pbrMetallicRoughness": {
        "baseColorFactor": [
          1,
          1,
          1,
          1
        ],
        "baseColorTexture": {
          "index": 0,
          "texCoord": 0
        },
        "metallicFactor": 1,
        "metallicRoughnessTexture": {
          "index": 1,
          "texCoord": 0
        },
        "roughnessFactor": 1
      }
    }
  ],
  "meshes": [
    {
      "primitives": [
        {
          "attributes": {
            "NORMAL": 1,
            "POSITION": 0,
            "TEXCOORD_0": 2
          },
          "indices": 3,
          "material": 0,
          "mode": 4
        }
      ]
    },
    {
      "primitives": [
        {
          "attributes": {
            "NORMAL": 5,
            "POSITION": 4,
            "TEXCOORD_0": 6
          },
          "indices": 7,
          "material": 0,
          "mode": 4
        }
      ]
    },
    {
      "primitives": [
        {
          "attributes": {
            "NORMAL": 9,
            "POSITION": 8,
            "TEXCOORD_0": 10
          },
          "indices": 11,
          "material": 0,
          "mode": 4
        }
      ]
    },
    {
      "primitives": [
        {
          "attributes": {
            "NORMAL": 13,
            "POSITION": 12,
            "TEXCOORD_0": 14
          },
          "indices": 15,
          "material": 0,
          "mode": 4
        }
      ]
    },
    {
      "primitives": [
        {
          "attributes": {
            "NORMAL": 17,
            "POSITION": 16,
            "TEXCOORD_0": 18
          },
          "indices": 19,
          "material": 0,
          "mode": 4
        }
      ]
    },
    {
      "primitives": [
        {
          "attributes": {
            "NORMAL": 21,
            "POSITION": 20,
            "TEXCOORD_0": 22
          },
          "indices": 23,
          "material": 0,
          "mode": 4
        }
      ]
    },
    {
      "primitives": [
        {
          "attributes": {
            "NORMAL": 25,
            "POSITION": 24,
            "TEXCOORD_0": 26
          },
          "indices": 27,
          "material": 0,
          "mode": 4
        }
      ]
    },
    {
      "primitives": [
        {
          "attributes": {
            "NORMAL": 29,
            "POSITION": 28,
            "TEXCOORD_0": 30
          },
          "indices": 31,
          "material": 0,
          "mode": 4
        }
      ]
    },
    {
      "primitives": [
        {
          "attributes": {
            "NORMAL": 33,
            "POSITION": 32,
            "TEXCOORD_0": 34
          },
          "indices": 35,
          "material": 0,
          "mode": 4
        }
      ]
    },
    {
      "primitives": [
        {
          "attributes": {
            "NORMAL": 37,
            "POSITION": 36,
            "TEXCOORD_0": 38
          },
          "indices": 39,
          "material": 0,
          "mode": 4
        }
      ]
    },
    {
      "primitives": [
        {
          "attributes": {
            "NORMAL": 41,
            "POSITION": 40,
            "TEXCOORD_0": 42
          },
          "indices": 43,
          "material": 0,
          "mode": 4
        }
      ]
    }
  ],
  "nodes": [
    {
      "children": [
        1
      ],
      "name": "RootNode (gltf orientation matrix)",
      "rotation": [
        -0.70710678118654746,
        -0,
        -0,
        0.70710678118654757
      ]
    },
    {
      "children": [
        2
      ],
      "name": "RootNode (model correction matrix)"
    },
    {
      "children": [
        3,
        4,
        5,
        6,
        7,
        8,
        9,
        10,
        11,
        12,
        13
      ],
      "name": "province_house.obj.cleaner.materialmerger.gles"
    },
    {
      "mesh": 0,
      "name": ""
    },
    {
      "mesh": 1,
      "name": ""
    },
    {
      "mesh": 2,
      "name": ""
    },
    {
      "mesh": 3,
      "name": ""
    },
    {
      "mesh": 4,
      "name": ""
    },
    {
      "mesh": 5,
      "name": ""
    },
    {
      "mesh": 6,
      "name": ""
    },
    {
      "mesh": 7,
      "name": ""
    },
    {
      "mesh": 8,
      "name": ""
    },
    {
      "mesh": 9,
      "name": ""
    },
    {
      "mesh": 10,
      "name": ""
    }
  ],
  "samplers": [
    {
      "magFilter": 9729,
      "minFilter": 9987,
      "wrapS": 10497,
      "wrapT": 10497
    }
  ],
  "scene": 0,
  "scenes": [
    {
      "name": "OSG_Scene",
      "nodes": [
        0
      ]
    }
  ],
  "textures": [
    {
      "sampler": 0,
      "source": 0
    },
    {
      "sampler": 0,
      "source": 1
    }
  ]
}

