{
	"asset":{
		"generator":"Khronos glTF Blender I/O v4.3.47",
		"version":"2.0"
	},
	"scene":0,
	"scenes":[
		{
			"name":"Scene",
			"nodes":[
				0
			]
		}
	],
	"nodes":[
		{
			"mesh":0,
			"name":"Circle.005_Cabinet_0",
			"rotation":[
				-0.5275990962982178,
				0.4707857668399811,
				-0.527599036693573,
				0.4707857668399811
			],
			"scale":[
				1.179739236831665,
				1.179739236831665,
				1.1797387599945068
			],
			"translation":[
				-0.7391575574874878,
				0.4826236665248871,
				-0.9288575649261475
			]
		}
	],
	"materials":[
		{
			"doubleSided":true,
			"name":"Cabinet",
			"pbrMetallicRoughness":{
				"baseColorTexture":{
					"index":0
				},
				"metallicRoughnessTexture":{
					"index":1
				}
			}
		}
	],
	"meshes":[
		{
			"name":"Circle.005_Cabinet_0",
			"primitives":[
				{
					"attributes":{
						"POSITION":0,
						"NORMAL":1,
						"TEXCOORD_0":2
					},
					"indices":3,
					"material":0
				}
			]
		}
	],
	"textures":[
		{
			"sampler":0,
			"source":0
		},
		{
			"sampler":0,
			"source":1
		}
	],
	"images":[
		{
			"mimeType":"image/jpeg",
			"name":"Cabinet_baseColor",
			"uri":"Cabinet_baseColor.jpg"
		},
		{
			"mimeType":"image/jpeg",
			"name":"Cabinet_metallicRoughness",
			"uri":"Cabinet_metallicRoughness.jpg"
		}
	],
	"accessors":[
		{
			"bufferView":0,
			"componentType":5126,
			"count":6160,
			"max":[
				1.4088022708892822,
				1.1477601528167725,
				2.6773345470428467
			],
			"min":[
				-2.1329550743103027,
				-2.5045127868652344,
				-0.037008389830589294
			],
			"type":"VEC3"
		},
		{
			"bufferView":1,
			"componentType":5126,
			"count":6160,
			"type":"VEC3"
		},
		{
			"bufferView":2,
			"componentType":5126,
			"count":6160,
			"type":"VEC2"
		},
		{
			"bufferView":3,
			"componentType":5123,
			"count":16449,
			"type":"SCALAR"
		}
	],
	"bufferViews":[
		{
			"buffer":0,
			"byteLength":73920,
			"byteOffset":0,
			"target":34962
		},
		{
			"buffer":0,
			"byteLength":73920,
			"byteOffset":73920,
			"target":34962
		},
		{
			"buffer":0,
			"byteLength":49280,
			"byteOffset":147840,
			"target":34962
		},
		{
			"buffer":0,
			"byteLength":32898,
			"byteOffset":197120,
			"target":34963
		}
	],
	"samplers":[
		{
			"magFilter":9729,
			"minFilter":9987
		}
	],
	"buffers":[
		{
			"byteLength":230020,
			"uri":"cabinet.bin"
		}
	]
}
