{
    "asset" : {
        "generator" : "Khronos glTF Blender I/O v1.5.17",
        "version" : "2.0"
    },
    "scene" : 0,
    "scenes" : [
        {
            "name" : "Scene",
            "nodes" : [
                18
            ]
        }
    ],
    "nodes" : [
        {
            "mesh" : 0,
            "name" : "drill_geo polySurface107"
        },
        {
            "children" : [
                0
            ],
            "name" : "g drill_geo polySurface107"
        },
        {
            "mesh" : 1,
            "name" : "drill_geo polySurface109"
        },
        {
            "children" : [
                2
            ],
            "name" : "g drill_geo polySurface109"
        },
        {
            "mesh" : 2,
            "name" : "drill_geo polySurface110 polySurface112"
        },
        {
            "children" : [
                4
            ],
            "name" : "g drill_geo polySurface110 polySurface112"
        },
        {
            "mesh" : 3,
            "name" : "drill_geo polySurface111 polySurface110"
        },
        {
            "children" : [
                6
            ],
            "name" : "g drill_geo polySurface111 polySurface110"
        },
        {
            "mesh" : 4,
            "name" : "polySurface108 drill_geo polySurface114"
        },
        {
            "children" : [
                8
            ],
            "name" : "g polySurface108 drill_geo polySurface114"
        },
        {
            "mesh" : 5,
            "name" : "polySurface113 polySurface108 drill_geo polySurface116 poly"
        },
        {
            "children" : [
                10
            ],
            "name" : "g polySurface113 polySurface108 drill_geo polySurface116 po"
        },
        {
            "mesh" : 6,
            "name" : "polySurface113 polySurface108 drill_geo polySurface116 polySurf"
        },
        {
            "children" : [
                12
            ],
            "name" : "g polySurface113 polySurface108 drill_geo polySurface116 polySu"
        },
        {
            "mesh" : 7,
            "name" : "polySurface113 polySurface108 drill_geo polySurface119 polySurf"
        },
        {
            "children" : [
                14
            ],
            "name" : "g polySurface113 polySurface108 drill_geo polySurface119 polySu"
        },
        {
            "mesh" : 8,
            "name" : "polySurface115 polySurface113 polySurface108 drill_geo"
        },
        {
            "children" : [
                16
            ],
            "name" : "g polySurface115 polySurface113 polySurface108 drill_geo"
        },
        {
            "children" : [
                1,
                3,
                5,
                7,
                9,
                11,
                13,
                15,
                17
            ],
            "name" : "Drill.obj"
        }
    ],
    "materials" : [
        {
            "name" : "lambert7SG",
            "normalTexture" : {
                "index" : 0
            },
            "occlusionTexture" : {
                "index" : 1
            },
            "pbrMetallicRoughness" : {
                "baseColorTexture" : {
                    "index" : 2
                },
                "metallicRoughnessTexture" : {
                    "index" : 1
                }
            }
        }
    ],
    "meshes" : [
        {
            "name" : "drill_geo polySurface107",
            "primitives" : [
                {
                    "attributes" : {
                        "POSITION" : 0,
                        "NORMAL" : 1,
                        "TEXCOORD_0" : 2
                    },
                    "indices" : 3,
                    "material" : 0
                }
            ]
        },
        {
            "name" : "drill_geo polySurface109",
            "primitives" : [
                {
                    "attributes" : {
                        "POSITION" : 4,
                        "NORMAL" : 5,
                        "TEXCOORD_0" : 6
                    },
                    "indices" : 7,
                    "material" : 0
                }
            ]
        },
        {
            "name" : "drill_geo polySurface110 polySurface112",
            "primitives" : [
                {
                    "attributes" : {
                        "POSITION" : 8,
                        "NORMAL" : 9,
                        "TEXCOORD_0" : 10
                    },
                    "indices" : 11,
                    "material" : 0
                }
            ]
        },
        {
            "name" : "drill_geo polySurface111 polySurface110",
            "primitives" : [
                {
                    "attributes" : {
                        "POSITION" : 12,
                        "NORMAL" : 13,
                        "TEXCOORD_0" : 14
                    },
                    "indices" : 15,
                    "material" : 0
                }
            ]
        },
        {
            "name" : "polySurface108 drill_geo polySurface114",
            "primitives" : [
                {
                    "attributes" : {
                        "POSITION" : 16,
                        "NORMAL" : 17,
                        "TEXCOORD_0" : 18
                    },
                    "indices" : 19,
                    "material" : 0
                }
            ]
        },
        {
            "name" : "polySurface113 polySurface108 drill_geo polySurface116 poly",
            "primitives" : [
                {
                    "attributes" : {
                        "POSITION" : 20,
                        "NORMAL" : 21,
                        "TEXCOORD_0" : 22
                    },
                    "indices" : 23,
                    "material" : 0
                }
            ]
        },
        {
            "name" : "polySurface113 polySurface108 drill_geo polySurface116 polySurf",
            "primitives" : [
                {
                    "attributes" : {
                        "POSITION" : 24,
                        "NORMAL" : 25,
                        "TEXCOORD_0" : 26
                    },
                    "indices" : 27,
                    "material" : 0
                }
            ]
        },
        {
            "name" : "polySurface113 polySurface108 drill_geo polySurface119 polySurf",
            "primitives" : [
                {
                    "attributes" : {
                        "POSITION" : 28,
                        "NORMAL" : 29,
                        "TEXCOORD_0" : 30
                    },
                    "indices" : 31,
                    "material" : 0
                }
            ]
        },
        {
            "name" : "polySurface115 polySurface113 polySurface108 drill_geo",
            "primitives" : [
                {
                    "attributes" : {
                        "POSITION" : 32,
                        "NORMAL" : 33,
                        "TEXCOORD_0" : 34
                    },
                    "indices" : 35,
                    "material" : 0
                }
            ]
        }
    ],
    "textures" : [
        {
            "sampler" : 0,
            "source" : 0
        },
        {
            "sampler" : 0,
            "source" : 1
        },
        {
            "sampler" : 0,
            "source" : 2
        }
    ],
    "images" : [
        {
            "mimeType" : "image/jpeg",
            "name" : "Image_2",
            "uri" : "textures/Image_2.jpg"
        },
        {
            "mimeType" : "image/jpeg",
            "name" : "Image_1",
            "uri" : "textures/Image_1.jpg"
        },
        {
            "mimeType" : "image/jpeg",
            "name" : "Image_0",
            "uri" : "textures/Image_0.jpg"
        }
    ],
    "accessors" : [
        {
            "bufferView" : 0,
            "componentType" : 5126,
            "count" : 20,
            "max" : [
                0.009118310175836086,
                0.05781140923500061,
                -0.057116925716400146
            ],
            "min" : [
                -0.009118310175836086,
                0.021863270550966263,
                -0.08340934664011002
            ],
            "type" : "VEC3"
        },
        {
            "bufferView" : 1,
            "componentType" : 5126,
            "count" : 20,
            "type" : "VEC3"
        },
        {
            "bufferView" : 2,
            "componentType" : 5126,
            "count" : 20,
            "type" : "VEC2"
        },
        {
            "bufferView" : 3,
            "componentType" : 5123,
            "count" : 60,
            "type" : "SCALAR"
        },
        {
            "bufferView" : 4,
            "componentType" : 5126,
            "count" : 38,
            "max" : [
                0.051129139959812164,
                -0.06669524312019348,
                -0.004916920326650143
            ],
            "min" : [
                -0.051129139959812164,
                -0.12964719533920288,
                -0.20087607204914093
            ],
            "type" : "VEC3"
        },
        {
            "bufferView" : 5,
            "componentType" : 5126,
            "count" : 38,
            "type" : "VEC3"
        },
        {
            "bufferView" : 6,
            "componentType" : 5126,
            "count" : 38,
            "type" : "VEC2"
        },
        {
            "bufferView" : 7,
            "componentType" : 5123,
            "count" : 132,
            "type" : "SCALAR"
        },
        {
            "bufferView" : 8,
            "componentType" : 5126,
            "count" : 30,
            "max" : [
                0.029823219403624535,
                0.12749150395393372,
                0.09404020011425018
            ],
            "min" : [
                -0.029823219403624535,
                0.07406844943761826,
                0.023981530219316483
            ],
            "type" : "VEC3"
        },
        {
            "bufferView" : 9,
            "componentType" : 5126,
            "count" : 30,
            "type" : "VEC3"
        },
        {
            "bufferView" : 10,
            "componentType" : 5126,
            "count" : 30,
            "type" : "VEC2"
        },
        {
            "bufferView" : 11,
            "componentType" : 5123,
            "count" : 96,
            "type" : "SCALAR"
        },
        {
            "bufferView" : 12,
            "componentType" : 5126,
            "count" : 93,
            "max" : [
                0.045112330466508865,
                0.14595414698123932,
                0.023981530219316483
            ],
            "min" : [
                -0.045112330466508865,
                -0.06669522076845169,
                -0.18148794770240784
            ],
            "type" : "VEC3"
        },
        {
            "bufferView" : 13,
            "componentType" : 5126,
            "count" : 93,
            "type" : "VEC3"
        },
        {
            "bufferView" : 14,
            "componentType" : 5126,
            "count" : 93,
            "type" : "VEC2"
        },
        {
            "bufferView" : 15,
            "componentType" : 5123,
            "count" : 312,
            "type" : "SCALAR"
        },
        {
            "bufferView" : 16,
            "componentType" : 5126,
            "count" : 18,
            "max" : [
                0.006072330288589001,
                0.10672812908887863,
                0.15907345712184906
            ],
            "min" : [
                -0.006072330288589001,
                0.09435474872589111,
                0.09404020011425018
            ],
            "type" : "VEC3"
        },
        {
            "bufferView" : 17,
            "componentType" : 5126,
            "count" : 18,
            "type" : "VEC3"
        },
        {
            "bufferView" : 18,
            "componentType" : 5126,
            "count" : 18,
            "type" : "VEC2"
        },
        {
            "bufferView" : 19,
            "componentType" : 5123,
            "count" : 48,
            "type" : "SCALAR"
        },
        {
            "bufferView" : 20,
            "componentType" : 5126,
            "count" : 16,
            "max" : [
                0.03316149115562439,
                0.13348007202148438,
                0.16224052011966705
            ],
            "min" : [
                -0.03316149115562439,
                0.06760279834270477,
                0.15907345712184906
            ],
            "type" : "VEC3"
        },
        {
            "bufferView" : 21,
            "componentType" : 5126,
            "count" : 16,
            "type" : "VEC3"
        },
        {
            "bufferView" : 22,
            "componentType" : 5126,
            "count" : 16,
            "type" : "VEC2"
        },
        {
            "bufferView" : 23,
            "componentType" : 5123,
            "count" : 48,
            "type" : "SCALAR"
        },
        {
            "bufferView" : 24,
            "componentType" : 5126,
            "count" : 38,
            "max" : [
                0.03316149115562439,
                0.13348007202148438,
                0.21655596792697906
            ],
            "min" : [
                -0.03316149115562439,
                0.06760279834270477,
                0.21655596792697906
            ],
            "type" : "VEC3"
        },
        {
            "bufferView" : 25,
            "componentType" : 5126,
            "count" : 38,
            "type" : "VEC3"
        },
        {
            "bufferView" : 26,
            "componentType" : 5126,
            "count" : 38,
            "type" : "VEC2"
        },
        {
            "bufferView" : 27,
            "componentType" : 5123,
            "count" : 48,
            "type" : "SCALAR"
        },
        {
            "bufferView" : 28,
            "componentType" : 5126,
            "count" : 36,
            "max" : [
                0.03316149115562439,
                0.13348007202148438,
                0.21655596792697906
            ],
            "min" : [
                -0.03316149115562439,
                0.06760279834270477,
                0.16224052011966705
            ],
            "type" : "VEC3"
        },
        {
            "bufferView" : 29,
            "componentType" : 5126,
            "count" : 36,
            "type" : "VEC3"
        },
        {
            "bufferView" : 30,
            "componentType" : 5126,
            "count" : 36,
            "type" : "VEC2"
        },
        {
            "bufferView" : 31,
            "componentType" : 5123,
            "count" : 96,
            "type" : "SCALAR"
        },
        {
            "bufferView" : 32,
            "componentType" : 5126,
            "count" : 23,
            "max" : [
                0.026231421157717705,
                0.1265965849161148,
                0.17457939684391022
            ],
            "min" : [
                -0.026231421157717705,
                0.07448628544807434,
                0.17457939684391022
            ],
            "type" : "VEC3"
        },
        {
            "bufferView" : 33,
            "componentType" : 5126,
            "count" : 23,
            "type" : "VEC3"
        },
        {
            "bufferView" : 34,
            "componentType" : 5126,
            "count" : 23,
            "type" : "VEC2"
        },
        {
            "bufferView" : 35,
            "componentType" : 5123,
            "count" : 24,
            "type" : "SCALAR"
        }
    ],
    "bufferViews" : [
        {
            "buffer" : 0,
            "byteLength" : 240,
            "byteOffset" : 0
        },
        {
            "buffer" : 0,
            "byteLength" : 240,
            "byteOffset" : 240
        },
        {
            "buffer" : 0,
            "byteLength" : 160,
            "byteOffset" : 480
        },
        {
            "buffer" : 0,
            "byteLength" : 120,
            "byteOffset" : 640
        },
        {
            "buffer" : 0,
            "byteLength" : 456,
            "byteOffset" : 760
        },
        {
            "buffer" : 0,
            "byteLength" : 456,
            "byteOffset" : 1216
        },
        {
            "buffer" : 0,
            "byteLength" : 304,
            "byteOffset" : 1672
        },
        {
            "buffer" : 0,
            "byteLength" : 264,
            "byteOffset" : 1976
        },
        {
            "buffer" : 0,
            "byteLength" : 360,
            "byteOffset" : 2240
        },
        {
            "buffer" : 0,
            "byteLength" : 360,
            "byteOffset" : 2600
        },
        {
            "buffer" : 0,
            "byteLength" : 240,
            "byteOffset" : 2960
        },
        {
            "buffer" : 0,
            "byteLength" : 192,
            "byteOffset" : 3200
        },
        {
            "buffer" : 0,
            "byteLength" : 1116,
            "byteOffset" : 3392
        },
        {
            "buffer" : 0,
            "byteLength" : 1116,
            "byteOffset" : 4508
        },
        {
            "buffer" : 0,
            "byteLength" : 744,
            "byteOffset" : 5624
        },
        {
            "buffer" : 0,
            "byteLength" : 624,
            "byteOffset" : 6368
        },
        {
            "buffer" : 0,
            "byteLength" : 216,
            "byteOffset" : 6992
        },
        {
            "buffer" : 0,
            "byteLength" : 216,
            "byteOffset" : 7208
        },
        {
            "buffer" : 0,
            "byteLength" : 144,
            "byteOffset" : 7424
        },
        {
            "buffer" : 0,
            "byteLength" : 96,
            "byteOffset" : 7568
        },
        {
            "buffer" : 0,
            "byteLength" : 192,
            "byteOffset" : 7664
        },
        {
            "buffer" : 0,
            "byteLength" : 192,
            "byteOffset" : 7856
        },
        {
            "buffer" : 0,
            "byteLength" : 128,
            "byteOffset" : 8048
        },
        {
            "buffer" : 0,
            "byteLength" : 96,
            "byteOffset" : 8176
        },
        {
            "buffer" : 0,
            "byteLength" : 456,
            "byteOffset" : 8272
        },
        {
            "buffer" : 0,
            "byteLength" : 456,
            "byteOffset" : 8728
        },
        {
            "buffer" : 0,
            "byteLength" : 304,
            "byteOffset" : 9184
        },
        {
            "buffer" : 0,
            "byteLength" : 96,
            "byteOffset" : 9488
        },
        {
            "buffer" : 0,
            "byteLength" : 432,
            "byteOffset" : 9584
        },
        {
            "buffer" : 0,
            "byteLength" : 432,
            "byteOffset" : 10016
        },
        {
            "buffer" : 0,
            "byteLength" : 288,
            "byteOffset" : 10448
        },
        {
            "buffer" : 0,
            "byteLength" : 192,
            "byteOffset" : 10736
        },
        {
            "buffer" : 0,
            "byteLength" : 276,
            "byteOffset" : 10928
        },
        {
            "buffer" : 0,
            "byteLength" : 276,
            "byteOffset" : 11204
        },
        {
            "buffer" : 0,
            "byteLength" : 184,
            "byteOffset" : 11480
        },
        {
            "buffer" : 0,
            "byteLength" : 48,
            "byteOffset" : 11664
        }
    ],
    "samplers" : [
        {
            "magFilter" : 9729,
            "minFilter" : 9987
        }
    ],
    "buffers" : [
        {
            "byteLength" : 11712,
            "uri" : "scene.bin"
        }
    ]
}
