{
	"asset":{
		"generator":"Khronos glTF Blender I/O v4.3.47",
		"version":"2.0"
	},
	"scene":0,
	"scenes":[
		{
			"name":"Scene",
			"nodes":[
				1,
				4,
				6,
				10
			]
		}
	],
	"nodes":[
		{
			"name":"Wall1"
		},
		{
			"children":[
				0
			],
			"name":"RootNode",
			"scale":[
				0.26185449957847595,
				0.26185449957847595,
				0.26185449957847595
			]
		},
		{
			"name":"Floor"
		},
		{
			"children":[
				2
			],
			"name":"group1",
			"scale":[
				2.683534622192383,
				2.1958041191101074,
				3.6853270530700684
			]
		},
		{
			"children":[
				3
			],
			"name":"RootNode.001",
			"scale":[
				0.2583776116371155,
				0.2583776116371155,
				0.2583776116371155
			]
		},
		{
			"name":"wood1"
		},
		{
			"children":[
				5
			],
			"name":"RootNode.002",
			"scale":[
				0.009999999776482582,
				0.009999999776482582,
				0.009999999776482582
			]
		},
		{
			"mesh":0,
			"name":"Ceiling.001",
			"translation":[
				0,
				-0.11166572570800781,
				0
			]
		},
		{
			"children":[
				7
			],
			"name":"Ceiling",
			"scale":[
				1.0125001668930054,
				1,
				1.0125000476837158
			],
			"translation":[
				0,
				10.22484016418457,
				0
			]
		},
		{
			"children":[
				8
			],
			"name":"group1.001",
			"scale":[
				2.683534860610962,
				2.1958043575286865,
				3.6853272914886475
			]
		},
		{
			"children":[
				9
			],
			"name":"RootNode.003",
			"scale":[
				0.2645038664340973,
				0.2645038664340973,
				0.2645038664340973
			]
		}
	],
	"materials":[
		{
			"name":"ceiling_1001",
			"normalTexture":{
				"index":0
			},
			"occlusionTexture":{
				"index":1
			},
			"pbrMetallicRoughness":{
				"baseColorTexture":{
					"index":2
				},
				"metallicRoughnessTexture":{
					"index":1
				}
			}
		},
		{
			"name":"wall_1001",
			"normalTexture":{
				"index":3
			},
			"occlusionTexture":{
				"index":4
			},
			"pbrMetallicRoughness":{
				"baseColorTexture":{
					"index":5
				},
				"metallicRoughnessTexture":{
					"index":4
				}
			}
		},
		{
			"name":"floor_1001",
			"normalTexture":{
				"index":6
			},
			"occlusionTexture":{
				"index":7
			},
			"pbrMetallicRoughness":{
				"baseColorTexture":{
					"index":8
				},
				"metallicRoughnessTexture":{
					"index":7
				}
			}
		},
		{
			"name":"wood_1001",
			"normalTexture":{
				"index":9
			},
			"occlusionTexture":{
				"index":10
			},
			"pbrMetallicRoughness":{
				"baseColorTexture":{
					"index":11
				},
				"metallicRoughnessTexture":{
					"index":10
				}
			}
		}
	],
	"meshes":[
		{
			"name":"Ceiling",
			"primitives":[
				{
					"attributes":{
						"POSITION":0,
						"NORMAL":1,
						"TEXCOORD_0":2
					},
					"indices":3,
					"material":0
				},
				{
					"attributes":{
						"POSITION":4,
						"NORMAL":5,
						"TEXCOORD_0":6
					},
					"indices":7,
					"material":1
				},
				{
					"attributes":{
						"POSITION":8,
						"NORMAL":9,
						"TEXCOORD_0":10
					},
					"indices":11,
					"material":2
				},
				{
					"attributes":{
						"POSITION":12,
						"NORMAL":13,
						"TEXCOORD_0":14
					},
					"indices":15,
					"material":3
				}
			]
		}
	],
	"textures":[
		{
			"sampler":0,
			"source":0
		},
		{
			"sampler":0,
			"source":1
		},
		{
			"sampler":0,
			"source":2
		},
		{
			"sampler":0,
			"source":3
		},
		{
			"sampler":0,
			"source":4
		},
		{
			"sampler":0,
			"source":5
		},
		{
			"sampler":0,
			"source":6
		},
		{
			"sampler":0,
			"source":7
		},
		{
			"sampler":0,
			"source":8
		},
		{
			"sampler":0,
			"source":9
		},
		{
			"sampler":0,
			"source":10
		},
		{
			"sampler":0,
			"source":11
		}
	],
	"images":[
		{
			"mimeType":"image/png",
			"name":"Image_2",
			"uri":"room/Image_2.png"
		},
		{
			"mimeType":"image/png",
			"name":"Image_1",
			"uri":"room/Image_1.png"
		},
		{
			"mimeType":"image/png",
			"name":"Image_0",
			"uri":"room/Image_0.png"
		},
		{
			"mimeType":"image/png",
			"name":"Image_2",
			"uri":"room/Image_2-1.png"
		},
		{
			"mimeType":"image/png",
			"name":"Image_1",
			"uri":"room/Image_1-1.png"
		},
		{
			"mimeType":"image/png",
			"name":"Image_0",
			"uri":"room/Image_0-1.png"
		},
		{
			"mimeType":"image/png",
			"name":"Image_2",
			"uri":"room/Image_2-2.png"
		},
		{
			"mimeType":"image/png",
			"name":"Image_1",
			"uri":"room/Image_1-2.png"
		},
		{
			"mimeType":"image/png",
			"name":"Image_0",
			"uri":"room/Image_0-2.png"
		},
		{
			"mimeType":"image/png",
			"name":"Image_2",
			"uri":"room/Image_2-3.png"
		},
		{
			"mimeType":"image/png",
			"name":"Image_1",
			"uri":"room/Image_1-3.png"
		},
		{
			"mimeType":"image/png",
			"name":"Image_0",
			"uri":"room/Image_0-3.png"
		}
	],
	"accessors":[
		{
			"bufferView":0,
			"componentType":5126,
			"count":342,
			"max":[
				7.999999523162842,
				0.09999921917915344,
				8
			],
			"min":[
				-7.999999523162842,
				-4.470348358154297e-07,
				-8
			],
			"type":"VEC3"
		},
		{
			"bufferView":1,
			"componentType":5126,
			"count":342,
			"type":"VEC3"
		},
		{
			"bufferView":2,
			"componentType":5126,
			"count":342,
			"type":"VEC2"
		},
		{
			"bufferView":3,
			"componentType":5123,
			"count":1536,
			"type":"SCALAR"
		},
		{
			"bufferView":4,
			"componentType":5126,
			"count":1405,
			"max":[
				7.9198689460754395,
				0.029270172119140625,
				7.919868469238281
			],
			"min":[
				-7.9198689460754395,
				-10.2027587890625,
				-7.919868469238281
			],
			"type":"VEC3"
		},
		{
			"bufferView":5,
			"componentType":5126,
			"count":1405,
			"type":"VEC3"
		},
		{
			"bufferView":6,
			"componentType":5126,
			"count":1405,
			"type":"VEC2"
		},
		{
			"bufferView":7,
			"componentType":5123,
			"count":6144,
			"type":"SCALAR"
		},
		{
			"bufferView":8,
			"componentType":5126,
			"count":354,
			"max":[
				7.872595310211182,
				-10.113176345825195,
				7.872594833374023
			],
			"min":[
				-7.872595310211182,
				-10.212814331054688,
				-7.872594833374023
			],
			"type":"VEC3"
		},
		{
			"bufferView":9,
			"componentType":5126,
			"count":354,
			"type":"VEC3"
		},
		{
			"bufferView":10,
			"componentType":5126,
			"count":354,
			"type":"VEC2"
		},
		{
			"bufferView":11,
			"componentType":5123,
			"count":1536,
			"type":"SCALAR"
		},
		{
			"bufferView":12,
			"componentType":5126,
			"count":96,
			"max":[
				7.745824813842773,
				0.0189361572265625,
				7.998290538787842
			],
			"min":[
				-7.707235813140869,
				-0.4324216842651367,
				-7.968456745147705
			],
			"type":"VEC3"
		},
		{
			"bufferView":13,
			"componentType":5126,
			"count":96,
			"type":"VEC3"
		},
		{
			"bufferView":14,
			"componentType":5126,
			"count":96,
			"type":"VEC2"
		},
		{
			"bufferView":15,
			"componentType":5123,
			"count":144,
			"type":"SCALAR"
		}
	],
	"bufferViews":[
		{
			"buffer":0,
			"byteLength":4104,
			"byteOffset":0,
			"target":34962
		},
		{
			"buffer":0,
			"byteLength":4104,
			"byteOffset":4104,
			"target":34962
		},
		{
			"buffer":0,
			"byteLength":2736,
			"byteOffset":8208,
			"target":34962
		},
		{
			"buffer":0,
			"byteLength":3072,
			"byteOffset":10944,
			"target":34963
		},
		{
			"buffer":0,
			"byteLength":16860,
			"byteOffset":14016,
			"target":34962
		},
		{
			"buffer":0,
			"byteLength":16860,
			"byteOffset":30876,
			"target":34962
		},
		{
			"buffer":0,
			"byteLength":11240,
			"byteOffset":47736,
			"target":34962
		},
		{
			"buffer":0,
			"byteLength":12288,
			"byteOffset":58976,
			"target":34963
		},
		{
			"buffer":0,
			"byteLength":4248,
			"byteOffset":71264,
			"target":34962
		},
		{
			"buffer":0,
			"byteLength":4248,
			"byteOffset":75512,
			"target":34962
		},
		{
			"buffer":0,
			"byteLength":2832,
			"byteOffset":79760,
			"target":34962
		},
		{
			"buffer":0,
			"byteLength":3072,
			"byteOffset":82592,
			"target":34963
		},
		{
			"buffer":0,
			"byteLength":1152,
			"byteOffset":85664,
			"target":34962
		},
		{
			"buffer":0,
			"byteLength":1152,
			"byteOffset":86816,
			"target":34962
		},
		{
			"buffer":0,
			"byteLength":768,
			"byteOffset":87968,
			"target":34962
		},
		{
			"buffer":0,
			"byteLength":288,
			"byteOffset":88736,
			"target":34963
		}
	],
	"samplers":[
		{
			"magFilter":9729,
			"minFilter":9987
		}
	],
	"buffers":[
		{
			"byteLength":89024,
			"uri":"room.bin"
		}
	]
}
