{
	"asset":{
		"generator":"Khronos glTF Blender I/O v4.3.47",
		"version":"2.0"
	},
	"scene":0,
	"scenes":[
		{
			"name":"Scene",
			"nodes":[
				0
			]
		}
	],
	"nodes":[
		{
			"mesh":0,
			"name":"Wall1.003",
			"scale":[
				0.26311779022216797,
				0.26311779022216797,
				0.26311779022216797
			]
		}
	],
	"materials":[
		{
			"name":"wall_1001.003",
			"occlusionTexture":{
				"index":0
			},
			"pbrMetallicRoughness":{
				"baseColorTexture":{
					"index":1
				},
				"metallicRoughnessTexture":{
					"index":0
				}
			}
		},
		{
			"name":"ceiling_1001.003",
			"occlusionTexture":{
				"index":2
			},
			"pbrMetallicRoughness":{
				"baseColorTexture":{
					"index":3
				},
				"metallicRoughnessTexture":{
					"index":2
				}
			}
		},
		{
			"name":"floor_1001.002",
			"occlusionTexture":{
				"index":4
			},
			"pbrMetallicRoughness":{
				"baseColorTexture":{
					"index":5
				},
				"metallicRoughnessTexture":{
					"index":4
				}
			}
		},
		{
			"name":"wood_1001.003",
			"occlusionTexture":{
				"index":6
			},
			"pbrMetallicRoughness":{
				"baseColorTexture":{
					"index":7
				},
				"metallicRoughnessTexture":{
					"index":6
				}
			}
		}
	],
	"meshes":[
		{
			"name":"Wall1",
			"primitives":[
				{
					"attributes":{
						"POSITION":0,
						"NORMAL":1,
						"TEXCOORD_0":2
					},
					"indices":3,
					"material":0
				},
				{
					"attributes":{
						"POSITION":4,
						"NORMAL":5,
						"TEXCOORD_0":6
					},
					"indices":7,
					"material":1
				},
				{
					"attributes":{
						"POSITION":8,
						"NORMAL":9,
						"TEXCOORD_0":10
					},
					"indices":11,
					"material":2
				},
				{
					"attributes":{
						"POSITION":12,
						"NORMAL":13,
						"TEXCOORD_0":14
					},
					"indices":15,
					"material":3
				}
			]
		}
	],
	"textures":[
		{
			"sampler":0,
			"source":0
		},
		{
			"sampler":0,
			"source":1
		},
		{
			"sampler":0,
			"source":2
		},
		{
			"sampler":0,
			"source":3
		},
		{
			"sampler":0,
			"source":4
		},
		{
			"sampler":0,
			"source":5
		},
		{
			"sampler":0,
			"source":6
		},
		{
			"sampler":0,
			"source":7
		}
	],
	"images":[
		{
			"mimeType":"image/jpeg",
			"name":"wallRough",
			"uri":"textures/wallRough.jpg"
		},
		{
			"mimeType":"image/jpeg",
			"name":"Wall",
			"uri":"textures/Wall.jpg"
		},
		{
			"mimeType":"image/jpeg",
			"name":"ceilingRough",
			"uri":"textures/ceilingRough.jpg"
		},
		{
			"mimeType":"image/jpeg",
			"name":"Ceiling",
			"uri":"textures/Ceiling.jpg"
		},
		{
			"mimeType":"image/jpeg",
			"name":"floorRough",
			"uri":"textures/floorRough.jpg"
		},
		{
			"mimeType":"image/jpeg",
			"name":"floor",
			"uri":"textures/floor.jpg"
		},
		{
			"mimeType":"image/jpeg",
			"name":"woodRough",
			"uri":"textures/woodRough.jpg"
		},
		{
			"mimeType":"image/jpeg",
			"name":"wood",
			"uri":"textures/wood.jpg"
		}
	],
	"accessors":[
		{
			"bufferView":0,
			"componentType":5126,
			"count":1425,
			"max":[
				21.736635208129883,
				22.496158599853516,
				29.851152420043945
			],
			"min":[
				-21.736635208129883,
				-0.19869613647460938,
				-29.851152420043945
			],
			"type":"VEC3"
		},
		{
			"bufferView":1,
			"componentType":5126,
			"count":1425,
			"type":"VEC3"
		},
		{
			"bufferView":2,
			"componentType":5126,
			"count":1425,
			"type":"VEC2"
		},
		{
			"bufferView":3,
			"componentType":5123,
			"count":6144,
			"type":"SCALAR"
		},
		{
			"bufferView":4,
			"componentType":5126,
			"count":360,
			"max":[
				21.736631393432617,
				22.671329498291016,
				29.851154327392578
			],
			"min":[
				-21.736631393432617,
				22.451749801635742,
				-29.851154327392578
			],
			"type":"VEC3"
		},
		{
			"bufferView":5,
			"componentType":5126,
			"count":360,
			"type":"VEC3"
		},
		{
			"bufferView":6,
			"componentType":5126,
			"count":360,
			"type":"VEC2"
		},
		{
			"bufferView":7,
			"componentType":5123,
			"count":1536,
			"type":"SCALAR"
		},
		{
			"bufferView":8,
			"componentType":5126,
			"count":376,
			"max":[
				21.468278884887695,
				0.21958044171333313,
				29.482616424560547
			],
			"min":[
				-21.468278884887695,
				0,
				-29.482616424560547
			],
			"type":"VEC3"
		},
		{
			"bufferView":9,
			"componentType":5126,
			"count":376,
			"type":"VEC3"
		},
		{
			"bufferView":10,
			"componentType":5126,
			"count":376,
			"type":"VEC2"
		},
		{
			"bufferView":11,
			"componentType":5123,
			"count":1536,
			"type":"SCALAR"
		},
		{
			"bufferView":12,
			"componentType":5126,
			"count":96,
			"max":[
				21.23515510559082,
				22.44807243347168,
				28.362606048583984
			],
			"min":[
				-21.129364013671875,
				21.44807243347168,
				-28.256813049316406
			],
			"type":"VEC3"
		},
		{
			"bufferView":13,
			"componentType":5126,
			"count":96,
			"type":"VEC3"
		},
		{
			"bufferView":14,
			"componentType":5126,
			"count":96,
			"type":"VEC2"
		},
		{
			"bufferView":15,
			"componentType":5123,
			"count":144,
			"type":"SCALAR"
		}
	],
	"bufferViews":[
		{
			"buffer":0,
			"byteLength":17100,
			"byteOffset":0,
			"target":34962
		},
		{
			"buffer":0,
			"byteLength":17100,
			"byteOffset":17100,
			"target":34962
		},
		{
			"buffer":0,
			"byteLength":11400,
			"byteOffset":34200,
			"target":34962
		},
		{
			"buffer":0,
			"byteLength":12288,
			"byteOffset":45600,
			"target":34963
		},
		{
			"buffer":0,
			"byteLength":4320,
			"byteOffset":57888,
			"target":34962
		},
		{
			"buffer":0,
			"byteLength":4320,
			"byteOffset":62208,
			"target":34962
		},
		{
			"buffer":0,
			"byteLength":2880,
			"byteOffset":66528,
			"target":34962
		},
		{
			"buffer":0,
			"byteLength":3072,
			"byteOffset":69408,
			"target":34963
		},
		{
			"buffer":0,
			"byteLength":4512,
			"byteOffset":72480,
			"target":34962
		},
		{
			"buffer":0,
			"byteLength":4512,
			"byteOffset":76992,
			"target":34962
		},
		{
			"buffer":0,
			"byteLength":3008,
			"byteOffset":81504,
			"target":34962
		},
		{
			"buffer":0,
			"byteLength":3072,
			"byteOffset":84512,
			"target":34963
		},
		{
			"buffer":0,
			"byteLength":1152,
			"byteOffset":87584,
			"target":34962
		},
		{
			"buffer":0,
			"byteLength":1152,
			"byteOffset":88736,
			"target":34962
		},
		{
			"buffer":0,
			"byteLength":768,
			"byteOffset":89888,
			"target":34962
		},
		{
			"buffer":0,
			"byteLength":288,
			"byteOffset":90656,
			"target":34963
		}
	],
	"samplers":[
		{
			"magFilter":9729,
			"minFilter":9987
		}
	],
	"buffers":[
		{
			"byteLength":90944,
			"uri":"room.bin"
		}
	]
}
