{
    "asset" : {
        "generator" : "Khronos glTF Blender I/O v1.2.75",
        "version" : "2.0"
    },
    "scene" : 0,
    "scenes" : [
        {
            "name" : "Scene",
            "nodes" : [
                0
            ]
        }
    ],
    "nodes" : [
        {
            "mesh" : 0,
            "name" : "TelephonePole"
        }
    ],
    "materials" : [
        {
            "doubleSided" : true,
            "emissiveFactor" : [
                0,
                0,
                0
            ],
            "name" : "TelephonePole",
            "normalTexture" : {
                "index" : 0,
                "texCoord" : 0
            },
            "pbrMetallicRoughness" : {
                "baseColorTexture" : {
                    "index" : 1,
                    "texCoord" : 0
                },
                "metallicRoughnessTexture" : {
                    "index" : 2,
                    "texCoord" : 0
                }
            }
        }
    ],
    "meshes" : [
        {
            "name" : "pCylinder85_Wires_0.003",
            "primitives" : [
                {
                    "attributes" : {
                        "POSITION" : 0,
                        "NORMAL" : 1,
                        "TEXCOORD_0" : 2
                    },
                    "indices" : 3,
                    "material" : 0
                }
            ]
        }
    ],
    "textures" : [
        {
            "source" : 0
        },
        {
            "source" : 1
        },
        {
            "source" : 2
        }
    ],
    "images" : [
        {
            "mimeType" : "image/png",
            "name" : "NORMAL_Baked_512",
            "uri" : "NORMAL_Baked_512.png"
        },
        {
            "mimeType" : "image/png",
            "name" : "COLOR_Baked_512",
            "uri" : "COLOR_Baked_512.png"
        },
        {
            "mimeType" : "image/png",
            "name" : "RM_Baked_512",
            "uri" : "RM_Baked_512.png"
        }
    ],
    "accessors" : [
        {
            "bufferView" : 0,
            "componentType" : 5126,
            "count" : 21915,
            "max" : [
                1.6398859024047852,
                7.639716148376465,
                7.333498477935791
            ],
            "min" : [
                -1.6398859024047852,
                -0.03657767176628113,
                -7.452128887176514
            ],
            "type" : "VEC3"
        },
        {
            "bufferView" : 1,
            "componentType" : 5126,
            "count" : 21915,
            "type" : "VEC3"
        },
        {
            "bufferView" : 2,
            "componentType" : 5126,
            "count" : 21915,
            "type" : "VEC2"
        },
        {
            "bufferView" : 3,
            "componentType" : 5123,
            "count" : 39945,
            "type" : "SCALAR"
        }
    ],
    "bufferViews" : [
        {
            "buffer" : 0,
            "byteLength" : 262980,
            "byteOffset" : 0
        },
        {
            "buffer" : 0,
            "byteLength" : 262980,
            "byteOffset" : 262980
        },
        {
            "buffer" : 0,
            "byteLength" : 175320,
            "byteOffset" : 525960
        },
        {
            "buffer" : 0,
            "byteLength" : 79890,
            "byteOffset" : 701280
        }
    ],
    "buffers" : [
        {
            "byteLength" : 781172,
            "uri" : "TelephonePole.bin"
        }
    ]
}
