{
  "accessors": [
    {
      "bufferView": 2,
      "componentType": 5126,
      "count": 22721,
      "max": [
        0.5425631403923035,
        0.5734133124351501,
        1.3429700136184692
      ],
      "min": [
        -0.5425631403923035,
        -0.5736683011054993,
        -1.013564944267273
      ],
      "type": "VEC3"
    },
    {
      "bufferView": 2,
      "byteOffset": 272652,
      "componentType": 5126,
      "count": 22721,
      "max": [
        1.0,
        1.0,
        1.0
      ],
      "min": [
        -1.0,
        -1.0,
        -1.0
      ],
      "type": "VEC3"
    },
    {
      "bufferView": 3,
      "componentType": 5126,
      "count": 22721,
      "max": [
        1.0,
        1.0,
        0.9999998211860657,
        1.0
      ],
      "min": [
        -1.0,
        -1.0,
        -1.0,
        -1.0
      ],
      "type": "VEC4"
    },
    {
      "bufferView": 1,
      "componentType": 5126,
      "count": 22721,
      "max": [
        0.9956810474395752,
        0.9987589716911316
      ],
      "min": [
        0.016304634511470795,
        0.013177125714719296
      ],
      "type": "VEC2"
    },
    {
      "bufferView": 1,
      "byteOffset": 181768,
      "componentType": 5126,
      "count": 22721,
      "max": [
        1.000687837600708,
        0.9979801774024963
      ],
      "min": [
        -0.0005577966803684831,
        0.00012166051601525396
      ],
      "type": "VEC2"
    },
    {
      "bufferView": 0,
      "componentType": 5125,
      "count": 59349,
      "type": "SCALAR"
    }
  ],
  "asset": {
    "extras": {
      "author": "tashtego (https://sketchfab.com/tashtego)",
      "license": "CC-BY-NC-4.0 (http://creativecommons.org/licenses/by-nc/4.0/)",
      "source": "https://sketchfab.com/3d-models/vostok-1-6dfff011b8df4b0891366aab8b6b0349",
      "title": "Vostok 1"
    },
    "generator": "Sketchfab-12.68.0",
    "version": "2.0"
  },
  "bufferViews": [
    {
      "buffer": 0,
      "byteLength": 237396,
      "name": "floatBufferViews",
      "target": 34963
    },
    {
      "buffer": 0,
      "byteLength": 363536,
      "byteOffset": 237396,
      "byteStride": 8,
      "name": "floatBufferViews",
      "target": 34962
    },
    {
      "buffer": 0,
      "byteLength": 545304,
      "byteOffset": 600932,
      "byteStride": 12,
      "name": "floatBufferViews",
      "target": 34962
    },
    {
      "buffer": 0,
      "byteLength": 363536,
      "byteOffset": 1146236,
      "byteStride": 16,
      "name": "floatBufferViews",
      "target": 34962
    }
  ],
  "buffers": [
    {
      "byteLength": 1509772,
      "uri": "scene.bin"
    }
  ],
  "images": [
    {
      "uri": "textures/vostok1_color_baseColor.png"
    },
    {
      "uri": "textures/vostok1_color_metallicRoughness.png"
    },
    {
      "uri": "textures/vostok1_color_normal.png"
    }
  ],
  "materials": [
    {
      "name": "vostok1_color",
      "normalTexture": {
        "index": 2
      },
      "occlusionTexture": {
        "index": 1
      },
      "pbrMetallicRoughness": {
        "baseColorTexture": {
          "index": 0
        },
        "metallicRoughnessTexture": {
          "index": 1
        },
        "roughnessFactor": 0.29
      }
    }
  ],
  "meshes": [
    {
      "name": "Vostok-1_vostok1_color_0",
      "primitives": [
        {
          "attributes": {
            "NORMAL": 1,
            "POSITION": 0,
            "TANGENT": 2,
            "TEXCOORD_0": 3,
            "TEXCOORD_1": 4
          },
          "indices": 5,
          "material": 0,
          "mode": 4
        }
      ]
    }
  ],
  "nodes": [
    {
      "children": [
        1
      ],
      "matrix": [
        1.0,
        0.0,
        0.0,
        0.0,
        0.0,
        2.220446049250313e-16,
        -1.0,
        0.0,
        0.0,
        1.0,
        2.220446049250313e-16,
        0.0,
        0.0,
        0.0,
        0.0,
        1.0
      ],
      "name": "Sketchfab_model"
    },
    {
      "children": [
        2
      ],
      "matrix": [
        1.0,
        0.0,
        0.0,
        0.0,
        0.0,
        0.0,
        1.0,
        0.0,
        0.0,
        -1.0,
        0.0,
        0.0,
        0.0,
        0.0,
        0.0,
        1.0
      ],
      "name": "883861c2781d479bbcd0387802f6b510.fbx"
    },
    {
      "children": [
        3
      ],
      "name": "RootNode"
    },
    {
      "children": [
        4
      ],
      "name": "Vostok-1"
    },
    {
      "mesh": 0,
      "name": "Vostok-1_vostok1_color_0"
    }
  ],
  "samplers": [
    {
      "magFilter": 9729,
      "minFilter": 9987,
      "wrapS": 10497,
      "wrapT": 10497
    }
  ],
  "scene": 0,
  "scenes": [
    {
      "name": "Sketchfab_Scene",
      "nodes": [
        0
      ]
    }
  ],
  "textures": [
    {
      "sampler": 0,
      "source": 0
    },
    {
      "sampler": 0,
      "source": 1
    },
    {
      "sampler": 0,
      "source": 2
    }
  ]
}
