<svg xmlns="http://www.w3.org/2000/svg" viewBox="0 0 245.54 71.93" class="circles-logo"><defs><style>.cls-1{fill:#fff;}.cls-2{fill:#231f20;}</style></defs><title>Circles</title><g id="Logo_White"><path d="M6.24 38.66v-.33c0-.27.06-.53.08-.8 0-.65.07-1.31.16-2 .12-.85.26-1.7.45-2.53a19.45 19.45 0 0 1 .58-2.15 22.76 22.76 0 0 1 1.64-3.83 20.7 20.7 0 0 1 2-3.09c.4-.49.81-1 1.23-1.43s.72-.7 1.09-1.05a16.22 16.22 0 0 1 1.29-1.2c.71-.56 1.45-1.09 2.2-1.61a10.32 10.32 0 0 1 1.5-.88c1.1-.49 2.21-.95 3.34-1.35a17.12 17.12 0 0 1 2.72-.75 18.51 18.51 0 0 1 3.48-.26h2.15c.49 0 1 .07 1.49.15.83.14 1.66.27 2.48.48s1.38.47 2.07.7a17.2 17.2 0 0 1 3.03 1.27 17.8 17.8 0 0 1 3 2.05l2 1.77a15.09 15.09 0 0 1 2 2.16 21.4 21.4 0 0 1 2.26 3.58 29.26 29.26 0 0 1 1.52 3.72c.22.66.38 1.35.55 2a17.86 17.86 0 0 1 .53 3.48 29.33 29.33 0 0 1 0 3.11 24.79 24.79 0 0 1-.35 3 34.09 34.09 0 0 1-.79 3.32 21 21 0 0 1-1.1 2.81 20.39 20.39 0 0 1-1.42 2.6 19.94 19.94 0 0 1-2.44 3l-.83.93a13.59 13.59 0 0 1-1 1c-.68.57-1.36 1.14-2.08 1.66a24.17 24.17 0 0 1-3.16 1.72c-.73.37-1.5.65-2.26 1a14.86 14.86 0 0 1-3.16.76c-.43.07-.87 0-1.29.13a13.21 13.21 0 0 1-2.34.2c-.73 0-1.46 0-2.18-.07a4.81 4.81 0 0 1-.85-.09l-2.73-.62c-.29-.07-.59-.11-.87-.2a25.69 25.69 0 0 1-2.7-1 19.47 19.47 0 0 1-2.87-1.66c-.73-.5-1.42-1.08-2.13-1.62a16.82 16.82 0 0 1-2.53-2.49 23.15 23.15 0 0 1-2.34-3.25 24.08 24.08 0 0 1-2.23-5 20 20 0 0 1-.88-3.75c-.06-.47-.16-.95-.19-1.42-.05-.69-.05-1.39-.08-2.08a.5.5 0 0 0-.04-.09zm38.08 15.6v-.07h-.07a11 11 0 0 1-2.45 1.59 12 12 0 0 1-2.43.91 11.08 11.08 0 0 1-2.74.41h-1.78a10.12 10.12 0 0 1-2.72-.5 19.42 19.42 0 0 1-2-.82 12.12 12.12 0 0 1-2.54-1.58 17.17 17.17 0 0 1-2.23-2.12 18.52 18.52 0 0 1-2-2.63 16.31 16.31 0 0 1-.86-1.45c-.39-.86-.74-1.74-1.09-2.62a9.4 9.4 0 0 1-.41-1.38c-.19-.8-.33-1.61-.5-2.42a18.56 18.56 0 0 1-.3-3.07v-1.76s0-1 .09-1.43a18.5 18.5 0 0 1 .28-2c.21-.91.48-1.8.74-2.7a18.87 18.87 0 0 1 3.33-6.1 15 15 0 0 1 5.09-4 12.79 12.79 0 0 1 2.21-.82 13.84 13.84 0 0 1 2.33-.4 13.67 13.67 0 0 1 2.86.07 12.37 12.37 0 0 1 3.36.94c.42.18.84.39 1.26.61.23.12.45.27.68.41a10.86 10.86 0 0 0-2.29-1.55 11.49 11.49 0 0 0-2.45-1c-.37-.1-.73-.23-1.1-.31a16.92 16.92 0 0 0-1.84-.33 18.56 18.56 0 0 0-2 0 7.88 7.88 0 0 0-1.09.08 12.31 12.31 0 0 0-2.74.66 22.73 22.73 0 0 0-2.26 1 15.81 15.81 0 0 0-2.47 1.68 19.81 19.81 0 0 0-2.29 2.29 20.15 20.15 0 0 0-2.09 3.06 13.53 13.53 0 0 0-.64 1.33c-.39.95-.81 1.89-1.11 2.87a22.06 22.06 0 0 0-.7 3 29.89 29.89 0 0 0-.34 3.89 18.66 18.66 0 0 0 .15 2 23.65 23.65 0 0 0 .31 2.39c.2 1 .48 1.94.75 2.89a20 20 0 0 0 1.46 3.62 15.43 15.43 0 0 0 .86 1.48c.51.76 1 1.52 1.57 2.24a12.26 12.26 0 0 0 1.25 1.38 18 18 0 0 0 1.75 1.52 16.49 16.49 0 0 0 2.66 1.63 17.36 17.36 0 0 0 2.84 1.06 13 13 0 0 0 2.91.45 17.82 17.82 0 0 0 2.07-.09 10.06 10.06 0 0 0 1.64-.29c.73-.21 1.46-.48 2.18-.74a6.12 6.12 0 0 0 1.1-.51c.75-.45 1.5-.92 2.21-1.43s1.06-.9 1.59-1.34zm-6.2 4.64v-.06l-.54.15a16.14 16.14 0 0 1-3.53.42c-.54 0-1.08-.09-1.63-.11a11.07 11.07 0 0 1-2.61-.51 15.22 15.22 0 0 1-2.56-1 16.13 16.13 0 0 1-2.59-1.63 14.39 14.39 0 0 1-2.39-2.16c-.3-.35-.64-.68-.92-1a18 18 0 0 1-1.19-1.61 20.54 20.54 0 0 1-1.78-3.39c-.33-.87-.71-1.73-1-2.62a28.75 28.75 0 0 1-.71-3 23.38 23.38 0 0 1-.32-2.65 20.1 20.1 0 0 1 0-2.33c0-.8.06-1.6.15-2.39s.27-1.76.44-2.63a19.24 19.24 0 0 1 1.17-3.73 24.07 24.07 0 0 1 1.32-2.65 15.94 15.94 0 0 1 2.45-3.35c.45-.48.92-.94 1.4-1.39a15.63 15.63 0 0 1 2.21-1.67 15.87 15.87 0 0 1 2.64-1.32 14.36 14.36 0 0 1 2-.61 9.88 9.88 0 0 1 1.7-.28h2.27c.41 0 .81.06 1.22.1l.68.1v-.06c-.3-.08-.59-.18-.9-.24-.72-.15-1.44-.31-2.17-.4a16.19 16.19 0 0 0-1.84-.09 7 7 0 0 0-1.12.05 13.75 13.75 0 0 0-1.56.27 18.85 18.85 0 0 0-2.26.63 19.33 19.33 0 0 0-2.29 1.11 18.61 18.61 0 0 0-1.78 1.15 16 16 0 0 0-2.95 2.74 17.53 17.53 0 0 0-1.13 1.37c-.51.77-1 1.57-1.43 2.37a20.18 20.18 0 0 0-1.57 3.76c-.2.6-.31 1.22-.5 1.83a21.11 21.11 0 0 0-.54 3c-.07.46-.08.94-.11 1.42s-.11 1-.11 1.48.06 1.27.12 1.9a28 28 0 0 0 .33 2.9 26 26 0 0 0 .91 3.47 29.11 29.11 0 0 0 1.3 3.16 22 22 0 0 0 1.83 3.07 13.31 13.31 0 0 0 1.06 1.41c.64.7 1.31 1.36 2 2a16.36 16.36 0 0 0 3.42 2.41l.38.18a14.73 14.73 0 0 0 3.38 1.29 18.7 18.7 0 0 0 3.33.48 9.85 9.85 0 0 0 1.21 0 5.07 5.07 0 0 0 .68 0 19.6 19.6 0 0 0 3.12-.72zm-8.9-42.77a7.55 7.55 0 0 0-1.16 0c-.87.14-1.73.32-2.58.52a8 8 0 0 0-1.48.45 21.67 21.67 0 0 0-2.9 1.43 19.69 19.69 0 0 0-3.46 2.71c-.36.35-.7.73-1 1.11a17 17 0 0 0-1.07 1.34 21.05 21.05 0 0 0-2.06 3.49c-.46 1-.87 2.09-1.25 3.16a21 21 0 0 0-.64 2.39 24.08 24.08 0 0 0-.39 2.38c-.1 1-.14 2.06-.19 3.1v1.07s0 1 .09 1.46c.17 1.14.31 2.27.57 3.39a29 29 0 0 0 1.17 3.78 22.13 22.13 0 0 0 1.53 3.18 23.82 23.82 0 0 0 2.46 3.49 20.52 20.52 0 0 0 1.87 1.86 17.32 17.32 0 0 0 1.64 1.33 15.46 15.46 0 0 0 3.23 1.84 27.71 27.71 0 0 0 2.79.94 15.16 15.16 0 0 0 3.73.5h.51l1.37-.05c-.34-.05-.68-.07-1-.1-.48 0-1-.07-1.43-.14a13.25 13.25 0 0 1-2.57-.66c-.45-.17-.9-.29-1.34-.48a14.9 14.9 0 0 1-1.55-.77 19.54 19.54 0 0 1-5.55-4.67 23.06 23.06 0 0 1-1.51-2 15.85 15.85 0 0 1-1.05-1.84c-.43-.86-.84-1.73-1.19-2.63s-.55-1.57-.8-2.37l-.23-.92a23.34 23.34 0 0 1-.65-3.81 23.87 23.87 0 0 1-.13-2.54c0-.59 0-1.18.06-1.77v-.72c.08-.62.19-1.23.26-1.86a22.4 22.4 0 0 1 .75-3.34 15 15 0 0 1 .71-2c.42-.95.84-1.91 1.34-2.81a19.84 19.84 0 0 1 1.48-2.25 20.39 20.39 0 0 1 1.45-1.75 19.58 19.58 0 0 1 2.1-2 15.87 15.87 0 0 1 2.85-1.77 21.79 21.79 0 0 1 2.6-1.06 10.81 10.81 0 0 1 1.4-.37c.41-.1.86-.17 1.22-.24zm-2.35 7.37c.39.17.75.32 1.09.49a13.32 13.32 0 0 1 2.54 1.62 14.89 14.89 0 0 1 2.29 2.27 15.18 15.18 0 0 1 1.59 2.3 18.25 18.25 0 0 1 2.31 8.34 19.87 19.87 0 0 1-.36 4.35 17.68 17.68 0 0 1-2 5.26 14.57 14.57 0 0 1-2.08 2.87 14.17 14.17 0 0 1-3.54 2.78.72.72 0 0 0-.14.13c.46.28.9.53 1.32.8a.37.37 0 0 0 .45 0 18 18 0 0 0 2.56-2 16.88 16.88 0 0 0 2.81-3.48 17.63 17.63 0 0 0 1.67-3.54 18.94 18.94 0 0 0 .9-3.71c.09-.75.16-1.5.19-2.25a18.72 18.72 0 0 0-.14-2.9 20.67 20.67 0 0 0-.95-4.15 18.1 18.1 0 0 0-1.25-2.85 16.79 16.79 0 0 0-2.73-3.83 22 22 0 0 0-2.12-1.86 12 12 0 0 0-2.84-1.67.3.3 0 0 0-.28 0l-1.29 1.03zm2.26-1.67c.66.41 1.28.79 1.91 1.16a12.53 12.53 0 0 1 2.39 1.91 23.25 23.25 0 0 1 1.57 1.82 20.38 20.38 0 0 1 1.3 1.78 17.86 17.86 0 0 1 1.3 2.5 20.34 20.34 0 0 1 1 3.06 19.69 19.69 0 0 1 .59 4.25 20 20 0 0 1-.19 4.2 27.47 27.47 0 0 1-.64 2.68 18.17 18.17 0 0 1-.89 2.43 25 25 0 0 1-1.21 2.22 13.39 13.39 0 0 1-1.75 2.33c-.45.48-.9.94-1.37 1.38s-.81.68-1.22 1-.62.43-.95.67l1.52.57a.31.31 0 0 0 .23-.07 10.23 10.23 0 0 0 1-.73 17.75 17.75 0 0 0 2.1-2 21.42 21.42 0 0 0 1.94-2.6 19.8 19.8 0 0 0 1.45-2.78 18.58 18.58 0 0 0 1.23-3.94c.18-1 .35-2.11.46-3.17a15 15 0 0 0 0-2.12c0-.72-.1-1.45-.17-2.17a16.45 16.45 0 0 0-.73-3.21c-.3-.9-.58-1.81-1-2.68a27.73 27.73 0 0 0-1.33-2.53 15.07 15.07 0 0 0-1.93-2.63c-.45-.51-.94-1-1.43-1.45a7.66 7.66 0 0 0-.9-.81c-.78-.53-1.58-1-2.37-1.54a.68.68 0 0 0-.8-.09c-.32.19-.72.37-1.11.56zm-4.13 3.67a11.62 11.62 0 0 1 2.91 1.44 19.37 19.37 0 0 1 1.74 1.4 16.47 16.47 0 0 1 1.42 1.58 11.75 11.75 0 0 1 1.58 2.58 15.54 15.54 0 0 1 1.44 6c0 .75 0 1.5-.08 2.25a12.86 12.86 0 0 1-.59 3 14.22 14.22 0 0 1-1.55 3.44 14 14 0 0 1-1.71 2.19 12.8 12.8 0 0 1-2.68 2.14c-.32.19-.66.35-1 .53.39.36.74.69 1.12 1 .09.08.17.27.35.16.66-.41 1.36-.77 2-1.24a12.58 12.58 0 0 0 2.41-2.37c.23-.3.49-.57.69-.89.34-.55.68-1.11 1-1.69a22.55 22.55 0 0 0 .94-2.13 17.79 17.79 0 0 0 .49-1.89c.11-.43.18-.88.25-1.32s.13-1 .18-1.52v-1.07l-.08-1.18s-.07-1-.16-1.41a23.84 23.84 0 0 0-.57-2.36 21.15 21.15 0 0 0-.87-2.34 16 16 0 0 0-1.74-2.89 14.05 14.05 0 0 0-2.73-2.77 12.9 12.9 0 0 0-3.46-1.92.2.2 0 0 0-.21 0c-.33.41-.69.83-1.09 1.28zm8.62 30.59l1.44.17a.5.5 0 0 0 .43-.15c.62-.58 1.24-1.14 1.85-1.73a14.55 14.55 0 0 0 1.59-1.9 21.68 21.68 0 0 0 1.78-2.92 20.51 20.51 0 0 0 1.73-4.65c.23-.92.35-1.86.52-2.78a16.59 16.59 0 0 0 .22-2.9c0-.62 0-1.23-.07-1.85a23 23 0 0 0-.29-2.38 17.19 17.19 0 0 0-.74-3c-.31-.85-.56-1.72-.93-2.53s-.9-1.77-1.39-2.64a17.72 17.72 0 0 0-2.83-3.66 24.46 24.46 0 0 0-2-1.72c-.49-.39-1-.71-1.53-1.06-.07-.05-.17-.12-.24-.1-.52.11-1 .23-1.54.36a1.4 1.4 0 0 0 .29.24c.63.43 1.29.8 1.88 1.28s1.38 1.25 2 1.89a14.41 14.41 0 0 1 1.8 2.17 21.17 21.17 0 0 1 1.52 2.55 21.86 21.86 0 0 1 1.39 3.4 16.74 16.74 0 0 1 .73 3.13c.12 1 .24 2 .3 3a16.9 16.9 0 0 1 0 2c-.05.81-.12 1.62-.22 2.42a17.18 17.18 0 0 1-.81 3.4c-.29.85-.63 1.67-1 2.49a16.53 16.53 0 0 1-1.5 2.79 17.78 17.78 0 0 1-2.38 2.88c-.62.63-1.31 1.19-2 1.8zm-8.9-6.09l1 1.32a.18.18 0 0 0 .27.07 14.07 14.07 0 0 0 1.26-.71 19.81 19.81 0 0 0 1.85-1.43 11.17 11.17 0 0 0 2.34-3.06 16.89 16.89 0 0 0 .93-2 11.6 11.6 0 0 0 .71-3c.06-.68.16-1.36.16-2a13.77 13.77 0 0 0-.38-3.19 14.37 14.37 0 0 0-1.54-4 12.62 12.62 0 0 0-3.64-4.08 13.52 13.52 0 0 0-3-1.56.24.24 0 0 0-.34.12l-.44.72-.43.73a8.32 8.32 0 0 1 2.39 1 10.47 10.47 0 0 1 2.77 2.37 12.1 12.1 0 0 1 1.94 3.31 12.66 12.66 0 0 1 .83 4.14 13.15 13.15 0 0 1-.2 2.94 11.76 11.76 0 0 1-1.46 3.95 10.25 10.25 0 0 1-1.69 2.19 10.58 10.58 0 0 1-2.14 1.64c-.35.1-.76.26-1.19.53zm9.83-29.79l.21.18a18.73 18.73 0 0 1 2.43 2c.29.27.55.59.83.88a16.45 16.45 0 0 1 2 2.65c.52.83 1 1.7 1.45 2.57a12.83 12.83 0 0 1 .73 1.51c.34 1 .69 1.95.95 2.95a21.64 21.64 0 0 1 .48 2.55 28.2 28.2 0 0 1 .26 2.89c0 .91 0 1.82-.08 2.73a12.78 12.78 0 0 1-.21 1.88c-.18 1-.4 1.88-.63 2.82a17.08 17.08 0 0 1-1.24 3.4 23.19 23.19 0 0 1-1.26 2.36 18.62 18.62 0 0 1-2.2 2.94c-.43.46-.88.9-1.33 1.34l-.42.41a8 8 0 0 0 1.12-.11 1.39 1.39 0 0 0 .55-.13 3.77 3.77 0 0 0 .66-.6c.4-.41.79-.83 1.15-1.27s.83-1.08 1.22-1.64a12.19 12.19 0 0 0 .78-1.24c.46-.88.94-1.75 1.33-2.66s.66-1.81 1-2.73a15.12 15.12 0 0 0 .44-1.73c.16-.94.32-1.88.4-2.82s.1-1.77.11-2.65a15.37 15.37 0 0 0-.28-2.95c-.17-1-.3-1.94-.54-2.89a25.31 25.31 0 0 0-.93-2.85 24.85 24.85 0 0 0-1.33-2.9c-.48-.89-1.1-1.7-1.65-2.55a15.24 15.24 0 0 0-1.85-2.22 16.73 16.73 0 0 0-2.44-2.09.77.77 0 0 0-.36-.12h-1.11a1.93 1.93 0 0 0-.24.04zm-11.32 40.15v-.07l-.52-.24a14.57 14.57 0 0 1-2.5-1.46 23.43 23.43 0 0 1-2.21-1.82 22.74 22.74 0 0 1-2-2.09 20.08 20.08 0 0 1-2.49-3.68c-.52-1-.95-2-1.4-3.09a21.16 21.16 0 0 1-1.11-3.82c-.13-.57-.18-1.16-.3-1.73a26.81 26.81 0 0 1-.33-3.79 14.94 14.94 0 0 1 .08-1.89c.06-.82.12-1.64.23-2.45s.24-1.49.4-2.23a17.48 17.48 0 0 1 .54-2 23 23 0 0 1 1.48-3.56c.25-.45.46-.92.73-1.36a20.13 20.13 0 0 1 1.78-2.59c.33-.39.64-.79 1-1.16a12.59 12.59 0 0 1 1.17-1.14c.74-.63 1.51-1.24 2.29-1.83a12.32 12.32 0 0 1 1.05-.65v-.05a6.31 6.31 0 0 0-.75.33 25.37 25.37 0 0 0-2.65 1.7 20 20 0 0 0-2.18 1.93l-1.06 1.21a16.28 16.28 0 0 0-1.69 2.17 21 21 0 0 0-1.73 3.29c-.32.76-.6 1.54-.87 2.33-.14.41-.22.84-.32 1.26s-.28 1.07-.38 1.62a20.54 20.54 0 0 0-.35 2.2c-.08 1-.08 1.94-.1 2.92a11.4 11.4 0 0 0 0 1.43c0 .56.12 1.12.2 1.67.1.72.18 1.44.34 2.13.2.88.46 1.74.72 2.6a16.2 16.2 0 0 0 .7 1.89c.41.92.86 1.84 1.36 2.72s.94 1.52 1.45 2.26a14 14 0 0 0 1.19 1.48 22.85 22.85 0 0 0 2.52 2.4 19.94 19.94 0 0 0 4.69 2.8 9.38 9.38 0 0 0 1.02.36zm1-11.14c.35-.17.7-.31 1-.49a9.48 9.48 0 0 0 3-2.55 11.62 11.62 0 0 0 2.23-8.7 12 12 0 0 0-1-3.4 10.57 10.57 0 0 0-2.55-3.43 9.39 9.39 0 0 0-3-1.82c-.24-.09-.49-.16-.77-.24l-.77 1.74c.29.08.54.13.78.21a7.09 7.09 0 0 1 2.45 1.46 8.6 8.6 0 0 1 2.1 2.71 9.77 9.77 0 0 1 1 3.44 10 10 0 0 1-.15 3 9.3 9.3 0 0 1-1.09 2.85 8.49 8.49 0 0 1-1.66 2.06 6.6 6.6 0 0 1-2.53 1.5zm13.6-28.86v.06a1.63 1.63 0 0 0 .17.2c.51.5 1.05 1 1.53 1.5s1.13 1.3 1.67 2a18.13 18.13 0 0 1 1.8 2.88c.42.79.76 1.61 1.12 2.43a9.16 9.16 0 0 1 .47 1.23c.26.89.49 1.79.73 2.69a21 21 0 0 1 .5 3.06c.08.71.07 1.43.11 2.14a3.37 3.37 0 0 1 .07.45c0 .55 0 1.11-.08 1.66-.07.9-.14 1.81-.27 2.7-.1.71-.29 1.41-.45 2.1a16.84 16.84 0 0 1-.48 1.72c-.28.78-.6 1.55-.92 2.32a12.82 12.82 0 0 1-.8 1.55c-.51.86-1 1.7-1.61 2.52-.34.5-.75 1-1.13 1.41-.17.22-.36.43-.54.64a1.75 1.75 0 0 0 .51-.14 4.48 4.48 0 0 0 .91-.43 4 4 0 0 0 .76-.83c.51-.7 1-1.41 1.48-2.13a21.26 21.26 0 0 0 2.15-4.42c.3-.85.54-1.72.77-2.6a24 24 0 0 0 .7-4.62 28.64 28.64 0 0 0 0-2.93 20.35 20.35 0 0 0-.23-2.22c-.14-.92-.29-1.83-.51-2.73a22.47 22.47 0 0 0-1.31-3.83c-.44-.95-.92-1.88-1.45-2.78a19.73 19.73 0 0 0-1.54-2.31 19.32 19.32 0 0 0-2.49-2.65 1.14 1.14 0 0 0-.3-.25c-.44-.14-.89-.26-1.34-.39zm-14.94 26.4a7.06 7.06 0 0 0 2.56-1.63 7.83 7.83 0 0 0 1.39-1.88 9 9 0 0 0 1-4.17 8.34 8.34 0 0 0-.3-2.16 8.45 8.45 0 0 0-1-2.39 9.83 9.83 0 0 0-1-1.3 6.82 6.82 0 0 0-2.11-1.55 5.78 5.78 0 0 0-1.45-.5l-.44 1.82a9.94 9.94 0 0 1 1 .34 5.81 5.81 0 0 1 2.83 2.81 6.8 6.8 0 0 1 .63 3.85 6.29 6.29 0 0 1-.74 2.39 5.74 5.74 0 0 1-2.26 2.21c-.26.14-.53.26-.83.41zm18.37-25.06c.28.33.58.65.85 1 .52.69 1.07 1.36 1.55 2.08s.82 1.41 1.21 2.13a11 11 0 0 1 .72 1.46c.36.91.66 1.84 1 2.77a19 19 0 0 1 .85 3.65c.1.7.18 1.42.23 2.13s.11 1.42.1 2.14c0 .88-.09 1.76-.15 2.64a11.64 11.64 0 0 1-.15 1.46c-.21 1.06-.41 2.13-.71 3.17a29.43 29.43 0 0 1-1.07 3 22.46 22.46 0 0 1-2.26 4.07l-.28.4a3.37 3.37 0 0 0 1.38-1.21 29.69 29.69 0 0 0 1.62-2.92 27.33 27.33 0 0 0 1.22-3.15c.22-.72.42-1.45.57-2.19s.29-1.66.4-2.5c.08-.55.11-1.11.14-1.66s.08-1 .07-1.49-.06-1.18-.11-1.77-.13-1.42-.24-2.12a21.07 21.07 0 0 0-.83-3.51c-.36-1-.71-2-1.12-3a19 19 0 0 0-1.72-3.21c-.52-.76-1.11-1.46-1.64-2.21a4.28 4.28 0 0 0-1.63-1.16zm-20.19 14.14a3.2 3.2 0 0 1 2.24 3.1 3.27 3.27 0 0 1-1.87 3.29l.42 1.77c0 .17.13.11.23.07a4.75 4.75 0 0 0 2.32-2.13 5.62 5.62 0 0 0-1.67-7.4 4 4 0 0 0-1.4-.58zm-7.83-12.91c-.48.65-1 1.3-1.44 2a16.61 16.61 0 0 0-1.5 2.54c-.32.69-.62 1.38-.92 2.07-.18.42-.34.85-.48 1.28l-.28 1.13c-.17.67-.37 1.33-.49 2a22.81 22.81 0 0 0-.29 2.33c-.07.83-.1 1.67-.11 2.5 0 .51 0 1 .07 1.53.07.72.19 1.43.24 2.15a15.45 15.45 0 0 0 .45 2.23 23.47 23.47 0 0 0 .93 3 21.52 21.52 0 0 0 1.53 3.26c.29.52.6 1 .94 1.53s.88 1.22 1.37 1.79 1.22 1.31 1.84 2a1.46 1.46 0 0 0 .27.2v-.05a11.77 11.77 0 0 1-.87-.86 24.11 24.11 0 0 1-2.15-2.87c-.33-.54-.69-1.07-1-1.63-.42-.83-.8-1.67-1.16-2.53a15.86 15.86 0 0 1-.76-2.13 34.38 34.38 0 0 1-.83-3.78 32.39 32.39 0 0 1-.29-3.68c0-.69.05-1.39.06-2.08a20.91 20.91 0 0 1 .33-3.05 21 21 0 0 1 .82-3.44c.33-1.05.79-2.07 1.22-3.09a13.38 13.38 0 0 1 .88-1.73c.53-1 1.09-1.81 1.62-2.62zm33.53 27.28a4.59 4.59 0 0 0 .33-.52c.3-.69.63-1.37.88-2.08a27.51 27.51 0 0 0 .94-3 24.14 24.14 0 0 0 .52-3.06c.1-.94.14-1.88.16-2.81a19.06 19.06 0 0 0-.15-2.26c-.1-.91-.25-1.82-.4-2.72a17.94 17.94 0 0 0-.92-3.32c-.36-1-.77-1.91-1.2-2.84a17.67 17.67 0 0 0-.93-1.7c-.17-.3-.38-.58-.57-.86l-.07.05a25.66 25.66 0 0 1 3.79 12.37 26.51 26.51 0 0 1-2.38 12.75zm-25.77-13.36a19 19 0 0 0 .25 4.39 2.49 2.49 0 0 0 1.24-2.24 2.39 2.39 0 0 0-1.49-2.15z"/><path class="cls-1" d="M44.32 54.26c-.53.44-1 .92-1.59 1.32s-1.46 1-2.21 1.43a6.12 6.12 0 0 1-1.1.51c-.72.26-1.45.53-2.18.74a10.06 10.06 0 0 1-1.64.29 17.82 17.82 0 0 1-2.07.09 13 13 0 0 1-2.91-.45 17.36 17.36 0 0 1-2.84-1.06 16.49 16.49 0 0 1-2.66-1.63 18 18 0 0 1-1.75-1.5 12.26 12.26 0 0 1-1.25-1.35c-.55-.72-1.06-1.48-1.57-2.24a15.43 15.43 0 0 1-.86-1.48 20 20 0 0 1-1.46-3.62c-.27-.95-.55-1.91-.75-2.89a23.65 23.65 0 0 1-.31-2.42 18.66 18.66 0 0 1-.12-2.11 29.89 29.89 0 0 1 .34-3.89 22.06 22.06 0 0 1 .7-3c.3-1 .72-1.92 1.11-2.87a13.53 13.53 0 0 1 .64-1.33 20.15 20.15 0 0 1 2.09-3.06 19.81 19.81 0 0 1 2.29-2.29 15.81 15.81 0 0 1 2.47-1.68 22.73 22.73 0 0 1 2.26-1 12.31 12.31 0 0 1 2.74-.66 7.88 7.88 0 0 1 1.09-.11 18.56 18.56 0 0 1 2 0 16.92 16.92 0 0 1 1.84.33c.37.08.73.21 1.1.31a11.49 11.49 0 0 1 2.45 1 10.86 10.86 0 0 1 2.29 1.55c-.23-.14-.45-.29-.68-.41-.42-.22-.84-.43-1.26-.61a12.37 12.37 0 0 0-3.36-.94 13.67 13.67 0 0 0-2.86-.07 13.84 13.84 0 0 0-2.33.4 12.79 12.79 0 0 0-2.21.82 15 15 0 0 0-5.09 4 18.87 18.87 0 0 0-3.33 6.1c-.26.9-.53 1.79-.74 2.7a18.5 18.5 0 0 0-.28 2c-.06.47-.07 1-.09 1.43s-.06 1.17 0 1.76a18.56 18.56 0 0 0 .3 3.07c.17.81.31 1.62.5 2.42a9.4 9.4 0 0 0 .45 1.39c.35.88.7 1.76 1.09 2.62a16.31 16.31 0 0 0 .83 1.47 18.52 18.52 0 0 0 2 2.63 17.17 17.17 0 0 0 2.23 2.12 12.12 12.12 0 0 0 2.54 1.58 19.42 19.42 0 0 0 2 .82 10.12 10.12 0 0 0 2.72.5h1.78a11.08 11.08 0 0 0 2.74-.41 12 12 0 0 0 2.43-.91 11 11 0 0 0 2.45-1.59h.07zM38.12 58.9l-1.34.5a19.6 19.6 0 0 1-3.12.72 5.07 5.07 0 0 1-.68 0 9.85 9.85 0 0 1-1.21 0 18.7 18.7 0 0 1-3.33-.48 14.73 14.73 0 0 1-3.38-1.29l-.38-.18a16.36 16.36 0 0 1-3.42-2.41c-.69-.64-1.36-1.3-2-2a13.31 13.31 0 0 1-1.06-1.41 22 22 0 0 1-1.83-3.07 29.11 29.11 0 0 1-1.3-3.16 26 26 0 0 1-.91-3.47 28 28 0 0 1-.33-2.9c-.06-.63-.11-1.27-.12-1.9s.07-1 .11-1.48 0-1 .11-1.42a21.11 21.11 0 0 1 .54-3c.19-.61.3-1.23.5-1.83a20.18 20.18 0 0 1 1.61-3.76c.46-.8.92-1.6 1.43-2.37a17.53 17.53 0 0 1 1.16-1.45 16 16 0 0 1 2.95-2.74 18.61 18.61 0 0 1 1.78-1.15 19.33 19.33 0 0 1 2.29-1.11 18.85 18.85 0 0 1 2.26-.54 13.75 13.75 0 0 1 1.55-.24 7 7 0 0 1 1.12-.05 16.19 16.19 0 0 1 1.88.09c.73.09 1.45.25 2.17.4.31.06.6.16.9.24v.06l-.68-.1-1.22-.1h-2.27a9.88 9.88 0 0 0-1.7.28 14.36 14.36 0 0 0-2 .61 15.87 15.87 0 0 0-2.64 1.32 15.63 15.63 0 0 0-2.21 1.67c-.48.45-1 .91-1.4 1.39a15.94 15.94 0 0 0-2.52 3.43 24.07 24.07 0 0 0-1.32 2.64 19.24 19.24 0 0 0-1.17 3.73c-.17.87-.33 1.75-.44 2.63s-.13 1.59-.15 2.39a20.1 20.1 0 0 0 0 2.33 23.38 23.38 0 0 0 .32 2.65 28.75 28.75 0 0 0 .71 3c.26.89.64 1.75 1 2.62a20.54 20.54 0 0 0 1.78 3.34 18 18 0 0 0 1.19 1.61c.28.36.62.69.92 1a14.39 14.39 0 0 0 2.33 2.16 16.13 16.13 0 0 0 2.59 1.63 15.22 15.22 0 0 0 2.56 1 11.07 11.07 0 0 0 2.61.51c.55 0 1.09.12 1.63.11a16.14 16.14 0 0 0 3.53-.35l.54-.15zM29.22 16.13c-.36.07-.81.14-1.26.24a10.81 10.81 0 0 0-1.35.37 21.79 21.79 0 0 0-2.61 1.06 15.87 15.87 0 0 0-2.81 1.82 19.58 19.58 0 0 0-2.1 2 20.39 20.39 0 0 0-1.45 1.75 19.84 19.84 0 0 0-1.48 2.25c-.5.9-.92 1.86-1.34 2.81a15 15 0 0 0-.71 2 22.4 22.4 0 0 0-.75 3.34c-.07.63-.18 1.24-.26 1.86v.72c0 .59-.07 1.18-.06 1.77a23.87 23.87 0 0 0 .12 2.54 23.34 23.34 0 0 0 .65 3.81l.23.92c.25.8.49 1.6.8 2.37s.76 1.77 1.19 2.63a15.85 15.85 0 0 0 1.08 1.82 23.06 23.06 0 0 0 1.51 2 19.54 19.54 0 0 0 5.55 4.67 14.9 14.9 0 0 0 1.55.77c.44.19.89.31 1.34.48a13.25 13.25 0 0 0 2.56.61c.47.07 1 .1 1.43.14.33 0 .67 0 1 .1h-1.87a15.16 15.16 0 0 1-3.73-.5 27.71 27.71 0 0 1-2.79-.94 15.46 15.46 0 0 1-3.23-1.84 17.32 17.32 0 0 1-1.64-1.33 20.52 20.52 0 0 1-1.87-1.86 23.82 23.82 0 0 1-2.46-3.49 22.13 22.13 0 0 1-1.53-3.18 29 29 0 0 1-1.17-3.78c-.26-1.12-.4-2.25-.57-3.39-.07-.48-.06-1-.09-1.46s-.05-.72 0-1.07c.05-1 .09-2.07.19-3.1a24.08 24.08 0 0 1 .39-2.38 21 21 0 0 1 .64-2.39c.38-1.07.79-2.13 1.25-3.16a21.05 21.05 0 0 1 2.06-3.49 17 17 0 0 1 1.07-1.34c.33-.38.67-.76 1-1.11a19.69 19.69 0 0 1 3.46-2.71 21.67 21.67 0 0 1 2.84-1.36 8 8 0 0 1 1.46-.44c.85-.2 1.71-.38 2.58-.52a7.55 7.55 0 0 1 1.18-.01zM26.87 23.5c.45-.36.86-.69 1.29-1a.3.3 0 0 1 .28 0 12 12 0 0 1 2.84 1.67 22 22 0 0 1 2.12 1.83 16.79 16.79 0 0 1 2.73 3.78 18.1 18.1 0 0 1 1.25 2.85 20.67 20.67 0 0 1 .95 4.15 18.72 18.72 0 0 1 .14 2.9c0 .75-.1 1.5-.19 2.25a18.94 18.94 0 0 1-.9 3.71 17.63 17.63 0 0 1-1.67 3.54 16.88 16.88 0 0 1-2.81 3.48 18 18 0 0 1-2.56 2 .37.37 0 0 1-.45 0c-.42-.27-.86-.52-1.32-.8a.72.72 0 0 1 .14-.13 14.17 14.17 0 0 0 3.54-2.73 14.57 14.57 0 0 0 2.1-2.82 17.68 17.68 0 0 0 2-5.26 19.87 19.87 0 0 0 .36-4.35 18.25 18.25 0 0 0-2.31-8.34 15.18 15.18 0 0 0-1.59-2.3 14.89 14.89 0 0 0-2.29-2.27 13.32 13.32 0 0 0-2.52-1.66c-.38-.18-.74-.33-1.13-.5zM29.13 21.83c.39-.19.79-.37 1.16-.59a.68.68 0 0 1 .8.09c.79.52 1.59 1 2.37 1.54a7.66 7.66 0 0 1 .9.81c.49.47 1 .94 1.43 1.45a15.07 15.07 0 0 1 1.93 2.63 27.73 27.73 0 0 1 1.33 2.53c.38.87.66 1.78 1 2.68a16.45 16.45 0 0 1 .69 3.26c.07.72.14 1.45.17 2.17a15 15 0 0 1 0 2.12c-.11 1.06-.28 2.12-.46 3.17a18.58 18.58 0 0 1-1.23 3.94 19.8 19.8 0 0 1-1.45 2.78 21.42 21.42 0 0 1-1.98 2.59 17.75 17.75 0 0 1-2.1 2 10.23 10.23 0 0 1-1 .73.31.31 0 0 1-.23.07l-1.52-.57c.33-.24.65-.44.95-.67s.83-.63 1.22-1 .92-.9 1.37-1.38a13.39 13.39 0 0 0 1.75-2.33 25 25 0 0 0 1.21-2.22 18.17 18.17 0 0 0 .89-2.43 27.47 27.47 0 0 0 .67-2.69 20 20 0 0 0 .24-4.16 19.69 19.69 0 0 0-.59-4.25 20.34 20.34 0 0 0-1-3.06 17.86 17.86 0 0 0-1.3-2.54 20.38 20.38 0 0 0-1.35-1.78 23.25 23.25 0 0 0-1.61-1.82 12.53 12.53 0 0 0-2.39-1.9c-.59-.38-1.21-.76-1.87-1.17zM25 25.5c.4-.45.76-.87 1.13-1.27a.2.2 0 0 1 .21 0 12.9 12.9 0 0 1 3.46 1.92 14.05 14.05 0 0 1 2.73 2.77 16 16 0 0 1 1.74 2.89 21.15 21.15 0 0 1 .87 2.34 23.84 23.84 0 0 1 .57 2.36c.09.46.11.94.16 1.41s.07.78.08 1.18v1.07s-.11 1-.18 1.52-.14.89-.25 1.32a17.79 17.79 0 0 1-.55 1.93 22.55 22.55 0 0 1-.97 2.06c-.3.58-.64 1.14-1 1.69-.2.32-.46.59-.69.89a12.58 12.58 0 0 1-2.4 2.42c-.62.47-1.32.83-2 1.24-.18.11-.26-.08-.35-.16-.38-.32-.73-.65-1.12-1 .36-.18.7-.34 1-.53a12.8 12.8 0 0 0 2.68-2.14 14 14 0 0 0 1.71-2.19 14.22 14.22 0 0 0 1.55-3.44 12.86 12.86 0 0 0 .59-3c.05-.75.1-1.5.08-2.25a15.54 15.54 0 0 0-1.44-6 11.75 11.75 0 0 0-1.58-2.58 16.47 16.47 0 0 0-1.42-1.58 19.37 19.37 0 0 0-1.74-1.4 11.62 11.62 0 0 0-2.87-1.47zM33.62 56.09c.69-.61 1.4-1.17 2-1.8a17.78 17.78 0 0 0 2.38-2.88 16.53 16.53 0 0 0 1.55-2.79c.35-.82.69-1.64 1-2.49a17.18 17.18 0 0 0 .81-3.4c.1-.8.17-1.61.22-2.42a16.9 16.9 0 0 0 0-2c-.06-1-.18-2-.3-3a16.74 16.74 0 0 0-.73-3.13 21.86 21.86 0 0 0-1.39-3.4 21.17 21.17 0 0 0-1.52-2.55 14.41 14.41 0 0 0-1.8-2.17c-.67-.64-1.33-1.3-2-1.89l-1.88-1.28a1.4 1.4 0 0 1-.29-.24c.51-.13 1-.25 1.54-.36.07 0 .17.05.24.1.51.35 1 .67 1.53 1.06a24.46 24.46 0 0 1 2 1.72 17.72 17.72 0 0 1 2.83 3.66c.49.87 1 1.73 1.39 2.64s.62 1.68.93 2.53a17.19 17.19 0 0 1 .74 3 23 23 0 0 1 .29 2.34c0 .62.08 1.23.07 1.85a16.59 16.59 0 0 1-.22 2.9c-.17.92-.29 1.86-.52 2.78a20.51 20.51 0 0 1-1.73 4.65 21.68 21.68 0 0 1-1.78 2.92 14.55 14.55 0 0 1-1.59 1.9c-.61.59-1.23 1.15-1.85 1.73a.5.5 0 0 1-.43.15zM24.72 50c.43-.22.84-.38 1.21-.61a10.58 10.58 0 0 0 2.14-1.64 10.25 10.25 0 0 0 1.69-2.19 11.76 11.76 0 0 0 1.46-3.95 13.15 13.15 0 0 0 .2-2.94 12.66 12.66 0 0 0-.83-4.14 12.1 12.1 0 0 0-1.94-3.31 10.47 10.47 0 0 0-2.77-2.37 8.32 8.32 0 0 0-2.39-1l.43-.73s.3-.47.44-.72a.24.24 0 0 1 .34-.12 13.52 13.52 0 0 1 3 1.56 12.62 12.62 0 0 1 3.64 4.08 14.37 14.37 0 0 1 1.54 4 13.77 13.77 0 0 1 .38 3.19c0 .68-.1 1.36-.16 2a11.6 11.6 0 0 1-.71 3 16.89 16.89 0 0 1-.93 2 11.17 11.17 0 0 1-2.34 3.06 19.81 19.81 0 0 1-1.85 1.43 14.07 14.07 0 0 1-1.26.71.18.18 0 0 1-.27-.07zM34.55 20.16a1.93 1.93 0 0 1 .24 0h1.11a.77.77 0 0 1 .36.12 16.73 16.73 0 0 1 2.44 2.09 15.24 15.24 0 0 1 1.85 2.22c.55.85 1.17 1.66 1.65 2.55a24.85 24.85 0 0 1 1.33 2.86 25.31 25.31 0 0 1 .93 2.83c.24.95.37 1.93.54 2.89a15.37 15.37 0 0 1 .22 2.95c0 .88 0 1.77-.11 2.65s-.24 1.88-.4 2.82a15.12 15.12 0 0 1-.44 1.73c-.29.92-.58 1.84-1 2.73s-.82 1.8-1.27 2.68a12.19 12.19 0 0 1-.77 1.24c-.39.56-.79 1.11-1.22 1.64s-.75.86-1.15 1.27a3.77 3.77 0 0 1-.66.6 1.39 1.39 0 0 1-.55.13 8 8 0 0 1-1.12.11l.42-.41c.45-.44.9-.88 1.33-1.34a18.62 18.62 0 0 0 2.2-2.94 23.19 23.19 0 0 0 1.26-2.36 17.08 17.08 0 0 0 1.26-3.4c.23-.94.45-1.87.63-2.82a12.78 12.78 0 0 0 .21-1.85c0-.91.11-1.82.08-2.73a28.2 28.2 0 0 0-.26-2.89 21.64 21.64 0 0 0-.51-2.53c-.26-1-.61-2-.95-2.95a12.83 12.83 0 0 0-.68-1.57c-.46-.87-.93-1.74-1.45-2.57a16.45 16.45 0 0 0-2-2.65c-.28-.29-.54-.61-.83-.88a18.73 18.73 0 0 0-2.43-2l-.26-.22zM23.23 60.36a9.38 9.38 0 0 1-1-.34 19.94 19.94 0 0 1-4.72-2.82 22.85 22.85 0 0 1-2.51-2.4 14 14 0 0 1-1.16-1.48c-.51-.74-1-1.48-1.45-2.26s-.95-1.8-1.36-2.72a16.2 16.2 0 0 1-.68-1.92c-.26-.86-.52-1.72-.72-2.6-.16-.69-.24-1.41-.34-2.13-.08-.55-.16-1.11-.2-1.67a11.4 11.4 0 0 1 0-1.43c0-1 0-2 .1-2.92a20.54 20.54 0 0 1 .35-2.2c.1-.55.25-1.08.38-1.62s.18-.85.32-1.26c.27-.79.55-1.57.87-2.33a21 21 0 0 1 1.68-3.26 16.28 16.28 0 0 1 1.6-2.18l1.06-1.21a20 20 0 0 1 2.18-1.93 25.37 25.37 0 0 1 2.65-1.68 6.31 6.31 0 0 1 .75-.33v.05a12.32 12.32 0 0 0-1.05.65c-.78.59-1.55 1.2-2.29 1.83a12.59 12.59 0 0 0-1.17 1.14c-.34.37-.65.77-1 1.16a20.13 20.13 0 0 0-1.74 2.5c-.27.44-.48.91-.73 1.36a23 23 0 0 0-1.48 3.64 17.48 17.48 0 0 0-.57 2c-.16.74-.3 1.48-.4 2.23s-.17 1.63-.23 2.45a14.94 14.94 0 0 0-.08 1.89 26.81 26.81 0 0 0 .33 3.79c.12.57.17 1.16.3 1.73a21.16 21.16 0 0 0 1.16 3.83c.48 1.08.92 2.08 1.43 3.08a20.08 20.08 0 0 0 2.49 3.68 22.74 22.74 0 0 0 2 2.09 23.43 23.43 0 0 0 2.29 1.82 14.57 14.57 0 0 0 2.5 1.46l.52.24zM24.23 49.22l-1-1.66a6.6 6.6 0 0 0 2.53-1.5 8.49 8.49 0 0 0 1.7-2.06 9.3 9.3 0 0 0 1.06-2.86 10 10 0 0 0 .15-3 9.77 9.77 0 0 0-1-3.44 8.6 8.6 0 0 0-2.07-2.7 7.09 7.09 0 0 0-2.5-1.46c-.24-.08-.49-.13-.78-.21l.77-1.74c.28.08.53.15.77.24a9.39 9.39 0 0 1 3 1.82 10.57 10.57 0 0 1 2.55 3.43 12 12 0 0 1 1 3.4 11.62 11.62 0 0 1-2.23 8.7 9.48 9.48 0 0 1-3 2.55c-.25.18-.6.32-.95.49zM37.83 20.36c.45.13.9.25 1.34.39a1.14 1.14 0 0 1 .3.25 19.32 19.32 0 0 1 2.46 2.65 19.73 19.73 0 0 1 1.54 2.35c.53.9 1 1.83 1.45 2.78a22.47 22.47 0 0 1 1.31 3.83c.22.9.37 1.81.51 2.73a20.35 20.35 0 0 1 .26 2.18 28.64 28.64 0 0 1 0 2.93 24 24 0 0 1-.71 4.62c-.23.88-.47 1.75-.77 2.6a21.26 21.26 0 0 1-2.15 4.42c-.47.72-1 1.43-1.48 2.13a4 4 0 0 1-.76.83 4.48 4.48 0 0 1-.91.43 1.75 1.75 0 0 1-.51.14c.18-.21.37-.42.54-.64.38-.46.79-.91 1.13-1.41.56-.82 1.1-1.66 1.61-2.52a12.82 12.82 0 0 0 .77-1.58c.32-.77.64-1.54.92-2.32a16.84 16.84 0 0 0 .48-1.72c.16-.69.35-1.39.45-2.1.13-.89.2-1.8.27-2.7 0-.55.06-1.11.08-1.66a3.37 3.37 0 0 0 0-.44c0-.71 0-1.43-.11-2.14a21 21 0 0 0-.5-3.06c-.24-.9-.47-1.8-.73-2.69a9.16 9.16 0 0 0-.47-1.23c-.36-.82-.7-1.64-1.12-2.43a18.13 18.13 0 0 0-1.84-2.89c-.54-.67-1.09-1.34-1.67-2s-1-1-1.53-1.5a1.63 1.63 0 0 1-.17-.2zM22.89 46.76l-.69-1.76c.3-.15.57-.27.83-.41a5.74 5.74 0 0 0 2.19-2.26 6.29 6.29 0 0 0 .78-2.33 6.8 6.8 0 0 0-.62-3.8 5.81 5.81 0 0 0-2.83-2.81 9.94 9.94 0 0 0-1-.34l.45-1.87a5.78 5.78 0 0 1 1.45.5 6.82 6.82 0 0 1 2.11 1.55 9.83 9.83 0 0 1 1 1.3 8.45 8.45 0 0 1 1 2.39 8.34 8.34 0 0 1 .3 2.16 9 9 0 0 1-1 4.17 7.83 7.83 0 0 1-1.39 1.88 7.06 7.06 0 0 1-2.58 1.63zM41.26 21.7a4.28 4.28 0 0 1 1.61 1.2c.53.75 1.12 1.45 1.64 2.21a19 19 0 0 1 1.72 3.21c.41 1 .76 2 1.12 3a21.07 21.07 0 0 1 .83 3.51c.11.7.17 1.41.24 2.12s.1 1.18.11 1.77 0 1-.07 1.49-.06 1.11-.14 1.66c-.11.84-.23 1.67-.4 2.5s-.35 1.47-.57 2.19a27.33 27.33 0 0 1-1.22 3.15 29.69 29.69 0 0 1-1.62 2.92 3.37 3.37 0 0 1-1.38 1.21l.28-.4a22.46 22.46 0 0 0 2.26-4.07 29.43 29.43 0 0 0 1.07-3c.3-1 .5-2.11.71-3.17a11.64 11.64 0 0 0 .15-1.46c.06-.88.14-1.76.15-2.64 0-.72 0-1.43-.1-2.14s-.13-1.43-.23-2.13a19 19 0 0 0-.85-3.65c-.32-.93-.62-1.86-1-2.77a11 11 0 0 0-.72-1.46c-.39-.72-.77-1.45-1.21-2.13s-1-1.39-1.55-2.08c-.25-.39-.55-.74-.83-1.04zM21.07 35.84l.27-1.91a4 4 0 0 1 1.4.58 5.62 5.62 0 0 1 1.67 7.4 4.75 4.75 0 0 1-2.32 2.09c-.1 0-.19.1-.23-.07l-.42-1.74a3.27 3.27 0 0 0 1.87-3.29 3.2 3.2 0 0 0-2.24-3.06zM13.24 22.93c-.53.81-1.09 1.62-1.6 2.46a13.38 13.38 0 0 0-.88 1.73c-.43 1-.89 2-1.22 3.09a21 21 0 0 0-.82 3.44 20.91 20.91 0 0 0-.33 3.05c0 .69-.08 1.39-.06 2.08a32.39 32.39 0 0 0 .29 3.68 34.38 34.38 0 0 0 .83 3.78 15.86 15.86 0 0 0 .76 2.13c.36.86.74 1.7 1.16 2.53.29.56.65 1.09 1 1.63a24.11 24.11 0 0 0 2.13 2.87 11.77 11.77 0 0 0 .87.86v.05a1.46 1.46 0 0 1-.27-.2c-.62-.65-1.26-1.28-1.84-2s-.94-1.18-1.37-1.79-.65-1-.94-1.53a21.52 21.52 0 0 1-1.53-3.26 23.47 23.47 0 0 1-.93-3 15.45 15.45 0 0 1-.49-2.14c0-.72-.17-1.43-.24-2.15 0-.51-.08-1-.07-1.53 0-.83 0-1.67.11-2.5a22.81 22.81 0 0 1 .29-2.33c.12-.68.32-1.34.49-2 .09-.38.16-.76.28-1.13s.3-.86.48-1.28c.3-.69.6-1.38.92-2.07a16.61 16.61 0 0 1 1.5-2.54c.47-.66 1-1.31 1.44-2zM46.77 50.21a26.51 26.51 0 0 0 2.4-12.75 25.66 25.66 0 0 0-3.79-12.37l.07-.05c.19.28.4.56.57.86a17.67 17.67 0 0 1 .91 1.65c.43.93.84 1.88 1.2 2.84a17.94 17.94 0 0 1 .92 3.32c.15.9.3 1.81.4 2.72a19.06 19.06 0 0 1 .15 2.26c0 .93-.06 1.87-.16 2.81a24.14 24.14 0 0 1-.52 3.06 27.51 27.51 0 0 1-.94 3c-.25.71-.58 1.39-.88 2.08a4.59 4.59 0 0 1-.33.57zM21 36.85a2.39 2.39 0 0 1 1.49 2.15 2.49 2.49 0 0 1-1.22 2.28 19 19 0 0 1-.27-4.43z"/></g><g id="lettering_AvenirBlack"><path class="circles-logo-lettering" d="M79.76 34.91a5.4 5.4 0 0 0-2-1.67 5.74 5.74 0 0 0-2.73-.67 7.28 7.28 0 0 0-5.6 2.15 8 8 0 0 0-2 5.64 7.94 7.94 0 0 0 2 5.63 7.25 7.25 0 0 0 5.6 2.16 5.18 5.18 0 0 0 2.73-.7 8.07 8.07 0 0 0 2-1.65l6.24 6.59a12.2 12.2 0 0 1-5.23 3.2 19.62 19.62 0 0 1-5.73.91 19.41 19.41 0 0 1-6.68-1.14 16 16 0 0 1-5.36-3.26 15.33 15.33 0 0 1-3.69-5.1 16.09 16.09 0 0 1-1.31-6.64 16.09 16.09 0 0 1 1.33-6.65 15.48 15.48 0 0 1 3.67-5.1 16.21 16.21 0 0 1 5.44-3.26 19.41 19.41 0 0 1 6.68-1.14 19.65 19.65 0 0 1 5.73.92 12.1 12.1 0 0 1 5.15 3.2zM88.81 15.29a5.51 5.51 0 0 1 11 0 5.51 5.51 0 0 1-11 0zm.76 9.71h9.5v30.74h-9.5zM105.91 25h9.49v4.94h.13a11.66 11.66 0 0 1 3.61-4.27 9.1 9.1 0 0 1 5.25-1.43c.55 0 1.1 0 1.65.07a7.78 7.78 0 0 1 1.52.25v8.64a15.18 15.18 0 0 0-2-.47 13.52 13.52 0 0 0-2-.16 10.21 10.21 0 0 0-4.31.76 5.83 5.83 0 0 0-2.44 2.12 8 8 0 0 0-1.1 3.26 31.55 31.55 0 0 0-.26 4.18v12.85h-9.49zM151.36 34.91a5.23 5.23 0 0 0-2-1.67 5.68 5.68 0 0 0-2.72-.67 7.26 7.26 0 0 0-5.6 2.15 8 8 0 0 0-2 5.64 7.94 7.94 0 0 0 2 5.63 7.23 7.23 0 0 0 5.6 2.16 5.17 5.17 0 0 0 2.72-.7 8.07 8.07 0 0 0 2-1.65l6.27 6.59a12.22 12.22 0 0 1-5.22 3.2 19.73 19.73 0 0 1-5.73.91 19.37 19.37 0 0 1-6.68-1.14 16 16 0 0 1-5.44-3.26 15.22 15.22 0 0 1-3.65-5.1 16.25 16.25 0 0 1-1.32-6.65 16.25 16.25 0 0 1 1.32-6.65 15.36 15.36 0 0 1 3.65-5.1 16.11 16.11 0 0 1 5.44-3.25 19.37 19.37 0 0 1 6.68-1.14 19.75 19.75 0 0 1 5.73.92 12.12 12.12 0 0 1 5.22 3.2zM161.18 7.88h9.49v47.86h-9.49zM206.63 50.43a15.12 15.12 0 0 1-5.76 4.49 17.3 17.3 0 0 1-7.21 1.58 19.37 19.37 0 0 1-6.66-1.14 16 16 0 0 1-5.45-3.26 15.33 15.33 0 0 1-3.66-5.1 16.09 16.09 0 0 1-1.33-6.65 16.09 16.09 0 0 1 1.33-6.65 15.48 15.48 0 0 1 3.64-5.1 16.15 16.15 0 0 1 5.47-3.25 19.37 19.37 0 0 1 6.68-1.14 15.21 15.21 0 0 1 6 1.14 12.58 12.58 0 0 1 4.56 3.26 15.12 15.12 0 0 1 2.88 5.1 20.72 20.72 0 0 1 1 6.65v3h-22a7.47 7.47 0 0 0 2.47 4.34 6.94 6.94 0 0 0 4.68 1.62 7.13 7.13 0 0 0 4-1 10.73 10.73 0 0 0 2.73-2.77zm-8-13.55a5.46 5.46 0 0 0-1.63-4.12 5.63 5.63 0 0 0-4.24-1.71 7.09 7.09 0 0 0-2.79.51 7 7 0 0 0-2 1.3 5.56 5.56 0 0 0-1.33 1.83 6 6 0 0 0-.54 2.19zM231.26 34a6.73 6.73 0 0 0-5.51-2.6 5.18 5.18 0 0 0-2.34.57 2 2 0 0 0-1.14 2 1.77 1.77 0 0 0 1.17 1.68 15.21 15.21 0 0 0 3 1l3.86.89a14.12 14.12 0 0 1 3.84 1.46 8.53 8.53 0 0 1 3 2.75 8.21 8.21 0 0 1 1.17 4.65 8.58 8.58 0 0 1-1.3 4.91 9.86 9.86 0 0 1-3.32 3.1 14.39 14.39 0 0 1-4.58 1.59 26.84 26.84 0 0 1-5 .47 24.19 24.19 0 0 1-6.52-.91 12.12 12.12 0 0 1-5.59-3.24l5.76-6.39a9.4 9.4 0 0 0 2.94 2.5 7.94 7.94 0 0 0 3.77.86 8.69 8.69 0 0 0 3-.48 1.75 1.75 0 0 0 1.33-1.74 1.92 1.92 0 0 0-1.17-1.8 12.63 12.63 0 0 0-3-1l-3.87-.88a16.21 16.21 0 0 1-3.86-1.43 7.62 7.62 0 0 1-4.15-7.34 9.38 9.38 0 0 1 1.11-4.69 9.74 9.74 0 0 1 2.92-3.23 12.61 12.61 0 0 1 4.14-1.86 19.1 19.1 0 0 1 4.75-.61 22.3 22.3 0 0 1 6.14.89 11.42 11.42 0 0 1 5.26 3.17z"/></g></svg>