<?xml version="1.0" encoding="utf-8"?>
<!-- Generator: Adobe Illustrator 23.0.1, SVG Export Plug-In . SVG Version: 6.00 Build 0)  -->
<svg version="1.1" id="Layer_1" xmlns="http://www.w3.org/2000/svg" xmlns:xlink="http://www.w3.org/1999/xlink" x="0px" y="0px"
	 viewBox="0 0 56.5 55.3" style="enable-background:new 0 0 56.5 55.3;" xml:space="preserve">
<style type="text/css">
	.st0{fill:#FFFFFF;}
</style>
<title>Circles</title>
<g id="Logo_White">
	<path d="M5.2,27.8v-0.3c0-0.3,0.1-0.5,0.1-0.8c0-0.7,0.1-1.3,0.2-2c0.1-0.8,0.3-1.7,0.4-2.5c0.2-0.7,0.3-1.4,0.6-2.1
		c0.4-1.3,1-2.6,1.6-3.8c0.6-1.1,1.2-2.1,2-3.1c0.4-0.5,0.8-1,1.2-1.4s0.7-0.7,1.1-1c0.4-0.4,0.8-0.8,1.3-1.2
		c0.7-0.6,1.4-1.1,2.2-1.6c0.5-0.3,1-0.6,1.5-0.9c1.1-0.5,2.2-1,3.3-1.4c0.9-0.3,1.8-0.6,2.7-0.8c1.1-0.2,2.3-0.3,3.5-0.3h2.1
		c0.5,0,1,0.1,1.5,0.1c0.8,0.1,1.7,0.3,2.5,0.5s1.4,0.5,2.1,0.7c1,0.3,2.1,0.8,3,1.3c1.1,0.6,2.1,1.3,3,2l2,1.8
		c0.7,0.7,1.4,1.4,2,2.2c0.9,1.1,1.6,2.3,2.3,3.6c0.6,1.2,1.1,2.4,1.5,3.7c0.2,0.7,0.4,1.3,0.5,2c0.3,1.1,0.5,2.3,0.5,3.5
		c0.1,1,0.1,2.1,0,3.1c-0.1,1-0.2,2-0.3,3c-0.2,1.1-0.5,2.2-0.8,3.3c-0.3,1-0.7,1.9-1.1,2.8c-0.4,0.9-0.9,1.8-1.4,2.6
		c-0.7,1.1-1.5,2.1-2.4,3l-0.8,0.9c-0.3,0.4-0.6,0.7-1,1c-0.7,0.6-1.4,1.1-2.1,1.7c-1,0.7-2.1,1.2-3.2,1.7c-0.7,0.4-1.5,0.7-2.3,1
		c-1,0.4-2.1,0.6-3.2,0.8c-0.4,0.1-0.9,0-1.3,0.1c-0.8,0.1-1.6,0.2-2.3,0.2c-0.7,0-1.5,0-2.2-0.1c-0.3,0-0.6,0-0.9-0.1l-2.7-0.6
		c-0.3-0.1-0.6-0.1-0.9-0.2c-0.9-0.3-1.8-0.6-2.7-1c-1-0.5-2-1-2.9-1.7c-0.7-0.5-1.4-1.1-2.1-1.6c-0.9-0.7-1.8-1.6-2.5-2.5
		c-0.9-1-1.7-2.1-2.3-3.2c-0.9-1.6-1.7-3.3-2.2-5c-0.4-1.2-0.7-2.5-0.9-3.8c-0.1-0.5-0.2-1-0.2-1.4C5.3,29.3,5.3,28.6,5.2,27.8
		C5.3,27.9,5.3,27.8,5.2,27.8z M43.3,43.4L43.3,43.4L43.3,43.4c-0.8,0.6-1.6,1.1-2.5,1.5c-0.8,0.4-1.6,0.7-2.4,0.9
		c-0.9,0.3-1.8,0.4-2.7,0.4h-1.8c-0.9,0-1.8-0.2-2.7-0.5c-0.7-0.2-1.3-0.5-2-0.8c-0.9-0.4-1.8-1-2.5-1.6c-0.8-0.6-1.6-1.3-2.2-2.1
		c-0.7-0.8-1.4-1.7-2-2.6c-0.3-0.5-0.6-1-0.9-1.5c-0.4-0.9-0.7-1.7-1.1-2.6c-0.2-0.4-0.3-0.9-0.4-1.4c-0.2-0.8-0.3-1.6-0.5-2.4
		c-0.2-1-0.3-2-0.3-3.1v-1.8c0,0,0-1,0.1-1.4c0.1-0.7,0.2-1.3,0.3-2c0.2-0.9,0.5-1.8,0.7-2.7c0.7-2.2,1.9-4.3,3.3-6.1
		c1.4-1.7,3.1-3.1,5.1-4c0.7-0.3,1.4-0.6,2.2-0.8c0.8-0.2,1.5-0.3,2.3-0.4c1-0.1,1.9-0.1,2.9,0.1c1.2,0.2,2.3,0.5,3.4,0.9
		c0.4,0.2,0.8,0.4,1.3,0.6c0.2,0.1,0.5,0.3,0.7,0.4c-0.7-0.6-1.5-1.1-2.3-1.5c-0.8-0.4-1.6-0.8-2.5-1c-0.4-0.1-0.7-0.2-1.1-0.3
		c-0.6-0.1-1.2-0.3-1.8-0.3c-0.7,0-1.3,0-2,0c-0.4,0-0.7,0-1.1,0.1c-0.9,0.1-1.9,0.3-2.7,0.7c-0.8,0.3-1.5,0.6-2.3,1
		c-0.9,0.5-1.7,1-2.5,1.7c-0.8,0.7-1.6,1.5-2.3,2.3c-0.8,1-1.5,2-2.1,3.1c-0.2,0.4-0.5,0.9-0.6,1.3c-0.4,1-0.8,1.9-1.1,2.9
		c-0.3,1-0.5,2-0.7,3c-0.2,1.3-0.3,2.6-0.3,3.9c0,0.7,0.1,1.3,0.1,2c0.1,0.8,0.2,1.6,0.3,2.4c0.2,1,0.5,1.9,0.8,2.9
		c0.4,1.3,0.9,2.5,1.5,3.6c0.3,0.5,0.5,1,0.9,1.5c0.5,0.8,1,1.5,1.6,2.2c0.4,0.5,0.8,1,1.2,1.4c0.6,0.5,1.1,1.1,1.8,1.5
		c0.8,0.6,1.7,1.2,2.7,1.6c0.9,0.4,1.9,0.8,2.8,1.1c0.9,0.3,1.9,0.4,2.9,0.5c0.7,0,1.4,0,2.1-0.1c0.6-0.1,1.1-0.1,1.6-0.3
		c0.7-0.2,1.5-0.5,2.2-0.7c0.4-0.1,0.8-0.3,1.1-0.5c0.8-0.5,1.5-0.9,2.2-1.4S42.8,43.9,43.3,43.4z M37.1,48.1L37.1,48.1l-0.5,0.1
		c-1.2,0.3-2.3,0.4-3.5,0.4c-0.5,0-1.1-0.1-1.6-0.1c-0.9-0.1-1.8-0.2-2.6-0.5c-0.9-0.3-1.7-0.6-2.6-1c-0.9-0.5-1.8-1-2.6-1.6
		c-0.9-0.6-1.7-1.4-2.4-2.2c-0.3-0.3-0.6-0.7-0.9-1c-0.4-0.5-0.8-1.1-1.2-1.6c-0.7-1.1-1.3-2.2-1.8-3.4c-0.3-0.9-0.7-1.7-1-2.6
		c-0.3-1-0.5-2-0.7-3c-0.2-0.9-0.3-1.8-0.3-2.7c0-0.8,0-1.6,0-2.3c0-0.8,0.1-1.6,0.1-2.4s0.3-1.8,0.4-2.6c0.3-1.3,0.7-2.5,1.2-3.7
		c0.4-0.9,0.8-1.8,1.3-2.6c0.7-1.2,1.5-2.3,2.5-3.4c0.5-0.5,0.9-0.9,1.4-1.4c0.7-0.6,1.4-1.2,2.2-1.7c0.8-0.5,1.7-1,2.6-1.3
		c0.7-0.3,1.3-0.5,2-0.6c0.6-0.1,1.1-0.2,1.7-0.3h2.3c0.4,0,0.8,0.1,1.2,0.1L35,6.7V6.7c-0.3-0.1-0.6-0.2-0.9-0.2
		c-0.7-0.1-1.4-0.3-2.2-0.4c-0.6-0.1-1.2-0.1-1.8-0.1c-0.4,0-0.7,0-1.1,0c-0.5,0.1-1,0.2-1.6,0.3c-0.8,0.2-1.5,0.4-2.3,0.6
		c-0.8,0.3-1.6,0.7-2.3,1.1c-0.6,0.3-1.2,0.7-1.8,1.1c-1.1,0.8-2.1,1.7-3,2.7c-0.4,0.4-0.8,0.9-1.1,1.4c-0.5,0.8-1,1.6-1.4,2.4
		c-0.6,1.2-1.2,2.5-1.6,3.8c-0.2,0.6-0.3,1.2-0.5,1.8c-0.3,1-0.4,2-0.5,3c-0.1,0.5-0.1,0.9-0.1,1.4s-0.1,1-0.1,1.5s0.1,1.3,0.1,1.9
		c0.1,1,0.2,1.9,0.3,2.9c0.2,1.2,0.5,2.3,0.9,3.5c0.4,1.1,0.8,2.1,1.3,3.2c0.5,1.1,1.1,2.1,1.8,3.1c0.3,0.5,0.7,1,1.1,1.4
		c0.6,0.7,1.3,1.4,2,2c1,0.9,2.2,1.8,3.4,2.4l0.4,0.2c1.1,0.6,2.2,1,3.4,1.3c1.1,0.3,2.2,0.4,3.3,0.5c0.4,0,0.8,0,1.2,0
		c0.2,0,0.5,0,0.7,0c1.1-0.2,2.1-0.4,3.1-0.7L37.1,48.1z M28.2,5.3c-0.4,0-0.8,0-1.2,0c-0.9,0.1-1.7,0.3-2.6,0.5
		c-0.5,0.1-1,0.3-1.5,0.5c-1,0.4-2,0.9-2.9,1.4c-1.3,0.8-2.4,1.7-3.5,2.7c-0.4,0.4-0.7,0.7-1,1.1c-0.4,0.4-0.7,0.9-1.1,1.3
		c-0.8,1.1-1.5,2.3-2.1,3.5c-0.5,1-0.9,2.1-1.2,3.2c-0.3,0.8-0.5,1.6-0.6,2.4c-0.2,0.8-0.3,1.6-0.4,2.4c-0.1,1-0.1,2.1-0.2,3.1v1.1
		c0,0,0,1,0.1,1.5c0.2,1.1,0.3,2.3,0.6,3.4c0.3,1.3,0.7,2.5,1.2,3.8c0.4,1.1,0.9,2.2,1.5,3.2c0.7,1.2,1.5,2.4,2.5,3.5
		c0.6,0.7,1.2,1.3,1.9,1.9c0.5,0.5,1.1,0.9,1.6,1.3c1,0.7,2.1,1.4,3.2,1.8c0.9,0.4,1.8,0.7,2.8,0.9c1.2,0.3,2.5,0.5,3.7,0.5h0.5
		l1.4,0c-0.3,0-0.7-0.1-1-0.1c-0.5,0-1-0.1-1.4-0.1c-0.9-0.1-1.7-0.4-2.6-0.7c-0.5-0.2-0.9-0.3-1.3-0.5c-0.5-0.2-1-0.5-1.5-0.8
		c-2.1-1.2-4-2.8-5.5-4.7c-0.5-0.6-1-1.3-1.5-2c-0.4-0.6-0.7-1.2-1-1.8c-0.4-0.9-0.8-1.7-1.2-2.6s-0.6-1.6-0.8-2.4l-0.2-0.9
		c-0.3-1.2-0.5-2.5-0.6-3.8C12,28.9,12,28.1,12,27.2c0-0.6,0-1.2,0.1-1.8v-0.7c0.1-0.6,0.2-1.2,0.3-1.9c0.2-1.1,0.4-2.2,0.8-3.3
		c0.2-0.7,0.4-1.4,0.7-2c0.4-1,0.8-1.9,1.3-2.8c0.4-0.8,0.9-1.5,1.5-2.2c0.5-0.6,0.9-1.2,1.5-1.8c0.6-0.7,1.4-1.4,2.1-2
		C21,8,22,7.4,23,7c0.8-0.4,1.7-0.8,2.6-1.1c0.5-0.2,0.9-0.3,1.4-0.4C27.4,5.4,27.9,5.4,28.2,5.3z M25.9,12.7
		c0.4,0.2,0.8,0.3,1.1,0.5c0.9,0.4,1.8,1,2.5,1.6c0.8,0.7,1.6,1.4,2.3,2.3c0.6,0.7,1.1,1.5,1.6,2.3c1.4,2.6,2.2,5.4,2.3,8.3
		c0,1.5-0.1,2.9-0.4,4.4c-0.4,1.8-1.1,3.6-2,5.3c-0.6,1-1.3,2-2.1,2.9c-1,1.1-2.2,2-3.5,2.8c-0.1,0-0.1,0.1-0.1,0.1
		c0.5,0.3,0.9,0.5,1.3,0.8c0.1,0.1,0.3,0.1,0.5,0c0.9-0.6,1.8-1.3,2.6-2c1.1-1,2-2.2,2.8-3.5c0.7-1.1,1.2-2.3,1.7-3.5
		c0.4-1.2,0.7-2.4,0.9-3.7c0.1-0.8,0.2-1.5,0.2-2.2c0-1,0-1.9-0.1-2.9c-0.2-1.4-0.5-2.8-1-4.2c-0.3-1-0.8-1.9-1.2-2.9
		c-0.7-1.4-1.6-2.7-2.7-3.8c-0.7-0.7-1.4-1.3-2.1-1.9c-0.9-0.7-1.8-1.2-2.8-1.7c-0.1,0-0.2,0-0.3,0C27.2,11.6,25.9,12.7,25.9,12.7z
		 M28.1,11c0.7,0.4,1.3,0.8,1.9,1.2c0.9,0.5,1.7,1.2,2.4,1.9c0.6,0.6,1.1,1.2,1.6,1.8c0.5,0.6,0.9,1.2,1.3,1.8
		c0.5,0.8,0.9,1.6,1.3,2.5c0.4,1,0.7,2,1,3.1c0.4,1.4,0.5,2.8,0.6,4.2c0.1,1.4,0,2.8-0.2,4.2c-0.2,0.9-0.4,1.8-0.6,2.7
		c-0.2,0.8-0.5,1.6-0.9,2.4c-0.4,0.8-0.8,1.5-1.2,2.2c-0.5,0.8-1.1,1.6-1.8,2.3c-0.5,0.5-0.9,0.9-1.4,1.4s-0.8,0.7-1.2,1
		s-0.6,0.4-1,0.7l1.5,0.6c0.1,0,0.2,0,0.2-0.1c0.3-0.2,0.7-0.5,1-0.7c0.8-0.6,1.5-1.3,2.1-2c0.7-0.8,1.4-1.7,1.9-2.6
		c0.6-0.9,1-1.8,1.5-2.8c0.6-1.3,1-2.6,1.2-3.9c0.2-1,0.3-2.1,0.5-3.2c0-0.7,0-1.4,0-2.1c0-0.7-0.1-1.5-0.2-2.2
		c-0.1-1.1-0.4-2.2-0.7-3.2c-0.3-0.9-0.6-1.8-1-2.7c-0.4-0.9-0.8-1.7-1.3-2.5c-0.5-0.9-1.2-1.8-1.9-2.6c-0.5-0.5-0.9-1-1.4-1.5
		c-0.3-0.3-0.6-0.6-0.9-0.8c-0.8-0.5-1.6-1-2.4-1.5c-0.2-0.2-0.5-0.2-0.8-0.1C28.9,10.6,28.5,10.8,28.1,11z M24,14.7
		c1,0.3,2,0.8,2.9,1.4c0.6,0.4,1.2,0.9,1.7,1.4c0.5,0.5,1,1,1.4,1.6c0.6,0.8,1.2,1.7,1.6,2.6c0.9,1.9,1.4,3.9,1.4,6
		c0,0.8,0,1.5-0.1,2.2c-0.1,1-0.3,2-0.6,3c-0.4,1.2-0.9,2.4-1.5,3.4c-0.5,0.8-1.1,1.5-1.7,2.2c-0.8,0.8-1.7,1.6-2.7,2.1
		c-0.3,0.2-0.7,0.3-1,0.5c0.4,0.4,0.7,0.7,1.1,1c0.1,0.1,0.2,0.3,0.4,0.2c0.7-0.4,1.4-0.8,2-1.2c0.9-0.7,1.7-1.5,2.4-2.4
		c0.2-0.3,0.5-0.6,0.7-0.9c0.3-0.5,0.7-1.1,1-1.7c0.3-0.7,0.7-1.4,0.9-2.1c0.2-0.6,0.4-1.3,0.5-1.9c0.1-0.4,0.2-0.9,0.2-1.3
		s0.1-1,0.2-1.5v-1.1l-0.1-1.2c0,0-0.1-1-0.2-1.4c-0.1-0.8-0.3-1.6-0.6-2.4c-0.2-0.8-0.5-1.6-0.9-2.3c-0.5-1-1.1-2-1.7-2.9
		c-0.8-1-1.7-2-2.7-2.8c-1-0.8-2.2-1.5-3.5-1.9c-0.1,0-0.1,0-0.2,0C24.8,13.8,24.4,14.2,24,14.7z M32.6,45.2l1.4,0.2
		c0.2,0,0.3,0,0.4-0.2c0.6-0.6,1.2-1.1,1.8-1.7c0.6-0.6,1.1-1.2,1.6-1.9c0.7-0.9,1.3-1.9,1.8-2.9c0.8-1.5,1.3-3,1.7-4.7
		c0.2-0.9,0.3-1.9,0.5-2.8c0.2-1,0.2-1.9,0.2-2.9c0-0.6,0-1.2-0.1-1.8c-0.1-0.8-0.2-1.6-0.3-2.4c-0.2-1-0.4-2-0.7-3
		c-0.3-0.9-0.6-1.7-0.9-2.5s-0.9-1.8-1.4-2.6c-0.8-1.3-1.7-2.6-2.8-3.7c-0.6-0.6-1.3-1.2-2-1.7c-0.5-0.4-1-0.7-1.5-1.1
		c-0.1,0-0.2-0.1-0.2-0.1c-0.5,0.1-1,0.2-1.5,0.4c0.1,0.1,0.2,0.2,0.3,0.2c0.6,0.4,1.3,0.8,1.9,1.3s1.4,1.2,2,1.9
		c0.7,0.7,1.3,1.4,1.8,2.2c0.6,0.8,1.1,1.7,1.5,2.5c0.6,1.1,1,2.2,1.4,3.4c0.3,1,0.6,2.1,0.7,3.1c0.1,1,0.2,2,0.3,3c0,0.7,0,1.3,0,2
		c0,0.8-0.1,1.6-0.2,2.4c-0.2,1.2-0.4,2.3-0.8,3.4c-0.3,0.8-0.6,1.7-1,2.5c-0.4,1-0.9,1.9-1.5,2.8c-0.7,1-1.5,2-2.4,2.9
		C34,44.1,33.3,44.6,32.6,45.2L32.6,45.2z M23.7,39.2l1,1.3c0,0.1,0.1,0.1,0.2,0.1c0,0,0,0,0,0c0.4-0.2,0.9-0.5,1.3-0.7
		c0.6-0.4,1.3-0.9,1.9-1.4c1-0.9,1.7-1.9,2.3-3.1c0.4-0.6,0.7-1.3,0.9-2c0.4-1,0.6-2,0.7-3c0.1-0.7,0.2-1.4,0.2-2
		c0-1.1-0.1-2.1-0.4-3.2c-0.3-1.4-0.8-2.8-1.5-4c-0.9-1.6-2.1-3-3.6-4.1c-0.9-0.6-1.9-1.2-3-1.6c-0.1-0.1-0.3,0-0.3,0.1c0,0,0,0,0,0
		l-0.4,0.7l-0.4,0.7c0.8,0.2,1.7,0.5,2.4,1c1.1,0.6,2,1.4,2.8,2.4c0.8,1,1.5,2.1,1.9,3.3c0.5,1.3,0.8,2.7,0.8,4.1c0,1,0,2-0.2,2.9
		c-0.2,1.4-0.7,2.7-1.5,4c-0.5,0.8-1,1.5-1.7,2.2c-0.6,0.6-1.4,1.2-2.1,1.6C24.6,38.7,24.1,38.9,23.7,39.2z M33.5,9.4l0.2,0.2
		c0.9,0.6,1.7,1.3,2.4,2c0.3,0.3,0.5,0.6,0.8,0.9c0.8,0.8,1.4,1.7,2,2.6c0.5,0.8,1,1.7,1.5,2.6c0.3,0.5,0.5,1,0.7,1.5
		c0.3,1,0.7,2,1,2.9c0.2,0.8,0.4,1.7,0.5,2.5c0.1,1,0.2,1.9,0.3,2.9c0,0.9,0,1.8-0.1,2.7c0,0.6-0.1,1.3-0.2,1.9
		c-0.2,1-0.4,1.9-0.6,2.8c-0.3,1.2-0.7,2.3-1.2,3.4c-0.4,0.8-0.8,1.6-1.3,2.4c-0.6,1.1-1.4,2-2.2,2.9c-0.4,0.5-0.9,0.9-1.3,1.3
		l-0.4,0.4c0.4,0,0.7,0,1.1-0.1c0.2,0,0.4,0,0.5-0.1c0.2-0.2,0.5-0.4,0.7-0.6c0.4-0.4,0.8-0.8,1.2-1.3s0.8-1.1,1.2-1.6
		c0.3-0.4,0.5-0.8,0.8-1.2c0.5-0.9,0.9-1.8,1.3-2.7s0.7-1.8,1-2.7c0.2-0.6,0.3-1.1,0.4-1.7c0.2-0.9,0.3-1.9,0.4-2.8s0.1-1.8,0.1-2.7
		c0-1-0.1-2-0.3-3c-0.2-1-0.3-1.9-0.5-2.9c-0.3-1-0.6-1.9-0.9-2.9c-0.4-1-0.8-2-1.3-2.9c-0.5-0.9-1.1-1.7-1.7-2.5
		c-0.5-0.8-1.2-1.5-1.8-2.2c-0.7-0.8-1.6-1.5-2.4-2.1c-0.1-0.1-0.2-0.1-0.4-0.1h-1.1C33.7,9.3,33.6,9.3,33.5,9.4L33.5,9.4z
		 M22.2,49.5L22.2,49.5l-0.5-0.3c-0.9-0.4-1.7-0.9-2.5-1.5c-0.8-0.6-1.5-1.2-2.2-1.8c-0.7-0.7-1.4-1.4-2-2.1c-1-1.1-1.8-2.4-2.5-3.7
		c-0.5-1-0.9-2-1.4-3.1c-0.5-1.2-0.9-2.5-1.1-3.8c-0.1-0.6-0.2-1.2-0.3-1.7c-0.2-1.3-0.3-2.5-0.3-3.8c0-0.6,0-1.3,0.1-1.9
		c0.1-0.8,0.1-1.6,0.2-2.5s0.2-1.5,0.4-2.2c0.1-0.7,0.3-1.3,0.5-2c0.4-1.2,0.9-2.4,1.5-3.6c0.2-0.5,0.5-0.9,0.7-1.4
		c0.5-0.9,1.1-1.8,1.8-2.6c0.3-0.4,0.6-0.8,1-1.2c0.4-0.4,0.8-0.8,1.2-1.1c0.7-0.6,1.5-1.2,2.3-1.8c0.3-0.2,0.7-0.5,1-0.6v0
		c-0.3,0.1-0.5,0.2-0.8,0.3c-0.9,0.5-1.8,1.1-2.6,1.7c-0.8,0.6-1.5,1.2-2.2,1.9L13.5,12c-0.6,0.7-1.2,1.4-1.7,2.2
		c-0.7,1-1.3,2.1-1.7,3.3c-0.3,0.8-0.6,1.5-0.9,2.3C9,20.2,9,20.6,8.9,21c-0.1,0.4-0.3,1.1-0.4,1.6c-0.2,0.7-0.3,1.5-0.4,2.2
		c-0.1,1-0.1,1.9-0.1,2.9c0,0.5,0,1,0,1.4c0,0.6,0.1,1.1,0.2,1.7c0.1,0.7,0.2,1.4,0.3,2.1c0.2,0.9,0.5,1.7,0.7,2.6
		c0.2,0.6,0.4,1.3,0.7,1.9c0.4,0.9,0.9,1.8,1.4,2.7s0.9,1.5,1.4,2.3c0.4,0.5,0.8,1,1.2,1.5c0.8,0.9,1.6,1.7,2.5,2.4
		c1.4,1.1,3,2.1,4.7,2.8C21.5,49.3,21.9,49.4,22.2,49.5z M23.2,38.4c0.4-0.2,0.7-0.3,1-0.5c1.2-0.6,2.2-1.5,3-2.5
		c1.9-2.5,2.7-5.6,2.2-8.7c-0.2-1.2-0.5-2.3-1-3.4c-0.6-1.3-1.5-2.5-2.5-3.4C25,19,24,18.4,22.9,18c-0.2-0.1-0.5-0.2-0.8-0.2
		l-0.8,1.7c0.3,0.1,0.5,0.1,0.8,0.2c0.9,0.3,1.7,0.8,2.5,1.5c0.9,0.8,1.6,1.7,2.1,2.7c0.5,1.1,0.9,2.2,1,3.4c0.1,1,0.1,2-0.1,3
		c-0.2,1-0.6,2-1.1,2.9c-0.4,0.8-1,1.5-1.7,2.1c-0.7,0.7-1.6,1.2-2.5,1.5L23.2,38.4z M36.8,9.5L36.8,9.5c0.1,0.1,0.1,0.2,0.2,0.3
		c0.5,0.5,1,1,1.5,1.5s1.1,1.3,1.7,2c0.7,0.9,1.3,1.9,1.8,2.9c0.4,0.8,0.8,1.6,1.1,2.4c0.2,0.4,0.3,0.8,0.5,1.2
		c0.3,0.9,0.5,1.8,0.7,2.7c0.2,1,0.4,2,0.5,3.1c0.1,0.7,0.1,1.4,0.1,2.1c0,0.1,0.1,0.3,0.1,0.5c0,0.5,0,1.1-0.1,1.7
		c-0.1,0.9-0.1,1.8-0.3,2.7c-0.1,0.7-0.3,1.4-0.5,2.1c-0.1,0.6-0.3,1.2-0.5,1.7c-0.3,0.8-0.6,1.5-0.9,2.3c-0.2,0.5-0.5,1.1-0.8,1.5
		c-0.5,0.9-1,1.7-1.6,2.5c-0.3,0.5-0.8,1-1.1,1.4c-0.2,0.2-0.4,0.4-0.5,0.6c0.2,0,0.3-0.1,0.5-0.1c0.3-0.1,0.6-0.3,0.9-0.4
		c0.3-0.2,0.5-0.5,0.8-0.8c0.5-0.7,1-1.4,1.5-2.1c0.9-1.4,1.6-2.9,2.2-4.4c0.3-0.8,0.5-1.7,0.8-2.6c0.4-1.5,0.6-3.1,0.7-4.6
		c0-1,0-2,0-2.9c0-0.7-0.1-1.5-0.2-2.2c-0.1-0.9-0.3-1.8-0.5-2.7c-0.3-1.3-0.8-2.6-1.3-3.8c-0.4-1-0.9-1.9-1.5-2.8
		c-0.5-0.8-1-1.6-1.5-2.3c-0.7-1-1.6-1.8-2.5-2.6c-0.1-0.1-0.2-0.2-0.3-0.2C37.7,9.8,37.3,9.6,36.8,9.5L36.8,9.5z M21.9,35.9
		c1-0.4,1.8-0.9,2.6-1.6c0.6-0.6,1-1.2,1.4-1.9c0.7-1.3,1-2.7,1-4.2c0-0.7-0.1-1.5-0.3-2.2c-0.2-0.8-0.5-1.6-1-2.4
		c-0.3-0.5-0.6-0.9-1-1.3c-0.6-0.6-1.3-1.2-2.1-1.5c-0.5-0.2-0.9-0.4-1.5-0.5l-0.4,1.8c0.3,0.1,0.7,0.2,1,0.3
		c1.2,0.6,2.2,1.6,2.8,2.8c0.6,1.2,0.8,2.5,0.6,3.8c-0.1,0.8-0.3,1.7-0.7,2.4c-0.5,0.9-1.3,1.7-2.3,2.2c-0.3,0.1-0.5,0.3-0.8,0.4
		L21.9,35.9z M40.3,10.9c0.3,0.3,0.6,0.6,0.8,1c0.5,0.7,1.1,1.4,1.5,2.1s0.8,1.4,1.2,2.1c0.3,0.5,0.5,1,0.7,1.5
		c0.4,0.9,0.7,1.8,1,2.8c0.4,1.2,0.7,2.4,0.8,3.7c0.1,0.7,0.2,1.4,0.2,2.1s0.1,1.4,0.1,2.1c0,0.9-0.1,1.8-0.2,2.6
		c0,0.5-0.1,1-0.2,1.5c-0.2,1.1-0.4,2.1-0.7,3.2c-0.3,1-0.7,2-1.1,3c-0.6,1.4-1.4,2.8-2.3,4.1L42.1,43c0.6-0.3,1-0.7,1.4-1.2
		c0.6-0.9,1.1-1.9,1.6-2.9c0.5-1,0.9-2.1,1.2-3.2c0.2-0.7,0.4-1.5,0.6-2.2s0.3-1.7,0.4-2.5c0.1-0.5,0.1-1.1,0.1-1.7s0.1-1,0.1-1.5
		s-0.1-1.2-0.1-1.8s-0.1-1.4-0.2-2.1c-0.2-1.2-0.5-2.4-0.8-3.5c-0.4-1-0.7-2-1.1-3c-0.5-1.1-1-2.2-1.7-3.2c-0.5-0.8-1.1-1.5-1.6-2.2
		C41.4,11.5,40.9,11.1,40.3,10.9z M20.1,25c1.3,0.4,2.3,1.7,2.2,3.1c0.1,1.4-0.6,2.7-1.9,3.3l0.4,1.8c0,0.2,0.1,0.1,0.2,0.1
		c1-0.4,1.8-1.2,2.3-2.1c1.4-2.5,0.7-5.7-1.7-7.4c-0.4-0.3-0.9-0.5-1.4-0.6L20.1,25z M12.2,12.1c-0.5,0.6-1,1.3-1.4,2
		c-0.6,0.8-1.1,1.7-1.5,2.5C9,17.3,8.7,18,8.4,18.7C8.2,19.1,8,19.5,7.9,20l-0.3,1.1c-0.2,0.7-0.4,1.3-0.5,2
		c-0.1,0.8-0.2,1.5-0.3,2.3c-0.1,0.8-0.1,1.7-0.1,2.5c0,0.5,0,1,0.1,1.5C6.9,30.2,7,30.9,7,31.6c0.1,0.8,0.2,1.5,0.4,2.2
		c0.2,1,0.6,2,0.9,3c0.4,1.1,0.9,2.2,1.5,3.3c0.3,0.5,0.6,1,0.9,1.5s0.9,1.2,1.4,1.8s1.2,1.3,1.8,2c0.1,0.1,0.2,0.1,0.3,0.2v0
		c-0.3-0.3-0.6-0.6-0.9-0.9c-0.8-0.9-1.5-1.9-2.1-2.9c-0.3-0.5-0.7-1.1-1-1.6c-0.4-0.8-0.8-1.7-1.2-2.5c-0.3-0.7-0.6-1.4-0.8-2.1
		c-0.3-1.2-0.6-2.5-0.8-3.8c-0.2-1.2-0.3-2.4-0.3-3.7c0-0.7,0.1-1.4,0.1-2.1c0-1,0.1-2,0.3-3c0.2-1.2,0.5-2.3,0.8-3.4
		c0.3-1,0.8-2.1,1.2-3.1c0.3-0.6,0.5-1.2,0.9-1.7C11.2,13.7,11.7,12.9,12.2,12.1z M45.8,39.4c0.1-0.2,0.2-0.3,0.3-0.5
		c0.3-0.7,0.6-1.4,0.9-2.1c0.4-1,0.7-2,0.9-3c0.2-1,0.4-2,0.5-3.1c0.1-0.9,0.1-1.9,0.2-2.8c0-0.8-0.1-1.5-0.2-2.3
		c-0.1-0.9-0.2-1.8-0.4-2.7c-0.2-1.1-0.5-2.2-0.9-3.3c-0.4-1-0.8-1.9-1.2-2.8c-0.3-0.6-0.6-1.2-0.9-1.7c-0.2-0.3-0.4-0.6-0.6-0.9
		l-0.1,0c2.3,3.7,3.6,8,3.8,12.4C48.4,31,47.6,35.4,45.8,39.4z M20,26c-0.1,1.5,0,2.9,0.2,4.4c0.8-0.5,1.3-1.3,1.2-2.2
		C21.5,27.2,20.9,26.4,20,26z"/>
	<path class="st0" d="M43.3,43.4c-0.5,0.4-1,0.9-1.6,1.3s-1.5,1-2.2,1.4c-0.3,0.2-0.7,0.4-1.1,0.5c-0.7,0.3-1.5,0.5-2.2,0.7
		c-0.5,0.1-1.1,0.2-1.6,0.3c-0.7,0.1-1.4,0.1-2.1,0.1c-1,0-2-0.2-2.9-0.5c-1-0.3-1.9-0.6-2.8-1.1c-0.9-0.5-1.8-1-2.7-1.6
		c-0.6-0.5-1.2-1-1.8-1.5c-0.4-0.4-0.9-0.9-1.2-1.3c-0.5-0.7-1.1-1.5-1.6-2.2c-0.3-0.5-0.6-1-0.9-1.5c-0.6-1.2-1.1-2.4-1.5-3.6
		c-0.3-1-0.5-1.9-0.8-2.9c-0.1-0.8-0.2-1.6-0.3-2.4c-0.1-0.7-0.1-1.4-0.1-2.1c0-1.3,0.1-2.6,0.3-3.9c0.2-1,0.4-2,0.7-3
		c0.3-1,0.7-1.9,1.1-2.9c0.2-0.5,0.4-0.9,0.6-1.3c0.6-1.1,1.3-2.1,2.1-3.1c0.7-0.8,1.5-1.6,2.3-2.3c0.8-0.6,1.6-1.2,2.5-1.7
		c0.7-0.4,1.5-0.7,2.3-1c0.9-0.3,1.8-0.5,2.7-0.7c0.4-0.1,0.7-0.1,1.1-0.1c0.7,0,1.3,0,2,0c0.6,0.1,1.2,0.2,1.8,0.3
		c0.4,0.1,0.7,0.2,1.1,0.3c0.9,0.2,1.7,0.6,2.5,1c0.8,0.4,1.6,0.9,2.3,1.5c-0.2-0.1-0.5-0.3-0.7-0.4c-0.4-0.2-0.8-0.4-1.3-0.6
		c-1.1-0.5-2.2-0.8-3.4-0.9c-0.9-0.1-1.9-0.1-2.9-0.1c-0.8,0.1-1.6,0.2-2.3,0.4c-0.8,0.2-1.5,0.5-2.2,0.8c-2,0.9-3.7,2.3-5.1,4
		c-1.5,1.8-2.6,3.9-3.3,6.1c-0.3,0.9-0.5,1.8-0.7,2.7c-0.1,0.7-0.2,1.3-0.3,2c-0.1,0.5-0.1,1-0.1,1.4s-0.1,1.2,0,1.8
		c0,1,0.1,2.1,0.3,3.1c0.2,0.8,0.3,1.6,0.5,2.4c0.1,0.5,0.3,0.9,0.5,1.4c0.4,0.9,0.7,1.8,1.1,2.6c0.3,0.5,0.5,1,0.8,1.5
		c0.6,0.9,1.3,1.8,2,2.6c0.7,0.8,1.4,1.5,2.2,2.1c0.8,0.6,1.6,1.2,2.5,1.6c0.7,0.3,1.3,0.6,2,0.8c0.9,0.3,1.8,0.5,2.7,0.5h1.8
		c0.9,0,1.8-0.2,2.7-0.4c0.8-0.2,1.7-0.5,2.4-0.9c0.9-0.4,1.7-1,2.5-1.6h0.1L43.3,43.4z M37.1,48.1l-1.3,0.5c-1,0.3-2.1,0.6-3.1,0.7
		c-0.2,0-0.5,0-0.7,0c-0.4,0-0.8,0-1.2,0c-1.1-0.1-2.2-0.2-3.3-0.5c-1.2-0.3-2.3-0.7-3.4-1.3l-0.4-0.2c-1.2-0.7-2.4-1.5-3.4-2.4
		c-0.7-0.6-1.4-1.3-2-2c-0.4-0.4-0.7-0.9-1.1-1.4c-0.7-1-1.3-2-1.8-3.1c-0.5-1-0.9-2.1-1.3-3.2c-0.4-1.1-0.7-2.3-0.9-3.5
		c-0.2-1-0.3-1.9-0.3-2.9c-0.1-0.6-0.1-1.3-0.1-1.9s0.1-1,0.1-1.5s0-1,0.1-1.4c0.1-1,0.3-2,0.5-3c0.2-0.6,0.3-1.2,0.5-1.8
		c0.4-1.3,0.9-2.6,1.6-3.8c0.5-0.8,0.9-1.6,1.4-2.4c0.4-0.5,0.7-1,1.2-1.5c0.9-1,1.9-2,3-2.7c0.6-0.4,1.2-0.8,1.8-1.2
		c0.7-0.4,1.5-0.8,2.3-1.1c0.7-0.2,1.5-0.4,2.3-0.5C28,6,28.5,6,29,5.9c0.4,0,0.7-0.1,1.1,0c0.6,0,1.3,0,1.9,0.1
		c0.7,0.1,1.5,0.2,2.2,0.4c0.3,0.1,0.6,0.2,0.9,0.2v0.1l-0.7-0.1l-1.2-0.1h-2.3c-0.6,0-1.1,0.1-1.7,0.3c-0.7,0.2-1.3,0.4-2,0.6
		c-0.9,0.4-1.8,0.8-2.6,1.3c-0.8,0.5-1.5,1-2.2,1.7c-0.5,0.5-1,0.9-1.4,1.4c-1,1-1.8,2.2-2.5,3.4c-0.5,0.9-0.9,1.7-1.3,2.6
		c-0.5,1.2-0.9,2.5-1.2,3.7c-0.2,0.9-0.3,1.8-0.4,2.6s-0.1,1.6-0.1,2.4c0,0.8,0,1.6,0,2.3c0.1,0.9,0.2,1.8,0.3,2.7
		c0.2,1,0.4,2,0.7,3c0.3,0.9,0.6,1.8,1,2.6c0.5,1.2,1.1,2.3,1.8,3.3c0.4,0.6,0.8,1.1,1.2,1.6c0.3,0.4,0.6,0.7,0.9,1
		c0.7,0.8,1.5,1.5,2.3,2.2c0.8,0.6,1.7,1.2,2.6,1.6c0.8,0.4,1.7,0.7,2.6,1c0.8,0.3,1.7,0.4,2.6,0.5c0.5,0,1.1,0.1,1.6,0.1
		c1.2,0,2.4-0.1,3.5-0.3L37.1,48.1L37.1,48.1z M28.2,5.3c-0.4,0.1-0.8,0.1-1.3,0.2c-0.5,0.1-0.9,0.2-1.4,0.4C24.7,6.2,23.8,6.5,23,7
		c-1,0.5-1.9,1.1-2.8,1.8c-0.7,0.6-1.5,1.3-2.1,2c-0.5,0.6-1,1.1-1.5,1.8c-0.5,0.7-1,1.5-1.5,2.2c-0.5,0.9-0.9,1.9-1.3,2.8
		c-0.3,0.6-0.5,1.3-0.7,2c-0.3,1.1-0.6,2.2-0.8,3.3c-0.1,0.6-0.2,1.2-0.3,1.9v0.7c0,0.6-0.1,1.2-0.1,1.8c0,0.8,0,1.7,0.1,2.5
		c0.1,1.3,0.3,2.6,0.6,3.8l0.2,0.9c0.2,0.8,0.5,1.6,0.8,2.4s0.8,1.8,1.2,2.6c0.3,0.6,0.7,1.2,1.1,1.8c0.5,0.7,1,1.4,1.5,2
		c1.5,1.9,3.4,3.5,5.6,4.7c0.5,0.3,1,0.5,1.5,0.8c0.4,0.2,0.9,0.3,1.3,0.5c0.8,0.3,1.7,0.5,2.6,0.6c0.5,0.1,1,0.1,1.4,0.1
		c0.3,0,0.7,0,1,0.1h-1.9c-1.3,0-2.5-0.2-3.7-0.5c-0.9-0.3-1.9-0.6-2.8-0.9c-1.1-0.5-2.2-1.1-3.2-1.8c-0.6-0.4-1.1-0.9-1.6-1.3
		c-0.7-0.6-1.3-1.2-1.9-1.9c-0.9-1.1-1.7-2.3-2.5-3.5c-0.6-1-1.1-2.1-1.5-3.2c-0.5-1.2-0.9-2.5-1.2-3.8c-0.3-1.1-0.4-2.3-0.6-3.4
		c-0.1-0.5-0.1-1-0.1-1.5s-0.1-0.7,0-1.1c0.1-1,0.1-2.1,0.2-3.1c0.1-0.8,0.2-1.6,0.4-2.4c0.2-0.8,0.4-1.6,0.6-2.4
		c0.4-1.1,0.8-2.1,1.2-3.2c0.6-1.2,1.3-2.4,2.1-3.5c0.3-0.5,0.7-0.9,1.1-1.3c0.3-0.4,0.7-0.8,1-1.1c1-1,2.2-1.9,3.5-2.7
		c0.9-0.5,1.9-1,2.8-1.4c0.5-0.2,1-0.3,1.5-0.4c0.9-0.2,1.7-0.4,2.6-0.5C27.4,5.3,27.8,5.3,28.2,5.3z M25.9,12.7
		c0.5-0.4,0.9-0.7,1.3-1c0.1,0,0.2,0,0.3,0c1,0.4,2,1,2.8,1.7c0.7,0.6,1.5,1.2,2.1,1.8c1.1,1.1,2,2.4,2.7,3.8
		c0.5,0.9,0.9,1.9,1.2,2.9c0.5,1.3,0.8,2.7,1,4.2c0.1,1,0.2,1.9,0.1,2.9c0,0.8-0.1,1.5-0.2,2.2c-0.2,1.3-0.5,2.5-0.9,3.7
		c-0.4,1.2-1,2.4-1.7,3.5c-0.8,1.3-1.7,2.4-2.8,3.5c-0.8,0.7-1.6,1.4-2.6,2c-0.1,0.1-0.3,0.1-0.5,0c-0.4-0.3-0.9-0.5-1.3-0.8
		c0,0,0.1-0.1,0.1-0.1c1.3-0.7,2.5-1.6,3.5-2.7c0.8-0.9,1.5-1.8,2.1-2.8c0.9-1.6,1.6-3.4,2-5.3c0.3-1.4,0.4-2.9,0.4-4.4
		c-0.1-2.9-0.9-5.8-2.3-8.3c-0.5-0.8-1-1.6-1.6-2.3c-0.7-0.8-1.4-1.6-2.3-2.3c-0.8-0.6-1.6-1.2-2.5-1.7C26.6,13,26.3,12.8,25.9,12.7
		z M28.1,11c0.4-0.2,0.8-0.4,1.2-0.6c0.3-0.1,0.6-0.1,0.8,0.1c0.8,0.5,1.6,1,2.4,1.5c0.3,0.2,0.6,0.5,0.9,0.8c0.5,0.5,1,0.9,1.4,1.5
		c0.7,0.8,1.4,1.7,1.9,2.6c0.5,0.8,0.9,1.7,1.3,2.5c0.4,0.9,0.7,1.8,1,2.7c0.3,1.1,0.6,2.2,0.7,3.3c0.1,0.7,0.1,1.5,0.2,2.2
		c0,0.7,0,1.4,0,2.1c-0.1,1.1-0.3,2.1-0.5,3.2c-0.3,1.4-0.7,2.7-1.2,3.9c-0.4,1-0.9,1.9-1.5,2.8c-0.6,0.9-1.3,1.8-2,2.6
		c-0.6,0.7-1.3,1.4-2.1,2c-0.3,0.3-0.7,0.5-1,0.7c-0.1,0.1-0.1,0.1-0.2,0.1l-1.5-0.6c0.3-0.2,0.6-0.4,1-0.7c0.3-0.2,0.8-0.6,1.2-1
		s0.9-0.9,1.4-1.4c0.7-0.7,1.3-1.5,1.8-2.3c0.4-0.7,0.8-1.5,1.2-2.2c0.4-0.8,0.7-1.6,0.9-2.4c0.3-0.9,0.5-1.8,0.7-2.7
		c0.2-1.4,0.3-2.8,0.2-4.2c0-1.4-0.2-2.9-0.6-4.2c-0.3-1-0.6-2.1-1-3.1c-0.4-0.9-0.8-1.7-1.3-2.5c-0.4-0.6-0.9-1.2-1.3-1.8
		c-0.5-0.6-1-1.2-1.6-1.8c-0.7-0.7-1.5-1.4-2.4-1.9C29.4,11.8,28.8,11.4,28.1,11z M24,14.7c0.4-0.5,0.8-0.9,1.1-1.3
		c0.1,0,0.1,0,0.2,0c1.2,0.5,2.4,1.1,3.5,1.9c1,0.8,2,1.7,2.7,2.8c0.7,0.9,1.3,1.9,1.7,2.9c0.3,0.8,0.6,1.5,0.9,2.3
		c0.2,0.8,0.4,1.6,0.6,2.4c0.1,0.5,0.1,0.9,0.2,1.4s0.1,0.8,0.1,1.2v1.1c0,0-0.1,1-0.2,1.5s-0.1,0.9-0.2,1.3
		c-0.1,0.7-0.3,1.3-0.5,1.9c-0.3,0.7-0.6,1.4-1,2.1c-0.3,0.6-0.6,1.1-1,1.7c-0.2,0.3-0.5,0.6-0.7,0.9c-0.7,0.9-1.5,1.7-2.4,2.4
		c-0.6,0.5-1.3,0.8-2,1.2c-0.2,0.1-0.3-0.1-0.4-0.2c-0.4-0.3-0.7-0.7-1.1-1c0.4-0.2,0.7-0.3,1-0.5c1-0.6,1.9-1.3,2.7-2.1
		c0.6-0.7,1.2-1.4,1.7-2.2c0.7-1.1,1.2-2.2,1.5-3.4c0.3-1,0.5-2,0.6-3c0-0.8,0.1-1.5,0.1-2.2c-0.1-2.1-0.6-4.1-1.4-6
		c-0.4-0.9-0.9-1.8-1.6-2.6c-0.4-0.6-0.9-1.1-1.4-1.6c-0.6-0.5-1.1-1-1.7-1.4C26,15.5,25,15,24,14.7z M32.6,45.2
		c0.7-0.6,1.4-1.2,2-1.8c0.9-0.9,1.7-1.8,2.4-2.9c0.6-0.9,1.1-1.8,1.5-2.8c0.3-0.8,0.7-1.6,1-2.5c0.4-1.1,0.7-2.2,0.8-3.4
		c0.1-0.8,0.2-1.6,0.2-2.4c0-0.7,0-1.3,0-2c-0.1-1-0.2-2-0.3-3c-0.1-1.1-0.4-2.1-0.7-3.1c-0.4-1.2-0.8-2.3-1.4-3.4
		c-0.4-0.9-1-1.7-1.5-2.5c-0.5-0.8-1.1-1.5-1.8-2.2c-0.7-0.6-1.3-1.3-2-1.9L31,10c-0.1-0.1-0.2-0.1-0.3-0.2c0.5-0.1,1-0.2,1.5-0.4
		c0.1,0,0.2,0,0.2,0.1c0.5,0.4,1,0.7,1.5,1.1c0.7,0.5,1.4,1.1,2,1.7c1.1,1.1,2.1,2.3,2.8,3.7c0.5,0.9,1,1.7,1.4,2.6s0.6,1.7,0.9,2.5
		c0.3,1,0.6,2,0.7,3c0.1,0.8,0.2,1.6,0.3,2.3c0,0.6,0.1,1.2,0.1,1.8c0,1-0.1,1.9-0.2,2.9c-0.2,0.9-0.3,1.9-0.5,2.8
		c-0.4,1.6-1,3.2-1.7,4.7c-0.5,1-1.1,2-1.8,2.9c-0.5,0.7-1,1.3-1.6,1.9c-0.6,0.6-1.2,1.2-1.8,1.7c-0.1,0.1-0.3,0.2-0.4,0.2
		L32.6,45.2z M23.7,39.2c0.4-0.2,0.8-0.4,1.2-0.6c0.8-0.5,1.5-1,2.1-1.6c0.7-0.7,1.2-1.4,1.7-2.2c0.7-1.2,1.2-2.6,1.5-4
		c0.2-1,0.2-2,0.2-2.9c0-1.4-0.3-2.8-0.8-4.1c-0.5-1.2-1.1-2.3-1.9-3.3c-0.8-0.9-1.7-1.7-2.8-2.4c-0.7-0.5-1.5-0.8-2.4-1l0.4-0.7
		c0,0,0.3-0.5,0.4-0.7c0-0.1,0.2-0.2,0.3-0.1c0,0,0,0,0,0c1.1,0.4,2.1,0.9,3,1.6c1.5,1.1,2.7,2.5,3.6,4.1c0.7,1.2,1.2,2.6,1.5,4
		c0.3,1,0.4,2.1,0.4,3.2c0,0.7-0.1,1.4-0.2,2c-0.1,1-0.3,2-0.7,3c-0.3,0.7-0.6,1.4-0.9,2c-0.6,1.1-1.4,2.2-2.3,3.1
		c-0.6,0.5-1.2,1-1.9,1.4c-0.4,0.3-0.8,0.5-1.3,0.7c-0.1,0.1-0.2,0-0.3,0c0,0,0,0,0,0L23.7,39.2z M33.5,9.3c0.1,0,0.2,0,0.2,0h1.1
		c0.1,0,0.3,0.1,0.4,0.1c0.9,0.6,1.7,1.3,2.4,2.1c0.7,0.7,1.3,1.4,1.8,2.2c0.5,0.9,1.2,1.7,1.7,2.5c0.5,0.9,0.9,1.9,1.3,2.9
		c0.4,0.9,0.7,1.9,0.9,2.8c0.2,1,0.4,1.9,0.5,2.9c0.2,1,0.2,2,0.2,3c0,0.9,0,1.8-0.1,2.7s-0.2,1.9-0.4,2.8c-0.1,0.6-0.3,1.2-0.4,1.7
		c-0.3,0.9-0.6,1.8-1,2.7s-0.8,1.8-1.3,2.7c-0.2,0.4-0.5,0.8-0.8,1.2c-0.4,0.6-0.8,1.1-1.2,1.6s-0.8,0.9-1.2,1.3
		c-0.2,0.2-0.4,0.4-0.7,0.6c-0.2,0.1-0.4,0.1-0.5,0.1c-0.4,0.1-0.7,0.1-1.1,0.1L36,45c0.5-0.4,0.9-0.9,1.3-1.3
		c0.8-0.9,1.6-1.9,2.2-2.9c0.5-0.8,0.9-1.5,1.3-2.4c0.5-1.1,1-2.2,1.3-3.4c0.2-0.9,0.5-1.9,0.6-2.8c0.1-0.6,0.2-1.2,0.2-1.9
		c0-0.9,0.1-1.8,0.1-2.7c0-1-0.1-1.9-0.3-2.9c-0.1-0.9-0.3-1.7-0.5-2.5c-0.3-1-0.6-2-1-3c-0.2-0.5-0.4-1.1-0.7-1.6
		c-0.5-0.9-0.9-1.7-1.5-2.6c-0.6-0.9-1.2-1.8-2-2.6c-0.3-0.3-0.5-0.6-0.8-0.9c-0.8-0.7-1.6-1.4-2.4-2C33.8,9.5,33.6,9.3,33.5,9.3z
		 M22.2,49.5c-0.3-0.1-0.7-0.2-1-0.3c-1.7-0.7-3.3-1.7-4.7-2.8c-0.9-0.7-1.7-1.5-2.5-2.4c-0.4-0.5-0.8-1-1.2-1.5
		c-0.5-0.7-1-1.5-1.4-2.3s-0.9-1.8-1.4-2.7c-0.3-0.6-0.5-1.3-0.7-1.9c-0.3-0.9-0.5-1.7-0.7-2.6c-0.2-0.7-0.2-1.4-0.3-2.1
		c-0.1-0.5-0.2-1.1-0.2-1.7c0-0.5,0-1,0-1.4c0-1,0-2,0.1-2.9c0.1-0.7,0.2-1.5,0.4-2.2c0.1-0.5,0.2-1.1,0.4-1.6s0.2-0.9,0.3-1.3
		c0.3-0.8,0.6-1.6,0.9-2.3c0.5-1.1,1-2.2,1.7-3.3c0.5-0.8,1-1.5,1.6-2.2l1.1-1.2c0.7-0.7,1.4-1.3,2.2-1.9c0.8-0.6,1.7-1.2,2.6-1.7
		C19.5,7,19.8,6.9,20,6.8v0c-0.4,0.2-0.7,0.4-1,0.6c-0.8,0.6-1.5,1.2-2.3,1.8c-0.4,0.4-0.8,0.7-1.2,1.1c-0.3,0.4-0.6,0.8-1,1.2
		c-0.6,0.8-1.2,1.6-1.7,2.5c-0.3,0.4-0.5,0.9-0.7,1.4c-0.6,1.2-1.1,2.4-1.5,3.6c-0.2,0.7-0.4,1.3-0.6,2c-0.2,0.7-0.3,1.5-0.4,2.2
		S9.4,25,9.4,25.8c-0.1,0.6-0.1,1.3-0.1,1.9c0,1.3,0.1,2.5,0.3,3.8c0.1,0.6,0.2,1.2,0.3,1.7c0.3,1.3,0.7,2.6,1.2,3.8
		c0.5,1.1,0.9,2.1,1.4,3.1c0.7,1.3,1.5,2.5,2.5,3.7c0.6,0.7,1.3,1.4,2,2.1c0.7,0.7,1.5,1.3,2.3,1.8c0.8,0.6,1.6,1.1,2.5,1.5
		L22.2,49.5L22.2,49.5z M23.2,38.4l-1-1.7c0.9-0.3,1.8-0.8,2.5-1.5c0.7-0.6,1.2-1.3,1.7-2.1c0.5-0.9,0.9-1.9,1.1-2.9
		c0.2-1,0.3-2,0.1-3c-0.1-1.2-0.5-2.4-1-3.4c-0.5-1-1.2-1.9-2.1-2.7c-0.7-0.7-1.6-1.2-2.5-1.5c-0.2-0.1-0.5-0.1-0.8-0.2l0.8-1.7
		c0.3,0.1,0.5,0.1,0.8,0.2c1.1,0.4,2.1,1,3,1.8c1.1,1,1.9,2.1,2.5,3.4c0.5,1.1,0.8,2.2,1,3.4c0.5,3.1-0.4,6.2-2.2,8.7
		c-0.8,1.1-1.8,1.9-3,2.5C23.9,38.1,23.6,38.2,23.2,38.4z M36.8,9.5c0.5,0.1,0.9,0.2,1.3,0.4c0.1,0.1,0.2,0.2,0.3,0.2
		c0.9,0.8,1.7,1.7,2.5,2.6c0.6,0.7,1.1,1.5,1.5,2.4c0.5,0.9,1,1.8,1.5,2.8c0.6,1.2,1,2.5,1.3,3.8c0.2,0.9,0.4,1.8,0.5,2.7
		c0.1,0.7,0.2,1.4,0.3,2.2c0,1,0,2,0,2.9c-0.1,1.6-0.3,3.1-0.7,4.6c-0.2,0.9-0.5,1.8-0.8,2.6c-0.5,1.6-1.3,3-2.2,4.4
		c-0.5,0.7-1,1.4-1.5,2.1c-0.2,0.3-0.5,0.6-0.8,0.8c-0.3,0.2-0.6,0.3-0.9,0.4c-0.2,0.1-0.3,0.1-0.5,0.1c0.2-0.2,0.4-0.4,0.5-0.6
		c0.4-0.5,0.8-0.9,1.1-1.4c0.6-0.8,1.1-1.7,1.6-2.5c0.3-0.5,0.5-1,0.8-1.6c0.3-0.8,0.6-1.5,0.9-2.3c0.2-0.6,0.4-1.1,0.5-1.7
		c0.2-0.7,0.3-1.4,0.5-2.1c0.1-0.9,0.2-1.8,0.3-2.7c0-0.5,0.1-1.1,0.1-1.7c0-0.1,0-0.3,0-0.4c0-0.7,0-1.4-0.1-2.1
		c-0.1-1-0.3-2.1-0.5-3.1c-0.2-0.9-0.5-1.8-0.7-2.7c-0.1-0.4-0.3-0.8-0.5-1.2c-0.4-0.8-0.7-1.6-1.1-2.4c-0.5-1-1.1-2-1.8-2.9
		c-0.5-0.7-1.1-1.3-1.7-2s-1-1-1.5-1.5C36.9,9.7,36.9,9.6,36.8,9.5L36.8,9.5z M21.9,35.9l-0.7-1.8c0.3-0.2,0.6-0.3,0.8-0.4
		c0.9-0.5,1.7-1.3,2.2-2.3c0.4-0.7,0.7-1.5,0.8-2.3c0.2-1.3-0.1-2.6-0.6-3.8c-0.6-1.2-1.6-2.2-2.8-2.8c-0.3-0.1-0.7-0.2-1-0.3
		l0.5-1.9c0.5,0.1,1,0.3,1.5,0.5c0.8,0.4,1.5,0.9,2.1,1.6c0.4,0.4,0.7,0.8,1,1.3c0.5,0.7,0.8,1.5,1,2.4c0.2,0.7,0.3,1.4,0.3,2.2
		c0,1.5-0.3,2.9-1,4.2c-0.4,0.7-0.8,1.3-1.4,1.9C23.7,35,22.9,35.6,21.9,35.9z M40.3,10.9c0.6,0.3,1.2,0.7,1.6,1.2
		c0.5,0.8,1.1,1.5,1.6,2.2c0.7,1,1.3,2.1,1.7,3.2c0.4,1,0.8,2,1.1,3c0.4,1.1,0.7,2.3,0.8,3.5c0.1,0.7,0.2,1.4,0.2,2.1
		s0.1,1.2,0.1,1.8s0,1-0.1,1.5s-0.1,1.1-0.1,1.7c-0.1,0.8-0.2,1.7-0.4,2.5s-0.3,1.5-0.6,2.2c-0.3,1.1-0.7,2.1-1.2,3.2
		c-0.5,1-1,2-1.6,2.9c-0.3,0.5-0.8,0.9-1.4,1.2l0.3-0.4c0.9-1.3,1.6-2.6,2.3-4.1c0.4-1,0.8-2,1.1-3c0.3-1,0.5-2.1,0.7-3.2
		c0.1-0.5,0.1-1,0.2-1.5c0.1-0.9,0.1-1.8,0.2-2.6c0-0.7,0-1.4-0.1-2.1s-0.1-1.4-0.2-2.1c-0.2-1.2-0.4-2.5-0.8-3.6
		c-0.3-0.9-0.6-1.9-1-2.8c-0.2-0.5-0.4-1-0.7-1.5c-0.4-0.7-0.8-1.4-1.2-2.1s-1-1.4-1.5-2.1C40.8,11.5,40.5,11.2,40.3,10.9z M20.1,25
		l0.3-1.9c0.5,0.1,1,0.3,1.4,0.6c2.4,1.7,3.1,4.9,1.7,7.4c-0.5,0.9-1.3,1.7-2.3,2.1c-0.1,0-0.2,0.1-0.2-0.1l-0.4-1.7
		c1.3-0.6,2-1.9,1.9-3.3C22.3,26.7,21.4,25.4,20.1,25z M12.2,12.1c-0.5,0.8-1.1,1.6-1.6,2.5c-0.3,0.6-0.6,1.1-0.9,1.7
		c-0.4,1-0.9,2-1.2,3.1c-0.4,1.1-0.6,2.3-0.8,3.4c-0.2,1-0.3,2-0.3,3c0,0.7-0.1,1.4-0.1,2.1c0,1.2,0.1,2.5,0.3,3.7
		c0.2,1.3,0.5,2.5,0.8,3.8c0.2,0.7,0.5,1.4,0.8,2.1c0.4,0.9,0.7,1.7,1.2,2.5c0.3,0.6,0.6,1.1,1,1.6c0.6,1,1.3,2,2.1,2.9
		c0.3,0.3,0.6,0.6,0.9,0.9v0c-0.1-0.1-0.2-0.1-0.3-0.2c-0.6-0.7-1.3-1.3-1.8-2s-0.9-1.2-1.4-1.8s-0.6-1-0.9-1.5
		c-0.6-1-1.1-2.1-1.5-3.3c-0.4-1-0.7-2-0.9-3C7.3,33,7.1,32.3,7,31.5c0-0.7-0.2-1.4-0.2-2.2c0-0.5-0.1-1-0.1-1.5
		c0-0.8,0-1.7,0.1-2.5C6.9,24.6,7,23.8,7.1,23c0.1-0.7,0.3-1.3,0.5-2c0.1-0.4,0.2-0.8,0.3-1.1s0.3-0.9,0.5-1.3
		c0.3-0.7,0.6-1.4,0.9-2.1c0.4-0.9,0.9-1.7,1.5-2.5C11.2,13.4,11.8,12.7,12.2,12.1L12.2,12.1z M45.8,39.4c1.8-4,2.7-8.4,2.4-12.8
		c-0.2-4.4-1.5-8.6-3.8-12.4l0.1,0c0.2,0.3,0.4,0.6,0.6,0.9c0.3,0.5,0.6,1.1,0.9,1.6c0.4,0.9,0.8,1.9,1.2,2.8
		c0.4,1.1,0.7,2.2,0.9,3.3c0.2,0.9,0.3,1.8,0.4,2.7c0.1,0.7,0.1,1.5,0.2,2.3c0,0.9-0.1,1.9-0.2,2.8c-0.1,1-0.3,2.1-0.5,3.1
		c-0.3,1-0.6,2-0.9,3c-0.2,0.7-0.6,1.4-0.9,2.1C46,39,45.9,39.2,45.8,39.4z M20,26c0.9,0.4,1.5,1.2,1.5,2.2c0.1,0.9-0.4,1.8-1.2,2.3
		C20,29,19.9,27.5,20,26z"/>
</g>
</svg>
