{
    "asset": {
        "version": "2.0",
        "generator": "Open Asset Import Library (assimp v3.1.151885474)"
    },
    "accessors": [
        {
            "bufferView": 0,
            "byteOffset": 0,
            "componentType": 5126,
            "count": 4613,
            "type": "VEC3",
            "max": [
                1.3488318920135499,
                0.9124218225479126,
                1.5247888565063477
            ],
            "min": [
                -0.5735293626785278,
                -0.5244978666305542,
                -2.475005865097046
            ]
        },
        {
            "bufferView": 1,
            "byteOffset": 0,
            "componentType": 5126,
            "count": 4613,
            "type": "VEC3",
            "max": [
                0.9999999403953552,
                0.9999999403953552,
                1.0
            ],
            "min": [
                -0.9999999403953552,
                -0.9999999403953552,
                -1.0
            ]
        },
        {
            "bufferView": 2,
            "byteOffset": 0,
            "componentType": 5126,
            "count": 4613,
            "type": "VEC4",
            "max": [
                1.0,
                1.0,
                1.0,
                1.0
            ],
            "min": [
                -1.0,
                -1.0,
                -1.0,
                -1.0
            ]
        },
        {
            "bufferView": 3,
            "byteOffset": 0,
            "componentType": 5126,
            "count": 4613,
            "type": "VEC2",
            "max": [
                0.9838709235191345,
                0.9980079531669617
            ],
            "min": [
                0.001963794231414795,
                0.001991868019104004
            ]
        },
        {
            "bufferView": 4,
            "byteOffset": 0,
            "componentType": 5123,
            "count": 6792,
            "type": "SCALAR",
            "max": [
                4612.0
            ],
            "min": [
                0.0
            ]
        }
    ],
    "buffers": [
        {
            "byteLength": 235008,
            "uri": "cave_base_texture.bin"
        }
    ],
    "bufferViews": [
        {
            "buffer": 0,
            "byteOffset": 0,
            "byteLength": 55356,
            "target": 34962
        },
        {
            "buffer": 0,
            "byteOffset": 55356,
            "byteLength": 55356,
            "target": 34962
        },
        {
            "buffer": 0,
            "byteOffset": 110712,
            "byteLength": 73808,
            "target": 34962
        },
        {
            "buffer": 0,
            "byteOffset": 184520,
            "byteLength": 36904,
            "target": 34962
        },
        {
            "buffer": 0,
            "byteOffset": 221424,
            "byteLength": 13584,
            "target": 34963
        }
    ],
    "materials": [
        {
            "name": "aiStandardSurface1",
            "pbrMetallicRoughness": {
                "baseColorFactor": [
                    0.5,
                    0.5,
                    0.5,
                    1.0
                ],
                "metallicFactor": 0.0
            }
        }
    ],
    "meshes": [
        {
            "name": "cave_base",
            "primitives": [
                {
                    "mode": 4,
                    "material": 0,
                    "indices": 4,
                    "attributes": {
                        "POSITION": 0,
                        "NORMAL": 1,
                        "TANGENT": 2,
                        "TEXCOORD_0": 3
                    }
                }
            ]
        }
    ],
    "nodes": [
        {
            "name": "RootNode",
            "matrix": [
                0.009999999776482582,
                0.0,
                0.0,
                0.0,
                0.0,
                0.009999999776482582,
                0.0,
                0.0,
                0.0,
                0.0,
                0.009999999776482582,
                0.0,
                0.0,
                0.0,
                0.0,
                1.0
            ],
            "children": [
                1
            ]
        },
        {
            "name": "cave_base",
            "matrix": [
                35.534812927246097,
                0.0,
                0.0,
                0.0,
                0.0,
                17.083009719848634,
                0.0,
                0.0,
                0.0,
                0.0,
                43.70452117919922,
                0.0,
                0.0,
                8.627623558044434,
                20.764381408691408,
                1.0
            ],
            "mesh": 0
        }
    ],
    "scenes": [
        {
            "nodes": [
                0
            ]
        }
    ],
    "scene": 0
}