{
  "accessors": [
    {
      "bufferView": 2,
      "componentType": 5126,
      "count": 65532,
      "max": [
        7.474132537841797,
        2.4713480472564697,
        6.88232421875
      ],
      "min": [
        -7.474132537841797,
        -2.103099822998047,
        -7.880624771118164
      ],
      "type": "VEC3"
    },
    {
      "bufferView": 2,
      "byteOffset": 786384,
      "componentType": 5126,
      "count": 65532,
      "max": [
        1.0,
        1.0,
        1.0
      ],
      "min": [
        -1.0,
        -1.0,
        -1.0
      ],
      "type": "VEC3"
    },
    {
      "bufferView": 3,
      "componentType": 5126,
      "count": 65532,
      "max": [
        1.0,
        1.0,
        1.0,
        1.0
      ],
      "min": [
        -1.0,
        -1.0,
        -1.0,
        -1.0
      ],
      "type": "VEC4"
    },
    {
      "bufferView": 1,
      "componentType": 5126,
      "count": 65532,
      "max": [
        0.9984546899795532,
        0.9975302219390869
      ],
      "min": [
        0.0015346333384513855,
        0.0015399158000946045
      ],
      "type": "VEC2"
    },
    {
      "bufferView": 1,
      "byteOffset": 524256,
      "componentType": 5126,
      "count": 65532,
      "max": [
        0.9984546899795532,
        0.9975302219390869
      ],
      "min": [
        0.0015346333384513855,
        0.0015399158000946045
      ],
      "type": "VEC2"
    },
    {
      "bufferView": 0,
      "componentType": 5125,
      "count": 182580,
      "type": "SCALAR"
    },
    {
      "bufferView": 2,
      "byteOffset": 1572768,
      "componentType": 5126,
      "count": 25477,
      "max": [
        6.300852298736572,
        2.6059865951538086,
        6.572397232055664
      ],
      "min": [
        -2.073972463607788,
        -2.073972463607788,
        -7.880624771118164
      ],
      "type": "VEC3"
    },
    {
      "bufferView": 2,
      "byteOffset": 1878492,
      "componentType": 5126,
      "count": 25477,
      "max": [
        1.0,
        1.0,
        1.0
      ],
      "min": [
        -1.0,
        -1.0,
        -1.0
      ],
      "type": "VEC3"
    },
    {
      "bufferView": 3,
      "byteOffset": 1048512,
      "componentType": 5126,
      "count": 25477,
      "max": [
        1.0,
        1.0,
        1.0,
        1.0
      ],
      "min": [
        -1.0,
        -1.0,
        -1.0,
        -1.0
      ],
      "type": "VEC4"
    },
    {
      "bufferView": 1,
      "byteOffset": 1048512,
      "componentType": 5126,
      "count": 25477,
      "max": [
        0.9984546899795532,
        0.9957345128059387
      ],
      "min": [
        0.0015419423580169678,
        0.0015409886837005615
      ],
      "type": "VEC2"
    },
    {
      "bufferView": 1,
      "byteOffset": 1252328,
      "componentType": 5126,
      "count": 25477,
      "max": [
        0.9984546899795532,
        0.9957345128059387
      ],
      "min": [
        0.0015419423580169678,
        0.0015409886837005615
      ],
      "type": "VEC2"
    },
    {
      "bufferView": 0,
      "byteOffset": 730320,
      "componentType": 5125,
      "count": 61098,
      "type": "SCALAR"
    },
    {
      "bufferView": 2,
      "byteOffset": 2184216,
      "componentType": 5126,
      "count": 26,
      "max": [
        2.0408952236175537,
        1.08930242061615,
        2.8614840507507324
      ],
      "min": [
        0.9451024532318115,
        -0.4185372292995453,
        -4.356113910675049
      ],
      "type": "VEC3"
    },
    {
      "bufferView": 2,
      "byteOffset": 2184528,
      "componentType": 5126,
      "count": 26,
      "max": [
        1.0,
        0.7092907428741455,
        1.7998623036419303e-08
      ],
      "min": [
        0.7049161195755005,
        -0.24301855266094208,
        -2.1040999342858413e-07
      ],
      "type": "VEC3"
    },
    {
      "bufferView": 1,
      "byteOffset": 1456144,
      "componentType": 5126,
      "count": 26,
      "max": [
        0.9675959348678589,
        0.5730820894241333
      ],
      "min": [
        0.002483189105987549,
        0.05326428264379501
      ],
      "type": "VEC2"
    },
    {
      "bufferView": 0,
      "byteOffset": 974712,
      "componentType": 5125,
      "count": 60,
      "type": "SCALAR"
    }
  ],
  "asset": {
    "extras": {
      "author": "tashtego (https://sketchfab.com/tashtego)",
      "license": "CC-BY-NC-4.0 (http://creativecommons.org/licenses/by-nc/4.0/)",
      "source": "https://sketchfab.com/3d-models/salyut-1-1-d6b616df31f34d1b8b7459b8144d58bc",
      "title": "Salyut-1 / Салют-1"
    },
    "generator": "Sketchfab-12.71.0",
    "version": "2.0"
  },
  "bufferViews": [
    {
      "buffer": 0,
      "byteLength": 974952,
      "name": "floatBufferViews",
      "target": 34963
    },
    {
      "buffer": 0,
      "byteLength": 1456352,
      "byteOffset": 974952,
      "byteStride": 8,
      "name": "floatBufferViews",
      "target": 34962
    },
    {
      "buffer": 0,
      "byteLength": 2184840,
      "byteOffset": 2431304,
      "byteStride": 12,
      "name": "floatBufferViews",
      "target": 34962
    },
    {
      "buffer": 0,
      "byteLength": 1456144,
      "byteOffset": 4616144,
      "byteStride": 16,
      "name": "floatBufferViews",
      "target": 34962
    }
  ],
  "buffers": [
    {
      "byteLength": 6072288,
      "uri": "scene.bin"
    }
  ],
  "images": [
    {
      "uri": "textures/Salut_baseColor.png"
    },
    {
      "uri": "textures/Salut_metallicRoughness.png"
    },
    {
      "uri": "textures/Salut_normal.png"
    },
    {
      "uri": "textures/Decal_baseColor.png"
    },
    {
      "uri": "textures/Decal_metallicRoughness.png"
    }
  ],
  "materials": [
    {
      "name": "Salut",
      "normalTexture": {
        "index": 2
      },
      "occlusionTexture": {
        "index": 1
      },
      "pbrMetallicRoughness": {
        "baseColorTexture": {
          "index": 0
        },
        "metallicRoughnessTexture": {
          "index": 1
        },
        "roughnessFactor": 0.7314728493
      }
    },
    {
      "alphaMode": "BLEND",
      "doubleSided": true,
      "name": "Decal",
      "pbrMetallicRoughness": {
        "baseColorTexture": {
          "index": 3
        },
        "metallicFactor": 0.0,
        "metallicRoughnessTexture": {
          "index": 4
        }
      }
    }
  ],
  "meshes": [
    {
      "name": "Salut_Salut_0",
      "primitives": [
        {
          "attributes": {
            "NORMAL": 1,
            "POSITION": 0,
            "TANGENT": 2,
            "TEXCOORD_0": 3,
            "TEXCOORD_1": 4
          },
          "indices": 5,
          "material": 0,
          "mode": 4
        }
      ]
    },
    {
      "name": "Salut_Salut_0",
      "primitives": [
        {
          "attributes": {
            "NORMAL": 7,
            "POSITION": 6,
            "TANGENT": 8,
            "TEXCOORD_0": 9,
            "TEXCOORD_1": 10
          },
          "indices": 11,
          "material": 0,
          "mode": 4
        }
      ]
    },
    {
      "name": "Salut_Decal_0",
      "primitives": [
        {
          "attributes": {
            "NORMAL": 13,
            "POSITION": 12,
            "TEXCOORD_0": 14
          },
          "indices": 15,
          "material": 1,
          "mode": 4
        }
      ]
    }
  ],
  "nodes": [
    {
      "children": [
        1
      ],
      "matrix": [
        1.0,
        0.0,
        0.0,
        0.0,
        0.0,
        2.220446049250313e-16,
        -1.0,
        0.0,
        0.0,
        1.0,
        2.220446049250313e-16,
        0.0,
        0.0,
        0.0,
        0.0,
        1.0
      ],
      "name": "Sketchfab_model"
    },
    {
      "children": [
        2
      ],
      "matrix": [
        1.0,
        0.0,
        0.0,
        0.0,
        0.0,
        0.0,
        1.0,
        0.0,
        0.0,
        -1.0,
        0.0,
        0.0,
        0.0,
        0.0,
        0.0,
        1.0
      ],
      "name": "dba31a0c120d415984165e82ea7b8e23.fbx"
    },
    {
      "children": [
        3
      ],
      "name": "RootNode"
    },
    {
      "children": [
        4,
        5,
        6
      ],
      "name": "Salut"
    },
    {
      "mesh": 0,
      "name": "Salut_Salut_0"
    },
    {
      "mesh": 1,
      "name": "Salut_Salut_0"
    },
    {
      "mesh": 2,
      "name": "Salut_Decal_0"
    }
  ],
  "samplers": [
    {
      "magFilter": 9729,
      "minFilter": 9987,
      "wrapS": 10497,
      "wrapT": 10497
    }
  ],
  "scene": 0,
  "scenes": [
    {
      "name": "Sketchfab_Scene",
      "nodes": [
        0
      ]
    }
  ],
  "textures": [
    {
      "sampler": 0,
      "source": 0
    },
    {
      "sampler": 0,
      "source": 1
    },
    {
      "sampler": 0,
      "source": 2
    },
    {
      "sampler": 0,
      "source": 3
    },
    {
      "sampler": 0,
      "source": 4
    }
  ]
}
