{"accessors":[{"bufferView":0,"componentType":5125,"count":132,"type":"SCALAR"},{"bufferView":1,"componentType":5126,"count":60,"max":[0.84599286317825317,0.17024007439613342,0.99999994039535522],"min":[-0.84599292278289795,-0.17024005949497223,-0.99999994039535522],"type":"VEC3"},{"bufferView":2,"componentType":5126,"count":60,"type":"VEC3"},{"bufferView":3,"componentType":5126,"count":60,"type":"VEC2"}],"asset":{"generator":"Substance Painter 2017.4.1","version":"2.0"},"bufferViews":[{"buffer":0,"byteLength":528,"byteOffset":0,"target":34963},{"buffer":0,"byteLength":720,"byteOffset":528,"target":34962},{"buffer":0,"byteLength":720,"byteOffset":1248,"target":34962},{"buffer":0,"byteLength":480,"byteOffset":1968,"target":34962}],"buffers":[{"byteLength":2448,"uri":"UserHand.bin"}],"images":[{"uri":"initialShadingGroup_baseColor.png"},{"uri":"initialShadingGroup_occlusionRoughnessMetallic.png"},{"uri":"initialShadingGroup_normal.png"}],"materials":[{"alphaMode":"OPAQUE","name":"initialShadingGroup","normalTexture":{"index":2},"occlusionTexture":{"index":1},"pbrMetallicRoughness":{"baseColorTexture":{"index":0},"metallicRoughnessTexture":{"index":1}}}],"meshes":[{"name":"Hand_H_2:polySurface1","primitives":[{"attributes":{"NORMAL":2,"POSITION":1,"TEXCOORD_0":3},"indices":0,"material":0,"mode":4}]}],"nodes":[{"children":[1],"name":"Hand_L.obj","scale":[0.098225995898246765,0.098225995898246765,0.098225995898246765],"translation":[0.053808502852916718,0.0023029996082186699,-0.027732998132705688]},{"children":[2],"name":"g Hand_H_2:polySurface1"},{"mesh":0,"name":"Hand_H_2:polySurface1"}],"samplers":[{"magFilter":9729,"minFilter":9985,"wrapS":10497,"wrapT":10497}],"scene":0,"scenes":[{"name":"Scene","nodes":[0]}],"textures":[{"sampler":0,"source":0},{"sampler":0,"source":1},{"sampler":0,"source":2}]}
