{
	"asset":{
		"generator":"Khronos glTF Blender I/O v4.3.47",
		"version":"2.0"
	},
	"extensionsUsed":[
		"KHR_materials_transmission",
		"KHR_materials_specular"
	],
	"scene":0,
	"scenes":[
		{
			"name":"Scene",
			"nodes":[
				0
			]
		}
	],
	"nodes":[
		{
			"mesh":0,
			"name":"sproot_Maya_Export",
			"rotation":[
				0.7071068286895752,
				0,
				0,
				0.7071068286895752
			]
		}
	],
	"materials":[
		{
			"doubleSided":true,
			"extensions":{
				"KHR_materials_transmission":{
					"transmissionFactor":1
				},
				"KHR_materials_specular":{
					"specularFactor":0
				}
			},
			"name":"metal_1(body)",
			"normalTexture":{
				"index":0
			},
			"pbrMetallicRoughness":{
				"baseColorTexture":{
					"index":1
				},
				"metallicRoughnessTexture":{
					"index":2
				}
			}
		},
		{
			"doubleSided":true,
			"extensions":{
				"KHR_materials_transmission":{
					"transmissionFactor":1
				},
				"KHR_materials_specular":{
					"specularFactor":0
				}
			},
			"name":"leaf",
			"normalTexture":{
				"index":3
			},
			"pbrMetallicRoughness":{
				"baseColorTexture":{
					"index":4
				},
				"metallicFactor":0
			}
		},
		{
			"doubleSided":true,
			"extensions":{
				"KHR_materials_transmission":{
					"transmissionFactor":1
				},
				"KHR_materials_specular":{
					"specularFactor":0
				}
			},
			"name":"metal_2",
			"normalTexture":{
				"index":5
			},
			"pbrMetallicRoughness":{
				"baseColorTexture":{
					"index":6
				},
				"metallicRoughnessTexture":{
					"index":7
				}
			}
		},
		{
			"doubleSided":true,
			"extensions":{
				"KHR_materials_transmission":{
					"transmissionFactor":1
				},
				"KHR_materials_specular":{
					"specularFactor":0
				}
			},
			"name":"visor",
			"normalTexture":{
				"index":8,
				"scale":10
			},
			"pbrMetallicRoughness":{
				"baseColorTexture":{
					"index":9
				},
				"metallicRoughnessTexture":{
					"index":10
				}
			}
		}
	],
	"meshes":[
		{
			"name":"sproot_Maya_Export",
			"primitives":[
				{
					"attributes":{
						"POSITION":0,
						"NORMAL":1,
						"TEXCOORD_0":2
					},
					"indices":3,
					"material":0
				},
				{
					"attributes":{
						"POSITION":4,
						"NORMAL":5,
						"TEXCOORD_0":6
					},
					"indices":7,
					"material":1
				},
				{
					"attributes":{
						"POSITION":8,
						"NORMAL":9,
						"TEXCOORD_0":10
					},
					"indices":11,
					"material":2
				},
				{
					"attributes":{
						"POSITION":12,
						"NORMAL":13,
						"TEXCOORD_0":14
					},
					"indices":15,
					"material":3
				}
			]
		}
	],
	"textures":[
		{
			"sampler":0,
			"source":0
		},
		{
			"sampler":0,
			"source":1
		},
		{
			"sampler":0,
			"source":2
		},
		{
			"sampler":0,
			"source":3
		},
		{
			"sampler":0,
			"source":3
		},
		{
			"sampler":0,
			"source":4
		},
		{
			"sampler":0,
			"source":5
		},
		{
			"sampler":0,
			"source":6
		},
		{
			"sampler":0,
			"source":7
		},
		{
			"sampler":0,
			"source":8
		},
		{
			"sampler":0,
			"source":9
		}
	],
	"images":[
		{
			"mimeType":"image/png",
			"name":"sproot_metal_Normal",
			"uri":"sproot_textures/sproot_metal_Normal.png"
		},
		{
			"mimeType":"image/png",
			"name":"sproot_metal_BaseColor",
			"uri":"sproot_textures/sproot_metal_BaseColor.png"
		},
		{
			"mimeType":"image/png",
			"name":"sproot_metal_Metallic-sproot_metal_Roughness",
			"uri":"sproot_textures/sproot_metal_Metallic-sproot_metal_Roughness.png"
		},
		{
			"mimeType":"image/png",
			"name":"sproot_leaf_BaseColor",
			"uri":"sproot_textures/sproot_leaf_BaseColor.png"
		},
		{
			"mimeType":"image/png",
			"name":"sproot_shinyMetal_Normal",
			"uri":"sproot_textures/sproot_shinyMetal_Normal.png"
		},
		{
			"mimeType":"image/png",
			"name":"sproot_shinyMetal_BaseColor",
			"uri":"sproot_textures/sproot_shinyMetal_BaseColor.png"
		},
		{
			"mimeType":"image/png",
			"name":"sproot_shinyMetal_Metallic-sproot_shinyMetal_Roughness",
			"uri":"sproot_textures/sproot_shinyMetal_Metallic-sproot_shinyMetal_Roughness.png"
		},
		{
			"mimeType":"image/png",
			"name":"sproot_visor_Roughness",
			"uri":"sproot_textures/sproot_visor_Roughness.png"
		},
		{
			"mimeType":"image/png",
			"name":"sproot_visor_BaseColor",
			"uri":"sproot_textures/sproot_visor_BaseColor.png"
		},
		{
			"mimeType":"image/png",
			"name":"sproot_visor_Metallic-sproot_visor_Roughness",
			"uri":"sproot_textures/sproot_visor_Metallic-sproot_visor_Roughness.png"
		}
	],
	"accessors":[
		{
			"bufferView":0,
			"componentType":5126,
			"count":2690,
			"max":[
				0.9238799810409546,
				1.29852294921875,
				0.06755899637937546
			],
			"min":[
				-0.9238790273666382,
				-1.287479043006897,
				-4.0372700691223145
			],
			"type":"VEC3"
		},
		{
			"bufferView":1,
			"componentType":5126,
			"count":2690,
			"type":"VEC3"
		},
		{
			"bufferView":2,
			"componentType":5126,
			"count":2690,
			"type":"VEC2"
		},
		{
			"bufferView":3,
			"componentType":5123,
			"count":5808,
			"type":"SCALAR"
		},
		{
			"bufferView":4,
			"componentType":5126,
			"count":2012,
			"max":[
				0.3222709894180298,
				1.3469699621200562,
				-4.031169891357422
			],
			"min":[
				-0.3222709894180298,
				-1.4172589778900146,
				-4.582571029663086
			],
			"type":"VEC3"
		},
		{
			"bufferView":5,
			"componentType":5126,
			"count":2012,
			"type":"VEC3"
		},
		{
			"bufferView":6,
			"componentType":5126,
			"count":2012,
			"type":"VEC2"
		},
		{
			"bufferView":7,
			"componentType":5123,
			"count":4608,
			"type":"SCALAR"
		},
		{
			"bufferView":8,
			"componentType":5126,
			"count":2208,
			"max":[
				0.6941450238227844,
				1.371482014656067,
				0.6782699823379517
			],
			"min":[
				-0.6907740235328674,
				-1.3604400157928467,
				-3.1619999408721924
			],
			"type":"VEC3"
		},
		{
			"bufferView":9,
			"componentType":5126,
			"count":2208,
			"type":"VEC3"
		},
		{
			"bufferView":10,
			"componentType":5126,
			"count":2208,
			"type":"VEC2"
		},
		{
			"bufferView":11,
			"componentType":5123,
			"count":4860,
			"type":"SCALAR"
		},
		{
			"bufferView":12,
			"componentType":5126,
			"count":144,
			"max":[
				1.1459800004959106,
				0.9056259989738464,
				-2.319356918334961
			],
			"min":[
				0.5590779781341553,
				-0.9151170253753662,
				-3.061785936355591
			],
			"type":"VEC3"
		},
		{
			"bufferView":13,
			"componentType":5126,
			"count":144,
			"type":"VEC3"
		},
		{
			"bufferView":14,
			"componentType":5126,
			"count":144,
			"type":"VEC2"
		},
		{
			"bufferView":15,
			"componentType":5123,
			"count":372,
			"type":"SCALAR"
		}
	],
	"bufferViews":[
		{
			"buffer":0,
			"byteLength":32280,
			"byteOffset":0,
			"target":34962
		},
		{
			"buffer":0,
			"byteLength":32280,
			"byteOffset":32280,
			"target":34962
		},
		{
			"buffer":0,
			"byteLength":21520,
			"byteOffset":64560,
			"target":34962
		},
		{
			"buffer":0,
			"byteLength":11616,
			"byteOffset":86080,
			"target":34963
		},
		{
			"buffer":0,
			"byteLength":24144,
			"byteOffset":97696,
			"target":34962
		},
		{
			"buffer":0,
			"byteLength":24144,
			"byteOffset":121840,
			"target":34962
		},
		{
			"buffer":0,
			"byteLength":16096,
			"byteOffset":145984,
			"target":34962
		},
		{
			"buffer":0,
			"byteLength":9216,
			"byteOffset":162080,
			"target":34963
		},
		{
			"buffer":0,
			"byteLength":26496,
			"byteOffset":171296,
			"target":34962
		},
		{
			"buffer":0,
			"byteLength":26496,
			"byteOffset":197792,
			"target":34962
		},
		{
			"buffer":0,
			"byteLength":17664,
			"byteOffset":224288,
			"target":34962
		},
		{
			"buffer":0,
			"byteLength":9720,
			"byteOffset":241952,
			"target":34963
		},
		{
			"buffer":0,
			"byteLength":1728,
			"byteOffset":251672,
			"target":34962
		},
		{
			"buffer":0,
			"byteLength":1728,
			"byteOffset":253400,
			"target":34962
		},
		{
			"buffer":0,
			"byteLength":1152,
			"byteOffset":255128,
			"target":34962
		},
		{
			"buffer":0,
			"byteLength":744,
			"byteOffset":256280,
			"target":34963
		}
	],
	"samplers":[
		{
			"magFilter":9729,
			"minFilter":9987
		}
	],
	"buffers":[
		{
			"byteLength":257024,
			"uri":"sproot_model.bin"
		}
	]
}
