{
  "accessors": [
    {
      "bufferView": 2,
      "componentType": 5126,
      "count": 971,
      "max": [
        0.17446866631507874,
        0.08741312474012375,
        0.08741312474012375
      ],
      "min": [
        -0.03433804214000702,
        -0.08298773318529129,
        -0.2345980554819107
      ],
      "type": "VEC3"
    },
    {
      "bufferView": 2,
      "byteOffset": 11652,
      "componentType": 5126,
      "count": 971,
      "max": [
        1.0,
        1.0,
        1.0
      ],
      "min": [
        -1.0,
        -1.0,
        -1.0
      ],
      "type": "VEC3"
    },
    {
      "bufferView": 1,
      "componentType": 5126,
      "count": 971,
      "max": [
        0.9874715209007263,
        0.9796763062477112
      ],
      "min": [
        0.2728409171104431,
        0.19878140091896057
      ],
      "type": "VEC2"
    },
    {
      "bufferView": 1,
      "byteOffset": 7768,
      "componentType": 5126,
      "count": 971,
      "max": [
        0.9874715209007263,
        0.9796763062477112
      ],
      "min": [
        0.2728409171104431,
        0.19878140091896057
      ],
      "type": "VEC2"
    },
    {
      "bufferView": 0,
      "componentType": 5125,
      "count": 2256,
      "type": "SCALAR"
    }
  ],
  "asset": {
    "extras": {
      "author": "PatrickStevens (https://sketchfab.com/PatrickStevens)",
      "license": "CC-BY-4.0 (http://creativecommons.org/licenses/by/4.0/)",
      "source": "https://sketchfab.com/3d-models/mars-base-perserverance-camera-9deede3928a64a1ab0a699a8febc14ef",
      "title": "Mars Base Perserverance Camera"
    },
    "generator": "Sketchfab-15.17.0",
    "version": "2.0"
  },
  "bufferViews": [
    {
      "buffer": 0,
      "byteLength": 9024,
      "name": "floatBufferViews",
      "target": 34963
    },
    {
      "buffer": 0,
      "byteLength": 15536,
      "byteOffset": 9024,
      "byteStride": 8,
      "name": "floatBufferViews",
      "target": 34962
    },
    {
      "buffer": 0,
      "byteLength": 23304,
      "byteOffset": 24560,
      "byteStride": 12,
      "name": "floatBufferViews",
      "target": 34962
    }
  ],
  "buffers": [
    {
      "byteLength": 47864,
      "uri": "scene.bin"
    }
  ],
  "images": [
    {
      "uri": "textures/PRIMARY_MATERIAL_baseColor.png"
    }
  ],
  "materials": [
    {
      "doubleSided": true,
      "emissiveFactor": [
        1.0,
        1.0,
        1.0
      ],
      "emissiveTexture": {
        "index": 0
      },
      "name": "PRIMARY_MATERIAL",
      "pbrMetallicRoughness": {
        "baseColorTexture": {
          "index": 0
        },
        "metallicFactor": 0.0
      }
    }
  ],
  "meshes": [
    {
      "name": "Object_0",
      "primitives": [
        {
          "attributes": {
            "NORMAL": 1,
            "POSITION": 0,
            "TEXCOORD_0": 2,
            "TEXCOORD_1": 3
          },
          "indices": 4,
          "material": 0,
          "mode": 4
        }
      ]
    }
  ],
  "nodes": [
    {
      "children": [
        1
      ],
      "matrix": [
        1.0,
        0.0,
        0.0,
        0.0,
        0.0,
        2.220446049250313e-16,
        -1.0,
        0.0,
        0.0,
        1.0,
        2.220446049250313e-16,
        0.0,
        0.0,
        0.0,
        0.0,
        1.0
      ],
      "name": "Sketchfab_model"
    },
    {
      "children": [
        2
      ],
      "name": "root"
    },
    {
      "children": [
        3
      ],
      "matrix": [
        1.0,
        0.0,
        0.0,
        0.0,
        0.0,
        2.220446049250313e-16,
        1.0,
        0.0,
        0.0,
        -1.0,
        2.220446049250313e-16,
        0.0,
        0.0,
        0.0,
        0.0,
        1.0
      ],
      "name": "GLTF_SceneRootNode"
    },
    {
      "children": [
        4
      ],
      "name": "Cylinder.025_4"
    },
    {
      "mesh": 0,
      "name": "Object_4"
    }
  ],
  "samplers": [
    {
      "magFilter": 9729,
      "minFilter": 9987,
      "wrapS": 10497,
      "wrapT": 10497
    }
  ],
  "scene": 0,
  "scenes": [
    {
      "name": "Sketchfab_Scene",
      "nodes": [
        0
      ]
    }
  ],
  "textures": [
    {
      "sampler": 0,
      "source": 0
    }
  ]
}
