{
    "asset" : {
        "generator" : "Khronos glTF Blender I/O v1.5.17",
        "version" : "2.0"
    },
    "scene" : 0,
    "scenes" : [
        {
            "name" : "Scene",
            "nodes" : [
                2
            ]
        }
    ],
    "nodes" : [
        {
            "mesh" : 0,
            "name" : "TestBench_Main_geo10"
        },
        {
            "children" : [
                0
            ],
            "name" : "g TestBench_Main_geo10"
        },
        {
            "children" : [
                1
            ],
            "name" : "TestBenches.obj"
        }
    ],
    "materials" : [
        {
            "name" : "green_shader.001",
            "normalTexture" : {
                "index" : 0
            },
            "occlusionTexture" : {
                "index" : 1
            },
            "pbrMetallicRoughness" : {
                "baseColorTexture" : {
                    "index" : 2
                },
                "metallicRoughnessTexture" : {
                    "index" : 1
                }
            }
        }
    ],
    "meshes" : [
        {
            "name" : "TestBench_Main_geo10",
            "primitives" : [
                {
                    "attributes" : {
                        "POSITION" : 0,
                        "NORMAL" : 1,
                        "TEXCOORD_0" : 2
                    },
                    "indices" : 3,
                    "material" : 0
                }
            ]
        }
    ],
    "textures" : [
        {
            "sampler" : 0,
            "source" : 0
        },
        {
            "sampler" : 0,
            "source" : 1
        },
        {
            "sampler" : 0,
            "source" : 2
        }
    ],
    "images" : [
        {
            "mimeType" : "image/png",
            "name" : "green_shader_normal",
            "uri" : "textures/green_shader_normal.png"
        },
        {
            "mimeType" : "image/png",
            "name" : "green_shader_occlusionRoughnessMetallic",
            "uri" : "textures/green_shader_occlusionRoughnessMetallic.png"
        },
        {
            "mimeType" : "image/jpeg",
            "name" : "green_shader_baseColor",
            "uri" : "textures/green_shader_baseColor.jpg"
        }
    ],
    "accessors" : [
        {
            "bufferView" : 0,
            "componentType" : 5126,
            "count" : 30977,
            "max" : [
                7.930826187133789,
                1.8551548719406128,
                2.0046422481536865
            ],
            "min" : [
                -0.1047210693359375,
                0,
                -5.017773151397705
            ],
            "type" : "VEC3"
        },
        {
            "bufferView" : 1,
            "componentType" : 5126,
            "count" : 30977,
            "type" : "VEC3"
        },
        {
            "bufferView" : 2,
            "componentType" : 5126,
            "count" : 30977,
            "type" : "VEC2"
        },
        {
            "bufferView" : 3,
            "componentType" : 5123,
            "count" : 39690,
            "type" : "SCALAR"
        }
    ],
    "bufferViews" : [
        {
            "buffer" : 0,
            "byteLength" : 371724,
            "byteOffset" : 0
        },
        {
            "buffer" : 0,
            "byteLength" : 371724,
            "byteOffset" : 371724
        },
        {
            "buffer" : 0,
            "byteLength" : 247816,
            "byteOffset" : 743448
        },
        {
            "buffer" : 0,
            "byteLength" : 79380,
            "byteOffset" : 991264
        }
    ],
    "samplers" : [
        {
            "magFilter" : 9729,
            "minFilter" : 9987
        }
    ],
    "buffers" : [
        {
            "byteLength" : 1070644,
            "uri" : "scene.bin"
        }
    ]
}
