{
    "asset" : {
        "generator" : "Khronos glTF Blender I/O v1.5.17",
        "version" : "2.0"
    },
    "scene" : 0,
    "scenes" : [
        {
            "name" : "Scene",
            "nodes" : [
                8,
                9
            ]
        }
    ],
    "nodes" : [
        {
            "mesh" : 0,
            "name" : "group2.001"
        },
        {
            "children" : [
                0
            ],
            "name" : "group2"
        },
        {
            "mesh" : 1,
            "name" : "mesh_LP_geo.001"
        },
        {
            "children" : [
                2
            ],
            "name" : "mesh_LP_geo"
        },
        {
            "mesh" : 2,
            "name" : "pCube17_ncl1_5.001"
        },
        {
            "children" : [
                4
            ],
            "name" : "pCube17_ncl1_5"
        },
        {
            "mesh" : 3,
            "name" : "road_divider4.001"
        },
        {
            "children" : [
                6
            ],
            "name" : "road_divider4"
        },
        {
            "children" : [
                1,
                3,
                5,
                7
            ],
            "name" : "scene.obj"
        },
        {
            "name" : "Light",
            "rotation" : [
                0.16907575726509094,
                0.7558803558349609,
                -0.27217137813568115,
                0.570947527885437
            ],
            "translation" : [
                4.076245307922363,
                5.903861999511719,
                -1.0054539442062378
            ]
        }
    ],
    "materials" : [
        {
            "name" : "truck_sg",
            "normalTexture" : {
                "index" : 0
            },
            "occlusionTexture" : {
                "index" : 1
            },
            "pbrMetallicRoughness" : {
                "baseColorTexture" : {
                    "index" : 2
                },
                "metallicRoughnessTexture" : {
                    "index" : 1
                }
            }
        },
        {
            "name" : "ground_sg",
            "normalTexture" : {
                "index" : 3
            },
            "occlusionTexture" : {
                "index" : 4
            },
            "pbrMetallicRoughness" : {
                "baseColorTexture" : {
                    "index" : 5
                },
                "metallicRoughnessTexture" : {
                    "index" : 4
                }
            }
        },
        {
            "name" : "cones_sg",
            "normalTexture" : {
                "index" : 6
            },
            "occlusionTexture" : {
                "index" : 7
            },
            "pbrMetallicRoughness" : {
                "baseColorTexture" : {
                    "index" : 8
                },
                "metallicRoughnessTexture" : {
                    "index" : 7
                }
            }
        },
        {
            "name" : "props_sg",
            "normalTexture" : {
                "index" : 9
            },
            "occlusionTexture" : {
                "index" : 10
            },
            "pbrMetallicRoughness" : {
                "baseColorTexture" : {
                    "index" : 11
                },
                "metallicRoughnessTexture" : {
                    "index" : 10
                }
            }
        }
    ],
    "meshes" : [
        {
            "name" : "group2",
            "primitives" : [
                {
                    "attributes" : {
                        "POSITION" : 0,
                        "NORMAL" : 1,
                        "TEXCOORD_0" : 2
                    },
                    "indices" : 3,
                    "material" : 0
                }
            ]
        },
        {
            "name" : "mesh_LP_geo",
            "primitives" : [
                {
                    "attributes" : {
                        "POSITION" : 4,
                        "NORMAL" : 5,
                        "TEXCOORD_0" : 6
                    },
                    "indices" : 7,
                    "material" : 1
                }
            ]
        },
        {
            "name" : "pCube17_ncl1_5",
            "primitives" : [
                {
                    "attributes" : {
                        "POSITION" : 8,
                        "NORMAL" : 9,
                        "TEXCOORD_0" : 10
                    },
                    "indices" : 11,
                    "material" : 2
                }
            ]
        },
        {
            "name" : "road_divider4",
            "primitives" : [
                {
                    "attributes" : {
                        "POSITION" : 12,
                        "NORMAL" : 13,
                        "TEXCOORD_0" : 14
                    },
                    "indices" : 15,
                    "material" : 3
                }
            ]
        }
    ],
    "textures" : [
        {
            "sampler" : 0,
            "source" : 0
        },
        {
            "sampler" : 0,
            "source" : 1
        },
        {
            "sampler" : 0,
            "source" : 2
        },
        {
            "sampler" : 0,
            "source" : 3
        },
        {
            "sampler" : 0,
            "source" : 4
        },
        {
            "sampler" : 0,
            "source" : 5
        },
        {
            "sampler" : 0,
            "source" : 6
        },
        {
            "sampler" : 0,
            "source" : 7
        },
        {
            "sampler" : 0,
            "source" : 8
        },
        {
            "sampler" : 0,
            "source" : 9
        },
        {
            "sampler" : 0,
            "source" : 10
        },
        {
            "sampler" : 0,
            "source" : 11
        }
    ],
    "images" : [
        {
            "mimeType" : "image/jpeg",
            "name" : "truck_sg_normal",
            "uri" : "truck_sg_normal.jpg"
        },
        {
            "mimeType" : "image/jpeg",
            "name" : "truck_sg_occlusionRoughnessMetallic",
            "uri" : "truck_sg_occlusionRoughnessMetallic.jpg"
        },
        {
            "mimeType" : "image/jpeg",
            "name" : "truck_sg_baseColor",
            "uri" : "truck_sg_baseColor.jpg"
        },
        {
            "mimeType" : "image/jpeg",
            "name" : "ground_sg_normal",
            "uri" : "ground_sg_normal.jpg"
        },
        {
            "mimeType" : "image/jpeg",
            "name" : "ground_sg_occlusionRoughnessMetallic",
            "uri" : "ground_sg_occlusionRoughnessMetallic.jpg"
        },
        {
            "mimeType" : "image/jpeg",
            "name" : "ground_sg_baseColor",
            "uri" : "ground_sg_baseColor.jpg"
        },
        {
            "mimeType" : "image/jpeg",
            "name" : "cones_sg_normal",
            "uri" : "cones_sg_normal.jpg"
        },
        {
            "mimeType" : "image/jpeg",
            "name" : "cones_sg_occlusionRoughnessMetallic",
            "uri" : "cones_sg_occlusionRoughnessMetallic.jpg"
        },
        {
            "mimeType" : "image/jpeg",
            "name" : "cones_sg_baseColor",
            "uri" : "cones_sg_baseColor.jpg"
        },
        {
            "mimeType" : "image/jpeg",
            "name" : "props_sg_normal",
            "uri" : "props_sg_normal.jpg"
        },
        {
            "mimeType" : "image/jpeg",
            "name" : "props_sg_occlusionRoughnessMetallic",
            "uri" : "props_sg_occlusionRoughnessMetallic.jpg"
        },
        {
            "mimeType" : "image/jpeg",
            "name" : "props_sg_baseColor",
            "uri" : "props_sg_baseColor.jpg"
        }
    ],
    "accessors" : [
        {
            "bufferView" : 0,
            "componentType" : 5126,
            "count" : 17353,
            "max" : [
                -3.495814323425293,
                2.6269402503967285,
                3.204204559326172
            ],
            "min" : [
                -10.171676635742188,
                0.000504910945892334,
                -1.5090913772583008
            ],
            "type" : "VEC3"
        },
        {
            "bufferView" : 1,
            "componentType" : 5126,
            "count" : 17353,
            "type" : "VEC3"
        },
        {
            "bufferView" : 2,
            "componentType" : 5126,
            "count" : 17353,
            "type" : "VEC2"
        },
        {
            "bufferView" : 3,
            "componentType" : 5123,
            "count" : 40566,
            "type" : "SCALAR"
        },
        {
            "bufferView" : 4,
            "componentType" : 5126,
            "count" : 1151,
            "max" : [
                29.2554874420166,
                2.843231201171875,
                33.35648727416992
            ],
            "min" : [
                -20.471162796020508,
                -1.7822272777557373,
                -3.9317941665649414
            ],
            "type" : "VEC3"
        },
        {
            "bufferView" : 5,
            "componentType" : 5126,
            "count" : 1151,
            "type" : "VEC3"
        },
        {
            "bufferView" : 6,
            "componentType" : 5126,
            "count" : 1151,
            "type" : "VEC2"
        },
        {
            "bufferView" : 7,
            "componentType" : 5123,
            "count" : 4245,
            "type" : "SCALAR"
        },
        {
            "bufferView" : 8,
            "componentType" : 5126,
            "count" : 1653,
            "max" : [
                4.979127407073975,
                1.901534080505371,
                4.405000686645508
            ],
            "min" : [
                0.08871698379516602,
                -0.06931799650192261,
                1.5254096984863281
            ],
            "type" : "VEC3"
        },
        {
            "bufferView" : 9,
            "componentType" : 5126,
            "count" : 1653,
            "type" : "VEC3"
        },
        {
            "bufferView" : 10,
            "componentType" : 5126,
            "count" : 1653,
            "type" : "VEC2"
        },
        {
            "bufferView" : 11,
            "componentType" : 5123,
            "count" : 4032,
            "type" : "SCALAR"
        },
        {
            "bufferView" : 12,
            "componentType" : 5126,
            "count" : 2782,
            "max" : [
                1.0981550216674805,
                0.701574981212616,
                10.05782413482666
            ],
            "min" : [
                -8.976335525512695,
                -0.30889707803726196,
                5.062761306762695
            ],
            "type" : "VEC3"
        },
        {
            "bufferView" : 13,
            "componentType" : 5126,
            "count" : 2782,
            "type" : "VEC3"
        },
        {
            "bufferView" : 14,
            "componentType" : 5126,
            "count" : 2782,
            "type" : "VEC2"
        },
        {
            "bufferView" : 15,
            "componentType" : 5123,
            "count" : 3426,
            "type" : "SCALAR"
        }
    ],
    "bufferViews" : [
        {
            "buffer" : 0,
            "byteLength" : 208236,
            "byteOffset" : 0
        },
        {
            "buffer" : 0,
            "byteLength" : 208236,
            "byteOffset" : 208236
        },
        {
            "buffer" : 0,
            "byteLength" : 138824,
            "byteOffset" : 416472
        },
        {
            "buffer" : 0,
            "byteLength" : 81132,
            "byteOffset" : 555296
        },
        {
            "buffer" : 0,
            "byteLength" : 13812,
            "byteOffset" : 636428
        },
        {
            "buffer" : 0,
            "byteLength" : 13812,
            "byteOffset" : 650240
        },
        {
            "buffer" : 0,
            "byteLength" : 9208,
            "byteOffset" : 664052
        },
        {
            "buffer" : 0,
            "byteLength" : 8490,
            "byteOffset" : 673260
        },
        {
            "buffer" : 0,
            "byteLength" : 19836,
            "byteOffset" : 681752
        },
        {
            "buffer" : 0,
            "byteLength" : 19836,
            "byteOffset" : 701588
        },
        {
            "buffer" : 0,
            "byteLength" : 13224,
            "byteOffset" : 721424
        },
        {
            "buffer" : 0,
            "byteLength" : 8064,
            "byteOffset" : 734648
        },
        {
            "buffer" : 0,
            "byteLength" : 33384,
            "byteOffset" : 742712
        },
        {
            "buffer" : 0,
            "byteLength" : 33384,
            "byteOffset" : 776096
        },
        {
            "buffer" : 0,
            "byteLength" : 22256,
            "byteOffset" : 809480
        },
        {
            "buffer" : 0,
            "byteLength" : 6852,
            "byteOffset" : 831736
        }
    ],
    "samplers" : [
        {
            "magFilter" : 9729,
            "minFilter" : 9987
        }
    ],
    "buffers" : [
        {
            "byteLength" : 838588,
            "uri" : "scene.bin"
        }
    ]
}
