{
  "accessors": [
    {
      "bufferView": 0,
      "componentType": 5125,
      "count": 4245,
      "type": "SCALAR"
    },
    {
      "bufferView": 1,
      "componentType": 5126,
      "count": 1151,
      "max": [
        243.795745849609,
        23.6936664581299,
        277.970672607422
      ],
      "min": [
        -170.593017578125,
        -14.8518695831299,
        -32.7649002075195
      ],
      "type": "VEC3"
    },
    {
      "bufferView": 2,
      "componentType": 5126,
      "count": 1151,
      "type": "VEC3"
    },
    {
      "bufferView": 3,
      "componentType": 5126,
      "count": 1151,
      "type": "VEC2"
    }
  ],
  "asset": {
    "generator": "Substance Painter 6.2.2",
    "version": "2.0"
  },
  "bufferViews": [
    {
      "buffer": 0,
      "byteLength": 16980,
      "target": 34963
    },
    {
      "buffer": 0,
      "byteLength": 13812,
      "byteOffset": 16980,
      "target": 34962
    },
    {
      "buffer": 0,
      "byteLength": 13812,
      "byteOffset": 30792,
      "target": 34962
    },
    {
      "buffer": 0,
      "byteLength": 9208,
      "byteOffset": 44604,
      "target": 34962
    }
  ],
  "buffers": [
    {
      "byteLength": 53812,
      "uri": "Worksite.bin"
    }
  ],
  "images": [
    {
      "uri": "lambert10SG_baseColor.png"
    },
    {
      "uri": "lambert10SG_occlusionRoughnessMetallic.png"
    },
    {
      "uri": "lambert10SG_normal.png"
    }
  ],
  "materials": [
    {
      "alphaMode": "OPAQUE",
      "name": "lambert10SG",
      "normalTexture": {
        "index": 2
      },
      "occlusionTexture": {
        "index": 1
      },
      "pbrMetallicRoughness": {
        "baseColorTexture": {
          "index": 0
        },
        "metallicRoughnessTexture": {
          "index": 1
        }
      }
    }
  ],
  "meshes": [
    {
      "name": "mesh_LP_geo",
      "primitives": [
        {
          "attributes": {
            "NORMAL": 2,
            "POSITION": 1,
            "TEXCOORD_0": 3
          },
          "indices": 0,
          "material": 0,
          "mode": 4
        }
      ]
    }
  ],
  "nodes": [
    {
      "children": [
        1
      ],
      "name": "Worksite.obj"
    },
    {
      "children": [
        2
      ],
      "name": "mesh_LP_geo"
    },
    {
      "mesh": 0,
      "name": "mesh_LP_geo"
    }
  ],
  "samplers": [
    {
      "magFilter": 9729,
      "minFilter": 9985,
      "wrapS": 10497,
      "wrapT": 10497
    }
  ],
  "scene": 0,
  "scenes": [
    {
      "name": "Scene",
      "nodes": [
        0
      ]
    }
  ],
  "textures": [
    {
      "sampler": 0,
      "source": 0
    },
    {
      "sampler": 0,
      "source": 1
    },
    {
      "sampler": 0,
      "source": 2
    }
  ]
}