{
  "accessors": [
    {
      "bufferView": 2,
      "componentType": 5126,
      "count": 12975,
      "max": [
        2.006767749786377,
        1.041166067123413,
        0.9530839920043945
      ],
      "min": [
        -2.509408950805664,
        -1.041166067123413,
        -0.9530839920043945
      ],
      "type": "VEC3"
    },
    {
      "bufferView": 2,
      "byteOffset": 155700,
      "componentType": 5126,
      "count": 12975,
      "max": [
        1.0,
        1.0,
        1.0
      ],
      "min": [
        -1.0,
        -1.0,
        -1.0
      ],
      "type": "VEC3"
    },
    {
      "bufferView": 1,
      "componentType": 5126,
      "count": 12975,
      "max": [
        0.9903972148895264,
        0.9892427325248718
      ],
      "min": [
        0.2702421247959137,
        0.029280349612236023
      ],
      "type": "VEC2"
    },
    {
      "bufferView": 1,
      "byteOffset": 103800,
      "componentType": 5126,
      "count": 12975,
      "max": [
        0.9903972148895264,
        0.9892427325248718
      ],
      "min": [
        0.2702421247959137,
        0.029280349612236023
      ],
      "type": "VEC2"
    },
    {
      "bufferView": 0,
      "componentType": 5125,
      "count": 28254,
      "type": "SCALAR"
    }
  ],
  "asset": {
    "extras": {
      "author": "PatrickStevens (https://sketchfab.com/PatrickStevens)",
      "license": "CC-BY-4.0 (http://creativecommons.org/licenses/by/4.0/)",
      "source": "https://sketchfab.com/3d-models/mars-base-perserverance-base-no-parts-baf8f2d10ddf4fcab7611b7d0c85dd44",
      "title": "Mars Base Perserverance BASE NO PARTS"
    },
    "generator": "Sketchfab-15.17.0",
    "version": "2.0"
  },
  "bufferViews": [
    {
      "buffer": 0,
      "byteLength": 113016,
      "name": "floatBufferViews",
      "target": 34963
    },
    {
      "buffer": 0,
      "byteLength": 207600,
      "byteOffset": 113016,
      "byteStride": 8,
      "name": "floatBufferViews",
      "target": 34962
    },
    {
      "buffer": 0,
      "byteLength": 311400,
      "byteOffset": 320616,
      "byteStride": 12,
      "name": "floatBufferViews",
      "target": 34962
    }
  ],
  "buffers": [
    {
      "byteLength": 632016,
      "uri": "cene.bin"
    }
  ],
  "images": [
    {
      "uri": "textures/PRIMARY_MATERIAL_baseColor.png"
    }
  ],
  "materials": [
    {
      "doubleSided": true,
      "emissiveFactor": [
        1.0,
        1.0,
        1.0
      ],
      "emissiveTexture": {
        "index": 0,
        "texCoord": 1
      },
      "name": "PRIMARY_MATERIAL",
      "pbrMetallicRoughness": {
        "baseColorTexture": {
          "index": 0
        },
        "metallicFactor": 0.0
      }
    }
  ],
  "meshes": [
    {
      "name": "Object_0",
      "primitives": [
        {
          "attributes": {
            "NORMAL": 1,
            "POSITION": 0,
            "TEXCOORD_0": 2,
            "TEXCOORD_1": 3
          },
          "indices": 4,
          "material": 0,
          "mode": 4
        }
      ]
    }
  ],
  "nodes": [
    {
      "children": [
        1
      ],
      "matrix": [
        1.0,
        0.0,
        0.0,
        0.0,
        0.0,
        2.220446049250313e-16,
        -1.0,
        0.0,
        0.0,
        1.0,
        2.220446049250313e-16,
        0.0,
        0.0,
        0.0,
        0.0,
        1.0
      ],
      "name": "Sketchfab_model"
    },
    {
      "children": [
        2
      ],
      "name": "root"
    },
    {
      "children": [
        3
      ],
      "matrix": [
        1.0,
        0.0,
        0.0,
        0.0,
        0.0,
        2.220446049250313e-16,
        1.0,
        0.0,
        0.0,
        -1.0,
        2.220446049250313e-16,
        0.0,
        0.0,
        0.0,
        0.0,
        1.0
      ],
      "name": "GLTF_SceneRootNode"
    },
    {
      "children": [
        4
      ],
      "name": "PERSERVERANCE ROVER_4"
    },
    {
      "mesh": 0,
      "name": "Object_4"
    }
  ],
  "samplers": [
    {
      "magFilter": 9729,
      "minFilter": 9987,
      "wrapS": 10497,
      "wrapT": 10497
    }
  ],
  "scene": 0,
  "scenes": [
    {
      "name": "Sketchfab_Scene",
      "nodes": [
        0
      ]
    }
  ],
  "textures": [
    {
      "sampler": 0,
      "source": 0
    }
  ]
}
