{
	"asset":{
		"generator":"Khronos glTF Blender I/O v4.3.47",
		"version":"2.0"
	},
	"scene":0,
	"scenes":[
		{
			"name":"Scene",
			"nodes":[
				0,
				1,
				2
			]
		}
	],
	"nodes":[
		{
			"mesh":0,
			"name":"pCube1",
			"rotation":[
				0.5,
				0.5,
				0.5,
				0.5
			],
			"scale":[
				4.580185413360596,
				2.9158947467803955,
				0.25224897265434265
			],
			"translation":[
				0,
				2.463972330093384,
				0.0603572316467762
			]
		},
		{
			"mesh":1,
			"name":"pCube2",
			"rotation":[
				0.5000000596046448,
				0.5,
				0.4999999701976776,
				0.5
			],
			"scale":[
				5.285443305969238,
				3.9057188034057617,
				0.37356340885162354
			],
			"translation":[
				0,
				2.48836612701416,
				-4.461554527282715
			]
		},
		{
			"mesh":2,
			"name":"pCylinder1",
			"rotation":[
				0.4999999403953552,
				0.4999999403953552,
				0.5,
				0.5000001788139343
			],
			"scale":[
				1.9450206756591797,
				1.3461562395095825,
				0.14701905846595764
			],
			"translation":[
				0,
				2.5131614208221436,
				4.3993377685546875
			]
		}
	],
	"materials":[
		{
			"doubleSided":true,
			"name":"standardSurface1",
			"pbrMetallicRoughness":{
				"metallicFactor":0,
				"roughnessFactor":0.5527864098548889
			}
		}
	],
	"meshes":[
		{
			"name":"Mesh",
			"primitives":[
				{
					"attributes":{
						"POSITION":0,
						"NORMAL":1,
						"TEXCOORD_0":2
					},
					"indices":3,
					"material":0
				}
			]
		},
		{
			"name":"Mesh.001",
			"primitives":[
				{
					"attributes":{
						"POSITION":4,
						"NORMAL":5,
						"TEXCOORD_0":6
					},
					"indices":7,
					"material":0
				}
			]
		},
		{
			"name":"Mesh.002",
			"primitives":[
				{
					"attributes":{
						"POSITION":8,
						"NORMAL":9,
						"TEXCOORD_0":10
					},
					"indices":11,
					"material":0
				}
			]
		}
	],
	"accessors":[
		{
			"bufferView":0,
			"componentType":5126,
			"count":666,
			"max":[
				0.5357025861740112,
				0.5740553140640259,
				0.5357025861740112
			],
			"min":[
				-0.5357025861740112,
				-0.5740553140640259,
				-0.5357025861740112
			],
			"type":"VEC3"
		},
		{
			"bufferView":1,
			"componentType":5126,
			"count":666,
			"type":"VEC3"
		},
		{
			"bufferView":2,
			"componentType":5126,
			"count":666,
			"type":"VEC2"
		},
		{
			"bufferView":3,
			"componentType":5123,
			"count":2976,
			"type":"SCALAR"
		},
		{
			"bufferView":4,
			"componentType":5126,
			"count":466,
			"max":[
				0.4999999701976776,
				0.5,
				0.4999999701976776
			],
			"min":[
				-0.4999999701976776,
				-0.5,
				-0.4999999701976776
			],
			"type":"VEC3"
		},
		{
			"bufferView":5,
			"componentType":5126,
			"count":466,
			"type":"VEC3"
		},
		{
			"bufferView":6,
			"componentType":5126,
			"count":466,
			"type":"VEC2"
		},
		{
			"bufferView":7,
			"componentType":5123,
			"count":1920,
			"type":"SCALAR"
		},
		{
			"bufferView":8,
			"componentType":5126,
			"count":263,
			"max":[
				1.345678448677063,
				1.345678448677063,
				1
			],
			"min":[
				-1.345678448677063,
				-1.3456783294677734,
				-1
			],
			"type":"VEC3"
		},
		{
			"bufferView":9,
			"componentType":5126,
			"count":263,
			"type":"VEC3"
		},
		{
			"bufferView":10,
			"componentType":5126,
			"count":263,
			"type":"VEC2"
		},
		{
			"bufferView":11,
			"componentType":5123,
			"count":1152,
			"type":"SCALAR"
		}
	],
	"bufferViews":[
		{
			"buffer":0,
			"byteLength":7992,
			"byteOffset":0,
			"target":34962
		},
		{
			"buffer":0,
			"byteLength":7992,
			"byteOffset":7992,
			"target":34962
		},
		{
			"buffer":0,
			"byteLength":5328,
			"byteOffset":15984,
			"target":34962
		},
		{
			"buffer":0,
			"byteLength":5952,
			"byteOffset":21312,
			"target":34963
		},
		{
			"buffer":0,
			"byteLength":5592,
			"byteOffset":27264,
			"target":34962
		},
		{
			"buffer":0,
			"byteLength":5592,
			"byteOffset":32856,
			"target":34962
		},
		{
			"buffer":0,
			"byteLength":3728,
			"byteOffset":38448,
			"target":34962
		},
		{
			"buffer":0,
			"byteLength":3840,
			"byteOffset":42176,
			"target":34963
		},
		{
			"buffer":0,
			"byteLength":3156,
			"byteOffset":46016,
			"target":34962
		},
		{
			"buffer":0,
			"byteLength":3156,
			"byteOffset":49172,
			"target":34962
		},
		{
			"buffer":0,
			"byteLength":2104,
			"byteOffset":52328,
			"target":34962
		},
		{
			"buffer":0,
			"byteLength":2304,
			"byteOffset":54432,
			"target":34963
		}
	],
	"buffers":[
		{
			"byteLength":56736,
			"uri":"frame1.bin"
		}
	]
}
