{
  "accessors": [
    {
      "bufferView": 2,
      "componentType": 5126,
      "count": 544,
      "max": [
        0.06852400302886963,
        0.046744998544454575,
        0.02734600007534027
      ],
      "min": [
        -0.088857002556324,
        -0.06728500127792358,
        -0.12939399480819702
      ],
      "type": "VEC3"
    },
    {
      "bufferView": 2,
      "byteOffset": 6528,
      "componentType": 5126,
      "count": 544,
      "max": [
        0.9999663829803467,
        0.9971761107444763,
        1.0
      ],
      "min": [
        -0.9999663829803467,
        -0.9999663829803467,
        -1.0
      ],
      "type": "VEC3"
    },
    {
      "bufferView": 1,
      "componentType": 5126,
      "count": 544,
      "max": [
        0.9384480118751526,
        0.4384480118751526
      ],
      "min": [
        0.06155199930071831,
        0.06155199930071831
      ],
      "type": "VEC2"
    },
    {
      "bufferView": 0,
      "componentType": 5125,
      "count": 3156,
      "type": "SCALAR"
    },
    {
      "bufferView": 2,
      "byteOffset": 13056,
      "componentType": 5126,
      "count": 9691,
      "max": [
        0.0952180027961731,
        0.03607799857854843,
        0.05404600128531456
      ],
      "min": [
        -0.11555100232362747,
        -0.056616999208927155,
        -0.1560939997434616
      ],
      "type": "VEC3"
    },
    {
      "bufferView": 2,
      "byteOffset": 129348,
      "componentType": 5126,
      "count": 9691,
      "max": [
        0.9999663829803467,
        0.9945246577262878,
        1.0
      ],
      "min": [
        -0.9999663829803467,
        -0.9945775866508484,
        -1.0
      ],
      "type": "VEC3"
    },
    {
      "bufferView": 1,
      "byteOffset": 4352,
      "componentType": 5126,
      "count": 9691,
      "max": [
        1.0,
        1.0
      ],
      "min": [
        0.0,
        0.010001000016927719
      ],
      "type": "VEC2"
    },
    {
      "bufferView": 0,
      "byteOffset": 12624,
      "componentType": 5125,
      "count": 57792,
      "type": "SCALAR"
    },
    {
      "bufferView": 2,
      "byteOffset": 245640,
      "componentType": 5126,
      "count": 7464,
      "max": [
        0.06106400117278099,
        0.03594199940562248,
        0.023670999333262444
      ],
      "min": [
        -0.0883449986577034,
        0.027672000229358673,
        -0.1255979984998703
      ],
      "type": "VEC3"
    },
    {
      "bufferView": 2,
      "byteOffset": 335208,
      "componentType": 5126,
      "count": 7464,
      "max": [
        0.9980813264846802,
        0.9955317378044128,
        0.998033344745636
      ],
      "min": [
        -0.9973644614219666,
        -0.9833847284317017,
        -0.997468113899231
      ],
      "type": "VEC3"
    },
    {
      "bufferView": 1,
      "byteOffset": 81880,
      "componentType": 5126,
      "count": 7464,
      "max": [
        0.7989829778671265,
        1.0
      ],
      "min": [
        0.12495700269937515,
        0.0
      ],
      "type": "VEC2"
    },
    {
      "bufferView": 0,
      "byteOffset": 243792,
      "componentType": 5125,
      "count": 36672,
      "type": "SCALAR"
    }
  ],
  "asset": {
    "extras": {
      "author": "PatrickStevens (https://sketchfab.com/PatrickStevens)",
      "license": "CC-BY-4.0 (http://creativecommons.org/licenses/by/4.0/)",
      "source": "https://sketchfab.com/3d-models/sojurner-wheel-dang-centered-you-freak-1f145e2ff2a84a558076ee45be10e5f6",
      "title": "SOJURNER WHEEL DANG CENTERED YOU FREAK"
    },
    "generator": "Sketchfab-15.10.0",
    "version": "2.0"
  },
  "bufferViews": [
    {
      "buffer": 0,
      "byteLength": 390480,
      "name": "floatBufferViews",
      "target": 34963
    },
    {
      "buffer": 0,
      "byteLength": 141592,
      "byteOffset": 390480,
      "byteStride": 8,
      "name": "floatBufferViews",
      "target": 34962
    },
    {
      "buffer": 0,
      "byteLength": 424776,
      "byteOffset": 532072,
      "byteStride": 12,
      "name": "floatBufferViews",
      "target": 34962
    }
  ],
  "buffers": [
    {
      "byteLength": 956848,
      "uri": "scene.bin"
    }
  ],
  "materials": [
    {
      "doubleSided": true,
      "name": "Material.008",
      "pbrMetallicRoughness": {
        "baseColorFactor": [
          0.117444,
          0.117444,
          0.117444,
          1.0
        ],
        "metallicFactor": 0.0,
        "roughnessFactor": 0.8011823178082373
      }
    },
    {
      "doubleSided": true,
      "name": "Material.009",
      "pbrMetallicRoughness": {
        "baseColorFactor": [
          0.023593,
          0.023593,
          0.023593,
          1.0
        ],
        "metallicFactor": 0.0,
        "roughnessFactor": 0.8267949192431123
      }
    },
    {
      "doubleSided": true,
      "name": "Material.010",
      "pbrMetallicRoughness": {
        "baseColorFactor": [
          0.23765,
          0.23765,
          0.23765,
          1.0
        ],
        "metallicFactor": 0.0,
        "roughnessFactor": 0.8011823178082373
      }
    }
  ],
  "meshes": [
    {
      "name": "Object_0",
      "primitives": [
        {
          "attributes": {
            "NORMAL": 1,
            "POSITION": 0,
            "TEXCOORD_0": 2
          },
          "indices": 3,
          "material": 0,
          "mode": 4
        }
      ]
    },
    {
      "name": "Object_1",
      "primitives": [
        {
          "attributes": {
            "NORMAL": 5,
            "POSITION": 4,
            "TEXCOORD_0": 6
          },
          "indices": 7,
          "material": 1,
          "mode": 4
        }
      ]
    },
    {
      "name": "Object_2",
      "primitives": [
        {
          "attributes": {
            "NORMAL": 9,
            "POSITION": 8,
            "TEXCOORD_0": 10
          },
          "indices": 11,
          "material": 2,
          "mode": 4
        }
      ]
    }
  ],
  "nodes": [
    {
      "children": [
        1
      ],
      "matrix": [
        1.0,
        0.0,
        0.0,
        0.0,
        0.0,
        2.220446049250313e-16,
        -1.0,
        0.0,
        0.0,
        1.0,
        2.220446049250313e-16,
        0.0,
        0.0,
        0.0,
        0.0,
        1.0
      ],
      "name": "Sketchfab_model"
    },
    {
      "children": [
        2,
        3,
        4
      ],
      "name": "SOJURNER WHEEL FUCKING CENTERED YOU FUCKIN GIDOIT.obj.cleaner.materialmerger.gles"
    },
    {
      "mesh": 0,
      "name": "Object_2"
    },
    {
      "mesh": 1,
      "name": "Object_3"
    },
    {
      "mesh": 2,
      "name": "Object_4"
    }
  ],
  "scene": 0,
  "scenes": [
    {
      "name": "Sketchfab_Scene",
      "nodes": [
        0
      ]
    }
  ]
}
