{
	"asset":{
		"generator":"Khronos glTF Blender I/O v4.3.47",
		"version":"2.0"
	},
	"scene":0,
	"scenes":[
		{
			"name":"Scene",
			"nodes":[
				8
			]
		}
	],
	"nodes":[
		{
			"mesh":0,
			"name":"pCylinder1.002",
			"translation":[
				0,
				0,
				-3.814697265625e-06
			]
		},
		{
			"children":[
				0
			],
			"name":"pCylinder1.001",
			"rotation":[
				0,
				0,
				0.5629997849464417,
				0.8264570236206055
			],
			"scale":[
				0.14824692904949188,
				3.2808635234832764,
				0.14824695885181427
			],
			"translation":[
				-7.031895160675049,
				1.5719348192214966,
				1.2402153015136719
			]
		},
		{
			"mesh":1,
			"name":"pCylinder2.002",
			"translation":[
				0,
				0,
				3.814697265625e-06
			]
		},
		{
			"children":[
				2
			],
			"name":"pCylinder2.001",
			"rotation":[
				0,
				0,
				0.5629997849464417,
				0.8264570236206055
			],
			"scale":[
				0.14824692904949188,
				3.2808635234832764,
				0.14824695885181427
			],
			"translation":[
				-7.031895160675049,
				1.5719348192214966,
				-1.0140972137451172
			]
		},
		{
			"mesh":2,
			"name":"skates.002"
		},
		{
			"children":[
				4
			],
			"name":"skates.001",
			"translation":[
				-6.48781156539917,
				0.020976312458515167,
				0.11290264129638672
			]
		},
		{
			"mesh":3,
			"name":"sled.002"
		},
		{
			"children":[
				6
			],
			"name":"sled.001",
			"scale":[
				0.8701498508453369,
				1.2698757648468018,
				1
			],
			"translation":[
				-5.813913822174072,
				-0.5145137310028076,
				0.11290264129638672
			]
		},
		{
			"children":[
				1,
				3,
				5,
				7
			],
			"name":"sled4",
			"scale":[
				0.009999999776482582,
				0.009999999776482582,
				0.009999999776482582
			],
			"translation":[
				0,
				0,
				-0.08204562216997147
			]
		}
	],
	"materials":[
		{
			"name":"sled.1001",
			"pbrMetallicRoughness":{
				"baseColorTexture":{
					"index":0
				},
				"metallicRoughnessTexture":{
					"index":1
				}
			}
		},
		{
			"name":"sled.1001",
			"pbrMetallicRoughness":{
				"baseColorTexture":{
					"index":0
				},
				"metallicRoughnessTexture":{
					"index":1
				}
			}
		},
		{
			"name":"sled.1001",
			"pbrMetallicRoughness":{
				"baseColorTexture":{
					"index":0
				},
				"metallicRoughnessTexture":{
					"index":1
				}
			}
		},
		{
			"name":"sled.1001",
			"pbrMetallicRoughness":{
				"baseColorTexture":{
					"index":0
				},
				"metallicRoughnessTexture":{
					"index":1
				}
			}
		}
	],
	"meshes":[
		{
			"name":"pCylinder1.003",
			"primitives":[
				{
					"attributes":{
						"POSITION":0,
						"NORMAL":1,
						"TEXCOORD_0":2
					},
					"indices":3,
					"material":0
				}
			]
		},
		{
			"name":"pCylinder2.003",
			"primitives":[
				{
					"attributes":{
						"POSITION":4,
						"NORMAL":5,
						"TEXCOORD_0":6
					},
					"indices":3,
					"material":1
				}
			]
		},
		{
			"name":"skates.003",
			"primitives":[
				{
					"attributes":{
						"POSITION":7,
						"NORMAL":8,
						"TEXCOORD_0":9
					},
					"indices":10,
					"material":2
				}
			]
		},
		{
			"name":"sled.007",
			"primitives":[
				{
					"attributes":{
						"POSITION":11,
						"NORMAL":12,
						"TEXCOORD_0":13
					},
					"indices":14,
					"material":3
				}
			]
		}
	],
	"textures":[
		{
			"sampler":0,
			"source":0
		},
		{
			"sampler":0,
			"source":1
		}
	],
	"images":[
		{
			"mimeType":"image/jpeg",
			"name":"sled5_baseColor_1001",
			"uri":"textures/sled5_baseColor_1001.jpg"
		},
		{
			"mimeType":"image/jpeg",
			"name":"sled5_occlusionRoughnessMetallic_1001",
			"uri":"textures/sled5_occlusionRoughnessMetallic_1001.jpg"
		}
	],
	"accessors":[
		{
			"bufferView":0,
			"componentType":5126,
			"count":98,
			"max":[
				1.0000028610229492,
				1.000000238418579,
				0.9999971389770508
			],
			"min":[
				-1.0000009536743164,
				-1,
				-1.0000004768371582
			],
			"type":"VEC3"
		},
		{
			"bufferView":1,
			"componentType":5126,
			"count":98,
			"type":"VEC3"
		},
		{
			"bufferView":2,
			"componentType":5126,
			"count":98,
			"type":"VEC2"
		},
		{
			"bufferView":3,
			"componentType":5123,
			"count":240,
			"type":"SCALAR"
		},
		{
			"bufferView":4,
			"componentType":5126,
			"count":98,
			"max":[
				1.0000028610229492,
				1.000000238418579,
				0.9999985694885254
			],
			"min":[
				-1.0000009536743164,
				-1,
				-0.9999980926513672
			],
			"type":"VEC3"
		},
		{
			"bufferView":5,
			"componentType":5126,
			"count":98,
			"type":"VEC3"
		},
		{
			"bufferView":6,
			"componentType":5126,
			"count":98,
			"type":"VEC2"
		},
		{
			"bufferView":7,
			"componentType":5126,
			"count":198,
			"max":[
				9.918418884277344,
				0.2056187391281128,
				1.1561132669448853
			],
			"min":[
				3.057204008102417,
				0.007692575454711914,
				-1.156113624572754
			],
			"type":"VEC3"
		},
		{
			"bufferView":8,
			"componentType":5126,
			"count":198,
			"type":"VEC3"
		},
		{
			"bufferView":9,
			"componentType":5126,
			"count":198,
			"type":"VEC2"
		},
		{
			"bufferView":10,
			"componentType":5123,
			"count":672,
			"type":"SCALAR"
		},
		{
			"bufferView":11,
			"componentType":5126,
			"count":494,
			"max":[
				11.424530029296875,
				2.069770336151123,
				2.3269386291503906
			],
			"min":[
				1.938484787940979,
				0.5830239653587341,
				-2.3269386291503906
			],
			"type":"VEC3"
		},
		{
			"bufferView":12,
			"componentType":5126,
			"count":494,
			"type":"VEC3"
		},
		{
			"bufferView":13,
			"componentType":5126,
			"count":494,
			"type":"VEC2"
		},
		{
			"bufferView":14,
			"componentType":5123,
			"count":1992,
			"type":"SCALAR"
		}
	],
	"bufferViews":[
		{
			"buffer":0,
			"byteLength":1176,
			"byteOffset":0,
			"target":34962
		},
		{
			"buffer":0,
			"byteLength":1176,
			"byteOffset":1176,
			"target":34962
		},
		{
			"buffer":0,
			"byteLength":784,
			"byteOffset":2352,
			"target":34962
		},
		{
			"buffer":0,
			"byteLength":480,
			"byteOffset":3136,
			"target":34963
		},
		{
			"buffer":0,
			"byteLength":1176,
			"byteOffset":3616,
			"target":34962
		},
		{
			"buffer":0,
			"byteLength":1176,
			"byteOffset":4792,
			"target":34962
		},
		{
			"buffer":0,
			"byteLength":784,
			"byteOffset":5968,
			"target":34962
		},
		{
			"buffer":0,
			"byteLength":2376,
			"byteOffset":6752,
			"target":34962
		},
		{
			"buffer":0,
			"byteLength":2376,
			"byteOffset":9128,
			"target":34962
		},
		{
			"buffer":0,
			"byteLength":1584,
			"byteOffset":11504,
			"target":34962
		},
		{
			"buffer":0,
			"byteLength":1344,
			"byteOffset":13088,
			"target":34963
		},
		{
			"buffer":0,
			"byteLength":5928,
			"byteOffset":14432,
			"target":34962
		},
		{
			"buffer":0,
			"byteLength":5928,
			"byteOffset":20360,
			"target":34962
		},
		{
			"buffer":0,
			"byteLength":3952,
			"byteOffset":26288,
			"target":34962
		},
		{
			"buffer":0,
			"byteLength":3984,
			"byteOffset":30240,
			"target":34963
		}
	],
	"samplers":[
		{
			"magFilter":9729,
			"minFilter":9987
		}
	],
	"buffers":[
		{
			"byteLength":34224,
			"uri":"sled4.bin"
		}
	]
}
