{
    "asset" : {
        "generator" : "Khronos glTF Blender I/O v1.5.17",
        "version" : "2.0"
    },
    "scene" : 0,
    "scenes" : [
        {
            "name" : "Scene",
            "nodes" : [
                2
            ]
        }
    ],
    "nodes" : [
        {
            "mesh" : 0,
            "name" : "Lunchbox:initialShadingGroupinitialShadingGroup1polySurface.001"
        },
        {
            "children" : [
                0
            ],
            "name" : "Lunchbox:initialShadingGroupinitialShadingGroup1polySurface"
        },
        {
            "children" : [
                1
            ],
            "name" : "Lunch.obj.001"
        }
    ],
    "materials" : [
        {
            "name" : "lambert3SG.001",
            "normalTexture" : {
                "index" : 0
            },
            "occlusionTexture" : {
                "index" : 1
            },
            "pbrMetallicRoughness" : {
                "baseColorTexture" : {
                    "index" : 2
                },
                "metallicRoughnessTexture" : {
                    "index" : 1
                }
            }
        }
    ],
    "meshes" : [
        {
            "name" : "Lunchbox:initialShadingGroupinitialShadingGroup1polySurface",
            "primitives" : [
                {
                    "attributes" : {
                        "POSITION" : 0,
                        "NORMAL" : 1,
                        "TEXCOORD_0" : 2
                    },
                    "indices" : 3,
                    "material" : 0
                }
            ]
        }
    ],
    "textures" : [
        {
            "sampler" : 0,
            "source" : 0
        },
        {
            "sampler" : 0,
            "source" : 1
        },
        {
            "sampler" : 0,
            "source" : 2
        }
    ],
    "images" : [
        {
            "mimeType" : "image/jpeg",
            "name" : "lambert3SG_normal",
            "uri" : "textures/lambert3SG_normal.jpg"
        },
        {
            "mimeType" : "image/jpeg",
            "name" : "lambert3SG_occlusionRoughnessMetallic",
            "uri" : "textures/lambert3SG_occlusionRoughnessMetallic.jpg"
        },
        {
            "mimeType" : "image/jpeg",
            "name" : "lambert3SG_baseColor",
            "uri" : "textures/lambert3SG_baseColor.jpg"
        }
    ],
    "accessors" : [
        {
            "bufferView" : 0,
            "componentType" : 5126,
            "count" : 7029,
            "max" : [
                0.1514260172843933,
                0.19097144901752472,
                0.14692559838294983
            ],
            "min" : [
                -0.20548483729362488,
                -3.9043425203999504e-05,
                -0.15609391033649445
            ],
            "type" : "VEC3"
        },
        {
            "bufferView" : 1,
            "componentType" : 5126,
            "count" : 7029,
            "type" : "VEC3"
        },
        {
            "bufferView" : 2,
            "componentType" : 5126,
            "count" : 7029,
            "type" : "VEC2"
        },
        {
            "bufferView" : 3,
            "componentType" : 5123,
            "count" : 23088,
            "type" : "SCALAR"
        }
    ],
    "bufferViews" : [
        {
            "buffer" : 0,
            "byteLength" : 84348,
            "byteOffset" : 0
        },
        {
            "buffer" : 0,
            "byteLength" : 84348,
            "byteOffset" : 84348
        },
        {
            "buffer" : 0,
            "byteLength" : 56232,
            "byteOffset" : 168696
        },
        {
            "buffer" : 0,
            "byteLength" : 46176,
            "byteOffset" : 224928
        }
    ],
    "samplers" : [
        {
            "magFilter" : 9729,
            "minFilter" : 9987
        }
    ],
    "buffers" : [
        {
            "byteLength" : 271104,
            "uri" : "scene.bin"
        }
    ]
}
