{
  "accessors": [
    {
      "bufferView": 0,
      "componentType": 5125,
      "count": 58644,
      "type": "SCALAR"
    },
    {
      "bufferView": 1,
      "componentType": 5126,
      "count": 58638,
      "max": [
        0.626941919326782,
        1.75167095661163,
        0.626487910747528
      ],
      "min": [
        -0.627273917198181,
        -0.206939935684204,
        -0.626475989818573
      ],
      "type": "VEC3"
    },
    {
      "bufferView": 2,
      "componentType": 5126,
      "count": 58638,
      "type": "VEC3"
    },
    {
      "bufferView": 3,
      "componentType": 5126,
      "count": 58638,
      "type": "VEC2"
    }
  ],
  "asset": {
    "generator": "Adobe Substance 3D Painter 7.4.2",
    "version": "2.0"
  },
  "bufferViews": [
    {
      "buffer": 0,
      "byteLength": 234576,
      "target": 34963
    },
    {
      "buffer": 0,
      "byteLength": 703656,
      "byteOffset": 234576,
      "target": 34962
    },
    {
      "buffer": 0,
      "byteLength": 703656,
      "byteOffset": 938232,
      "target": 34962
    },
    {
      "buffer": 0,
      "byteLength": 469104,
      "byteOffset": 1641888,
      "target": 34962
    }
  ],
  "buffers": [
    {
      "byteLength": 2110992,
      "uri": "sculpture-owl.bin"
    }
  ],
  "images": [
    {
      "uri": "owl_baseColor.jpg"
    },
    {
      "uri": "owl_occlusionRoughnessMetallic.jpg"
    },
    {
      "uri": "owl_normal.jpg"
    }
  ],
  "materials": [
    {
      "alphaMode": "OPAQUE",
      "name": "owl",
      "normalTexture": {
        "index": 2
      },
      "occlusionTexture": {
        "index": 1
      },
      "pbrMetallicRoughness": {
        "baseColorTexture": {
          "index": 0
        },
        "metallicRoughnessTexture": {
          "index": 1
        }
      }
    }
  ],
  "meshes": [
    {
      "name": "sculpture_owl",
      "primitives": [
        {
          "attributes": {
            "NORMAL": 2,
            "POSITION": 1,
            "TEXCOORD_0": 3
          },
          "indices": 0,
          "material": 0,
          "mode": 4
        }
      ]
    }
  ],
  "nodes": [
    {
      "children": [
        1
      ],
      "name": "sculpture-owl.obj"
    },
    {
      "children": [
        2
      ],
      "name": "sculpture_owl"
    },
    {
      "mesh": 0,
      "name": "sculpture_owl"
    }
  ],
  "samplers": [
    {
      "magFilter": 9729,
      "minFilter": 9985,
      "wrapS": 10497,
      "wrapT": 10497
    }
  ],
  "scene": 0,
  "scenes": [
    {
      "name": "Scene",
      "nodes": [
        0
      ]
    }
  ],
  "textures": [
    {
      "sampler": 0,
      "source": 0
    },
    {
      "sampler": 0,
      "source": 1
    },
    {
      "sampler": 0,
      "source": 2
    }
  ]
}