{
  "accessors": [
    {
      "bufferView": 0,
      "componentType": 5125,
      "count": 586524,
      "type": "SCALAR"
    },
    {
      "bufferView": 1,
      "componentType": 5126,
      "count": 586488,
      "max": [
        0.627453029155731,
        1.75170886516571,
        0.626510918140411
      ],
      "min": [
        -0.627453029155731,
        -0.207282900810242,
        -0.626510918140411
      ],
      "type": "VEC3"
    },
    {
      "bufferView": 2,
      "componentType": 5126,
      "count": 586488,
      "type": "VEC3"
    },
    {
      "bufferView": 3,
      "componentType": 5126,
      "count": 586488,
      "type": "VEC2"
    }
  ],
  "asset": {
    "generator": "Adobe Substance 3D Painter 7.4.1",
    "version": "2.0"
  },
  "bufferViews": [
    {
      "buffer": 0,
      "byteLength": 2346096,
      "target": 34963
    },
    {
      "buffer": 0,
      "byteLength": 7037856,
      "byteOffset": 2346096,
      "target": 34962
    },
    {
      "buffer": 0,
      "byteLength": 7037856,
      "byteOffset": 9383952,
      "target": 34962
    },
    {
      "buffer": 0,
      "byteLength": 4691904,
      "byteOffset": 16421808,
      "target": 34962
    }
  ],
  "buffers": [
    {
      "byteLength": 21113712,
      "uri": "sculpture-owl.bin"
    }
  ],
  "images": [
    {
      "uri": "owl_baseColor.png"
    },
    {
      "uri": "owl_occlusionRoughnessMetallic.png"
    },
    {
      "uri": "owl_normal.png"
    }
  ],
  "materials": [
    {
      "alphaMode": "OPAQUE",
      "name": "owl",
      "normalTexture": {
        "index": 2
      },
      "occlusionTexture": {
        "index": 1
      },
      "pbrMetallicRoughness": {
        "baseColorTexture": {
          "index": 0
        },
        "metallicRoughnessTexture": {
          "index": 1
        }
      }
    }
  ],
  "meshes": [
    {
      "name": "sculpture_owl",
      "primitives": [
        {
          "attributes": {
            "NORMAL": 2,
            "POSITION": 1,
            "TEXCOORD_0": 3
          },
          "indices": 0,
          "material": 0,
          "mode": 4
        }
      ]
    }
  ],
  "nodes": [
    {
      "children": [
        1
      ],
      "name": "sculpture-owl.obj"
    },
    {
      "children": [
        2
      ],
      "name": "sculpture_owl"
    },
    {
      "mesh": 0,
      "name": "sculpture_owl"
    }
  ],
  "samplers": [
    {
      "magFilter": 9729,
      "minFilter": 9985,
      "wrapS": 10497,
      "wrapT": 10497
    }
  ],
  "scene": 0,
  "scenes": [
    {
      "name": "Scene",
      "nodes": [
        0
      ]
    }
  ],
  "textures": [
    {
      "sampler": 0,
      "source": 0
    },
    {
      "sampler": 0,
      "source": 1
    },
    {
      "sampler": 0,
      "source": 2
    }
  ]
}