{
  "accessors": [
    {
      "bufferView": 2,
      "componentType": 5126,
      "count": 126,
      "max": [
        8.6754293441772461,
        3.5279009342193604,
        2.526324987411499
      ],
      "min": [
        7.5039558410644531,
        2.4253370761871338,
        0.48601499199867249
      ],
      "type": "VEC3"
    },
    {
      "bufferView": 2,
      "byteOffset": 1512,
      "componentType": 5126,
      "count": 126,
      "max": [
        0.96456056833267212,
        0.99814355373382568,
        0.91427123546600342
      ],
      "min": [
        -0.96456056833267212,
        -0.89138972759246826,
        -0.73026657104492188
      ],
      "type": "VEC3"
    },
    {
      "bufferView": 1,
      "componentType": 5126,
      "count": 126,
      "max": [
        5.7079792022705078,
        0.36963999271392822
      ],
      "min": [
        0.42397201061248779,
        -1.3698970079421997
      ],
      "type": "VEC2"
    },
    {
      "bufferView": 0,
      "componentType": 5125,
      "count": 168,
      "max": [
        125
      ],
      "min": [
        0
      ],
      "type": "SCALAR"
    },
    {
      "bufferView": 2,
      "byteOffset": 3024,
      "componentType": 5126,
      "count": 1272,
      "max": [
        9.7376937866210938,
        4.6336331367492676,
        0.36407798528671265
      ],
      "min": [
        6.4619860649108887,
        1.3572709560394287,
        -0.050430998206138611
      ],
      "type": "VEC3"
    },
    {
      "bufferView": 2,
      "byteOffset": 18288,
      "componentType": 5126,
      "count": 1272,
      "max": [
        1,
        1,
        1
      ],
      "min": [
        -1,
        -1,
        -1
      ],
      "type": "VEC3"
    },
    {
      "bufferView": 1,
      "byteOffset": 1008,
      "componentType": 5126,
      "count": 1272,
      "max": [
        5.4437217712402344,
        0.65397697687149048
      ],
      "min": [
        0.014983000233769417,
        -1.652974009513855
      ],
      "type": "VEC2"
    },
    {
      "bufferView": 0,
      "byteOffset": 672,
      "componentType": 5125,
      "count": 1968,
      "max": [
        1271
      ],
      "min": [
        0
      ],
      "type": "SCALAR"
    },
    {
      "bufferView": 2,
      "byteOffset": 33552,
      "componentType": 5126,
      "count": 2040,
      "max": [
        14.133831024169922,
        8.1575489044189453,
        2.9916329383850098
      ],
      "min": [
        -4.3562068939208984,
        -12.417993545532227,
        -0.60621100664138794
      ],
      "type": "VEC3"
    },
    {
      "bufferView": 2,
      "byteOffset": 58032,
      "componentType": 5126,
      "count": 2040,
      "max": [
        0.93686777353286743,
        0.93686777353286743,
        0.99750792980194092
      ],
      "min": [
        -0.93686777353286743,
        -0.93686777353286743,
        0.34959328174591064
      ],
      "type": "VEC3"
    },
    {
      "bufferView": 1,
      "byteOffset": 11184,
      "componentType": 5126,
      "count": 2040,
      "max": [
        1.3452500104904175,
        0
      ],
      "min": [
        0,
        -1.032088041305542
      ],
      "type": "VEC2"
    },
    {
      "bufferView": 0,
      "byteOffset": 8544,
      "componentType": 5125,
      "count": 3060,
      "max": [
        2039
      ],
      "min": [
        0
      ],
      "type": "SCALAR"
    },
    {
      "bufferView": 2,
      "byteOffset": 82512,
      "componentType": 5126,
      "count": 836,
      "max": [
        11.535534858703613,
        6.4350810050964355,
        0.44423699378967285
      ],
      "min": [
        -1.7764029502868652,
        -12.417994499206543,
        -0.0027509999927133322
      ],
      "type": "VEC3"
    },
    {
      "bufferView": 2,
      "byteOffset": 92544,
      "componentType": 5126,
      "count": 836,
      "max": [
        0.90833050012588501,
        0.88689416646957397,
        0.99606221914291382
      ],
      "min": [
        -0.94572830200195312,
        -0.88689416646957397,
        0.32380968332290649
      ],
      "type": "VEC3"
    },
    {
      "bufferView": 1,
      "byteOffset": 27504,
      "componentType": 5126,
      "count": 836,
      "max": [
        4.810032844543457,
        1.9859880208969116
      ],
      "min": [
        0,
        -2.857367992401123
      ],
      "type": "VEC2"
    },
    {
      "bufferView": 0,
      "byteOffset": 20784,
      "componentType": 5125,
      "count": 3420,
      "max": [
        835
      ],
      "min": [
        0
      ],
      "type": "SCALAR"
    },
    {
      "bufferView": 2,
      "byteOffset": 102576,
      "componentType": 5126,
      "count": 4876,
      "max": [
        10.722513198852539,
        5.6964840888977051,
        0.76512801647186279
      ],
      "min": [
        -1.386023998260498,
        -12.414523124694824,
        -0.088481999933719635
      ],
      "type": "VEC3"
    },
    {
      "bufferView": 2,
      "byteOffset": 161088,
      "componentType": 5126,
      "count": 4876,
      "max": [
        1,
        0.99999988079071045,
        0.99384182691574097
      ],
      "min": [
        -1,
        -0.99999988079071045,
        -0.85557097196578979
      ],
      "type": "VEC3"
    },
    {
      "bufferView": 1,
      "byteOffset": 34192,
      "componentType": 5126,
      "count": 4876,
      "max": [
        1,
        0
      ],
      "min": [
        0,
        -1
      ],
      "type": "VEC2"
    },
    {
      "bufferView": 0,
      "byteOffset": 34464,
      "componentType": 5125,
      "count": 7314,
      "max": [
        4875
      ],
      "min": [
        0
      ],
      "type": "SCALAR"
    },
    {
      "bufferView": 2,
      "byteOffset": 219600,
      "componentType": 5126,
      "count": 270,
      "max": [
        11.472887992858887,
        5.27288818359375,
        0.015676999464631081
      ],
      "min": [
        -0.94567596912384033,
        -12.325679779052734,
        -0.043418001383543015
      ],
      "type": "VEC3"
    },
    {
      "bufferView": 2,
      "byteOffset": 222840,
      "componentType": 5126,
      "count": 270,
      "max": [
        0.02870047464966774,
        0.097501322627067566,
        1
      ],
      "min": [
        -0.028600685298442841,
        -0.097808204591274261,
        0.99518346786499023
      ],
      "type": "VEC3"
    },
    {
      "bufferView": 1,
      "byteOffset": 73200,
      "componentType": 5126,
      "count": 270,
      "max": [
        8.5543317794799805,
        0
      ],
      "min": [
        0,
        -7.2888498306274414
      ],
      "type": "VEC2"
    },
    {
      "bufferView": 0,
      "byteOffset": 63720,
      "componentType": 5125,
      "count": 900,
      "max": [
        269
      ],
      "min": [
        0
      ],
      "type": "SCALAR"
    },
    {
      "bufferView": 2,
      "byteOffset": 226080,
      "componentType": 5126,
      "count": 9589,
      "max": [
        11.427632331848145,
        6.1062498092651367,
        3.8099000453948975
      ],
      "min": [
        -1.8686729669570923,
        -12.32298755645752,
        0.38040798902511597
      ],
      "type": "VEC3"
    },
    {
      "bufferView": 2,
      "byteOffset": 341148,
      "componentType": 5126,
      "count": 9589,
      "max": [
        0.87096017599105835,
        0.87674367427825928,
        0.95380067825317383
      ],
      "min": [
        -0.87096017599105835,
        -0.87674367427825928,
        0.4534434974193573
      ],
      "type": "VEC3"
    },
    {
      "bufferView": 1,
      "byteOffset": 75360,
      "componentType": 5126,
      "count": 9589,
      "max": [
        8.5292940139770508,
        -0.009083000011742115
      ],
      "min": [
        9.9999999747524271e-07,
        -3.2318730354309082
      ],
      "type": "VEC2"
    },
    {
      "bufferView": 0,
      "byteOffset": 67320,
      "componentType": 5125,
      "count": 16254,
      "max": [
        9588
      ],
      "min": [
        0
      ],
      "type": "SCALAR"
    },
    {
      "bufferView": 2,
      "byteOffset": 456216,
      "componentType": 5126,
      "count": 8375,
      "max": [
        11.427632331848145,
        6.0455541610717773,
        3.384584903717041
      ],
      "min": [
        -1.8735649585723877,
        -12.390436172485352,
        0.38040798902511597
      ],
      "type": "VEC3"
    },
    {
      "bufferView": 2,
      "byteOffset": 556716,
      "componentType": 5126,
      "count": 8375,
      "max": [
        0.85835623741149902,
        0.86525177955627441,
        0.95380067825317383
      ],
      "min": [
        -0.85835623741149902,
        -0.86525177955627441,
        0.47518953680992126
      ],
      "type": "VEC3"
    },
    {
      "bufferView": 1,
      "byteOffset": 152072,
      "componentType": 5126,
      "count": 8375,
      "max": [
        5.5897607803344727,
        -0.13625000417232513
      ],
      "min": [
        9.9999999747524271e-07,
        -3.2318730354309082
      ],
      "type": "VEC2"
    },
    {
      "bufferView": 0,
      "byteOffset": 132336,
      "componentType": 5125,
      "count": 17478,
      "max": [
        8374
      ],
      "min": [
        0
      ],
      "type": "SCALAR"
    },
    {
      "bufferView": 2,
      "byteOffset": 657216,
      "componentType": 5126,
      "count": 142,
      "max": [
        11.263954162597656,
        4.9435367584228516,
        2.623755931854248
      ],
      "min": [
        -1.3191969394683838,
        -4.699070930480957,
        0.64122998714447021
      ],
      "type": "VEC3"
    },
    {
      "bufferView": 2,
      "byteOffset": 658920,
      "componentType": 5126,
      "count": 142,
      "max": [
        0.70137017965316772,
        0.79674381017684937,
        0.92670059204101562
      ],
      "min": [
        -0.73658019304275513,
        -0.79674381017684937,
        0.48115614056587219
      ],
      "type": "VEC3"
    },
    {
      "bufferView": 1,
      "byteOffset": 219072,
      "componentType": 5126,
      "count": 142,
      "max": [
        5.5897607803344727,
        -0.37530601024627686
      ],
      "min": [
        0.069787003099918365,
        -2.9909300804138184
      ],
      "type": "VEC2"
    },
    {
      "bufferView": 0,
      "byteOffset": 202248,
      "componentType": 5125,
      "count": 288,
      "max": [
        141
      ],
      "min": [
        0
      ],
      "type": "SCALAR"
    },
    {
      "bufferView": 2,
      "byteOffset": 660624,
      "componentType": 5126,
      "count": 3833,
      "max": [
        10.961609840393066,
        5.7035069465637207,
        2.6152369976043701
      ],
      "min": [
        -1.4172379970550537,
        -12.048383712768555,
        -0.12503500282764435
      ],
      "type": "VEC3"
    },
    {
      "bufferView": 2,
      "byteOffset": 706620,
      "componentType": 5126,
      "count": 3833,
      "max": [
        1,
        1,
        1
      ],
      "min": [
        -1,
        -1,
        0
      ],
      "type": "VEC3"
    },
    {
      "bufferView": 1,
      "byteOffset": 220208,
      "componentType": 5126,
      "count": 3833,
      "max": [
        1.0000029802322388,
        0
      ],
      "min": [
        9.9999999747524271e-07,
        -1
      ],
      "type": "VEC2"
    },
    {
      "bufferView": 0,
      "byteOffset": 203400,
      "componentType": 5125,
      "count": 9288,
      "max": [
        3832
      ],
      "min": [
        0
      ],
      "type": "SCALAR"
    }
  ],
  "asset": {
    "extras": {
      "author": "Karthik Naidu (https://sketchfab.com/naidukarthik1997)",
      "license": "CC-BY-4.0 (http://creativecommons.org/licenses/by/4.0/)",
      "source": "https://sketchfab.com/3d-models/game-level-scene-low-poly-78ff510e42184ef4866a84998b5aa157",
      "title": "Game Level Scene Low Poly"
    },
    "generator": "Sketchfab-8.63.0",
    "version": "2.0"
  },
  "bufferViews": [
    {
      "buffer": 0,
      "byteLength": 240552,
      "byteOffset": 0,
      "name": "floatBufferViews",
      "target": 34963
    },
    {
      "buffer": 0,
      "byteLength": 250872,
      "byteOffset": 240552,
      "byteStride": 8,
      "name": "floatBufferViews",
      "target": 34962
    },
    {
      "buffer": 0,
      "byteLength": 752616,
      "byteOffset": 491424,
      "byteStride": 12,
      "name": "floatBufferViews",
      "target": 34962
    }
  ],
  "buffers": [
    {
      "byteLength": 1244040,
      "uri": "scene.bin"
    }
  ],
  "materials": [
    {
      "doubleSided": true,
      "emissiveFactor": [
        0.013056846051032836,
        0.58182164401849057,
        1
      ],
      "name": "Crystal_glowing",
      "pbrMetallicRoughness": {
        "baseColorFactor": [
          0.0019548359550158635,
          0.45581457673910919,
          0.89282932489176869,
          1
        ],
        "metallicFactor": 0,
        "roughnessFactor": 0.87459261102402097
      }
    },
    {
      "doubleSided": true,
      "emissiveFactor": [
        0,
        0,
        0
      ],
      "name": "Portal_crystal",
      "pbrMetallicRoughness": {
        "baseColorFactor": [
          0.27450000000000002,
          0.2823,
          0.36470000000000002,
          1
        ],
        "metallicFactor": 0,
        "roughnessFactor": 1
      }
    },
    {
      "doubleSided": true,
      "emissiveFactor": [
        0,
        0,
        0
      ],
      "name": "bigrock",
      "pbrMetallicRoughness": {
        "baseColorFactor": [
          0.59599999999999997,
          0.30580000000000002,
          0.19600000000000001,
          1
        ],
        "metallicFactor": 0,
        "roughnessFactor": 1
      }
    },
    {
      "doubleSided": true,
      "emissiveFactor": [
        0,
        0,
        0
      ],
      "name": "grass",
      "pbrMetallicRoughness": {
        "baseColorFactor": [
          0,
          0.39600000000000002,
          0.043099999999999999,
          1
        ],
        "metallicFactor": 0,
        "roughnessFactor": 0.98947197688102351
      }
    },
    {
      "doubleSided": true,
      "emissiveFactor": [
        0,
        0,
        0
      ],
      "name": "rock",
      "pbrMetallicRoughness": {
        "baseColorFactor": [
          0.40389999999999998,
          0.26269999999999999,
          0.18820000000000001,
          1
        ],
        "metallicFactor": 0,
        "roughnessFactor": 1
      }
    },
    {
      "doubleSided": true,
      "emissiveFactor": [
        0,
        0,
        0
      ],
      "name": "stylized_walkway",
      "pbrMetallicRoughness": {
        "baseColorFactor": [
          0.61960000000000004,
          0.40000000000000002,
          0.28620000000000001,
          1
        ],
        "metallicFactor": 0,
        "roughnessFactor": 0.96969409319425615
      }
    },
    {
      "doubleSided": true,
      "emissiveFactor": [
        0,
        0,
        0
      ],
      "name": "treeleaves",
      "pbrMetallicRoughness": {
        "baseColorFactor": [
          0.078399999999999997,
          0.42349999999999999,
          0.1019,
          1
        ],
        "metallicFactor": 0,
        "roughnessFactor": 1
      }
    },
    {
      "doubleSided": true,
      "emissiveFactor": [
        0,
        0,
        0
      ],
      "name": "treestump",
      "pbrMetallicRoughness": {
        "baseColorFactor": [
          0.48230000000000001,
          0.30980000000000002,
          0.21959999999999999,
          1
        ],
        "metallicFactor": 0,
        "roughnessFactor": 1
      }
    }
  ],
  "meshes": [
    {
      "primitives": [
        {
          "attributes": {
            "NORMAL": 1,
            "POSITION": 0,
            "TEXCOORD_0": 2
          },
          "indices": 3,
          "material": 0,
          "mode": 4
        }
      ]
    },
    {
      "primitives": [
        {
          "attributes": {
            "NORMAL": 5,
            "POSITION": 4,
            "TEXCOORD_0": 6
          },
          "indices": 7,
          "material": 1,
          "mode": 4
        }
      ]
    },
    {
      "primitives": [
        {
          "attributes": {
            "NORMAL": 9,
            "POSITION": 8,
            "TEXCOORD_0": 10
          },
          "indices": 11,
          "material": 2,
          "mode": 4
        }
      ]
    },
    {
      "primitives": [
        {
          "attributes": {
            "NORMAL": 13,
            "POSITION": 12,
            "TEXCOORD_0": 14
          },
          "indices": 15,
          "material": 3,
          "mode": 4
        }
      ]
    },
    {
      "primitives": [
        {
          "attributes": {
            "NORMAL": 17,
            "POSITION": 16,
            "TEXCOORD_0": 18
          },
          "indices": 19,
          "material": 4,
          "mode": 4
        }
      ]
    },
    {
      "primitives": [
        {
          "attributes": {
            "NORMAL": 21,
            "POSITION": 20,
            "TEXCOORD_0": 22
          },
          "indices": 23,
          "material": 5,
          "mode": 4
        }
      ]
    },
    {
      "primitives": [
        {
          "attributes": {
            "NORMAL": 25,
            "POSITION": 24,
            "TEXCOORD_0": 26
          },
          "indices": 27,
          "material": 6,
          "mode": 4
        }
      ]
    },
    {
      "primitives": [
        {
          "attributes": {
            "NORMAL": 29,
            "POSITION": 28,
            "TEXCOORD_0": 30
          },
          "indices": 31,
          "material": 6,
          "mode": 4
        }
      ]
    },
    {
      "primitives": [
        {
          "attributes": {
            "NORMAL": 33,
            "POSITION": 32,
            "TEXCOORD_0": 34
          },
          "indices": 35,
          "material": 6,
          "mode": 4
        }
      ]
    },
    {
      "primitives": [
        {
          "attributes": {
            "NORMAL": 37,
            "POSITION": 36,
            "TEXCOORD_0": 38
          },
          "indices": 39,
          "material": 7,
          "mode": 4
        }
      ]
    }
  ],
  "nodes": [
    {
      "children": [
        1
      ],
      "name": "RootNode (gltf orientation matrix)",
      "rotation": [
        -0.70710678118654746,
        -0,
        -0,
        0.70710678118654757
      ]
    },
    {
      "children": [
        2
      ],
      "name": "RootNode (model correction matrix)"
    },
    {
      "children": [
        3,
        4,
        5,
        6,
        7,
        8,
        9,
        10,
        11,
        12
      ],
      "name": "Game_Level_Scene_Low_Poly.obj.cleaner.materialmerger.gles"
    },
    {
      "mesh": 0,
      "name": ""
    },
    {
      "mesh": 1,
      "name": ""
    },
    {
      "mesh": 2,
      "name": ""
    },
    {
      "mesh": 3,
      "name": ""
    },
    {
      "mesh": 4,
      "name": ""
    },
    {
      "mesh": 5,
      "name": ""
    },
    {
      "mesh": 6,
      "name": ""
    },
    {
      "mesh": 7,
      "name": ""
    },
    {
      "mesh": 8,
      "name": ""
    },
    {
      "mesh": 9,
      "name": ""
    }
  ],
  "scene": 0,
  "scenes": [
    {
      "name": "OSG_Scene",
      "nodes": [
        0
      ]
    }
  ]
}

