{
	"asset":{
		"generator":"Khronos glTF Blender I/O v4.3.47",
		"version":"2.0"
	},
	"extensionsUsed":[
		"KHR_materials_specular",
		"KHR_materials_ior"
	],
	"scene":0,
	"scenes":[
		{
			"name":"Scene",
			"nodes":[
				0
			]
		}
	],
	"nodes":[
		{
			"mesh":0,
			"name":"Object_3",
			"rotation":[
				-0.7071069478988647,
				0,
				0,
				0.7071066498756409
			],
			"scale":[
				0.10850691795349121,
				0.1085069328546524,
				0.1085069328546524
			]
		}
	],
	"materials":[
		{
			"doubleSided":true,
			"extensions":{
				"KHR_materials_specular":{
					"specularColorFactor":[
						0,
						0,
						0
					],
					"specularColorTexture":{
						"index":0
					}
				},
				"KHR_materials_ior":{
					"ior":1000
				}
			},
			"name":"defaultMat",
			"pbrMetallicRoughness":{
				"baseColorTexture":{
					"index":1
				},
				"metallicFactor":0,
				"metallicRoughnessTexture":{
					"index":2
				}
			}
		}
	],
	"meshes":[
		{
			"name":"Object_0",
			"primitives":[
				{
					"attributes":{
						"POSITION":0,
						"NORMAL":1,
						"TEXCOORD_0":2
					},
					"indices":3,
					"material":0
				}
			]
		}
	],
	"textures":[
		{
			"sampler":0,
			"source":0
		},
		{
			"sampler":0,
			"source":1
		},
		{
			"sampler":0,
			"source":2
		}
	],
	"images":[
		{
			"mimeType":"image/jpeg",
			"name":"defaultMat_specularGlossiness",
			"uri":"textures/defaultMat_specularGlossiness.jpg"
		},
		{
			"mimeType":"image/jpeg",
			"name":"defaultMat_diffuse-min",
			"uri":"textures/defaultMat_diffuse-min.jpg"
		},
		{
			"mimeType":"image/png",
			"name":"defaultMat_specularGlossiness",
			"uri":"textures/defaultMat_specularGlossiness.png"
		}
	],
	"accessors":[
		{
			"bufferView":0,
			"componentType":5126,
			"count":1866,
			"max":[
				178.5096893310547,
				216.36614990234375,
				532.0939331054688
			],
			"min":[
				-174.36370849609375,
				0.09430322051048279,
				0.14294488728046417
			],
			"type":"VEC3"
		},
		{
			"bufferView":1,
			"componentType":5126,
			"count":1866,
			"type":"VEC3"
		},
		{
			"bufferView":2,
			"componentType":5126,
			"count":1866,
			"type":"VEC2"
		},
		{
			"bufferView":3,
			"componentType":5123,
			"count":6351,
			"type":"SCALAR"
		}
	],
	"bufferViews":[
		{
			"buffer":0,
			"byteLength":22392,
			"byteOffset":0,
			"target":34962
		},
		{
			"buffer":0,
			"byteLength":22392,
			"byteOffset":22392,
			"target":34962
		},
		{
			"buffer":0,
			"byteLength":14928,
			"byteOffset":44784,
			"target":34962
		},
		{
			"buffer":0,
			"byteLength":12702,
			"byteOffset":59712,
			"target":34963
		}
	],
	"samplers":[
		{
			"magFilter":9729,
			"minFilter":9987
		}
	],
	"buffers":[
		{
			"byteLength":72416,
			"uri":"head.bin"
		}
	]
}
