{
  "accessors": [
    {
      "bufferView": 0,
      "componentType": 5125,
      "count": 6,
      "type": "SCALAR"
    },
    {
      "bufferView": 1,
      "componentType": 5126,
      "count": 4,
      "max": [
        0.996027231216431,
        -0.182209447026253,
        0.686134397983551
      ],
      "min": [
        -0.625744879245758,
        -0.182209447026253,
        -0.686134397983551
      ],
      "type": "VEC3"
    },
    {
      "bufferView": 2,
      "componentType": 5126,
      "count": 4,
      "type": "VEC3"
    },
    {
      "bufferView": 3,
      "componentType": 5126,
      "count": 4,
      "type": "VEC2"
    },
    {
      "bufferView": 4,
      "componentType": 5125,
      "count": 24,
      "type": "SCALAR"
    },
    {
      "bufferView": 5,
      "componentType": 5126,
      "count": 16,
      "max": [
        0.996027231216431,
        0.178667947649956,
        0.686134397983551
      ],
      "min": [
        -0.625744938850403,
        -0.182209447026253,
        -0.686134397983551
      ],
      "type": "VEC3"
    },
    {
      "bufferView": 6,
      "componentType": 5126,
      "count": 16,
      "type": "VEC3"
    },
    {
      "bufferView": 7,
      "componentType": 5126,
      "count": 16,
      "type": "VEC2"
    },
    {
      "bufferView": 8,
      "componentType": 5125,
      "count": 1398,
      "type": "SCALAR"
    },
    {
      "bufferView": 9,
      "componentType": 5126,
      "count": 719,
      "max": [
        1.0,
        0.182209447026253,
        0.460076749324799
      ],
      "min": [
        0.964957118034363,
        -0.182209447026253,
        0.288785010576248
      ],
      "type": "VEC3"
    },
    {
      "bufferView": 10,
      "componentType": 5126,
      "count": 719,
      "type": "VEC3"
    },
    {
      "bufferView": 11,
      "componentType": 5126,
      "count": 719,
      "type": "VEC2"
    },
    {
      "bufferView": 12,
      "componentType": 5125,
      "count": 6,
      "type": "SCALAR"
    },
    {
      "bufferView": 13,
      "componentType": 5126,
      "count": 4,
      "max": [
        0.996027171611786,
        0.178667947649956,
        0.686134278774261
      ],
      "min": [
        -0.625744938850403,
        0.178667947649956,
        -0.686134278774261
      ],
      "type": "VEC3"
    },
    {
      "bufferView": 14,
      "componentType": 5126,
      "count": 4,
      "type": "VEC3"
    },
    {
      "bufferView": 15,
      "componentType": 5126,
      "count": 4,
      "type": "VEC2"
    }
  ],
  "asset": {
    "generator": "Substance Painter 2019.2.3",
    "version": "2.0"
  },
  "bufferViews": [
    {
      "buffer": 0,
      "byteLength": 24,
      "target": 34963
    },
    {
      "buffer": 0,
      "byteLength": 48,
      "byteOffset": 24,
      "target": 34962
    },
    {
      "buffer": 0,
      "byteLength": 48,
      "byteOffset": 72,
      "target": 34962
    },
    {
      "buffer": 0,
      "byteLength": 32,
      "byteOffset": 120,
      "target": 34962
    },
    {
      "buffer": 0,
      "byteLength": 96,
      "byteOffset": 152,
      "target": 34963
    },
    {
      "buffer": 0,
      "byteLength": 192,
      "byteOffset": 248,
      "target": 34962
    },
    {
      "buffer": 0,
      "byteLength": 192,
      "byteOffset": 440,
      "target": 34962
    },
    {
      "buffer": 0,
      "byteLength": 128,
      "byteOffset": 632,
      "target": 34962
    },
    {
      "buffer": 0,
      "byteLength": 5592,
      "byteOffset": 760,
      "target": 34963
    },
    {
      "buffer": 0,
      "byteLength": 8628,
      "byteOffset": 6352,
      "target": 34962
    },
    {
      "buffer": 0,
      "byteLength": 8628,
      "byteOffset": 14980,
      "target": 34962
    },
    {
      "buffer": 0,
      "byteLength": 5752,
      "byteOffset": 23608,
      "target": 34962
    },
    {
      "buffer": 0,
      "byteLength": 24,
      "byteOffset": 29360,
      "target": 34963
    },
    {
      "buffer": 0,
      "byteLength": 48,
      "byteOffset": 29384,
      "target": 34962
    },
    {
      "buffer": 0,
      "byteLength": 48,
      "byteOffset": 29432,
      "target": 34962
    },
    {
      "buffer": 0,
      "byteLength": 32,
      "byteOffset": 29480,
      "target": 34962
    }
  ],
  "buffers": [
    {
      "byteLength": 29512,
      "uri": "Room.bin"
    }
  ],
  "images": [
    {
      "uri": "green_shader_baseColor.png"
    },
    {
      "uri": "green_shader_occlusionRoughnessMetallic.png"
    },
    {
      "uri": "green_shader_normal.png"
    },
    {
      "uri": "red_shader_baseColor.png"
    },
    {
      "uri": "red_shader_occlusionRoughnessMetallic.png"
    },
    {
      "uri": "red_shader_normal.png"
    },
    {
      "uri": "red_shader_emissive.png"
    },
    {
      "uri": "yellow_shader_baseColor.png"
    },
    {
      "uri": "yellow_shader_occlusionRoughnessMetallic.png"
    },
    {
      "uri": "yellow_shader_normal.png"
    }
  ],
  "materials": [
    {
      "alphaMode": "OPAQUE",
      "name": "green_shader",
      "normalTexture": {
        "index": 2
      },
      "occlusionTexture": {
        "index": 1
      },
      "pbrMetallicRoughness": {
        "baseColorTexture": {
          "index": 0
        },
        "metallicRoughnessTexture": {
          "index": 1
        }
      }
    },
    {
      "alphaMode": "OPAQUE",
      "emissiveFactor": [
        1.0,
        1.0,
        1.0
      ],
      "emissiveTexture": {
        "index": 6
      },
      "name": "red_shader",
      "normalTexture": {
        "index": 5
      },
      "occlusionTexture": {
        "index": 4
      },
      "pbrMetallicRoughness": {
        "baseColorTexture": {
          "index": 3
        },
        "metallicRoughnessTexture": {
          "index": 4
        }
      }
    },
    {
      "alphaMode": "OPAQUE",
      "name": "yellow_shader",
      "normalTexture": {
        "index": 9
      },
      "occlusionTexture": {
        "index": 8
      },
      "pbrMetallicRoughness": {
        "baseColorTexture": {
          "index": 7
        },
        "metallicRoughnessTexture": {
          "index": 8
        }
      }
    }
  ],
  "meshes": [
    {
      "name": "floor_geo",
      "primitives": [
        {
          "attributes": {
            "NORMAL": 2,
            "POSITION": 1,
            "TEXCOORD_0": 3
          },
          "indices": 0,
          "material": 0,
          "mode": 4
        }
      ]
    },
    {
      "name": "walls_geo",
      "primitives": [
        {
          "attributes": {
            "NORMAL": 6,
            "POSITION": 5,
            "TEXCOORD_0": 7
          },
          "indices": 4,
          "material": 2,
          "mode": 4
        }
      ]
    },
    {
      "name": "Door_geo",
      "primitives": [
        {
          "attributes": {
            "NORMAL": 10,
            "POSITION": 9,
            "TEXCOORD_0": 11
          },
          "indices": 8,
          "material": 2,
          "mode": 4
        }
      ]
    },
    {
      "name": "ceiling_geo",
      "primitives": [
        {
          "attributes": {
            "NORMAL": 14,
            "POSITION": 13,
            "TEXCOORD_0": 15
          },
          "indices": 12,
          "material": 1,
          "mode": 4
        }
      ]
    }
  ],
  "nodes": [
    {
      "children": [
        1,
        3,
        5,
        7
      ],
      "name": "Room_2.obj",
      "scale": [
        801.592346191406,
        801.592346191406,
        801.592346191406
      ],
      "translation": [
        1.59228515625,
        146.057693481445,
        50.0
      ]
    },
    {
      "children": [
        2
      ],
      "name": "g floor_geo"
    },
    {
      "mesh": 0,
      "name": "floor_geo"
    },
    {
      "children": [
        4
      ],
      "name": "g walls_geo"
    },
    {
      "mesh": 1,
      "name": "walls_geo"
    },
    {
      "children": [
        6
      ],
      "name": "g Door_geo"
    },
    {
      "mesh": 2,
      "name": "Door_geo"
    },
    {
      "children": [
        8
      ],
      "name": "g ceiling_geo"
    },
    {
      "mesh": 3,
      "name": "ceiling_geo"
    }
  ],
  "samplers": [
    {
      "magFilter": 9729,
      "minFilter": 9985,
      "wrapS": 10497,
      "wrapT": 10497
    }
  ],
  "scene": 0,
  "scenes": [
    {
      "name": "Scene",
      "nodes": [
        0
      ]
    }
  ],
  "textures": [
    {
      "sampler": 0,
      "source": 0
    },
    {
      "sampler": 0,
      "source": 1
    },
    {
      "sampler": 0,
      "source": 2
    },
    {
      "sampler": 0,
      "source": 3
    },
    {
      "sampler": 0,
      "source": 4
    },
    {
      "sampler": 0,
      "source": 5
    },
    {
      "sampler": 0,
      "source": 6
    },
    {
      "sampler": 0,
      "source": 7
    },
    {
      "sampler": 0,
      "source": 8
    },
    {
      "sampler": 0,
      "source": 9
    }
  ]
}