{"accessors" : [{"bufferView" : 0, "byteOffset" : 0, "componentType" : 5123, "count" : 27336, "type" : "SCALAR", "max" : [22779], "min" : [0]}, {"bufferView" : 1, "byteOffset" : 0, "componentType" : 5126, "count" : 22780, "type" : "VEC3", "max" : [3.6973679065704346, 2.4318621158599854, 0.8634349703788757], "min" : [-3.6973679065704346, -5.008577823638916, -0.4417409896850586], "name" : "POSITION"}, {"bufferView" : 1, "byteOffset" : 12, "componentType" : 5126, "count" : 22780, "type" : "VEC2", "max" : [0.9999060034751892, -0.0037140001077204943], "min" : [0.005090000107884407, -0.9949650168418884], "name" : "TEXCOORD_0"}, {"bufferView" : 1, "byteOffset" : 20, "componentType" : 5126, "count" : 22780, "type" : "VEC3", "max" : [0.9988905191421509, 0.9995591044425964, 0.9990817308425903], "min" : [-0.9988905191421509, -0.9999379515647888, -0.9992719888687134], "name" : "NORMAL"}], "asset" : {"generator" : "Aspose.3D 22.1", "version" : "2.0"}, "buffers" : [{"uri" : "data:application/octet-stream;base64,", "byteLength" : 929432}], "bufferViews" : [{"buffer" : 0, "byteOffset" : 0, "byteLength" : 54672, "target" : 34963}, {"buffer" : 0, "byteOffset" : 54676, "byteLength" : 874752, "byteStride" : 32, "target" : 34962}], "meshes" : [{"primitives" : [{"attributes" : {"POSITION" : 1, "TEXCOORD_0" : 2, "NORMAL" : 3}, "indices" : 0, "mode" : 4}], "name" : ""}], "nodes" : [{"mesh" : 0, "name" : "Human_Reference_Model:BaseMesh_Man_Simple_Body"}], "scene" : 0, "scenes" : [{"nodes" : [0]}]}