{
	"asset":{
		"generator":"Khronos glTF Blender I/O v4.3.47",
		"version":"2.0"
	},
	"scene":0,
	"scenes":[
		{
			"name":"Scene",
			"nodes":[
				0,
				1,
				2,
				3,
				4
			]
		}
	],
	"nodes":[
		{
			"mesh":0,
			"name":"polySurface1",
			"rotation":[
				0.7071069478988647,
				0,
				0,
				0.7071066498756409
			],
			"scale":[
				0.45654988288879395,
				0.4565499424934387,
				0.4565499424934387
			]
		},
		{
			"mesh":1,
			"name":"pPlane1",
			"rotation":[
				-0.70710688829422,
				0,
				0.7071066498756409,
				5.338507236274381e-08
			],
			"scale":[
				0.3673219680786133,
				0.3673219680786133,
				0.43104448914527893
			],
			"translation":[
				-0.16043713688850403,
				0.7851793169975281,
				-4.657273292541504
			]
		},
		{
			"mesh":2,
			"name":"polySurface2",
			"rotation":[
				0.70710688829422,
				0,
				0,
				0.7071066498756409
			],
			"scale":[
				0.6020340323448181,
				0.557999312877655,
				0.4565499424934387
			],
			"translation":[
				-0.2892046868801117,
				-1.3593653440475464,
				-9.389361381530762
			]
		},
		{
			"mesh":3,
			"name":"pCylinder4",
			"rotation":[
				0.6579272747039795,
				0.2590978145599365,
				-0.25909778475761414,
				0.6579273343086243
			],
			"scale":[
				0.28589728474617004,
				0.2790609300136566,
				0.3396000266075134
			],
			"translation":[
				-8.647988319396973,
				6.507166385650635,
				-13.367500305175781
			]
		},
		{
			"mesh":4,
			"name":"pCylinder5",
			"rotation":[
				0.5004673004150391,
				0.4995322823524475,
				-0.4995322823524475,
				0.5004672408103943
			],
			"scale":[
				0.28589728474617004,
				0.2790609300136566,
				0.33959996700286865
			],
			"translation":[
				8.086130142211914,
				4.17896842956543,
				-4.140283584594727
			]
		}
	],
	"materials":[
		{
			"doubleSided":true,
			"name":"rock_mat.001",
			"normalTexture":{
				"index":0
			},
			"pbrMetallicRoughness":{
				"baseColorTexture":{
					"index":1
				},
				"metallicFactor":0,
				"metallicRoughnessTexture":{
					"index":2
				}
			}
		},
		{
			"doubleSided":true,
			"name":"bridge_mat.001",
			"normalTexture":{
				"index":3
			},
			"pbrMetallicRoughness":{
				"baseColorTexture":{
					"index":4
				},
				"metallicFactor":0,
				"metallicRoughnessTexture":{
					"index":5
				}
			}
		},
		{
			"doubleSided":true,
			"name":"pod_mat.001",
			"normalTexture":{
				"index":6
			},
			"pbrMetallicRoughness":{
				"baseColorTexture":{
					"index":7
				},
				"metallicRoughnessTexture":{
					"index":8
				}
			}
		}
	],
	"meshes":[
		{
			"name":"Mesh.009",
			"primitives":[
				{
					"attributes":{
						"POSITION":0,
						"NORMAL":1,
						"TEXCOORD_0":2
					},
					"indices":3,
					"material":0
				}
			]
		},
		{
			"name":"Mesh.010",
			"primitives":[
				{
					"attributes":{
						"POSITION":4,
						"NORMAL":5,
						"TEXCOORD_0":6
					},
					"indices":7,
					"material":1
				}
			]
		},
		{
			"name":"Mesh.011",
			"primitives":[
				{
					"attributes":{
						"POSITION":8,
						"NORMAL":9,
						"TEXCOORD_0":10
					},
					"indices":11,
					"material":0
				}
			]
		},
		{
			"name":"Mesh.016",
			"primitives":[
				{
					"attributes":{
						"POSITION":12,
						"NORMAL":13,
						"TEXCOORD_0":14
					},
					"indices":15,
					"material":2
				}
			]
		},
		{
			"name":"Mesh.017",
			"primitives":[
				{
					"attributes":{
						"POSITION":16,
						"NORMAL":17,
						"TEXCOORD_0":18
					},
					"indices":19,
					"material":2
				}
			]
		}
	],
	"textures":[
		{
			"sampler":0,
			"source":0
		},
		{
			"sampler":0,
			"source":1
		},
		{
			"sampler":0,
			"source":2
		},
		{
			"sampler":0,
			"source":3
		},
		{
			"sampler":0,
			"source":4
		},
		{
			"sampler":0,
			"source":5
		},
		{
			"sampler":0,
			"source":6
		},
		{
			"sampler":0,
			"source":7
		},
		{
			"sampler":0,
			"source":8
		}
	],
	"images":[
		{
			"mimeType":"image/png",
			"name":"world0_rock_Normal",
			"uri":"world_0Textures/world0_rock_Normal.png"
		},
		{
			"mimeType":"image/png",
			"name":"world0_rock_BaseColor",
			"uri":"world_0Textures/world0_rock_BaseColor.png"
		},
		{
			"mimeType":"image/png",
			"name":"world0_rock_Roughness",
			"uri":"world_0Textures/world0_rock_Roughness.png"
		},
		{
			"mimeType":"image/png",
			"name":"world0_bridge_Normal",
			"uri":"world_0Textures/world0_bridge_Normal.png"
		},
		{
			"mimeType":"image/png",
			"name":"world0_bridge_BaseColor",
			"uri":"world_0Textures/world0_bridge_BaseColor.png"
		},
		{
			"mimeType":"image/png",
			"name":"world0_bridge_Roughness",
			"uri":"world_0Textures/world0_bridge_Roughness.png"
		},
		{
			"mimeType":"image/png",
			"name":"world0_pod_Normal",
			"uri":"world_0Textures/world0_pod_Normal.png"
		},
		{
			"mimeType":"image/png",
			"name":"world0_pod_BaseColor",
			"uri":"world_0Textures/world0_pod_BaseColor.png"
		},
		{
			"mimeType":"image/png",
			"name":"world0_pod_Metallic-world0_pod_Roughness",
			"uri":"world_0Textures/world0_pod_Metallic-world0_pod_Roughness.png"
		}
	],
	"accessors":[
		{
			"bufferView":0,
			"componentType":5126,
			"count":965,
			"max":[
				9.211771965026855,
				7.264236927032471,
				12.750250816345215
			],
			"min":[
				-9.778193473815918,
				-10.431199073791504,
				-0.25351667404174805
			],
			"type":"VEC3"
		},
		{
			"bufferView":1,
			"componentType":5126,
			"count":965,
			"type":"VEC3"
		},
		{
			"bufferView":2,
			"componentType":5126,
			"count":965,
			"type":"VEC2"
		},
		{
			"bufferView":3,
			"componentType":5123,
			"count":1050,
			"type":"SCALAR"
		},
		{
			"bufferView":4,
			"componentType":5126,
			"count":937,
			"max":[
				2.7499637603759766,
				1.926603078842163,
				5.816792011260986
			],
			"min":[
				-3.9017038345336914,
				-4.163956642150879,
				-5.816792011260986
			],
			"type":"VEC3"
		},
		{
			"bufferView":5,
			"componentType":5126,
			"count":937,
			"type":"VEC3"
		},
		{
			"bufferView":6,
			"componentType":5126,
			"count":937,
			"type":"VEC2"
		},
		{
			"bufferView":7,
			"componentType":5123,
			"count":3228,
			"type":"SCALAR"
		},
		{
			"bufferView":8,
			"componentType":5126,
			"count":963,
			"max":[
				9.34812068939209,
				8.304597854614258,
				7.038664817810059
			],
			"min":[
				-9.641844749450684,
				-9.390838623046875,
				-5.9651031494140625
			],
			"type":"VEC3"
		},
		{
			"bufferView":9,
			"componentType":5126,
			"count":963,
			"type":"VEC3"
		},
		{
			"bufferView":10,
			"componentType":5126,
			"count":963,
			"type":"VEC2"
		},
		{
			"bufferView":11,
			"componentType":5123,
			"count":1050,
			"type":"SCALAR"
		},
		{
			"bufferView":12,
			"componentType":5126,
			"count":394,
			"max":[
				9.634783744812012,
				9.835899353027344,
				17.94753074645996
			],
			"min":[
				-9.815474510192871,
				-9.614360809326172,
				-14.000024795532227
			],
			"type":"VEC3"
		},
		{
			"bufferView":13,
			"componentType":5126,
			"count":394,
			"type":"VEC3"
		},
		{
			"bufferView":14,
			"componentType":5126,
			"count":394,
			"type":"VEC2"
		},
		{
			"bufferView":15,
			"componentType":5123,
			"count":1224,
			"type":"SCALAR"
		},
		{
			"bufferView":16,
			"componentType":5126,
			"count":394,
			"max":[
				9.634764671325684,
				8.961418151855469,
				16.177448272705078
			],
			"min":[
				-9.815486907958984,
				-8.759622573852539,
				-12.61917495727539
			],
			"type":"VEC3"
		},
		{
			"bufferView":17,
			"componentType":5126,
			"count":394,
			"type":"VEC3"
		},
		{
			"bufferView":18,
			"componentType":5126,
			"count":394,
			"type":"VEC2"
		},
		{
			"bufferView":19,
			"componentType":5123,
			"count":1224,
			"type":"SCALAR"
		}
	],
	"bufferViews":[
		{
			"buffer":0,
			"byteLength":11580,
			"byteOffset":0,
			"target":34962
		},
		{
			"buffer":0,
			"byteLength":11580,
			"byteOffset":11580,
			"target":34962
		},
		{
			"buffer":0,
			"byteLength":7720,
			"byteOffset":23160,
			"target":34962
		},
		{
			"buffer":0,
			"byteLength":2100,
			"byteOffset":30880,
			"target":34963
		},
		{
			"buffer":0,
			"byteLength":11244,
			"byteOffset":32980,
			"target":34962
		},
		{
			"buffer":0,
			"byteLength":11244,
			"byteOffset":44224,
			"target":34962
		},
		{
			"buffer":0,
			"byteLength":7496,
			"byteOffset":55468,
			"target":34962
		},
		{
			"buffer":0,
			"byteLength":6456,
			"byteOffset":62964,
			"target":34963
		},
		{
			"buffer":0,
			"byteLength":11556,
			"byteOffset":69420,
			"target":34962
		},
		{
			"buffer":0,
			"byteLength":11556,
			"byteOffset":80976,
			"target":34962
		},
		{
			"buffer":0,
			"byteLength":7704,
			"byteOffset":92532,
			"target":34962
		},
		{
			"buffer":0,
			"byteLength":2100,
			"byteOffset":100236,
			"target":34963
		},
		{
			"buffer":0,
			"byteLength":4728,
			"byteOffset":102336,
			"target":34962
		},
		{
			"buffer":0,
			"byteLength":4728,
			"byteOffset":107064,
			"target":34962
		},
		{
			"buffer":0,
			"byteLength":3152,
			"byteOffset":111792,
			"target":34962
		},
		{
			"buffer":0,
			"byteLength":2448,
			"byteOffset":114944,
			"target":34963
		},
		{
			"buffer":0,
			"byteLength":4728,
			"byteOffset":117392,
			"target":34962
		},
		{
			"buffer":0,
			"byteLength":4728,
			"byteOffset":122120,
			"target":34962
		},
		{
			"buffer":0,
			"byteLength":3152,
			"byteOffset":126848,
			"target":34962
		},
		{
			"buffer":0,
			"byteLength":2448,
			"byteOffset":130000,
			"target":34963
		}
	],
	"samplers":[
		{
			"magFilter":9729,
			"minFilter":9987
		}
	],
	"buffers":[
		{
			"byteLength":132448,
			"uri":"world_0.bin"
		}
	]
}
