{
	"asset":{
		"generator":"Khronos glTF Blender I/O v4.3.47",
		"version":"2.0"
	},
	"scene":0,
	"scenes":[
		{
			"name":"Scene",
			"nodes":[
				0,
				1,
				2,
				3,
				4
			]
		}
	],
	"nodes":[
		{
			"mesh":0,
			"name":"pCylinder4.001",
			"rotation":[
				0.6579272747039795,
				0.25909778475761414,
				-0.25909778475761414,
				0.6579273343086243
			],
			"scale":[
				0.2903884947299957,
				0.2834448218345642,
				0.3449348509311676
			],
			"translation":[
				-12.492182731628418,
				1.7043766975402832,
				-6.845828533172607
			]
		},
		{
			"mesh":1,
			"name":"pCylinder5.001",
			"rotation":[
				0.5004673600196838,
				0.4995323121547699,
				-0.4995323419570923,
				0.5004673004150391
			],
			"scale":[
				0.29038846492767334,
				0.2834447920322418,
				0.34493476152420044
			],
			"translation":[
				10.537942886352539,
				-0.5932650566101074,
				3.0589945316314697
			]
		},
		{
			"mesh":2,
			"name":"polySurface1.001",
			"rotation":[
				0.70710688829422,
				0,
				0,
				0.7071066498756409
			],
			"scale":[
				0.46372190117836,
				0.46372196078300476,
				0.46372196078300476
			],
			"translation":[
				0.5837329030036926,
				-0.2355852872133255,
				-0.46833959221839905
			]
		},
		{
			"mesh":3,
			"name":"polySurface2.001",
			"rotation":[
				0.70710688829422,
				0,
				0,
				0.7071066498756409
			],
			"scale":[
				0.6114913821220398,
				0.5667650103569031,
				0.46372196078300476
			],
			"translation":[
				0.5837329030036926,
				1.0322827100753784,
				-9.52874755859375
			]
		},
		{
			"mesh":4,
			"name":"pPlane1.001",
			"rotation":[
				-0.70710688829422,
				0,
				0.7071066498756409,
				5.338507236274381e-08
			],
			"scale":[
				0.3730922043323517,
				0.3730922043323517,
				0.4378158450126648
			],
			"translation":[
				-2.3142738342285156,
				1.2870054244995117,
				-5.278562545776367
			]
		}
	],
	"materials":[
		{
			"doubleSided":true,
			"name":"standardSurface1",
			"pbrMetallicRoughness":{
				"baseColorTexture":{
					"index":0
				},
				"metallicFactor":0,
				"metallicRoughnessTexture":{
					"index":1
				}
			}
		}
	],
	"meshes":[
		{
			"name":"Mesh.003",
			"primitives":[
				{
					"attributes":{
						"POSITION":0,
						"NORMAL":1,
						"TEXCOORD_0":2
					},
					"indices":3,
					"material":0
				}
			]
		},
		{
			"name":"Mesh.004",
			"primitives":[
				{
					"attributes":{
						"POSITION":4,
						"NORMAL":5,
						"TEXCOORD_0":6
					},
					"indices":7,
					"material":0
				}
			]
		},
		{
			"name":"Mesh",
			"primitives":[
				{
					"attributes":{
						"POSITION":8,
						"NORMAL":9,
						"TEXCOORD_0":10
					},
					"indices":11,
					"material":0
				}
			]
		},
		{
			"name":"Mesh.002",
			"primitives":[
				{
					"attributes":{
						"POSITION":12,
						"NORMAL":13,
						"TEXCOORD_0":14
					},
					"indices":11,
					"material":0
				}
			]
		},
		{
			"name":"Mesh.001",
			"primitives":[
				{
					"attributes":{
						"POSITION":15,
						"NORMAL":16,
						"TEXCOORD_0":17
					},
					"indices":18,
					"material":0
				}
			]
		}
	],
	"textures":[
		{
			"sampler":0,
			"source":0
		},
		{
			"sampler":0,
			"source":1
		}
	],
	"images":[
		{
			"mimeType":"image/png",
			"name":"hubEnv_standardSurface1_BaseColor",
			"uri":"world_0Textures/hubEnv_standardSurface1_BaseColor.png"
		},
		{
			"mimeType":"image/png",
			"name":"hubEnv_standardSurface1_Roughness",
			"uri":"world_0Textures/hubEnv_standardSurface1_Roughness.png"
		}
	],
	"accessors":[
		{
			"bufferView":0,
			"componentType":5126,
			"count":394,
			"max":[
				34.493804931640625,
				1.3067846298217773,
				3.739762306213379
			],
			"min":[
				15.043546676635742,
				-18.143470764160156,
				-28.207792282104492
			],
			"type":"VEC3"
		},
		{
			"bufferView":1,
			"componentType":5126,
			"count":394,
			"type":"VEC3"
		},
		{
			"bufferView":2,
			"componentType":5126,
			"count":394,
			"type":"VEC2"
		},
		{
			"bufferView":3,
			"componentType":5123,
			"count":1224,
			"type":"SCALAR"
		},
		{
			"bufferView":4,
			"componentType":5126,
			"count":372,
			"max":[
				34.49380111694336,
				0.4421786665916443,
				2.164296865463257
			],
			"min":[
				15.043548583984375,
				-17.27886390686035,
				-26.632326126098633
			],
			"type":"VEC3"
		},
		{
			"bufferView":5,
			"componentType":5126,
			"count":372,
			"type":"VEC3"
		},
		{
			"bufferView":6,
			"componentType":5126,
			"count":372,
			"type":"VEC2"
		},
		{
			"bufferView":7,
			"componentType":5123,
			"count":1164,
			"type":"SCALAR"
		},
		{
			"bufferView":8,
			"componentType":5126,
			"count":1001,
			"max":[
				7.788122177124023,
				8.362693786621094,
				12.251401901245117
			],
			"min":[
				-11.20184326171875,
				-9.332742691040039,
				-0.7523660659790039
			],
			"type":"VEC3"
		},
		{
			"bufferView":9,
			"componentType":5126,
			"count":1001,
			"type":"VEC3"
		},
		{
			"bufferView":10,
			"componentType":5126,
			"count":1001,
			"type":"VEC2"
		},
		{
			"bufferView":11,
			"componentType":5123,
			"count":1050,
			"type":"SCALAR"
		},
		{
			"bufferView":12,
			"componentType":5126,
			"count":1001,
			"max":[
				7.788122177124023,
				8.362693786621094,
				12.251401901245117
			],
			"min":[
				-11.20184326171875,
				-9.332742691040039,
				-0.7523660659790039
			],
			"type":"VEC3"
		},
		{
			"bufferView":13,
			"componentType":5126,
			"count":1001,
			"type":"VEC3"
		},
		{
			"bufferView":14,
			"componentType":5126,
			"count":1001,
			"type":"VEC2"
		},
		{
			"bufferView":15,
			"componentType":5126,
			"count":943,
			"max":[
				1.1708223819732666,
				3.250000476837158,
				1.0776481628417969
			],
			"min":[
				-5.480845928192139,
				-2.840559482574463,
				-10.555935859680176
			],
			"type":"VEC3"
		},
		{
			"bufferView":16,
			"componentType":5126,
			"count":943,
			"type":"VEC3"
		},
		{
			"bufferView":17,
			"componentType":5126,
			"count":943,
			"type":"VEC2"
		},
		{
			"bufferView":18,
			"componentType":5123,
			"count":3228,
			"type":"SCALAR"
		}
	],
	"bufferViews":[
		{
			"buffer":0,
			"byteLength":4728,
			"byteOffset":0,
			"target":34962
		},
		{
			"buffer":0,
			"byteLength":4728,
			"byteOffset":4728,
			"target":34962
		},
		{
			"buffer":0,
			"byteLength":3152,
			"byteOffset":9456,
			"target":34962
		},
		{
			"buffer":0,
			"byteLength":2448,
			"byteOffset":12608,
			"target":34963
		},
		{
			"buffer":0,
			"byteLength":4464,
			"byteOffset":15056,
			"target":34962
		},
		{
			"buffer":0,
			"byteLength":4464,
			"byteOffset":19520,
			"target":34962
		},
		{
			"buffer":0,
			"byteLength":2976,
			"byteOffset":23984,
			"target":34962
		},
		{
			"buffer":0,
			"byteLength":2328,
			"byteOffset":26960,
			"target":34963
		},
		{
			"buffer":0,
			"byteLength":12012,
			"byteOffset":29288,
			"target":34962
		},
		{
			"buffer":0,
			"byteLength":12012,
			"byteOffset":41300,
			"target":34962
		},
		{
			"buffer":0,
			"byteLength":8008,
			"byteOffset":53312,
			"target":34962
		},
		{
			"buffer":0,
			"byteLength":2100,
			"byteOffset":61320,
			"target":34963
		},
		{
			"buffer":0,
			"byteLength":12012,
			"byteOffset":63420,
			"target":34962
		},
		{
			"buffer":0,
			"byteLength":12012,
			"byteOffset":75432,
			"target":34962
		},
		{
			"buffer":0,
			"byteLength":8008,
			"byteOffset":87444,
			"target":34962
		},
		{
			"buffer":0,
			"byteLength":11316,
			"byteOffset":95452,
			"target":34962
		},
		{
			"buffer":0,
			"byteLength":11316,
			"byteOffset":106768,
			"target":34962
		},
		{
			"buffer":0,
			"byteLength":7544,
			"byteOffset":118084,
			"target":34962
		},
		{
			"buffer":0,
			"byteLength":6456,
			"byteOffset":125628,
			"target":34963
		}
	],
	"samplers":[
		{
			"magFilter":9729,
			"minFilter":9987
		}
	],
	"buffers":[
		{
			"byteLength":132084,
			"uri":"world_0.bin"
		}
	]
}
