{
	"asset":{
		"generator":"Khronos glTF Blender I/O v4.2.70",
		"version":"2.0"
	},
	"scene":0,
	"scenes":[
		{
			"name":"Scene",
			"nodes":[
				0,
				1,
				2,
				3,
				4,
				5,
				6,
				7,
				8
			]
		}
	],
	"nodes":[
		{
			"mesh":0,
			"name":"polySurface1",
			"rotation":[
				0.7071068286895752,
				0,
				0,
				0.7071068286895752
			],
			"scale":[
				0.016350289806723595,
				0.016350289806723595,
				0.016350289806723595
			],
			"translation":[
				0.0328233502805233,
				0,
				0.030797423794865608
			]
		},
		{
			"mesh":1,
			"name":"pPlane1",
			"rotation":[
				-0.7071068286895752,
				0,
				0.7071067094802856,
				5.338507591545749e-08
			],
			"scale":[
				0.01315479725599289,
				0.01315479725599289,
				0.015436874702572823
			],
			"translation":[
				-0.06935697793960571,
				0.05368476361036301,
				-0.13880538940429688
			]
		},
		{
			"mesh":2,
			"name":"polySurface2",
			"rotation":[
				0.7071068286895752,
				0,
				0,
				0.7071068286895752
			],
			"scale":[
				0.02156047150492668,
				0.01998346671462059,
				0.016350289806723595
			],
			"translation":[
				0.0328233502805233,
				0.044703543186187744,
				-0.28866198658943176
			]
		},
		{
			"mesh":3,
			"name":"pPlane3",
			"rotation":[
				-1,
				0,
				0,
				7.549790126404332e-08
			],
			"scale":[
				0.04875311255455017,
				0.07945666462182999,
				0.04875311255455017
			],
			"translation":[
				-0.04643207788467407,
				0.10675743967294693,
				-0.3339265286922455
			]
		},
		{
			"mesh":4,
			"name":"pPlane4",
			"rotation":[
				-1,
				0,
				0,
				7.549790126404332e-08
			],
			"scale":[
				0.04875311255455017,
				0.07945666462182999,
				0.04875311255455017
			],
			"translation":[
				0.028512878343462944,
				0.10675743967294693,
				-0.3339265286922455
			]
		},
		{
			"mesh":5,
			"name":"pPlane5",
			"rotation":[
				-0.9692678451538086,
				0,
				0.24600782990455627,
				7.317768790926493e-08
			],
			"scale":[
				0.04875311255455017,
				0.07945666462182999,
				0.04875311255455017
			],
			"translation":[
				-0.1169721707701683,
				0.10675743967294693,
				-0.3100666403770447
			]
		},
		{
			"mesh":6,
			"name":"pPlane6",
			"rotation":[
				-0.9732950925827026,
				0,
				-0.22955764830112457,
				7.348172914589668e-08
			],
			"scale":[
				0.04875311255455017,
				0.07945666462182999,
				0.04875311255455017
			],
			"translation":[
				0.09874226152896881,
				0.10675743967294693,
				-0.3100666403770447
			]
		},
		{
			"mesh":7,
			"name":"pCylinder4",
			"rotation":[
				0.6579272747039795,
				0.25909778475761414,
				-0.25909775495529175,
				0.6579274535179138
			],
			"scale":[
				0.010238757357001305,
				0.009993929415941238,
				0.012161997146904469
			],
			"translation":[
				-0.4282180666923523,
				0.0684007927775383,
				-0.19406533241271973
			]
		},
		{
			"mesh":8,
			"name":"pCylinder5",
			"rotation":[
				0.5004673004150391,
				0.4995322823524475,
				-0.4995323121547699,
				0.5004672408103943
			],
			"scale":[
				0.01023875642567873,
				0.009993929415941238,
				0.012161997146904469
			],
			"translation":[
				0.38379713892936707,
				-0.012611369602382183,
				0.1551671177148819
			]
		}
	],
	"materials":[
		{
			"doubleSided":true,
			"name":"rock_mat.001",
			"normalTexture":{
				"index":0
			},
			"pbrMetallicRoughness":{
				"baseColorTexture":{
					"index":1
				},
				"metallicFactor":0,
				"metallicRoughnessTexture":{
					"index":2
				}
			}
		},
		{
			"doubleSided":true,
			"name":"bridge_mat.001",
			"normalTexture":{
				"index":3
			},
			"pbrMetallicRoughness":{
				"baseColorTexture":{
					"index":4
				},
				"metallicFactor":0,
				"metallicRoughnessTexture":{
					"index":5
				}
			}
		},
		{
			"doubleSided":true,
			"name":"portal_mat.001",
			"normalTexture":{
				"index":6
			},
			"pbrMetallicRoughness":{
				"baseColorTexture":{
					"index":7
				},
				"metallicFactor":0,
				"metallicRoughnessTexture":{
					"index":8
				}
			}
		},
		{
			"doubleSided":true,
			"name":"pod_mat.001",
			"normalTexture":{
				"index":9
			},
			"pbrMetallicRoughness":{
				"baseColorTexture":{
					"index":10
				},
				"metallicRoughnessTexture":{
					"index":11
				}
			}
		}
	],
	"meshes":[
		{
			"name":"Mesh.009",
			"primitives":[
				{
					"attributes":{
						"POSITION":0,
						"NORMAL":1,
						"TEXCOORD_0":2
					},
					"indices":3,
					"material":0
				}
			]
		},
		{
			"name":"Mesh.010",
			"primitives":[
				{
					"attributes":{
						"POSITION":4,
						"NORMAL":5,
						"TEXCOORD_0":6
					},
					"indices":7,
					"material":1
				}
			]
		},
		{
			"name":"Mesh.011",
			"primitives":[
				{
					"attributes":{
						"POSITION":8,
						"NORMAL":9,
						"TEXCOORD_0":10
					},
					"indices":11,
					"material":0
				}
			]
		},
		{
			"name":"Mesh.012",
			"primitives":[
				{
					"attributes":{
						"POSITION":12,
						"NORMAL":13,
						"TEXCOORD_0":14
					},
					"indices":15,
					"material":2
				}
			]
		},
		{
			"name":"Mesh.013",
			"primitives":[
				{
					"attributes":{
						"POSITION":16,
						"NORMAL":17,
						"TEXCOORD_0":18
					},
					"indices":15,
					"material":2
				}
			]
		},
		{
			"name":"Mesh.014",
			"primitives":[
				{
					"attributes":{
						"POSITION":19,
						"NORMAL":20,
						"TEXCOORD_0":21
					},
					"indices":15,
					"material":2
				}
			]
		},
		{
			"name":"Mesh.015",
			"primitives":[
				{
					"attributes":{
						"POSITION":22,
						"NORMAL":23,
						"TEXCOORD_0":24
					},
					"indices":15,
					"material":2
				}
			]
		},
		{
			"name":"Mesh.016",
			"primitives":[
				{
					"attributes":{
						"POSITION":25,
						"NORMAL":26,
						"TEXCOORD_0":27
					},
					"indices":28,
					"material":3
				}
			]
		},
		{
			"name":"Mesh.017",
			"primitives":[
				{
					"attributes":{
						"POSITION":29,
						"NORMAL":30,
						"TEXCOORD_0":31
					},
					"indices":32,
					"material":3
				}
			]
		}
	],
	"textures":[
		{
			"sampler":0,
			"source":0
		},
		{
			"sampler":0,
			"source":1
		},
		{
			"sampler":0,
			"source":2
		},
		{
			"sampler":0,
			"source":3
		},
		{
			"sampler":0,
			"source":4
		},
		{
			"sampler":0,
			"source":5
		},
		{
			"sampler":0,
			"source":6
		},
		{
			"sampler":0,
			"source":7
		},
		{
			"sampler":0,
			"source":8
		},
		{
			"sampler":0,
			"source":9
		},
		{
			"sampler":0,
			"source":10
		},
		{
			"sampler":0,
			"source":11
		}
	],
	"images":[
		{
			"mimeType":"image/png",
			"name":"world0_rock_Normal",
			"uri":"world0_textures/world0_rock_Normal.png"
		},
		{
			"mimeType":"image/png",
			"name":"world0_rock_BaseColor",
			"uri":"world0_textures/world0_rock_BaseColor.png"
		},
		{
			"mimeType":"image/png",
			"name":"world0_rock_Roughness",
			"uri":"world0_textures/world0_rock_Roughness.png"
		},
		{
			"mimeType":"image/png",
			"name":"world0_bridge_Normal",
			"uri":"world0_textures/world0_bridge_Normal.png"
		},
		{
			"mimeType":"image/png",
			"name":"world0_bridge_BaseColor",
			"uri":"world0_textures/world0_bridge_BaseColor.png"
		},
		{
			"mimeType":"image/png",
			"name":"world0_bridge_Roughness",
			"uri":"world0_textures/world0_bridge_Roughness.png"
		},
		{
			"mimeType":"image/png",
			"name":"world0_portal_Normal",
			"uri":"world0_textures/world0_portal_Normal.png"
		},
		{
			"mimeType":"image/png",
			"name":"world0_portal_BaseColor",
			"uri":"world0_textures/world0_portal_BaseColor.png"
		},
		{
			"mimeType":"image/png",
			"name":"world0_portal_Roughness",
			"uri":"world0_textures/world0_portal_Roughness.png"
		},
		{
			"mimeType":"image/png",
			"name":"world0_pod_Normal",
			"uri":"world0_textures/world0_pod_Normal.png"
		},
		{
			"mimeType":"image/png",
			"name":"world0_pod_BaseColor",
			"uri":"world0_textures/world0_pod_BaseColor.png"
		},
		{
			"mimeType":"image/png",
			"name":"world0_pod_Metallic-world0_pod_Roughness",
			"uri":"world0_textures/world0_pod_Metallic-world0_pod_Roughness.png"
		}
	],
	"accessors":[
		{
			"bufferView":0,
			"componentType":5126,
			"count":958,
			"max":[
				7.788122177124023,
				8.362693786621094,
				12.251401901245117
			],
			"min":[
				-11.20184326171875,
				-9.332742691040039,
				-0.7523660659790039
			],
			"type":"VEC3"
		},
		{
			"bufferView":1,
			"componentType":5126,
			"count":958,
			"type":"VEC3"
		},
		{
			"bufferView":2,
			"componentType":5126,
			"count":958,
			"type":"VEC2"
		},
		{
			"bufferView":3,
			"componentType":5123,
			"count":1050,
			"type":"SCALAR"
		},
		{
			"bufferView":4,
			"componentType":5126,
			"count":932,
			"max":[
				1.1708223819732666,
				3.250000476837158,
				1.0776481628417969
			],
			"min":[
				-5.480845928192139,
				-2.840559482574463,
				-10.555935859680176
			],
			"type":"VEC3"
		},
		{
			"bufferView":5,
			"componentType":5126,
			"count":932,
			"type":"VEC3"
		},
		{
			"bufferView":6,
			"componentType":5126,
			"count":932,
			"type":"VEC2"
		},
		{
			"bufferView":7,
			"componentType":5123,
			"count":3228,
			"type":"SCALAR"
		},
		{
			"bufferView":8,
			"componentType":5126,
			"count":956,
			"max":[
				7.788122177124023,
				8.362693786621094,
				12.251401901245117
			],
			"min":[
				-11.20184326171875,
				-9.332742691040039,
				-0.7523660659790039
			],
			"type":"VEC3"
		},
		{
			"bufferView":9,
			"componentType":5126,
			"count":956,
			"type":"VEC3"
		},
		{
			"bufferView":10,
			"componentType":5126,
			"count":956,
			"type":"VEC2"
		},
		{
			"bufferView":11,
			"componentType":5123,
			"count":1050,
			"type":"SCALAR"
		},
		{
			"bufferView":12,
			"componentType":5126,
			"count":121,
			"max":[
				0.5,
				0.5,
				0
			],
			"min":[
				-0.5,
				-0.5,
				0
			],
			"type":"VEC3"
		},
		{
			"bufferView":13,
			"componentType":5126,
			"count":121,
			"type":"VEC3"
		},
		{
			"bufferView":14,
			"componentType":5126,
			"count":121,
			"type":"VEC2"
		},
		{
			"bufferView":15,
			"componentType":5123,
			"count":600,
			"type":"SCALAR"
		},
		{
			"bufferView":16,
			"componentType":5126,
			"count":121,
			"max":[
				0.5,
				0.5,
				0
			],
			"min":[
				-0.5,
				-0.5,
				0
			],
			"type":"VEC3"
		},
		{
			"bufferView":17,
			"componentType":5126,
			"count":121,
			"type":"VEC3"
		},
		{
			"bufferView":18,
			"componentType":5126,
			"count":121,
			"type":"VEC2"
		},
		{
			"bufferView":19,
			"componentType":5126,
			"count":121,
			"max":[
				0.5,
				0.5,
				0
			],
			"min":[
				-0.5,
				-0.5,
				0
			],
			"type":"VEC3"
		},
		{
			"bufferView":20,
			"componentType":5126,
			"count":121,
			"type":"VEC3"
		},
		{
			"bufferView":21,
			"componentType":5126,
			"count":121,
			"type":"VEC2"
		},
		{
			"bufferView":22,
			"componentType":5126,
			"count":121,
			"max":[
				0.5,
				0.5,
				0
			],
			"min":[
				-0.5,
				-0.5,
				0
			],
			"type":"VEC3"
		},
		{
			"bufferView":23,
			"componentType":5126,
			"count":121,
			"type":"VEC3"
		},
		{
			"bufferView":24,
			"componentType":5126,
			"count":121,
			"type":"VEC2"
		},
		{
			"bufferView":25,
			"componentType":5126,
			"count":394,
			"max":[
				34.493804931640625,
				1.3067846298217773,
				3.739762306213379
			],
			"min":[
				15.043546676635742,
				-18.143470764160156,
				-28.207792282104492
			],
			"type":"VEC3"
		},
		{
			"bufferView":26,
			"componentType":5126,
			"count":394,
			"type":"VEC3"
		},
		{
			"bufferView":27,
			"componentType":5126,
			"count":394,
			"type":"VEC2"
		},
		{
			"bufferView":28,
			"componentType":5123,
			"count":1224,
			"type":"SCALAR"
		},
		{
			"bufferView":29,
			"componentType":5126,
			"count":394,
			"max":[
				34.49380111694336,
				0.4421786665916443,
				2.164296865463257
			],
			"min":[
				15.043548583984375,
				-17.27886390686035,
				-26.632326126098633
			],
			"type":"VEC3"
		},
		{
			"bufferView":30,
			"componentType":5126,
			"count":394,
			"type":"VEC3"
		},
		{
			"bufferView":31,
			"componentType":5126,
			"count":394,
			"type":"VEC2"
		},
		{
			"bufferView":32,
			"componentType":5123,
			"count":1224,
			"type":"SCALAR"
		}
	],
	"bufferViews":[
		{
			"buffer":0,
			"byteLength":11496,
			"byteOffset":0,
			"target":34962
		},
		{
			"buffer":0,
			"byteLength":11496,
			"byteOffset":11496,
			"target":34962
		},
		{
			"buffer":0,
			"byteLength":7664,
			"byteOffset":22992,
			"target":34962
		},
		{
			"buffer":0,
			"byteLength":2100,
			"byteOffset":30656,
			"target":34963
		},
		{
			"buffer":0,
			"byteLength":11184,
			"byteOffset":32756,
			"target":34962
		},
		{
			"buffer":0,
			"byteLength":11184,
			"byteOffset":43940,
			"target":34962
		},
		{
			"buffer":0,
			"byteLength":7456,
			"byteOffset":55124,
			"target":34962
		},
		{
			"buffer":0,
			"byteLength":6456,
			"byteOffset":62580,
			"target":34963
		},
		{
			"buffer":0,
			"byteLength":11472,
			"byteOffset":69036,
			"target":34962
		},
		{
			"buffer":0,
			"byteLength":11472,
			"byteOffset":80508,
			"target":34962
		},
		{
			"buffer":0,
			"byteLength":7648,
			"byteOffset":91980,
			"target":34962
		},
		{
			"buffer":0,
			"byteLength":2100,
			"byteOffset":99628,
			"target":34963
		},
		{
			"buffer":0,
			"byteLength":1452,
			"byteOffset":101728,
			"target":34962
		},
		{
			"buffer":0,
			"byteLength":1452,
			"byteOffset":103180,
			"target":34962
		},
		{
			"buffer":0,
			"byteLength":968,
			"byteOffset":104632,
			"target":34962
		},
		{
			"buffer":0,
			"byteLength":1200,
			"byteOffset":105600,
			"target":34963
		},
		{
			"buffer":0,
			"byteLength":1452,
			"byteOffset":106800,
			"target":34962
		},
		{
			"buffer":0,
			"byteLength":1452,
			"byteOffset":108252,
			"target":34962
		},
		{
			"buffer":0,
			"byteLength":968,
			"byteOffset":109704,
			"target":34962
		},
		{
			"buffer":0,
			"byteLength":1452,
			"byteOffset":110672,
			"target":34962
		},
		{
			"buffer":0,
			"byteLength":1452,
			"byteOffset":112124,
			"target":34962
		},
		{
			"buffer":0,
			"byteLength":968,
			"byteOffset":113576,
			"target":34962
		},
		{
			"buffer":0,
			"byteLength":1452,
			"byteOffset":114544,
			"target":34962
		},
		{
			"buffer":0,
			"byteLength":1452,
			"byteOffset":115996,
			"target":34962
		},
		{
			"buffer":0,
			"byteLength":968,
			"byteOffset":117448,
			"target":34962
		},
		{
			"buffer":0,
			"byteLength":4728,
			"byteOffset":118416,
			"target":34962
		},
		{
			"buffer":0,
			"byteLength":4728,
			"byteOffset":123144,
			"target":34962
		},
		{
			"buffer":0,
			"byteLength":3152,
			"byteOffset":127872,
			"target":34962
		},
		{
			"buffer":0,
			"byteLength":2448,
			"byteOffset":131024,
			"target":34963
		},
		{
			"buffer":0,
			"byteLength":4728,
			"byteOffset":133472,
			"target":34962
		},
		{
			"buffer":0,
			"byteLength":4728,
			"byteOffset":138200,
			"target":34962
		},
		{
			"buffer":0,
			"byteLength":3152,
			"byteOffset":142928,
			"target":34962
		},
		{
			"buffer":0,
			"byteLength":2448,
			"byteOffset":146080,
			"target":34963
		}
	],
	"samplers":[
		{
			"magFilter":9729,
			"minFilter":9987
		}
	],
	"buffers":[
		{
			"byteLength":148528,
			"uri":"untitled.bin"
		}
	]
}
