{
	"asset":{
		"generator":"Khronos glTF Blender I/O v4.3.47",
		"version":"2.0"
	},
	"scene":0,
	"scenes":[
		{
			"name":"Scene",
			"nodes":[
				0
			]
		}
	],
	"nodes":[
		{
			"mesh":0,
			"name":"D_TestMap_ClosetdrawerLeft4_lambert1_0",
			"scale":[
				0.07083500921726227,
				0.07083502411842346,
				0.07083502411842346
			]
		}
	],
	"materials":[
		{
			"doubleSided":true,
			"name":"lambert1",
			"pbrMetallicRoughness":{
				"baseColorTexture":{
					"index":0
				},
				"metallicFactor":0.22684358060359955,
				"metallicRoughnessTexture":{
					"index":1
				}
			}
		}
	],
	"meshes":[
		{
			"name":"D_TestMap_ClosetdrawerLeft4_lambert1_0",
			"primitives":[
				{
					"attributes":{
						"POSITION":0,
						"NORMAL":1,
						"TEXCOORD_0":2
					},
					"indices":3,
					"material":0
				}
			]
		}
	],
	"textures":[
		{
			"sampler":0,
			"source":0
		},
		{
			"sampler":0,
			"source":1
		}
	],
	"images":[
		{
			"mimeType":"image/jpeg",
			"name":"lambert1_baseColor",
			"uri":"lambert1_baseColor.jpg"
		},
		{
			"mimeType":"image/jpeg",
			"name":"lambert1_metallicRoughness",
			"uri":"lambert1_metallicRoughness.jpg"
		}
	],
	"accessors":[
		{
			"bufferView":0,
			"componentType":5126,
			"count":3123,
			"max":[
				76.81996154785156,
				276.46380615234375,
				58.17063522338867
			],
			"min":[
				-81.94764709472656,
				-0.9563636183738708,
				-20.409984588623047
			],
			"type":"VEC3"
		},
		{
			"bufferView":1,
			"componentType":5126,
			"count":3123,
			"type":"VEC3"
		},
		{
			"bufferView":2,
			"componentType":5126,
			"count":3123,
			"type":"VEC2"
		},
		{
			"bufferView":3,
			"componentType":5123,
			"count":8988,
			"type":"SCALAR"
		}
	],
	"bufferViews":[
		{
			"buffer":0,
			"byteLength":37476,
			"byteOffset":0,
			"target":34962
		},
		{
			"buffer":0,
			"byteLength":37476,
			"byteOffset":37476,
			"target":34962
		},
		{
			"buffer":0,
			"byteLength":24984,
			"byteOffset":74952,
			"target":34962
		},
		{
			"buffer":0,
			"byteLength":17976,
			"byteOffset":99936,
			"target":34963
		}
	],
	"samplers":[
		{
			"magFilter":9729,
			"minFilter":9987
		}
	],
	"buffers":[
		{
			"byteLength":117912,
			"uri":"closet.bin"
		}
	]
}
