{
  "accessors": [
    {
      "bufferView": 0,
      "componentType": 5125,
      "count": 2154,
      "type": "SCALAR"
    },
    {
      "bufferView": 1,
      "componentType": 5126,
      "count": 809,
      "max": [
        -4.25389909744263,
        6.36894607543945,
        3.21568489074707
      ],
      "min": [
        -8.91168212890625,
        2.36933708190918,
        -3.1478419303894
      ],
      "type": "VEC3"
    },
    {
      "bufferView": 2,
      "componentType": 5126,
      "count": 809,
      "type": "VEC3"
    },
    {
      "bufferView": 3,
      "componentType": 5126,
      "count": 809,
      "type": "VEC2"
    },
    {
      "bufferView": 4,
      "componentType": 5125,
      "count": 8454,
      "type": "SCALAR"
    },
    {
      "bufferView": 5,
      "componentType": 5126,
      "count": 2467,
      "max": [
        9.6598014831543,
        8.51490020751953,
        3.57754468917847
      ],
      "min": [
        -9.0831127166748,
        1.35635018348694,
        -3.5453028678894
      ],
      "type": "VEC3"
    },
    {
      "bufferView": 6,
      "componentType": 5126,
      "count": 2467,
      "type": "VEC3"
    },
    {
      "bufferView": 7,
      "componentType": 5126,
      "count": 2467,
      "type": "VEC2"
    },
    {
      "bufferView": 8,
      "componentType": 5125,
      "count": 1830,
      "type": "SCALAR"
    },
    {
      "bufferView": 9,
      "componentType": 5126,
      "count": 630,
      "max": [
        8.97900390625,
        6.13990783691406,
        3.19126892089844
      ],
      "min": [
        -9.05227661132813,
        1.72060394287109,
        -3.15902709960938
      ],
      "type": "VEC3"
    },
    {
      "bufferView": 10,
      "componentType": 5126,
      "count": 630,
      "type": "VEC3"
    },
    {
      "bufferView": 11,
      "componentType": 5126,
      "count": 630,
      "type": "VEC2"
    },
    {
      "bufferView": 12,
      "componentType": 5125,
      "count": 12858,
      "type": "SCALAR"
    },
    {
      "bufferView": 13,
      "componentType": 5126,
      "count": 5360,
      "max": [
        9.8638916015625,
        8.4794921875,
        4.05084180831909
      ],
      "min": [
        -9.3857421875,
        0.579926252365112,
        -4.01859998703003
      ],
      "type": "VEC3"
    },
    {
      "bufferView": 14,
      "componentType": 5126,
      "count": 5360,
      "type": "VEC3"
    },
    {
      "bufferView": 15,
      "componentType": 5126,
      "count": 5360,
      "type": "VEC2"
    },
    {
      "bufferView": 16,
      "componentType": 5125,
      "count": 5256,
      "type": "SCALAR"
    },
    {
      "bufferView": 17,
      "componentType": 5126,
      "count": 1947,
      "max": [
        5.68380641937256,
        5.45486497879028,
        4.02880907058716
      ],
      "min": [
        -7.91215515136719,
        0.392294883728027,
        -3.99656677246094
      ],
      "type": "VEC3"
    },
    {
      "bufferView": 18,
      "componentType": 5126,
      "count": 1947,
      "type": "VEC3"
    },
    {
      "bufferView": 19,
      "componentType": 5126,
      "count": 1947,
      "type": "VEC2"
    },
    {
      "bufferView": 20,
      "componentType": 5125,
      "count": 2946,
      "type": "SCALAR"
    },
    {
      "bufferView": 21,
      "componentType": 5126,
      "count": 1191,
      "max": [
        9.81857299804688,
        8.514892578125,
        3.57753777503967
      ],
      "min": [
        -4.53677415847778,
        1.41996383666992,
        -3.5453028678894
      ],
      "type": "VEC3"
    },
    {
      "bufferView": 22,
      "componentType": 5126,
      "count": 1191,
      "type": "VEC3"
    },
    {
      "bufferView": 23,
      "componentType": 5126,
      "count": 1191,
      "type": "VEC2"
    },
    {
      "bufferView": 24,
      "componentType": 5125,
      "count": 6384,
      "type": "SCALAR"
    },
    {
      "bufferView": 25,
      "componentType": 5126,
      "count": 1840,
      "max": [
        6.08145093917847,
        2.22893500328064,
        3.33049774169922
      ],
      "min": [
        -7.24005079269409,
        -0.00535011291503906,
        -3.30701398849487
      ],
      "type": "VEC3"
    },
    {
      "bufferView": 26,
      "componentType": 5126,
      "count": 1840,
      "type": "VEC3"
    },
    {
      "bufferView": 27,
      "componentType": 5126,
      "count": 1840,
      "type": "VEC2"
    }
  ],
  "asset": {
    "generator": "Substance Painter 6.2.2",
    "version": "2.0"
  },
  "bufferViews": [
    {
      "buffer": 0,
      "byteLength": 8616,
      "target": 34963
    },
    {
      "buffer": 0,
      "byteLength": 9708,
      "byteOffset": 8616,
      "target": 34962
    },
    {
      "buffer": 0,
      "byteLength": 9708,
      "byteOffset": 18324,
      "target": 34962
    },
    {
      "buffer": 0,
      "byteLength": 6472,
      "byteOffset": 28032,
      "target": 34962
    },
    {
      "buffer": 0,
      "byteLength": 33816,
      "byteOffset": 34504,
      "target": 34963
    },
    {
      "buffer": 0,
      "byteLength": 29604,
      "byteOffset": 68320,
      "target": 34962
    },
    {
      "buffer": 0,
      "byteLength": 29604,
      "byteOffset": 97924,
      "target": 34962
    },
    {
      "buffer": 0,
      "byteLength": 19736,
      "byteOffset": 127528,
      "target": 34962
    },
    {
      "buffer": 0,
      "byteLength": 7320,
      "byteOffset": 147264,
      "target": 34963
    },
    {
      "buffer": 0,
      "byteLength": 7560,
      "byteOffset": 154584,
      "target": 34962
    },
    {
      "buffer": 0,
      "byteLength": 7560,
      "byteOffset": 162144,
      "target": 34962
    },
    {
      "buffer": 0,
      "byteLength": 5040,
      "byteOffset": 169704,
      "target": 34962
    },
    {
      "buffer": 0,
      "byteLength": 51432,
      "byteOffset": 174744,
      "target": 34963
    },
    {
      "buffer": 0,
      "byteLength": 64320,
      "byteOffset": 226176,
      "target": 34962
    },
    {
      "buffer": 0,
      "byteLength": 64320,
      "byteOffset": 290496,
      "target": 34962
    },
    {
      "buffer": 0,
      "byteLength": 42880,
      "byteOffset": 354816,
      "target": 34962
    },
    {
      "buffer": 0,
      "byteLength": 21024,
      "byteOffset": 397696,
      "target": 34963
    },
    {
      "buffer": 0,
      "byteLength": 23364,
      "byteOffset": 418720,
      "target": 34962
    },
    {
      "buffer": 0,
      "byteLength": 23364,
      "byteOffset": 442084,
      "target": 34962
    },
    {
      "buffer": 0,
      "byteLength": 15576,
      "byteOffset": 465448,
      "target": 34962
    },
    {
      "buffer": 0,
      "byteLength": 11784,
      "byteOffset": 481024,
      "target": 34963
    },
    {
      "buffer": 0,
      "byteLength": 14292,
      "byteOffset": 492808,
      "target": 34962
    },
    {
      "buffer": 0,
      "byteLength": 14292,
      "byteOffset": 507100,
      "target": 34962
    },
    {
      "buffer": 0,
      "byteLength": 9528,
      "byteOffset": 521392,
      "target": 34962
    },
    {
      "buffer": 0,
      "byteLength": 25536,
      "byteOffset": 530920,
      "target": 34963
    },
    {
      "buffer": 0,
      "byteLength": 22080,
      "byteOffset": 556456,
      "target": 34962
    },
    {
      "buffer": 0,
      "byteLength": 22080,
      "byteOffset": 578536,
      "target": 34962
    },
    {
      "buffer": 0,
      "byteLength": 14720,
      "byteOffset": 600616,
      "target": 34962
    }
  ],
  "buffers": [
    {
      "byteLength": 615336,
      "uri": "Truck.bin"
    }
  ],
  "images": [
    {
      "uri": "BlackMetal_baseColor.png"
    },
    {
      "uri": "BlackMetal_occlusionRoughnessMetallic.png"
    },
    {
      "uri": "BlackMetal_normal.png"
    },
    {
      "uri": "Body_baseColor.png"
    },
    {
      "uri": "Body_occlusionRoughnessMetallic.png"
    },
    {
      "uri": "Body_normal.png"
    },
    {
      "uri": "Cabin_baseColor.png"
    },
    {
      "uri": "Cabin_occlusionRoughnessMetallic.png"
    },
    {
      "uri": "Cabin_normal.png"
    },
    {
      "uri": "GalMetal_baseColor.png"
    },
    {
      "uri": "GalMetal_occlusionRoughnessMetallic.png"
    },
    {
      "uri": "GalMetal_normal.png"
    },
    {
      "uri": "Glass_baseColor.png"
    },
    {
      "uri": "Glass_occlusionRoughnessMetallic.png"
    },
    {
      "uri": "Glass_normal.png"
    },
    {
      "uri": "Rubber_baseColor.png"
    },
    {
      "uri": "Rubber_occlusionRoughnessMetallic.png"
    },
    {
      "uri": "Rubber_normal.png"
    },
    {
      "uri": "ShineyMetal_baseColor.png"
    },
    {
      "uri": "ShineyMetal_occlusionRoughnessMetallic.png"
    },
    {
      "uri": "ShineyMetal_normal.png"
    }
  ],
  "materials": [
    {
      "alphaMode": "OPAQUE",
      "name": "BlackMetal",
      "normalTexture": {
        "index": 2
      },
      "occlusionTexture": {
        "index": 1
      },
      "pbrMetallicRoughness": {
        "baseColorTexture": {
          "index": 0
        },
        "metallicRoughnessTexture": {
          "index": 1
        }
      }
    },
    {
      "alphaMode": "OPAQUE",
      "name": "Body",
      "normalTexture": {
        "index": 5
      },
      "occlusionTexture": {
        "index": 4
      },
      "pbrMetallicRoughness": {
        "baseColorTexture": {
          "index": 3
        },
        "metallicRoughnessTexture": {
          "index": 4
        }
      }
    },
    {
      "alphaMode": "OPAQUE",
      "name": "Cabin",
      "normalTexture": {
        "index": 8
      },
      "occlusionTexture": {
        "index": 7
      },
      "pbrMetallicRoughness": {
        "baseColorTexture": {
          "index": 6
        },
        "metallicRoughnessTexture": {
          "index": 7
        }
      }
    },
    {
      "alphaMode": "OPAQUE",
      "name": "GalMetal",
      "normalTexture": {
        "index": 11
      },
      "occlusionTexture": {
        "index": 10
      },
      "pbrMetallicRoughness": {
        "baseColorTexture": {
          "index": 9
        },
        "metallicRoughnessTexture": {
          "index": 10
        }
      }
    },
    {
      "alphaMode": "BLEND",
      "name": "Glass",
      "normalTexture": {
        "index": 14
      },
      "occlusionTexture": {
        "index": 13
      },
      "pbrMetallicRoughness": {
        "baseColorTexture": {
          "index": 12
        },
        "metallicRoughnessTexture": {
          "index": 13
        }
      }
    },
    {
      "alphaMode": "OPAQUE",
      "name": "Rubber",
      "normalTexture": {
        "index": 17
      },
      "occlusionTexture": {
        "index": 16
      },
      "pbrMetallicRoughness": {
        "baseColorTexture": {
          "index": 15
        },
        "metallicRoughnessTexture": {
          "index": 16
        }
      }
    },
    {
      "alphaMode": "OPAQUE",
      "name": "ShineyMetal",
      "normalTexture": {
        "index": 20
      },
      "occlusionTexture": {
        "index": 19
      },
      "pbrMetallicRoughness": {
        "baseColorTexture": {
          "index": 18
        },
        "metallicRoughnessTexture": {
          "index": 19
        }
      }
    }
  ],
  "meshes": [
    {
      "name": "Truck_Cabin_geo Truck_g",
      "primitives": [
        {
          "attributes": {
            "NORMAL": 2,
            "POSITION": 1,
            "TEXCOORD_0": 3
          },
          "indices": 0,
          "material": 2,
          "mode": 4
        }
      ]
    },
    {
      "name": "Truck_g Truck_body_geo",
      "primitives": [
        {
          "attributes": {
            "NORMAL": 6,
            "POSITION": 5,
            "TEXCOORD_0": 7
          },
          "indices": 4,
          "material": 1,
          "mode": 4
        }
      ]
    },
    {
      "name": "Truck_g Truck_Glass_geo",
      "primitives": [
        {
          "attributes": {
            "NORMAL": 10,
            "POSITION": 9,
            "TEXCOORD_0": 11
          },
          "indices": 8,
          "material": 4,
          "mode": 4
        }
      ]
    },
    {
      "name": "Truck_g Truck_BlackMetal_geo",
      "primitives": [
        {
          "attributes": {
            "NORMAL": 14,
            "POSITION": 13,
            "TEXCOORD_0": 15
          },
          "indices": 12,
          "material": 0,
          "mode": 4
        }
      ]
    },
    {
      "name": "Truck_g Truck_ShinyMetal_geo",
      "primitives": [
        {
          "attributes": {
            "NORMAL": 18,
            "POSITION": 17,
            "TEXCOORD_0": 19
          },
          "indices": 16,
          "material": 6,
          "mode": 4
        }
      ]
    },
    {
      "name": "Truck_g Truck_GalMetal_geo",
      "primitives": [
        {
          "attributes": {
            "NORMAL": 22,
            "POSITION": 21,
            "TEXCOORD_0": 23
          },
          "indices": 20,
          "material": 3,
          "mode": 4
        }
      ]
    },
    {
      "name": "Truck_g Truck_WheelRubber_geo",
      "primitives": [
        {
          "attributes": {
            "NORMAL": 26,
            "POSITION": 25,
            "TEXCOORD_0": 27
          },
          "indices": 24,
          "material": 5,
          "mode": 4
        }
      ]
    }
  ],
  "nodes": [
    {
      "children": [
        1,
        3,
        5,
        7,
        9,
        11,
        13
      ],
      "name": "Truck.obj"
    },
    {
      "children": [
        2
      ],
      "name": "Truck_Cabin_geo Truck_g"
    },
    {
      "mesh": 0,
      "name": "Truck_Cabin_geo Truck_g"
    },
    {
      "children": [
        4
      ],
      "name": "Truck_g Truck_body_geo"
    },
    {
      "mesh": 1,
      "name": "Truck_g Truck_body_geo"
    },
    {
      "children": [
        6
      ],
      "name": "Truck_g Truck_Glass_geo"
    },
    {
      "mesh": 2,
      "name": "Truck_g Truck_Glass_geo"
    },
    {
      "children": [
        8
      ],
      "name": "Truck_g Truck_BlackMetal_geo"
    },
    {
      "mesh": 3,
      "name": "Truck_g Truck_BlackMetal_geo"
    },
    {
      "children": [
        10
      ],
      "name": "Truck_g Truck_ShinyMetal_geo"
    },
    {
      "mesh": 4,
      "name": "Truck_g Truck_ShinyMetal_geo"
    },
    {
      "children": [
        12
      ],
      "name": "Truck_g Truck_GalMetal_geo"
    },
    {
      "mesh": 5,
      "name": "Truck_g Truck_GalMetal_geo"
    },
    {
      "children": [
        14
      ],
      "name": "Truck_g Truck_WheelRubber_geo"
    },
    {
      "mesh": 6,
      "name": "Truck_g Truck_WheelRubber_geo"
    }
  ],
  "samplers": [
    {
      "magFilter": 9729,
      "minFilter": 9985,
      "wrapS": 10497,
      "wrapT": 10497
    }
  ],
  "scene": 0,
  "scenes": [
    {
      "name": "Scene",
      "nodes": [
        0
      ]
    }
  ],
  "textures": [
    {
      "sampler": 0,
      "source": 0
    },
    {
      "sampler": 0,
      "source": 1
    },
    {
      "sampler": 0,
      "source": 2
    },
    {
      "sampler": 0,
      "source": 3
    },
    {
      "sampler": 0,
      "source": 4
    },
    {
      "sampler": 0,
      "source": 5
    },
    {
      "sampler": 0,
      "source": 6
    },
    {
      "sampler": 0,
      "source": 7
    },
    {
      "sampler": 0,
      "source": 8
    },
    {
      "sampler": 0,
      "source": 9
    },
    {
      "sampler": 0,
      "source": 10
    },
    {
      "sampler": 0,
      "source": 11
    },
    {
      "sampler": 0,
      "source": 12
    },
    {
      "sampler": 0,
      "source": 13
    },
    {
      "sampler": 0,
      "source": 14
    },
    {
      "sampler": 0,
      "source": 15
    },
    {
      "sampler": 0,
      "source": 16
    },
    {
      "sampler": 0,
      "source": 17
    },
    {
      "sampler": 0,
      "source": 18
    },
    {
      "sampler": 0,
      "source": 19
    },
    {
      "sampler": 0,
      "source": 20
    }
  ]
}