{
	"asset":{
		"generator":"Khronos glTF Blender I/O v4.3.47",
		"version":"2.0"
	},
	"extensionsUsed":[
		"KHR_materials_specular",
		"KHR_materials_ior"
	],
	"scene":0,
	"scenes":[
		{
			"name":"Scene",
			"nodes":[
				0
			]
		}
	],
	"nodes":[
		{
			"mesh":0,
			"name":"TP003_wooden_stool"
		}
	],
	"materials":[
		{
			"doubleSided":true,
			"extensions":{
				"KHR_materials_specular":{
					"specularTexture":{
						"index":0
					}
				},
				"KHR_materials_ior":{
					"ior":1.4500000476837158
				}
			},
			"name":"m_TP003_wooden_stool.001",
			"pbrMetallicRoughness":{
				"baseColorTexture":{
					"index":1
				},
				"metallicRoughnessTexture":{
					"index":2
				}
			}
		}
	],
	"meshes":[
		{
			"name":"BezierCurve.001",
			"primitives":[
				{
					"attributes":{
						"POSITION":0,
						"NORMAL":1,
						"TEXCOORD_0":2
					},
					"indices":3,
					"material":0
				}
			]
		}
	],
	"textures":[
		{
			"sampler":0,
			"source":0
		},
		{
			"sampler":0,
			"source":1
		},
		{
			"sampler":0,
			"source":2
		}
	],
	"images":[
		{
			"mimeType":"image/jpeg",
			"name":"TP003_Specular",
			"uri":"textures/TP003_Specular.jpg"
		},
		{
			"mimeType":"image/jpeg",
			"name":"TP003_BaseColor",
			"uri":"textures/TP003_BaseColor.jpg"
		},
		{
			"mimeType":"image/jpeg",
			"name":"TP003_Metallic-TP003_Roughness",
			"uri":"textures/TP003_Metallic-TP003_Roughness.jpg"
		}
	],
	"accessors":[
		{
			"bufferView":0,
			"componentType":5126,
			"count":4013,
			"max":[
				0.5761145353317261,
				0.4647732973098755,
				0.26523450016975403
			],
			"min":[
				-0.5760490894317627,
				-1.4354299970875672e-08,
				-0.2652345597743988
			],
			"type":"VEC3"
		},
		{
			"bufferView":1,
			"componentType":5126,
			"count":4013,
			"type":"VEC3"
		},
		{
			"bufferView":2,
			"componentType":5126,
			"count":4013,
			"type":"VEC2"
		},
		{
			"bufferView":3,
			"componentType":5123,
			"count":19596,
			"type":"SCALAR"
		}
	],
	"bufferViews":[
		{
			"buffer":0,
			"byteLength":48156,
			"byteOffset":0,
			"target":34962
		},
		{
			"buffer":0,
			"byteLength":48156,
			"byteOffset":48156,
			"target":34962
		},
		{
			"buffer":0,
			"byteLength":32104,
			"byteOffset":96312,
			"target":34962
		},
		{
			"buffer":0,
			"byteLength":39192,
			"byteOffset":128416,
			"target":34963
		}
	],
	"samplers":[
		{
			"magFilter":9729,
			"minFilter":9987
		}
	],
	"buffers":[
		{
			"byteLength":167608,
			"uri":"stool.bin"
		}
	]
}
