{
  "accessors": [
    {
      "bufferView": 0,
      "componentType": 5125,
      "count": 272202,
      "type": "SCALAR"
    },
    {
      "bufferView": 1,
      "componentType": 5126,
      "count": 46677,
      "max": [
        0.74752801656723,
        3.1563720703125,
        0.751488029956818
      ],
      "min": [
        -0.748122990131378,
        -0.000117897987365723,
        -0.750267088413239
      ],
      "type": "VEC3"
    },
    {
      "bufferView": 2,
      "componentType": 5126,
      "count": 46677,
      "type": "VEC3"
    },
    {
      "bufferView": 3,
      "componentType": 5126,
      "count": 46677,
      "type": "VEC2"
    }
  ],
  "asset": {
    "generator": "Adobe Substance 3D Painter 7.4.2",
    "version": "2.0"
  },
  "bufferViews": [
    {
      "buffer": 0,
      "byteLength": 1088808,
      "target": 34963
    },
    {
      "buffer": 0,
      "byteLength": 560124,
      "byteOffset": 1088808,
      "target": 34962
    },
    {
      "buffer": 0,
      "byteLength": 560124,
      "byteOffset": 1648932,
      "target": 34962
    },
    {
      "buffer": 0,
      "byteLength": 373416,
      "byteOffset": 2209056,
      "target": 34962
    }
  ],
  "buffers": [
    {
      "byteLength": 2582472,
      "uri": "sculpture-totem.bin"
    }
  ],
  "images": [
    {
      "uri": "totem_baseColor.jpg"
    },
    {
      "uri": "totem_occlusionRoughnessMetallic.jpg"
    },
    {
      "uri": "totem_normal.jpg"
    }
  ],
  "materials": [
    {
      "alphaMode": "OPAQUE",
      "name": "totem",
      "normalTexture": {
        "index": 2
      },
      "occlusionTexture": {
        "index": 1
      },
      "pbrMetallicRoughness": {
        "baseColorTexture": {
          "index": 0
        },
        "metallicRoughnessTexture": {
          "index": 1
        }
      }
    }
  ],
  "meshes": [
    {
      "name": "Merged_PM3D_Cube3D17",
      "primitives": [
        {
          "attributes": {
            "NORMAL": 2,
            "POSITION": 1,
            "TEXCOORD_0": 3
          },
          "indices": 0,
          "material": 0,
          "mode": 4
        }
      ]
    }
  ],
  "nodes": [
    {
      "children": [
        1
      ],
      "name": "sculpture-totem.obj"
    },
    {
      "children": [
        2
      ],
      "name": "Merged_PM3D_Cube3D17"
    },
    {
      "mesh": 0,
      "name": "Merged_PM3D_Cube3D17"
    }
  ],
  "samplers": [
    {
      "magFilter": 9729,
      "minFilter": 9985,
      "wrapS": 10497,
      "wrapT": 10497
    }
  ],
  "scene": 0,
  "scenes": [
    {
      "name": "Scene",
      "nodes": [
        0
      ]
    }
  ],
  "textures": [
    {
      "sampler": 0,
      "source": 0
    },
    {
      "sampler": 0,
      "source": 1
    },
    {
      "sampler": 0,
      "source": 2
    }
  ]
}