{
	"asset":{
		"generator":"Khronos glTF Blender I/O v4.3.47",
		"version":"2.0"
	},
	"scene":0,
	"scenes":[
		{
			"name":"Scene",
			"nodes":[
				0
			]
		}
	],
	"nodes":[
		{
			"mesh":0,
			"name":"chair.001",
			"scale":[
				0.009999999776482582,
				0.009999999776482582,
				0.009999999776482582
			]
		}
	],
	"materials":[
		{
			"name":"chair1_1001.004.1001",
			"occlusionTexture":{
				"index":0
			},
			"pbrMetallicRoughness":{
				"baseColorTexture":{
					"index":1
				},
				"metallicRoughnessTexture":{
					"index":2
				}
			}
		}
	],
	"meshes":[
		{
			"name":"chair.005",
			"primitives":[
				{
					"attributes":{
						"POSITION":0,
						"NORMAL":1,
						"TEXCOORD_0":2
					},
					"indices":3,
					"material":0
				}
			]
		}
	],
	"textures":[
		{
			"sampler":0,
			"source":0
		},
		{
			"sampler":0,
			"source":1
		},
		{
			"sampler":0,
			"source":2
		}
	],
	"images":[
		{
			"mimeType":"image/png",
			"name":"Image_1",
			"uri":"textures/Image_1.png"
		},
		{
			"mimeType":"image/jpeg",
			"name":"chair1_baseColor_1001",
			"uri":"textures/chair1_baseColor_1001.jpg"
		},
		{
			"mimeType":"image/jpeg",
			"name":"chair1_occlusionRoughnessMetallic_1001",
			"uri":"textures/chair1_occlusionRoughnessMetallic_1001.jpg"
		}
	],
	"accessors":[
		{
			"bufferView":0,
			"componentType":5126,
			"count":6947,
			"max":[
				6.656611919403076,
				6.6671295166015625,
				1.5069209337234497
			],
			"min":[
				3.49307918548584,
				0.07445025444030762,
				-1.5069208145141602
			],
			"type":"VEC3"
		},
		{
			"bufferView":1,
			"componentType":5126,
			"count":6947,
			"type":"VEC3"
		},
		{
			"bufferView":2,
			"componentType":5126,
			"count":6947,
			"type":"VEC2"
		},
		{
			"bufferView":3,
			"componentType":5123,
			"count":17520,
			"type":"SCALAR"
		}
	],
	"bufferViews":[
		{
			"buffer":0,
			"byteLength":83364,
			"byteOffset":0,
			"target":34962
		},
		{
			"buffer":0,
			"byteLength":83364,
			"byteOffset":83364,
			"target":34962
		},
		{
			"buffer":0,
			"byteLength":55576,
			"byteOffset":166728,
			"target":34962
		},
		{
			"buffer":0,
			"byteLength":35040,
			"byteOffset":222304,
			"target":34963
		}
	],
	"samplers":[
		{
			"magFilter":9729,
			"minFilter":9987
		}
	],
	"buffers":[
		{
			"byteLength":257344,
			"uri":"chair.bin"
		}
	]
}
