{
  "accessors": [
    {
      "bufferView": 2,
      "componentType": 5126,
      "count": 1853,
      "max": [
        0.052688002586364746,
        0.0694359615445137,
        0.06943650543689728
      ],
      "min": [
        -0.05268794298171997,
        -0.06943602114915848,
        -0.06943650543689728
      ],
      "type": "VEC3"
    },
    {
      "bufferView": 2,
      "byteOffset": 22236,
      "componentType": 5126,
      "count": 1853,
      "max": [
        1.0,
        1.0,
        1.0
      ],
      "min": [
        -1.0,
        -1.0,
        -1.0
      ],
      "type": "VEC3"
    },
    {
      "bufferView": 1,
      "componentType": 5126,
      "count": 1853,
      "max": [
        1.0000439882278442,
        1.0
      ],
      "min": [
        -4.400000034365803e-05,
        0.0
      ],
      "type": "VEC2"
    },
    {
      "bufferView": 0,
      "componentType": 5125,
      "count": 4950,
      "type": "SCALAR"
    },
    {
      "bufferView": 2,
      "byteOffset": 44472,
      "componentType": 5126,
      "count": 2485,
      "max": [
        0.042022109031677246,
        0.04263794422149658,
        0.04867149889469147
      ],
      "min": [
        -0.03152894973754883,
        -0.04995906352996826,
        -0.044344499707221985
      ],
      "type": "VEC3"
    },
    {
      "bufferView": 2,
      "byteOffset": 74292,
      "componentType": 5126,
      "count": 2485,
      "max": [
        1.0,
        0.9951915144920349,
        0.995200514793396
      ],
      "min": [
        -0.8871212005615234,
        -0.9951900839805603,
        -0.9952004551887512
      ],
      "type": "VEC3"
    },
    {
      "bufferView": 1,
      "byteOffset": 14824,
      "componentType": 5126,
      "count": 2485,
      "max": [
        1.0000439882278442,
        1.0
      ],
      "min": [
        -4.400000034365803e-05,
        0.01001300010830164
      ],
      "type": "VEC2"
    },
    {
      "bufferView": 0,
      "byteOffset": 19800,
      "componentType": 5125,
      "count": 4110,
      "type": "SCALAR"
    },
    {
      "bufferView": 2,
      "byteOffset": 104112,
      "componentType": 5126,
      "count": 8164,
      "max": [
        0.04255187511444092,
        0.07431232929229736,
        0.07667649537324905
      ],
      "min": [
        -0.060523033142089844,
        -0.07531368732452393,
        -0.07237549871206284
      ],
      "type": "VEC3"
    },
    {
      "bufferView": 2,
      "byteOffset": 202080,
      "componentType": 5126,
      "count": 8164,
      "max": [
        0.9985716342926025,
        0.9996750950813293,
        0.9999793171882629
      ],
      "min": [
        -1.0,
        -0.9996694922447205,
        -0.9999875426292419
      ],
      "type": "VEC3"
    },
    {
      "bufferView": 1,
      "byteOffset": 34704,
      "componentType": 5126,
      "count": 8164,
      "max": [
        0.8942469954490662,
        1.0124729871749878
      ],
      "min": [
        0.10575100034475327,
        -0.007536999881267548
      ],
      "type": "VEC2"
    },
    {
      "bufferView": 0,
      "byteOffset": 36240,
      "componentType": 5125,
      "count": 36780,
      "type": "SCALAR"
    }
  ],
  "asset": {
    "extras": {
      "author": "PatrickStevens (https://sketchfab.com/PatrickStevens)",
      "license": "CC-BY-4.0 (http://creativecommons.org/licenses/by/4.0/)",
      "source": "https://sketchfab.com/3d-models/mars-base-sojurner-photon-x-ray-laster-ff0874c5d16b4ccd93c1f52180c28af8",
      "title": "Mars Base Sojurner Photon X-Ray Laster"
    },
    "generator": "Sketchfab-15.17.0",
    "version": "2.0"
  },
  "bufferViews": [
    {
      "buffer": 0,
      "byteLength": 183360,
      "name": "floatBufferViews",
      "target": 34963
    },
    {
      "buffer": 0,
      "byteLength": 100016,
      "byteOffset": 183360,
      "byteStride": 8,
      "name": "floatBufferViews",
      "target": 34962
    },
    {
      "buffer": 0,
      "byteLength": 300048,
      "byteOffset": 283376,
      "byteStride": 12,
      "name": "floatBufferViews",
      "target": 34962
    }
  ],
  "buffers": [
    {
      "byteLength": 583424,
      "uri": "scene.bin"
    }
  ],
  "materials": [
    {
      "doubleSided": true,
      "name": "Material.009",
      "pbrMetallicRoughness": {
        "baseColorFactor": [
          0.023593,
          0.023593,
          0.023593,
          1.0
        ],
        "metallicFactor": 0.0,
        "roughnessFactor": 0.90303
      }
    },
    {
      "doubleSided": true,
      "name": "Material.002",
      "pbrMetallicRoughness": {
        "baseColorFactor": [
          0.099111,
          0.099111,
          0.099111,
          1.0
        ],
        "metallicFactor": 0.0,
        "roughnessFactor": 0.5
      }
    },
    {
      "doubleSided": true,
      "name": "Material.008",
      "pbrMetallicRoughness": {
        "baseColorFactor": [
          0.117444,
          0.117444,
          0.117444,
          1.0
        ],
        "metallicFactor": 0.0,
        "roughnessFactor": 0.5
      }
    }
  ],
  "meshes": [
    {
      "name": "Object_0",
      "primitives": [
        {
          "attributes": {
            "NORMAL": 1,
            "POSITION": 0,
            "TEXCOORD_0": 2
          },
          "indices": 3,
          "material": 0,
          "mode": 4
        }
      ]
    },
    {
      "name": "Object_1",
      "primitives": [
        {
          "attributes": {
            "NORMAL": 5,
            "POSITION": 4,
            "TEXCOORD_0": 6
          },
          "indices": 7,
          "material": 1,
          "mode": 4
        }
      ]
    },
    {
      "name": "Object_2",
      "primitives": [
        {
          "attributes": {
            "NORMAL": 9,
            "POSITION": 8,
            "TEXCOORD_0": 10
          },
          "indices": 11,
          "material": 2,
          "mode": 4
        }
      ]
    }
  ],
  "nodes": [
    {
      "children": [
        1
      ],
      "matrix": [
        1.0,
        0.0,
        0.0,
        0.0,
        0.0,
        2.220446049250313e-16,
        -1.0,
        0.0,
        0.0,
        1.0,
        2.220446049250313e-16,
        0.0,
        0.0,
        0.0,
        0.0,
        1.0
      ],
      "name": "Sketchfab_model"
    },
    {
      "children": [
        2
      ],
      "name": "root"
    },
    {
      "children": [
        3
      ],
      "matrix": [
        1.0,
        0.0,
        0.0,
        0.0,
        0.0,
        2.220446049250313e-16,
        1.0,
        0.0,
        0.0,
        -1.0,
        2.220446049250313e-16,
        0.0,
        0.0,
        0.0,
        0.0,
        1.0
      ],
      "name": "GLTF_SceneRootNode"
    },
    {
      "children": [
        4,
        5,
        6
      ],
      "name": "Cylinder.007_Cylinder.003_4"
    },
    {
      "mesh": 0,
      "name": "Object_4"
    },
    {
      "mesh": 1,
      "name": "Object_5"
    },
    {
      "mesh": 2,
      "name": "Object_6"
    }
  ],
  "scene": 0,
  "scenes": [
    {
      "name": "Sketchfab_Scene",
      "nodes": [
        0
      ]
    }
  ]
}
