{
  "accessors": [
    {
      "bufferView": 0,
      "componentType": 5125,
      "count": 816,
      "type": "SCALAR"
    },
    {
      "bufferView": 1,
      "componentType": 5126,
      "count": 478,
      "max": [
        1.24812316894531,
        6.24454879760742,
        0.591104030609131
      ],
      "min": [
        -1.24812316894531,
        0.0,
        -0.591104030609131
      ],
      "type": "VEC3"
    },
    {
      "bufferView": 2,
      "componentType": 5126,
      "count": 478,
      "type": "VEC3"
    },
    {
      "bufferView": 3,
      "componentType": 5126,
      "count": 478,
      "type": "VEC2"
    }
  ],
  "asset": {
    "generator": "Adobe Substance 3D Painter 7.4.2",
    "version": "2.0"
  },
  "bufferViews": [
    {
      "buffer": 0,
      "byteLength": 3264,
      "target": 34963
    },
    {
      "buffer": 0,
      "byteLength": 5736,
      "byteOffset": 3264,
      "target": 34962
    },
    {
      "buffer": 0,
      "byteLength": 5736,
      "byteOffset": 9000,
      "target": 34962
    },
    {
      "buffer": 0,
      "byteLength": 3824,
      "byteOffset": 14736,
      "target": 34962
    }
  ],
  "buffers": [
    {
      "byteLength": 18560,
      "uri": "painting-easel.bin"
    }
  ],
  "images": [
    {
      "uri": "painting-easel_baseColor.jpg"
    },
    {
      "uri": "painting-easel_occlusionRoughnessMetallic.jpg"
    },
    {
      "uri": "painting-easel_normal.jpg"
    }
  ],
  "materials": [
    {
      "alphaMode": "OPAQUE",
      "name": "painting-easel",
      "normalTexture": {
        "index": 2
      },
      "occlusionTexture": {
        "index": 1
      },
      "pbrMetallicRoughness": {
        "baseColorTexture": {
          "index": 0
        },
        "metallicRoughnessTexture": {
          "index": 1
        }
      }
    }
  ],
  "meshes": [
    {
      "name": "painting_easel",
      "primitives": [
        {
          "attributes": {
            "NORMAL": 2,
            "POSITION": 1,
            "TEXCOORD_0": 3
          },
          "indices": 0,
          "material": 0,
          "mode": 4
        }
      ]
    }
  ],
  "nodes": [
    {
      "children": [
        1
      ],
      "name": "painting-easel.obj"
    },
    {
      "children": [
        2
      ],
      "name": "painting_easel"
    },
    {
      "mesh": 0,
      "name": "painting_easel"
    }
  ],
  "samplers": [
    {
      "magFilter": 9729,
      "minFilter": 9985,
      "wrapS": 10497,
      "wrapT": 10497
    }
  ],
  "scene": 0,
  "scenes": [
    {
      "name": "Scene",
      "nodes": [
        0
      ]
    }
  ],
  "textures": [
    {
      "sampler": 0,
      "source": 0
    },
    {
      "sampler": 0,
      "source": 1
    },
    {
      "sampler": 0,
      "source": 2
    }
  ]
}