{
  "accessors": [
    {
      "bufferView": 0,
      "componentType": 5125,
      "count": 14076,
      "type": "SCALAR"
    },
    {
      "bufferView": 1,
      "componentType": 5126,
      "count": 6630,
      "max": [
        0.218164652585983,
        0.168708443641663,
        0.99999988079071
      ],
      "min": [
        -0.218164652585983,
        -0.168708428740501,
        -1.0
      ],
      "type": "VEC3"
    },
    {
      "bufferView": 2,
      "componentType": 5126,
      "count": 6630,
      "type": "VEC3"
    },
    {
      "bufferView": 3,
      "componentType": 5126,
      "count": 6630,
      "type": "VEC2"
    }
  ],
  "asset": {
    "generator": "Substance Painter 2019.2.3",
    "version": "2.0"
  },
  "bufferViews": [
    {
      "buffer": 0,
      "byteLength": 56304,
      "target": 34963
    },
    {
      "buffer": 0,
      "byteLength": 79560,
      "byteOffset": 56304,
      "target": 34962
    },
    {
      "buffer": 0,
      "byteLength": 79560,
      "byteOffset": 135864,
      "target": 34962
    },
    {
      "buffer": 0,
      "byteLength": 53040,
      "byteOffset": 215424,
      "target": 34962
    }
  ],
  "buffers": [
    {
      "byteLength": 268464,
      "uri": "TestWall_ALL.bin"
    }
  ],
  "images": [
    {
      "uri": "lambert6SG_baseColor.png"
    },
    {
      "uri": "lambert6SG_occlusionRoughnessMetallic.png"
    },
    {
      "uri": "lambert6SG_normal.png"
    }
  ],
  "materials": [
    {
      "alphaMode": "OPAQUE",
      "name": "lambert6SG",
      "normalTexture": {
        "index": 2
      },
      "occlusionTexture": {
        "index": 1
      },
      "pbrMetallicRoughness": {
        "baseColorTexture": {
          "index": 0
        },
        "metallicRoughnessTexture": {
          "index": 1
        }
      }
    }
  ],
  "meshes": [
    {
      "name": "polySurface101",
      "primitives": [
        {
          "attributes": {
            "NORMAL": 2,
            "POSITION": 1,
            "TEXCOORD_0": 3
          },
          "indices": 0,
          "material": 0,
          "mode": 4
        }
      ]
    }
  ],
  "nodes": [
    {
      "children": [
        1
      ],
      "name": "TestWall_ALL.obj",
      "scale": [
        549.901733398438,
        549.901733398438,
        549.901733398438
      ],
      "translation": [
        -380.030883789062,
        92.4048538208008,
        50.0977783203125
      ]
    },
    {
      "children": [
        2
      ],
      "name": "g polySurface101"
    },
    {
      "mesh": 0,
      "name": "polySurface101"
    }
  ],
  "samplers": [
    {
      "magFilter": 9729,
      "minFilter": 9985,
      "wrapS": 10497,
      "wrapT": 10497
    }
  ],
  "scene": 0,
  "scenes": [
    {
      "name": "Scene",
      "nodes": [
        0
      ]
    }
  ],
  "textures": [
    {
      "sampler": 0,
      "source": 0
    },
    {
      "sampler": 0,
      "source": 1
    },
    {
      "sampler": 0,
      "source": 2
    }
  ]
}