{
  "accessors": [
    {
      "bufferView": 0,
      "componentType": 5125,
      "count": 27396,
      "type": "SCALAR"
    },
    {
      "bufferView": 1,
      "componentType": 5126,
      "count": 10223,
      "max": [
        0.572961986064911,
        1.68691396713257,
        1.64415407180786
      ],
      "min": [
        -0.572961986064911,
        -0.00947600603103638,
        -1.00434494018555
      ],
      "type": "VEC3"
    },
    {
      "bufferView": 2,
      "componentType": 5126,
      "count": 10223,
      "type": "VEC3"
    },
    {
      "bufferView": 3,
      "componentType": 5126,
      "count": 10223,
      "type": "VEC2"
    }
  ],
  "asset": {
    "generator": "Adobe Substance 3D Painter 7.4.2",
    "version": "2.0"
  },
  "bufferViews": [
    {
      "buffer": 0,
      "byteLength": 109584,
      "target": 34963
    },
    {
      "buffer": 0,
      "byteLength": 122676,
      "byteOffset": 109584,
      "target": 34962
    },
    {
      "buffer": 0,
      "byteLength": 122676,
      "byteOffset": 232260,
      "target": 34962
    },
    {
      "buffer": 0,
      "byteLength": 81784,
      "byteOffset": 354936,
      "target": 34962
    }
  ],
  "buffers": [
    {
      "byteLength": 436720,
      "uri": "sculpture-bear.bin"
    }
  ],
  "images": [
    {
      "uri": "bear_baseColor.jpg"
    },
    {
      "uri": "bear_occlusionRoughnessMetallic.jpg"
    },
    {
      "uri": "bear_normal.jpg"
    }
  ],
  "materials": [
    {
      "alphaMode": "OPAQUE",
      "name": "bear",
      "normalTexture": {
        "index": 2
      },
      "occlusionTexture": {
        "index": 1
      },
      "pbrMetallicRoughness": {
        "baseColorTexture": {
          "index": 0
        },
        "metallicRoughnessTexture": {
          "index": 1
        }
      }
    }
  ],
  "meshes": [
    {
      "name": "sculpture_bear",
      "primitives": [
        {
          "attributes": {
            "NORMAL": 2,
            "POSITION": 1,
            "TEXCOORD_0": 3
          },
          "indices": 0,
          "material": 0,
          "mode": 4
        }
      ]
    }
  ],
  "nodes": [
    {
      "children": [
        1
      ],
      "name": "sculpture-bear.obj"
    },
    {
      "children": [
        2
      ],
      "name": "sculpture_bear"
    },
    {
      "mesh": 0,
      "name": "sculpture_bear"
    }
  ],
  "samplers": [
    {
      "magFilter": 9729,
      "minFilter": 9985,
      "wrapS": 10497,
      "wrapT": 10497
    }
  ],
  "scene": 0,
  "scenes": [
    {
      "name": "Scene",
      "nodes": [
        0
      ]
    }
  ],
  "textures": [
    {
      "sampler": 0,
      "source": 0
    },
    {
      "sampler": 0,
      "source": 1
    },
    {
      "sampler": 0,
      "source": 2
    }
  ]
}