{
    "asset" : {
        "generator" : "Khronos glTF Blender I/O v1.5.17",
        "version" : "2.0"
    },
    "scene" : 0,
    "scenes" : [
        {
            "name" : "Scene",
            "nodes" : [
                6
            ]
        }
    ],
    "nodes" : [
        {
            "mesh" : 0,
            "name" : "polySurface1022.001"
        },
        {
            "children" : [
                0
            ],
            "name" : "polySurface1022"
        },
        {
            "mesh" : 1,
            "name" : "polySurface1023.001"
        },
        {
            "children" : [
                2
            ],
            "name" : "polySurface1023"
        },
        {
            "mesh" : 2,
            "name" : "polySurface400.001"
        },
        {
            "children" : [
                4
            ],
            "name" : "polySurface400"
        },
        {
            "children" : [
                1,
                3,
                5
            ],
            "name" : "kitchenFurnitureAppliancesRoom.obj"
        }
    ],
    "materials" : [
        {
            "name" : "furinture_sg.001",
            "normalTexture" : {
                "index" : 0
            },
            "occlusionTexture" : {
                "index" : 1
            },
            "pbrMetallicRoughness" : {
                "baseColorTexture" : {
                    "index" : 2
                },
                "metallicRoughnessTexture" : {
                    "index" : 1
                }
            }
        },
        {
            "name" : "appliance_sg.001",
            "normalTexture" : {
                "index" : 3
            },
            "occlusionTexture" : {
                "index" : 4
            },
            "pbrMetallicRoughness" : {
                "baseColorTexture" : {
                    "index" : 5
                },
                "metallicRoughnessTexture" : {
                    "index" : 4
                }
            }
        },
        {
            "name" : "room_sg.001",
            "normalTexture" : {
                "index" : 6
            },
            "occlusionTexture" : {
                "index" : 7
            },
            "pbrMetallicRoughness" : {
                "baseColorTexture" : {
                    "index" : 8
                },
                "metallicRoughnessTexture" : {
                    "index" : 7
                }
            }
        }
    ],
    "meshes" : [
        {
            "name" : "polySurface1022.001",
            "primitives" : [
                {
                    "attributes" : {
                        "POSITION" : 0,
                        "NORMAL" : 1,
                        "TEXCOORD_0" : 2
                    },
                    "indices" : 3,
                    "material" : 0
                }
            ]
        },
        {
            "name" : "polySurface1023.001",
            "primitives" : [
                {
                    "attributes" : {
                        "POSITION" : 4,
                        "NORMAL" : 5,
                        "TEXCOORD_0" : 6
                    },
                    "indices" : 7,
                    "material" : 1
                }
            ]
        },
        {
            "name" : "polySurface400.001",
            "primitives" : [
                {
                    "attributes" : {
                        "POSITION" : 8,
                        "NORMAL" : 9,
                        "TEXCOORD_0" : 10
                    },
                    "indices" : 11,
                    "material" : 2
                }
            ]
        }
    ],
    "textures" : [
        {
            "sampler" : 0,
            "source" : 0
        },
        {
            "sampler" : 0,
            "source" : 1
        },
        {
            "sampler" : 0,
            "source" : 2
        },
        {
            "sampler" : 0,
            "source" : 3
        },
        {
            "sampler" : 0,
            "source" : 4
        },
        {
            "sampler" : 0,
            "source" : 5
        },
        {
            "sampler" : 0,
            "source" : 6
        },
        {
            "sampler" : 0,
            "source" : 7
        },
        {
            "sampler" : 0,
            "source" : 8
        }
    ],
    "images" : [
        {
            "mimeType" : "image/png",
            "name" : "Image_5",
            "uri" : "textures/Image_5.png"
        },
        {
            "mimeType" : "image/png",
            "name" : "Image_4",
            "uri" : "textures/Image_4.png"
        },
        {
            "mimeType" : "image/jpeg",
            "name" : "Image_3",
            "uri" : "textures/Image_3.jpg"
        },
        {
            "mimeType" : "image/png",
            "name" : "Image_2",
            "uri" : "textures/Image_2.png"
        },
        {
            "mimeType" : "image/png",
            "name" : "Image_1",
            "uri" : "textures/Image_1.png"
        },
        {
            "mimeType" : "image/jpeg",
            "name" : "Image_0",
            "uri" : "textures/Image_0.jpg"
        },
        {
            "mimeType" : "image/png",
            "name" : "Image_8",
            "uri" : "textures/Image_8.png"
        },
        {
            "mimeType" : "image/png",
            "name" : "Image_7",
            "uri" : "textures/Image_7.png"
        },
        {
            "mimeType" : "image/jpeg",
            "name" : "Image_6",
            "uri" : "textures/Image_6.jpg"
        }
    ],
    "accessors" : [
        {
            "bufferView" : 0,
            "componentType" : 5126,
            "count" : 7265,
            "max" : [
                2.3163671493530273,
                2.614894390106201,
                3.709676742553711
            ],
            "min" : [
                -3.24920654296875,
                -0.00797171052545309,
                -2.083705425262451
            ],
            "type" : "VEC3"
        },
        {
            "bufferView" : 1,
            "componentType" : 5126,
            "count" : 7265,
            "type" : "VEC3"
        },
        {
            "bufferView" : 2,
            "componentType" : 5126,
            "count" : 7265,
            "type" : "VEC2"
        },
        {
            "bufferView" : 3,
            "componentType" : 5123,
            "count" : 13086,
            "type" : "SCALAR"
        },
        {
            "bufferView" : 4,
            "componentType" : 5126,
            "count" : 5482,
            "max" : [
                -2.3982133865356445,
                2.245328903198242,
                3.6929004192352295
            ],
            "min" : [
                -3.2355642318725586,
                -8.711242844583467e-05,
                0.5750953555107117
            ],
            "type" : "VEC3"
        },
        {
            "bufferView" : 5,
            "componentType" : 5126,
            "count" : 5482,
            "type" : "VEC3"
        },
        {
            "bufferView" : 6,
            "componentType" : 5126,
            "count" : 5482,
            "type" : "VEC2"
        },
        {
            "bufferView" : 7,
            "componentType" : 5123,
            "count" : 10440,
            "type" : "SCALAR"
        },
        {
            "bufferView" : 8,
            "componentType" : 5126,
            "count" : 2651,
            "max" : [
                6.0781121253967285,
                3.268916368484497,
                8.859052658081055
            ],
            "min" : [
                -3.630317211151123,
                -0.016861457377672195,
                -2.491075038909912
            ],
            "type" : "VEC3"
        },
        {
            "bufferView" : 9,
            "componentType" : 5126,
            "count" : 2651,
            "type" : "VEC3"
        },
        {
            "bufferView" : 10,
            "componentType" : 5126,
            "count" : 2651,
            "type" : "VEC2"
        },
        {
            "bufferView" : 11,
            "componentType" : 5123,
            "count" : 4956,
            "type" : "SCALAR"
        }
    ],
    "bufferViews" : [
        {
            "buffer" : 0,
            "byteLength" : 87180,
            "byteOffset" : 0
        },
        {
            "buffer" : 0,
            "byteLength" : 87180,
            "byteOffset" : 87180
        },
        {
            "buffer" : 0,
            "byteLength" : 58120,
            "byteOffset" : 174360
        },
        {
            "buffer" : 0,
            "byteLength" : 26172,
            "byteOffset" : 232480
        },
        {
            "buffer" : 0,
            "byteLength" : 65784,
            "byteOffset" : 258652
        },
        {
            "buffer" : 0,
            "byteLength" : 65784,
            "byteOffset" : 324436
        },
        {
            "buffer" : 0,
            "byteLength" : 43856,
            "byteOffset" : 390220
        },
        {
            "buffer" : 0,
            "byteLength" : 20880,
            "byteOffset" : 434076
        },
        {
            "buffer" : 0,
            "byteLength" : 31812,
            "byteOffset" : 454956
        },
        {
            "buffer" : 0,
            "byteLength" : 31812,
            "byteOffset" : 486768
        },
        {
            "buffer" : 0,
            "byteLength" : 21208,
            "byteOffset" : 518580
        },
        {
            "buffer" : 0,
            "byteLength" : 9912,
            "byteOffset" : 539788
        }
    ],
    "samplers" : [
        {
            "magFilter" : 9729,
            "minFilter" : 9987
        }
    ],
    "buffers" : [
        {
            "byteLength" : 549700,
            "uri" : "scene.bin"
        }
    ]
}
