{
  "accessors": [
    {
      "bufferView": 2,
      "componentType": 5126,
      "count": 2107,
      "max": [
        0.026213496923446655,
        0.008546480908989906,
        0.1244329959154129
      ],
      "min": [
        -0.022238492965698242,
        -0.008546540513634682,
        -0.1244329959154129
      ],
      "type": "VEC3"
    },
    {
      "bufferView": 2,
      "byteOffset": 25284,
      "componentType": 5126,
      "count": 2107,
      "max": [
        0.9825976490974426,
        0.9967930912971497,
        0.9968469738960266
      ],
      "min": [
        -0.9948362112045288,
        -0.9970211982727051,
        -0.9963935017585754
      ],
      "type": "VEC3"
    },
    {
      "bufferView": 1,
      "componentType": 5126,
      "count": 2107,
      "max": [
        0.875,
        1.0
      ],
      "min": [
        0.125,
        0.0
      ],
      "type": "VEC2"
    },
    {
      "bufferView": 0,
      "componentType": 5125,
      "count": 10077,
      "type": "SCALAR"
    },
    {
      "bufferView": 2,
      "byteOffset": 50568,
      "componentType": 5126,
      "count": 821,
      "max": [
        -0.01685050129890442,
        0.007250496651977301,
        0.12313699722290039
      ],
      "min": [
        -0.026213496923446655,
        -0.007250496651977301,
        -0.12313699722290039
      ],
      "type": "VEC3"
    },
    {
      "bufferView": 2,
      "byteOffset": 60420,
      "componentType": 5126,
      "count": 821,
      "max": [
        0.9956511855125427,
        0.9899670481681824,
        0.9748986959457397
      ],
      "min": [
        -0.9847869277000427,
        -0.9898964762687683,
        -0.9966696500778198
      ],
      "type": "VEC3"
    },
    {
      "bufferView": 1,
      "byteOffset": 16856,
      "componentType": 5126,
      "count": 821,
      "max": [
        0.6060510277748108,
        0.23104600608348846
      ],
      "min": [
        0.3939490020275116,
        0.018949000164866447
      ],
      "type": "VEC2"
    },
    {
      "bufferView": 0,
      "byteOffset": 40308,
      "componentType": 5125,
      "count": 4353,
      "type": "SCALAR"
    },
    {
      "bufferView": 2,
      "byteOffset": 70272,
      "componentType": 5126,
      "count": 1299,
      "max": [
        0.04599842429161072,
        0.01780439354479313,
        0.16414199769496918
      ],
      "min": [
        -0.009330600500106812,
        -0.013536644168198109,
        -0.16235299408435822
      ],
      "type": "VEC3"
    },
    {
      "bufferView": 2,
      "byteOffset": 85860,
      "componentType": 5126,
      "count": 1299,
      "max": [
        1.0,
        0.9942449927330017,
        0.9916396737098694
      ],
      "min": [
        -1.0,
        -0.9952087998390198,
        -0.9917524456977844
      ],
      "type": "VEC3"
    },
    {
      "bufferView": 1,
      "byteOffset": 23424,
      "componentType": 5126,
      "count": 1299,
      "max": [
        0.875,
        1.0
      ],
      "min": [
        0.125,
        0.0
      ],
      "type": "VEC2"
    },
    {
      "bufferView": 0,
      "byteOffset": 57720,
      "componentType": 5125,
      "count": 5940,
      "type": "SCALAR"
    }
  ],
  "asset": {
    "extras": {
      "author": "PatrickStevens (https://sketchfab.com/PatrickStevens)",
      "license": "CC-BY-4.0 (http://creativecommons.org/licenses/by/4.0/)",
      "source": "https://sketchfab.com/3d-models/mars-base-sojurner-camera-1896d01627c04a4687380f71179543eb",
      "title": "Mars Base Sojurner Camera"
    },
    "generator": "Sketchfab-15.17.0",
    "version": "2.0"
  },
  "bufferViews": [
    {
      "buffer": 0,
      "byteLength": 81480,
      "name": "floatBufferViews",
      "target": 34963
    },
    {
      "buffer": 0,
      "byteLength": 33816,
      "byteOffset": 81480,
      "byteStride": 8,
      "name": "floatBufferViews",
      "target": 34962
    },
    {
      "buffer": 0,
      "byteLength": 101448,
      "byteOffset": 115296,
      "byteStride": 12,
      "name": "floatBufferViews",
      "target": 34962
    }
  ],
  "buffers": [
    {
      "byteLength": 216744,
      "uri": "scene.bin"
    }
  ],
  "materials": [
    {
      "doubleSided": true,
      "name": "Material.005",
      "pbrMetallicRoughness": {
        "baseColorFactor": [
          0.438562,
          0.438562,
          0.438562,
          1.0
        ],
        "metallicFactor": 0.0,
        "roughnessFactor": 0.5
      }
    },
    {
      "doubleSided": true,
      "name": "Material.001",
      "pbrMetallicRoughness": {
        "baseColorFactor": [
          0.30949,
          0.111012,
          0.109512,
          1.0
        ],
        "metallicFactor": 0.0,
        "roughnessFactor": 0.5
      }
    },
    {
      "doubleSided": true,
      "name": "Material.008",
      "pbrMetallicRoughness": {
        "baseColorFactor": [
          0.117444,
          0.117444,
          0.117444,
          1.0
        ],
        "metallicFactor": 0.0,
        "roughnessFactor": 0.5
      }
    }
  ],
  "meshes": [
    {
      "name": "Object_0",
      "primitives": [
        {
          "attributes": {
            "NORMAL": 1,
            "POSITION": 0,
            "TEXCOORD_0": 2
          },
          "indices": 3,
          "material": 0,
          "mode": 4
        }
      ]
    },
    {
      "name": "Object_1",
      "primitives": [
        {
          "attributes": {
            "NORMAL": 5,
            "POSITION": 4,
            "TEXCOORD_0": 6
          },
          "indices": 7,
          "material": 1,
          "mode": 4
        }
      ]
    },
    {
      "name": "Object_2",
      "primitives": [
        {
          "attributes": {
            "NORMAL": 9,
            "POSITION": 8,
            "TEXCOORD_0": 10
          },
          "indices": 11,
          "material": 2,
          "mode": 4
        }
      ]
    }
  ],
  "nodes": [
    {
      "children": [
        1
      ],
      "matrix": [
        1.0,
        0.0,
        0.0,
        0.0,
        0.0,
        2.220446049250313e-16,
        -1.0,
        0.0,
        0.0,
        1.0,
        2.220446049250313e-16,
        0.0,
        0.0,
        0.0,
        0.0,
        1.0
      ],
      "name": "Sketchfab_model"
    },
    {
      "children": [
        2
      ],
      "name": "root"
    },
    {
      "children": [
        3
      ],
      "matrix": [
        1.0,
        0.0,
        0.0,
        0.0,
        0.0,
        2.220446049250313e-16,
        1.0,
        0.0,
        0.0,
        -1.0,
        2.220446049250313e-16,
        0.0,
        0.0,
        0.0,
        0.0,
        1.0
      ],
      "name": "GLTF_SceneRootNode"
    },
    {
      "children": [
        4,
        5,
        6
      ],
      "name": "Cube.026_Cube.001_4"
    },
    {
      "mesh": 0,
      "name": "Object_4"
    },
    {
      "mesh": 1,
      "name": "Object_5"
    },
    {
      "mesh": 2,
      "name": "Object_6"
    }
  ],
  "scene": 0,
  "scenes": [
    {
      "name": "Sketchfab_Scene",
      "nodes": [
        0
      ]
    }
  ]
}
