{
  "accessors": [
    {
      "bufferView": 0,
      "componentType": 5125,
      "count": 17520,
      "type": "SCALAR"
    },
    {
      "bufferView": 1,
      "componentType": 5126,
      "count": 6857,
      "max": [
        6.65661191940308,
        6.66712951660156,
        1.50692093372345
      ],
      "min": [
        3.49307918548584,
        0.0744502544403076,
        -1.50692081451416
      ],
      "type": "VEC3"
    },
    {
      "bufferView": 2,
      "componentType": 5126,
      "count": 6857,
      "type": "VEC3"
    },
    {
      "bufferView": 3,
      "componentType": 5126,
      "count": 6857,
      "type": "VEC4"
    },
    {
      "bufferView": 4,
      "componentType": 5126,
      "count": 6857,
      "type": "VEC2"
    }
  ],
  "asset": {
    "generator": "Adobe Substance 3D Painter 11.0.0",
    "version": "2.0"
  },
  "bufferViews": [
    {
      "buffer": 0,
      "byteLength": 70080,
      "target": 34963
    },
    {
      "buffer": 0,
      "byteLength": 82284,
      "byteOffset": 70080,
      "target": 34962
    },
    {
      "buffer": 0,
      "byteLength": 82284,
      "byteOffset": 152364,
      "target": 34962
    },
    {
      "buffer": 0,
      "byteLength": 109712,
      "byteOffset": 234648,
      "target": 34962
    },
    {
      "buffer": 0,
      "byteLength": 54856,
      "byteOffset": 344360,
      "target": 34962
    }
  ],
  "buffers": [
    {
      "byteLength": 399216,
      "uri": "ASM - PBR Metallic Roughness.bin"
    }
  ],
  "images": [
    {
      "uri": "chair1_baseColor_1001.png"
    },
    {
      "uri": "chair1_occlusionRoughnessMetallic_1001.png"
    },
    {
      "uri": "chair1_normal_1001.png"
    }
  ],
  "materials": [
    {
      "alphaMode": "OPAQUE",
      "name": "chair1_1001",
      "normalTexture": {
        "index": 2
      },
      "occlusionTexture": {
        "index": 1
      },
      "pbrMetallicRoughness": {
        "baseColorTexture": {
          "index": 0
        },
        "metallicRoughnessTexture": {
          "index": 1
        }
      }
    }
  ],
  "meshes": [
    {
      "name": "chair",
      "primitives": [
        {
          "attributes": {
            "NORMAL": 2,
            "POSITION": 1,
            "TANGENT": 3,
            "TEXCOORD_0": 4
          },
          "indices": 0,
          "material": 0,
          "mode": 4
        }
      ]
    }
  ],
  "nodes": [
    {
      "children": [
        1
      ],
      "name": "RootNode",
      "scale": [
        0.00999999977648258,
        0.00999999977648258,
        0.00999999977648258
      ]
    },
    {
      "children": [
        2
      ],
      "name": "chair"
    },
    {
      "mesh": 0,
      "name": "chair"
    }
  ],
  "samplers": [
    {
      "magFilter": 9729,
      "minFilter": 9985,
      "wrapS": 10497,
      "wrapT": 10497
    }
  ],
  "scene": 0,
  "scenes": [
    {
      "name": "Scene",
      "nodes": [
        0
      ]
    }
  ],
  "textures": [
    {
      "sampler": 0,
      "source": 0
    },
    {
      "sampler": 0,
      "source": 1
    },
    {
      "sampler": 0,
      "source": 2
    }
  ]
}