{
  "accessors": [
    {
      "bufferView": 0,
      "componentType": 5125,
      "count": 2760,
      "type": "SCALAR"
    },
    {
      "bufferView": 1,
      "componentType": 5126,
      "count": 903,
      "max": [
        1.35474681854248,
        11.5364284515381,
        2.00000071525574
      ],
      "min": [
        -4.14662647247314,
        0.610074996948242,
        -2.0
      ],
      "type": "VEC3"
    },
    {
      "bufferView": 2,
      "componentType": 5126,
      "count": 903,
      "type": "VEC3"
    },
    {
      "bufferView": 3,
      "componentType": 5126,
      "count": 903,
      "type": "VEC4"
    },
    {
      "bufferView": 4,
      "componentType": 5126,
      "count": 903,
      "type": "VEC2"
    },
    {
      "bufferView": 5,
      "componentType": 5125,
      "count": 6048,
      "type": "SCALAR"
    },
    {
      "bufferView": 6,
      "componentType": 5126,
      "count": 1189,
      "max": [
        0.500001430511475,
        0.500000357627869,
        0.5
      ],
      "min": [
        -0.500001907348633,
        -0.500000059604645,
        -0.5
      ],
      "type": "VEC3"
    },
    {
      "bufferView": 7,
      "componentType": 5126,
      "count": 1189,
      "type": "VEC3"
    },
    {
      "bufferView": 8,
      "componentType": 5126,
      "count": 1189,
      "type": "VEC4"
    },
    {
      "bufferView": 9,
      "componentType": 5126,
      "count": 1189,
      "type": "VEC2"
    }
  ],
  "asset": {
    "generator": "Adobe Substance 3D Painter 11.0.0",
    "version": "2.0"
  },
  "bufferViews": [
    {
      "buffer": 0,
      "byteLength": 11040,
      "target": 34963
    },
    {
      "buffer": 0,
      "byteLength": 10836,
      "byteOffset": 11040,
      "target": 34962
    },
    {
      "buffer": 0,
      "byteLength": 10836,
      "byteOffset": 21876,
      "target": 34962
    },
    {
      "buffer": 0,
      "byteLength": 14448,
      "byteOffset": 32712,
      "target": 34962
    },
    {
      "buffer": 0,
      "byteLength": 7224,
      "byteOffset": 47160,
      "target": 34962
    },
    {
      "buffer": 0,
      "byteLength": 24192,
      "byteOffset": 54384,
      "target": 34963
    },
    {
      "buffer": 0,
      "byteLength": 14268,
      "byteOffset": 78576,
      "target": 34962
    },
    {
      "buffer": 0,
      "byteLength": 14268,
      "byteOffset": 92844,
      "target": 34962
    },
    {
      "buffer": 0,
      "byteLength": 19024,
      "byteOffset": 107112,
      "target": 34962
    },
    {
      "buffer": 0,
      "byteLength": 9512,
      "byteOffset": 126136,
      "target": 34962
    }
  ],
  "buffers": [
    {
      "byteLength": 135648,
      "uri": "ASM - PBR Metallic Roughness.bin"
    }
  ],
  "images": [
    {
      "uri": "easel_painting_baseColor_1001.png"
    },
    {
      "uri": "easel_painting_occlusionRoughnessMetallic_1001.png"
    },
    {
      "uri": "easel_painting_normal_1001.png"
    }
  ],
  "materials": [
    {
      "alphaMode": "OPAQUE",
      "name": "easel_painting_1001",
      "normalTexture": {
        "index": 2
      },
      "occlusionTexture": {
        "index": 1
      },
      "pbrMetallicRoughness": {
        "baseColorTexture": {
          "index": 0
        },
        "metallicRoughnessTexture": {
          "index": 1
        }
      }
    }
  ],
  "meshes": [
    {
      "name": "easel",
      "primitives": [
        {
          "attributes": {
            "NORMAL": 2,
            "POSITION": 1,
            "TANGENT": 3,
            "TEXCOORD_0": 4
          },
          "indices": 0,
          "material": 0,
          "mode": 4
        }
      ]
    },
    {
      "name": "painting1",
      "primitives": [
        {
          "attributes": {
            "NORMAL": 7,
            "POSITION": 6,
            "TANGENT": 8,
            "TEXCOORD_0": 9
          },
          "indices": 5,
          "material": 0,
          "mode": 4
        }
      ]
    }
  ],
  "nodes": [
    {
      "children": [
        1,
        3
      ],
      "name": "RootNode",
      "scale": [
        0.00999999977648258,
        0.00999999977648258,
        0.00999999977648258
      ]
    },
    {
      "children": [
        2
      ],
      "name": "easel",
      "translation": [
        0.0,
        -0.611440479755402,
        0.0
      ]
    },
    {
      "mesh": 0,
      "name": "easel"
    },
    {
      "children": [
        4
      ],
      "name": "painting1",
      "rotation": [
        0.0,
        0.0,
        0.130526185035706,
        0.991444885730743
      ],
      "scale": [
        0.239975318312645,
        6.0210165977478,
        4.1724591255188
      ],
      "translation": [
        -0.214767605066299,
        6.45079231262207,
        0.0
      ]
    },
    {
      "mesh": 1,
      "name": "painting1"
    }
  ],
  "samplers": [
    {
      "magFilter": 9729,
      "minFilter": 9985,
      "wrapS": 10497,
      "wrapT": 10497
    }
  ],
  "scene": 0,
  "scenes": [
    {
      "name": "Scene",
      "nodes": [
        0
      ]
    }
  ],
  "textures": [
    {
      "sampler": 0,
      "source": 0
    },
    {
      "sampler": 0,
      "source": 1
    },
    {
      "sampler": 0,
      "source": 2
    }
  ]
}