{
    "asset" : {
        "generator" : "Khronos glTF Blender I/O v1.7.33",
        "version" : "2.0"
    },
    "scene" : 0,
    "scenes" : [
        {
            "name" : "Scene",
            "nodes" : [
                0,
                1,
                2,
                3
            ]
        }
    ],
    "nodes" : [
        {
            "mesh" : 0,
            "name" : "easel",
            "rotation" : [
                0.7071068286895752,
                0,
                0,
                0.7071067094802856
            ],
            "scale" : [
                0.009999999776482582,
                0.009999999776482582,
                0.009999999776482582
            ],
            "translation" : [
                0,
                -0.006114406511187553,
                0
            ]
        },
        {
            "mesh" : 1,
            "name" : "painting1",
            "rotation" : [
                0.701057493686676,
                0.09229598194360733,
                0.09229596704244614,
                0.7010573744773865
            ],
            "scale" : [
                0.0023997530806809664,
                0.041724588721990585,
                0.06021016463637352
            ],
            "translation" : [
                -0.002147675957530737,
                0.06450792402029037,
                0
            ]
        },
        {
            "mesh" : 2,
            "name" : "palette",
            "rotation" : [
                0.7071068286895752,
                0,
                0,
                0.7071067094802856
            ],
            "scale" : [
                0.00771517725661397,
                0.009999999776482582,
                0.00047104625264182687
            ],
            "translation" : [
                0.008893761783838272,
                0,
                -0.0010867679957300425
            ]
        },
        {
            "mesh" : 3,
            "name" : "chair",
            "rotation" : [
                0.7071068286895752,
                0,
                0,
                0.7071067094802856
            ],
            "scale" : [
                0.009999999776482582,
                0.009999999776482582,
                0.009999999776482582
            ]
        }
    ],
    "materials" : [
        {
            "doubleSided" : true,
            "name" : "standardSurface1",
            "pbrMetallicRoughness" : {
                "metallicFactor" : 0,
                "roughnessFactor" : 0.5527864098548889
            }
        }
    ],
    "meshes" : [
        {
            "name" : "Mesh",
            "primitives" : [
                {
                    "attributes" : {
                        "POSITION" : 0,
                        "NORMAL" : 1,
                        "TEXCOORD_0" : 2
                    },
                    "indices" : 3,
                    "material" : 0
                }
            ]
        },
        {
            "name" : "Mesh.001",
            "primitives" : [
                {
                    "attributes" : {
                        "POSITION" : 4,
                        "NORMAL" : 5,
                        "TEXCOORD_0" : 6
                    },
                    "indices" : 7,
                    "material" : 0
                }
            ]
        },
        {
            "name" : "Mesh.002",
            "primitives" : [
                {
                    "attributes" : {
                        "POSITION" : 8,
                        "NORMAL" : 9,
                        "TEXCOORD_0" : 10
                    },
                    "indices" : 11,
                    "material" : 0
                }
            ]
        },
        {
            "name" : "Mesh.003",
            "primitives" : [
                {
                    "attributes" : {
                        "POSITION" : 12,
                        "NORMAL" : 13,
                        "TEXCOORD_0" : 14
                    },
                    "indices" : 15,
                    "material" : 0
                }
            ]
        }
    ],
    "accessors" : [
        {
            "bufferView" : 0,
            "componentType" : 5126,
            "count" : 891,
            "max" : [
                1.3547470569610596,
                2,
                -0.6100749969482422
            ],
            "min" : [
                -4.1466264724731445,
                -2,
                -11.536428451538086
            ],
            "type" : "VEC3"
        },
        {
            "bufferView" : 1,
            "componentType" : 5126,
            "count" : 891,
            "type" : "VEC3"
        },
        {
            "bufferView" : 2,
            "componentType" : 5126,
            "count" : 891,
            "type" : "VEC2"
        },
        {
            "bufferView" : 3,
            "componentType" : 5123,
            "count" : 2760,
            "type" : "SCALAR"
        },
        {
            "bufferView" : 4,
            "componentType" : 5126,
            "count" : 1182,
            "max" : [
                0.5000014305114746,
                0.5,
                0.5
            ],
            "min" : [
                -0.5000009536743164,
                -0.5,
                -0.5000003576278687
            ],
            "type" : "VEC3"
        },
        {
            "bufferView" : 5,
            "componentType" : 5126,
            "count" : 1182,
            "type" : "VEC3"
        },
        {
            "bufferView" : 6,
            "componentType" : 5126,
            "count" : 1182,
            "type" : "VEC2"
        },
        {
            "bufferView" : 7,
            "componentType" : 5123,
            "count" : 6048,
            "type" : "SCALAR"
        },
        {
            "bufferView" : 8,
            "componentType" : 5126,
            "count" : 122,
            "max" : [
                1,
                0.9999999403953552,
                1
            ],
            "min" : [
                -0.9999998807907104,
                -1.0199065208435059,
                -1
            ],
            "type" : "VEC3"
        },
        {
            "bufferView" : 9,
            "componentType" : 5126,
            "count" : 122,
            "type" : "VEC3"
        },
        {
            "bufferView" : 10,
            "componentType" : 5126,
            "count" : 122,
            "type" : "VEC2"
        },
        {
            "bufferView" : 11,
            "componentType" : 5123,
            "count" : 384,
            "type" : "SCALAR"
        },
        {
            "bufferView" : 12,
            "componentType" : 5126,
            "count" : 6825,
            "max" : [
                6.656611919403076,
                1.5069210529327393,
                -0.07445001602172852
            ],
            "min" : [
                3.4930789470672607,
                -1.5069209337234497,
                -6.667129993438721
            ],
            "type" : "VEC3"
        },
        {
            "bufferView" : 13,
            "componentType" : 5126,
            "count" : 6825,
            "type" : "VEC3"
        },
        {
            "bufferView" : 14,
            "componentType" : 5126,
            "count" : 6825,
            "type" : "VEC2"
        },
        {
            "bufferView" : 15,
            "componentType" : 5123,
            "count" : 17520,
            "type" : "SCALAR"
        }
    ],
    "bufferViews" : [
        {
            "buffer" : 0,
            "byteLength" : 10692,
            "byteOffset" : 0
        },
        {
            "buffer" : 0,
            "byteLength" : 10692,
            "byteOffset" : 10692
        },
        {
            "buffer" : 0,
            "byteLength" : 7128,
            "byteOffset" : 21384
        },
        {
            "buffer" : 0,
            "byteLength" : 5520,
            "byteOffset" : 28512
        },
        {
            "buffer" : 0,
            "byteLength" : 14184,
            "byteOffset" : 34032
        },
        {
            "buffer" : 0,
            "byteLength" : 14184,
            "byteOffset" : 48216
        },
        {
            "buffer" : 0,
            "byteLength" : 9456,
            "byteOffset" : 62400
        },
        {
            "buffer" : 0,
            "byteLength" : 12096,
            "byteOffset" : 71856
        },
        {
            "buffer" : 0,
            "byteLength" : 1464,
            "byteOffset" : 83952
        },
        {
            "buffer" : 0,
            "byteLength" : 1464,
            "byteOffset" : 85416
        },
        {
            "buffer" : 0,
            "byteLength" : 976,
            "byteOffset" : 86880
        },
        {
            "buffer" : 0,
            "byteLength" : 768,
            "byteOffset" : 87856
        },
        {
            "buffer" : 0,
            "byteLength" : 81900,
            "byteOffset" : 88624
        },
        {
            "buffer" : 0,
            "byteLength" : 81900,
            "byteOffset" : 170524
        },
        {
            "buffer" : 0,
            "byteLength" : 54600,
            "byteOffset" : 252424
        },
        {
            "buffer" : 0,
            "byteLength" : 35040,
            "byteOffset" : 307024
        }
    ],
    "buffers" : [
        {
            "byteLength" : 342064,
            "uri" : "data:application/octet-stream;base64,"
        }
    ]
}
