{
    "asset" : {
        "generator" : "Khronos glTF Blender I/O v1.7.33",
        "version" : "2.0"
    },
    "scene" : 0,
    "scenes" : [
        {
            "name" : "Scene",
            "nodes" : [
                0,
                1
            ]
        }
    ],
    "nodes" : [
        {
            "mesh" : 0,
            "name" : "easel",
            "rotation" : [
                0.7071068286895752,
                0,
                0,
                0.7071067094802856
            ],
            "scale" : [
                0.009999999776482582,
                0.009999999776482582,
                0.009999999776482582
            ],
            "translation" : [
                0,
                -0.006114406511187553,
                0
            ]
        },
        {
            "mesh" : 1,
            "name" : "painting1",
            "rotation" : [
                0.701057493686676,
                0.09229598194360733,
                0.09229596704244614,
                0.7010573744773865
            ],
            "scale" : [
                0.0023997530806809664,
                0.041724588721990585,
                0.06021016463637352
            ],
            "translation" : [
                -0.002147675957530737,
                0.06450792402029037,
                0
            ]
        }
    ],
    "materials" : [
        {
            "doubleSided" : true,
            "name" : "standardSurface1",
            "pbrMetallicRoughness" : {
                "metallicFactor" : 0,
                "roughnessFactor" : 0.5527864098548889
            }
        }
    ],
    "meshes" : [
        {
            "name" : "Mesh",
            "primitives" : [
                {
                    "attributes" : {
                        "POSITION" : 0,
                        "NORMAL" : 1,
                        "TEXCOORD_0" : 2
                    },
                    "indices" : 3,
                    "material" : 0
                }
            ]
        },
        {
            "name" : "Mesh.001",
            "primitives" : [
                {
                    "attributes" : {
                        "POSITION" : 4,
                        "NORMAL" : 5,
                        "TEXCOORD_0" : 6
                    },
                    "indices" : 7,
                    "material" : 0
                }
            ]
        }
    ],
    "accessors" : [
        {
            "bufferView" : 0,
            "componentType" : 5126,
            "count" : 891,
            "max" : [
                1.3547470569610596,
                2,
                -0.6100749969482422
            ],
            "min" : [
                -4.1466264724731445,
                -2,
                -11.536428451538086
            ],
            "type" : "VEC3"
        },
        {
            "bufferView" : 1,
            "componentType" : 5126,
            "count" : 891,
            "type" : "VEC3"
        },
        {
            "bufferView" : 2,
            "componentType" : 5126,
            "count" : 891,
            "type" : "VEC2"
        },
        {
            "bufferView" : 3,
            "componentType" : 5123,
            "count" : 2760,
            "type" : "SCALAR"
        },
        {
            "bufferView" : 4,
            "componentType" : 5126,
            "count" : 1182,
            "max" : [
                0.5000014305114746,
                0.5,
                0.5
            ],
            "min" : [
                -0.5000009536743164,
                -0.5,
                -0.5000003576278687
            ],
            "type" : "VEC3"
        },
        {
            "bufferView" : 5,
            "componentType" : 5126,
            "count" : 1182,
            "type" : "VEC3"
        },
        {
            "bufferView" : 6,
            "componentType" : 5126,
            "count" : 1182,
            "type" : "VEC2"
        },
        {
            "bufferView" : 7,
            "componentType" : 5123,
            "count" : 6048,
            "type" : "SCALAR"
        }
    ],
    "bufferViews" : [
        {
            "buffer" : 0,
            "byteLength" : 10692,
            "byteOffset" : 0
        },
        {
            "buffer" : 0,
            "byteLength" : 10692,
            "byteOffset" : 10692
        },
        {
            "buffer" : 0,
            "byteLength" : 7128,
            "byteOffset" : 21384
        },
        {
            "buffer" : 0,
            "byteLength" : 5520,
            "byteOffset" : 28512
        },
        {
            "buffer" : 0,
            "byteLength" : 14184,
            "byteOffset" : 34032
        },
        {
            "buffer" : 0,
            "byteLength" : 14184,
            "byteOffset" : 48216
        },
        {
            "buffer" : 0,
            "byteLength" : 9456,
            "byteOffset" : 62400
        },
        {
            "buffer" : 0,
            "byteLength" : 12096,
            "byteOffset" : 71856
        }
    ],
    "buffers" : [
        {
            "byteLength" : 83952,
            "uri" : "data:application/octet-stream;base64,"
        }
    ]
}
