{
  "accessors": [
    {
      "bufferView": 2,
      "componentType": 5126,
      "count": 2848,
      "max": [
        85.091567993164062,
        410.3270263671875,
        110.61597442626953
      ],
      "min": [
        -285.80453491210938,
        -227.60665893554688,
        81.990890502929688
      ],
      "type": "VEC3"
    },
    {
      "bufferView": 2,
      "byteOffset": 34176,
      "componentType": 5126,
      "count": 2848,
      "max": [
        0.91797852516174316,
        0.99905890226364136,
        0.99980145692825317
      ],
      "min": [
        -0.99930047988891602,
        -0.99974745512008667,
        -1
      ],
      "type": "VEC3"
    },
    {
      "bufferView": 1,
      "componentType": 5126,
      "count": 2848,
      "max": [
        0.43676099181175232,
        0.14512500166893005
      ],
      "min": [
        0.38421198725700378,
        0.093020997941493988
      ],
      "type": "VEC2"
    },
    {
      "bufferView": 0,
      "componentType": 5125,
      "count": 11952,
      "max": [
        2847
      ],
      "min": [
        0
      ],
      "type": "SCALAR"
    },
    {
      "bufferView": 2,
      "byteOffset": 68352,
      "componentType": 5126,
      "count": 104,
      "max": [
        -26.336769104003906,
        388.64056396484375,
        262.4466552734375
      ],
      "min": [
        -29.192392349243164,
        -301.35107421875,
        228.2381591796875
      ],
      "type": "VEC3"
    },
    {
      "bufferView": 2,
      "byteOffset": 69600,
      "componentType": 5126,
      "count": 104,
      "max": [
        0,
        6.0000002122251317e-06,
        1
      ],
      "min": [
        0,
        -6.0000002122251317e-06,
        -1
      ],
      "type": "VEC3"
    },
    {
      "bufferView": 1,
      "byteOffset": 22784,
      "componentType": 5126,
      "count": 104,
      "max": [
        0,
        0
      ],
      "min": [
        0,
        0
      ],
      "type": "VEC2"
    },
    {
      "bufferView": 0,
      "byteOffset": 47808,
      "componentType": 5125,
      "count": 288,
      "max": [
        103
      ],
      "min": [
        0
      ],
      "type": "SCALAR"
    },
    {
      "bufferView": 2,
      "byteOffset": 70848,
      "componentType": 5126,
      "count": 4440,
      "max": [
        67.342231750488281,
        503.79144287109375,
        206.08740234375
      ],
      "min": [
        -295.2596435546875,
        -245.26223754882812,
        92.417617797851562
      ],
      "type": "VEC3"
    },
    {
      "bufferView": 2,
      "byteOffset": 124128,
      "componentType": 5126,
      "count": 4440,
      "max": [
        1,
        1,
        1
      ],
      "min": [
        -1,
        -1,
        -1
      ],
      "type": "VEC3"
    },
    {
      "bufferView": 1,
      "byteOffset": 23616,
      "componentType": 5126,
      "count": 4440,
      "max": [
        0.99970799684524536,
        0.96711701154708862
      ],
      "min": [
        0.0032760000322014093,
        0.00088800000958144665
      ],
      "type": "VEC2"
    },
    {
      "bufferView": 0,
      "byteOffset": 48960,
      "componentType": 5125,
      "count": 10830,
      "max": [
        4439
      ],
      "min": [
        0
      ],
      "type": "SCALAR"
    },
    {
      "bufferView": 2,
      "byteOffset": 177408,
      "componentType": 5126,
      "count": 9732,
      "max": [
        232.601806640625,
        487.22482299804688,
        251.65476989746094
      ],
      "min": [
        -326.65890502929688,
        -400.56423950195312,
        -0.00012799999967683107
      ],
      "type": "VEC3"
    },
    {
      "bufferView": 2,
      "byteOffset": 294192,
      "componentType": 5126,
      "count": 9732,
      "max": [
        1,
        1,
        1
      ],
      "min": [
        -1,
        -1,
        -1
      ],
      "type": "VEC3"
    },
    {
      "bufferView": 1,
      "byteOffset": 59136,
      "componentType": 5126,
      "count": 9732,
      "max": [
        0.99383097887039185,
        0.99735897779464722
      ],
      "min": [
        0.38421198725700378,
        0.012587999925017357
      ],
      "type": "VEC2"
    },
    {
      "bufferView": 0,
      "byteOffset": 92280,
      "componentType": 5125,
      "count": 15066,
      "max": [
        9731
      ],
      "min": [
        0
      ],
      "type": "SCALAR"
    },
    {
      "bufferView": 2,
      "byteOffset": 410976,
      "componentType": 5126,
      "count": 9600,
      "max": [
        200.57649230957031,
        503.56768798828125,
        253.6861572265625
      ],
      "min": [
        -300,
        -521.51287841796875,
        -0.25038999319076538
      ],
      "type": "VEC3"
    },
    {
      "bufferView": 2,
      "byteOffset": 526176,
      "componentType": 5126,
      "count": 9600,
      "max": [
        1,
        1,
        1
      ],
      "min": [
        -1,
        -1,
        -1
      ],
      "type": "VEC3"
    },
    {
      "bufferView": 1,
      "byteOffset": 136992,
      "componentType": 5126,
      "count": 9600,
      "max": [
        0.98080897331237793,
        1
      ],
      "min": [
        0.0032760000322014093,
        0.00088800000958144665
      ],
      "type": "VEC2"
    },
    {
      "bufferView": 0,
      "byteOffset": 152544,
      "componentType": 5125,
      "count": 21555,
      "max": [
        9599
      ],
      "min": [
        0
      ],
      "type": "SCALAR"
    },
    {
      "bufferView": 2,
      "byteOffset": 641376,
      "componentType": 5126,
      "count": 7972,
      "max": [
        200.80987548828125,
        504.68008422851562,
        270.00018310546875
      ],
      "min": [
        -303.81707763671875,
        -496.43270874023438,
        -4.0883002281188965
      ],
      "type": "VEC3"
    },
    {
      "bufferView": 2,
      "byteOffset": 737040,
      "componentType": 5126,
      "count": 7972,
      "max": [
        1,
        1,
        1
      ],
      "min": [
        -1,
        -1,
        -1
      ],
      "type": "VEC3"
    },
    {
      "bufferView": 1,
      "byteOffset": 213792,
      "componentType": 5126,
      "count": 7972,
      "max": [
        0.99664598703384399,
        0.99708801507949829
      ],
      "min": [
        0.0032760000322014093,
        0.00088800000958144665
      ],
      "type": "VEC2"
    },
    {
      "bufferView": 0,
      "byteOffset": 238764,
      "componentType": 5125,
      "count": 17322,
      "max": [
        7971
      ],
      "min": [
        0
      ],
      "type": "SCALAR"
    },
    {
      "bufferView": 2,
      "byteOffset": 832704,
      "componentType": 5126,
      "count": 9170,
      "max": [
        196.549072265625,
        475.70913696289062,
        106.27712249755859
      ],
      "min": [
        -301.017333984375,
        -295.16159057617188,
        -6.2143769264221191
      ],
      "type": "VEC3"
    },
    {
      "bufferView": 2,
      "byteOffset": 942744,
      "componentType": 5126,
      "count": 9170,
      "max": [
        1,
        1,
        1
      ],
      "min": [
        -1,
        -1,
        -1
      ],
      "type": "VEC3"
    },
    {
      "bufferView": 1,
      "byteOffset": 277568,
      "componentType": 5126,
      "count": 9170,
      "max": [
        0.99594497680664062,
        0.98971098661422729
      ],
      "min": [
        0.0048270002007484436,
        0.0014009999576956034
      ],
      "type": "VEC2"
    },
    {
      "bufferView": 0,
      "byteOffset": 308052,
      "componentType": 5125,
      "count": 18132,
      "max": [
        9169
      ],
      "min": [
        0
      ],
      "type": "SCALAR"
    },
    {
      "bufferView": 2,
      "byteOffset": 1052784,
      "componentType": 5126,
      "count": 9641,
      "max": [
        208.18563842773438,
        516.48016357421875,
        275.326904296875
      ],
      "min": [
        -319.3875732421875,
        -507.71310424804688,
        -1.4095770120620728
      ],
      "type": "VEC3"
    },
    {
      "bufferView": 2,
      "byteOffset": 1168476,
      "componentType": 5126,
      "count": 9641,
      "max": [
        1,
        1,
        1
      ],
      "min": [
        -1,
        -1,
        -1
      ],
      "type": "VEC3"
    },
    {
      "bufferView": 1,
      "byteOffset": 350928,
      "componentType": 5126,
      "count": 9641,
      "max": [
        0.99506402015686035,
        0.84226298332214355
      ],
      "min": [
        0.087090000510215759,
        -0.57793200016021729
      ],
      "type": "VEC2"
    },
    {
      "bufferView": 0,
      "byteOffset": 380580,
      "componentType": 5125,
      "count": 18222,
      "max": [
        9636
      ],
      "min": [
        0
      ],
      "type": "SCALAR"
    },
    {
      "bufferView": 2,
      "byteOffset": 1284168,
      "componentType": 5126,
      "count": 6370,
      "max": [
        173.1453857421875,
        507.034423828125,
        262.4466552734375
      ],
      "min": [
        -141.03634643554688,
        -505.8768310546875,
        -1.4095770120620728
      ],
      "type": "VEC3"
    },
    {
      "bufferView": 2,
      "byteOffset": 1360608,
      "componentType": 5126,
      "count": 6370,
      "max": [
        1,
        1,
        1
      ],
      "min": [
        -1,
        -1,
        -1
      ],
      "type": "VEC3"
    },
    {
      "bufferView": 1,
      "byteOffset": 428056,
      "componentType": 5126,
      "count": 6370,
      "max": [
        0.9214630126953125,
        0.78508001565933228
      ],
      "min": [
        0.13545399904251099,
        0.5197719931602478
      ],
      "type": "VEC2"
    },
    {
      "bufferView": 0,
      "byteOffset": 453468,
      "componentType": 5125,
      "count": 11556,
      "max": [
        6369
      ],
      "min": [
        0
      ],
      "type": "SCALAR"
    }
  ],
  "asset": {
    "extras": {
      "author": "circles_xr (https://sketchfab.com/circles_xr)",
      "license": "CC-BY-4.0 (http://creativecommons.org/licenses/by/4.0/)",
      "source": "https://sketchfab.com/3d-models/salon-bbea58435bf7471ebf2112788d2151c8",
      "title": "Salon"
    },
    "generator": "Sketchfab-9.24.0",
    "version": "2.0"
  },
  "bufferViews": [
    {
      "buffer": 0,
      "byteLength": 499692,
      "byteOffset": 0,
      "name": "floatBufferViews",
      "target": 34963
    },
    {
      "buffer": 0,
      "byteLength": 479016,
      "byteOffset": 499692,
      "byteStride": 8,
      "name": "floatBufferViews",
      "target": 34962
    },
    {
      "buffer": 0,
      "byteLength": 1437048,
      "byteOffset": 978708,
      "byteStride": 12,
      "name": "floatBufferViews",
      "target": 34962
    }
  ],
  "buffers": [
    {
      "byteLength": 2415756,
      "uri": "scene.bin"
    }
  ],
  "images": [
    {
      "uri": "textures/aiStandardSurface1SG_baseColor.png"
    },
    {
      "uri": "textures/aiStandardSurface1SG_metallicRoughness.png"
    }
  ],
  "materials": [
    {
      "doubleSided": true,
      "emissiveFactor": [
        0,
        0,
        0
      ],
      "name": "aiStandardSurface1SG",
      "pbrMetallicRoughness": {
        "baseColorFactor": [
          1,
          1,
          1,
          1
        ],
        "baseColorTexture": {
          "index": 0,
          "texCoord": 0
        },
        "metallicFactor": 1,
        "metallicRoughnessTexture": {
          "index": 1,
          "texCoord": 0
        },
        "roughnessFactor": 1
      }
    }
  ],
  "meshes": [
    {
      "primitives": [
        {
          "attributes": {
            "NORMAL": 1,
            "POSITION": 0,
            "TEXCOORD_0": 2
          },
          "indices": 3,
          "material": 0,
          "mode": 4
        }
      ]
    },
    {
      "primitives": [
        {
          "attributes": {
            "NORMAL": 5,
            "POSITION": 4,
            "TEXCOORD_0": 6
          },
          "indices": 7,
          "material": 0,
          "mode": 4
        }
      ]
    },
    {
      "primitives": [
        {
          "attributes": {
            "NORMAL": 9,
            "POSITION": 8,
            "TEXCOORD_0": 10
          },
          "indices": 11,
          "material": 0,
          "mode": 4
        }
      ]
    },
    {
      "primitives": [
        {
          "attributes": {
            "NORMAL": 13,
            "POSITION": 12,
            "TEXCOORD_0": 14
          },
          "indices": 15,
          "material": 0,
          "mode": 4
        }
      ]
    },
    {
      "primitives": [
        {
          "attributes": {
            "NORMAL": 17,
            "POSITION": 16,
            "TEXCOORD_0": 18
          },
          "indices": 19,
          "material": 0,
          "mode": 4
        }
      ]
    },
    {
      "primitives": [
        {
          "attributes": {
            "NORMAL": 21,
            "POSITION": 20,
            "TEXCOORD_0": 22
          },
          "indices": 23,
          "material": 0,
          "mode": 4
        }
      ]
    },
    {
      "primitives": [
        {
          "attributes": {
            "NORMAL": 25,
            "POSITION": 24,
            "TEXCOORD_0": 26
          },
          "indices": 27,
          "material": 0,
          "mode": 4
        }
      ]
    },
    {
      "primitives": [
        {
          "attributes": {
            "NORMAL": 29,
            "POSITION": 28,
            "TEXCOORD_0": 30
          },
          "indices": 31,
          "material": 0,
          "mode": 4
        }
      ]
    },
    {
      "primitives": [
        {
          "attributes": {
            "NORMAL": 33,
            "POSITION": 32,
            "TEXCOORD_0": 34
          },
          "indices": 35,
          "material": 0,
          "mode": 4
        }
      ]
    }
  ],
  "nodes": [
    {
      "children": [
        1
      ],
      "name": "RootNode (gltf orientation matrix)",
      "rotation": [
        -0.70710678118654746,
        -0,
        -0,
        0.70710678118654757
      ]
    },
    {
      "children": [
        2
      ],
      "matrix": [
        0.0099617950618267059,
        0,
        0,
        0,
        0,
        0.0099617950618267059,
        0,
        0,
        0,
        0,
        0.0099617950618267059,
        0,
        0,
        0,
        0,
        1
      ],
      "name": "RootNode (model correction matrix)"
    },
    {
      "children": [
        3,
        4,
        5,
        6,
        7,
        8,
        9,
        10,
        11
      ],
      "name": "salon.obj.cleaner.materialmerger.gles"
    },
    {
      "mesh": 0,
      "name": ""
    },
    {
      "mesh": 1,
      "name": ""
    },
    {
      "mesh": 2,
      "name": ""
    },
    {
      "mesh": 3,
      "name": ""
    },
    {
      "mesh": 4,
      "name": ""
    },
    {
      "mesh": 5,
      "name": ""
    },
    {
      "mesh": 6,
      "name": ""
    },
    {
      "mesh": 7,
      "name": ""
    },
    {
      "mesh": 8,
      "name": ""
    }
  ],
  "samplers": [
    {
      "magFilter": 9729,
      "minFilter": 9987,
      "wrapS": 10497,
      "wrapT": 10497
    }
  ],
  "scene": 0,
  "scenes": [
    {
      "name": "OSG_Scene",
      "nodes": [
        0
      ]
    }
  ],
  "textures": [
    {
      "sampler": 0,
      "source": 0
    },
    {
      "sampler": 0,
      "source": 1
    }
  ]
}

