{
  "accessors": [
    {
      "bufferView": 2,
      "componentType": 5126,
      "count": 2594,
      "max": [
        85.091567993164062,
        410.3270263671875,
        110.61597442626953
      ],
      "min": [
        -285.80453491210938,
        -227.60665893554688,
        81.990890502929688
      ],
      "type": "VEC3"
    },
    {
      "bufferView": 2,
      "byteOffset": 31128,
      "componentType": 5126,
      "count": 2594,
      "max": [
        0.91797852516174316,
        0.99905890226364136,
        0.99980145692825317
      ],
      "min": [
        -0.99930047988891602,
        -0.99777698516845703,
        -1
      ],
      "type": "VEC3"
    },
    {
      "bufferView": 1,
      "componentType": 5126,
      "count": 2594,
      "max": [
        0.43676099181175232,
        0.14512500166893005
      ],
      "min": [
        0.38421198725700378,
        0.093020997941493988
      ],
      "type": "VEC2"
    },
    {
      "bufferView": 0,
      "componentType": 5125,
      "count": 6813,
      "max": [
        2593
      ],
      "min": [
        0
      ],
      "type": "SCALAR"
    },
    {
      "bufferView": 2,
      "byteOffset": 62256,
      "componentType": 5126,
      "count": 1965,
      "max": [
        -255.92247009277344,
        -153.79994201660156,
        110.61597442626953
      ],
      "min": [
        -285.80453491210938,
        -227.60665893554688,
        92.417564392089844
      ],
      "type": "VEC3"
    },
    {
      "bufferView": 2,
      "byteOffset": 85836,
      "componentType": 5126,
      "count": 1965,
      "max": [
        0.91797852516174316,
        0.99905890226364136,
        0.99980145692825317
      ],
      "min": [
        -0.99930012226104736,
        -0.99777698516845703,
        -1
      ],
      "type": "VEC3"
    },
    {
      "bufferView": 1,
      "byteOffset": 20752,
      "componentType": 5126,
      "count": 1965,
      "max": [
        0.43676099181175232,
        0.14512500166893005
      ],
      "min": [
        0.38421198725700378,
        0.093020997941493988
      ],
      "type": "VEC2"
    },
    {
      "bufferView": 0,
      "byteOffset": 27252,
      "componentType": 5125,
      "count": 5139,
      "max": [
        1964
      ],
      "min": [
        0
      ],
      "type": "SCALAR"
    },
    {
      "bufferView": 2,
      "byteOffset": 109416,
      "componentType": 5126,
      "count": 104,
      "max": [
        -26.336769104003906,
        388.64056396484375,
        262.4466552734375
      ],
      "min": [
        -29.192392349243164,
        -301.35107421875,
        228.2381591796875
      ],
      "type": "VEC3"
    },
    {
      "bufferView": 2,
      "byteOffset": 110664,
      "componentType": 5126,
      "count": 104,
      "max": [
        0,
        6.0000002122251317e-06,
        1
      ],
      "min": [
        0,
        -6.0000002122251317e-06,
        -1
      ],
      "type": "VEC3"
    },
    {
      "bufferView": 1,
      "byteOffset": 36472,
      "componentType": 5126,
      "count": 104,
      "max": [
        0,
        0
      ],
      "min": [
        0,
        0
      ],
      "type": "VEC2"
    },
    {
      "bufferView": 0,
      "byteOffset": 47808,
      "componentType": 5125,
      "count": 288,
      "max": [
        103
      ],
      "min": [
        0
      ],
      "type": "SCALAR"
    },
    {
      "bufferView": 2,
      "byteOffset": 111912,
      "componentType": 5126,
      "count": 6254,
      "max": [
        94.072723388671875,
        503.79144287109375,
        206.08740234375
      ],
      "min": [
        -295.2596435546875,
        -245.26223754882812,
        82.513504028320312
      ],
      "type": "VEC3"
    },
    {
      "bufferView": 2,
      "byteOffset": 186960,
      "componentType": 5126,
      "count": 6254,
      "max": [
        1,
        1,
        1
      ],
      "min": [
        -1,
        -1,
        -1
      ],
      "type": "VEC3"
    },
    {
      "bufferView": 1,
      "byteOffset": 37304,
      "componentType": 5126,
      "count": 6254,
      "max": [
        0.99970799684524536,
        0.96711701154708862
      ],
      "min": [
        0.0032760000322014093,
        0.00088800000958144665
      ],
      "type": "VEC2"
    },
    {
      "bufferView": 0,
      "byteOffset": 48960,
      "componentType": 5125,
      "count": 14358,
      "max": [
        6253
      ],
      "min": [
        0
      ],
      "type": "SCALAR"
    },
    {
      "bufferView": 2,
      "byteOffset": 262008,
      "componentType": 5126,
      "count": 9900,
      "max": [
        232.601806640625,
        487.22482299804688,
        251.65476989746094
      ],
      "min": [
        -326.65890502929688,
        -400.56423950195312,
        -0.00012799999967683107
      ],
      "type": "VEC3"
    },
    {
      "bufferView": 2,
      "byteOffset": 380808,
      "componentType": 5126,
      "count": 9900,
      "max": [
        1,
        1,
        1
      ],
      "min": [
        -1,
        -1,
        -1
      ],
      "type": "VEC3"
    },
    {
      "bufferView": 1,
      "byteOffset": 87336,
      "componentType": 5126,
      "count": 9900,
      "max": [
        0.99383097887039185,
        0.99735897779464722
      ],
      "min": [
        0.58422499895095825,
        0.010009000077843666
      ],
      "type": "VEC2"
    },
    {
      "bufferView": 0,
      "byteOffset": 106392,
      "componentType": 5125,
      "count": 15042,
      "max": [
        9899
      ],
      "min": [
        0
      ],
      "type": "SCALAR"
    },
    {
      "bufferView": 2,
      "byteOffset": 499608,
      "componentType": 5126,
      "count": 9097,
      "max": [
        199.94474792480469,
        504.68008422851562,
        253.6861572265625
      ],
      "min": [
        -303.81707763671875,
        -396.4326171875,
        -4.0883002281188965
      ],
      "type": "VEC3"
    },
    {
      "bufferView": 2,
      "byteOffset": 608772,
      "componentType": 5126,
      "count": 9097,
      "max": [
        1,
        1,
        1
      ],
      "min": [
        -1,
        -1,
        -1
      ],
      "type": "VEC3"
    },
    {
      "bufferView": 1,
      "byteOffset": 166536,
      "componentType": 5126,
      "count": 9097,
      "max": [
        0.98080897331237793,
        1
      ],
      "min": [
        0.0032760000322014093,
        0.00088800000958144665
      ],
      "type": "VEC2"
    },
    {
      "bufferView": 0,
      "byteOffset": 166560,
      "componentType": 5125,
      "count": 17493,
      "max": [
        9096
      ],
      "min": [
        0
      ],
      "type": "SCALAR"
    },
    {
      "bufferView": 2,
      "byteOffset": 717936,
      "componentType": 5126,
      "count": 8597,
      "max": [
        200.80987548828125,
        486.35214233398438,
        236.51716613769531
      ],
      "min": [
        -298.79403686523438,
        -521.51287841796875,
        -8.1999998656101525e-05
      ],
      "type": "VEC3"
    },
    {
      "bufferView": 2,
      "byteOffset": 821100,
      "componentType": 5126,
      "count": 8597,
      "max": [
        1,
        1,
        1
      ],
      "min": [
        -1,
        -1,
        -1
      ],
      "type": "VEC3"
    },
    {
      "bufferView": 1,
      "byteOffset": 239312,
      "componentType": 5126,
      "count": 8597,
      "max": [
        0.98516702651977539,
        0.65678602457046509
      ],
      "min": [
        0.0032760000322014093,
        0.00088800000958144665
      ],
      "type": "VEC2"
    },
    {
      "bufferView": 0,
      "byteOffset": 236532,
      "componentType": 5125,
      "count": 21918,
      "max": [
        8596
      ],
      "min": [
        0
      ],
      "type": "SCALAR"
    },
    {
      "bufferView": 2,
      "byteOffset": 924264,
      "componentType": 5126,
      "count": 9905,
      "max": [
        200.00022888183594,
        503.56771850585938,
        270.00018310546875
      ],
      "min": [
        -301.017333984375,
        -496.43270874023438,
        -6.2143769264221191
      ],
      "type": "VEC3"
    },
    {
      "bufferView": 2,
      "byteOffset": 1043124,
      "componentType": 5126,
      "count": 9905,
      "max": [
        1,
        1,
        1
      ],
      "min": [
        -1,
        -1,
        -1
      ],
      "type": "VEC3"
    },
    {
      "bufferView": 1,
      "byteOffset": 308088,
      "componentType": 5126,
      "count": 9905,
      "max": [
        0.99594497680664062,
        0.99708801507949829
      ],
      "min": [
        0.0048270002007484436,
        0.0014009999576956034
      ],
      "type": "VEC2"
    },
    {
      "bufferView": 0,
      "byteOffset": 324204,
      "componentType": 5125,
      "count": 20268,
      "max": [
        9904
      ],
      "min": [
        0
      ],
      "type": "SCALAR"
    },
    {
      "bufferView": 2,
      "byteOffset": 1161984,
      "componentType": 5126,
      "count": 9638,
      "max": [
        208.18563842773438,
        516.48016357421875,
        275.326904296875
      ],
      "min": [
        -319.3875732421875,
        -507.71310424804688,
        -1.4095770120620728
      ],
      "type": "VEC3"
    },
    {
      "bufferView": 2,
      "byteOffset": 1277640,
      "componentType": 5126,
      "count": 9638,
      "max": [
        1,
        1,
        1
      ],
      "min": [
        -1,
        -1,
        -1
      ],
      "type": "VEC3"
    },
    {
      "bufferView": 1,
      "byteOffset": 387328,
      "componentType": 5126,
      "count": 9638,
      "max": [
        0.87794798612594604,
        0.84226298332214355
      ],
      "min": [
        0.0076720002107322216,
        0.0033939999993890524
      ],
      "type": "VEC2"
    },
    {
      "bufferView": 0,
      "byteOffset": 405276,
      "componentType": 5125,
      "count": 16998,
      "max": [
        9633
      ],
      "min": [
        0
      ],
      "type": "SCALAR"
    },
    {
      "bufferView": 2,
      "byteOffset": 1393296,
      "componentType": 5126,
      "count": 3672,
      "max": [
        200.00019836425781,
        507.034423828125,
        262.4466552734375
      ],
      "min": [
        -300,
        -505.8768310546875,
        -0.42081400752067566
      ],
      "type": "VEC3"
    },
    {
      "bufferView": 2,
      "byteOffset": 1437360,
      "componentType": 5126,
      "count": 3672,
      "max": [
        1,
        1,
        1
      ],
      "min": [
        -1,
        -1,
        -1
      ],
      "type": "VEC3"
    },
    {
      "bufferView": 1,
      "byteOffset": 464432,
      "componentType": 5126,
      "count": 3672,
      "max": [
        0.99506402015686035,
        0.78508001565933228
      ],
      "min": [
        0.13545399904251099,
        0.21851100027561188
      ],
      "type": "VEC2"
    },
    {
      "bufferView": 0,
      "byteOffset": 473268,
      "componentType": 5125,
      "count": 6558,
      "max": [
        3671
      ],
      "min": [
        0
      ],
      "type": "SCALAR"
    }
  ],
  "asset": {
    "extras": {
      "author": "circles_xr (https://sketchfab.com/circles_xr)",
      "license": "CC-BY-4.0 (http://creativecommons.org/licenses/by/4.0/)",
      "source": "https://sketchfab.com/3d-models/salon-bbea58435bf7471ebf2112788d2151c8",
      "title": "Salon"
    },
    "generator": "Sketchfab-9.24.0",
    "version": "2.0"
  },
  "bufferViews": [
    {
      "buffer": 0,
      "byteLength": 499500,
      "byteOffset": 0,
      "name": "floatBufferViews",
      "target": 34963
    },
    {
      "buffer": 0,
      "byteLength": 493808,
      "byteOffset": 499500,
      "byteStride": 8,
      "name": "floatBufferViews",
      "target": 34962
    },
    {
      "buffer": 0,
      "byteLength": 1481424,
      "byteOffset": 993308,
      "byteStride": 12,
      "name": "floatBufferViews",
      "target": 34962
    }
  ],
  "buffers": [
    {
      "byteLength": 2474732,
      "uri": "scene.bin"
    }
  ],
  "images": [
    {
      "uri": "textures/initialShadingGroup_baseColor.jpeg"
    },
    {
      "uri": "textures/initialShadingGroup_metallicRoughness.png"
    }
  ],
  "materials": [
    {
      "doubleSided": true,
      "name": "initialShadingGroup",
      "pbrMetallicRoughness": {
        "baseColorFactor": [
          1,
          1,
          1,
          1
        ],
        "baseColorTexture": {
          "index": 0,
          "texCoord": 0
        },
        "metallicFactor": 1,
        "metallicRoughnessTexture": {
          "index": 1,
          "texCoord": 0
        },
        "roughnessFactor": 1
      }
    }
  ],
  "meshes": [
    {
      "primitives": [
        {
          "attributes": {
            "NORMAL": 1,
            "POSITION": 0,
            "TEXCOORD_0": 2
          },
          "indices": 3,
          "material": 0,
          "mode": 4
        }
      ]
    },
    {
      "primitives": [
        {
          "attributes": {
            "NORMAL": 5,
            "POSITION": 4,
            "TEXCOORD_0": 6
          },
          "indices": 7,
          "material": 0,
          "mode": 4
        }
      ]
    },
    {
      "primitives": [
        {
          "attributes": {
            "NORMAL": 9,
            "POSITION": 8,
            "TEXCOORD_0": 10
          },
          "indices": 11,
          "material": 0,
          "mode": 4
        }
      ]
    },
    {
      "primitives": [
        {
          "attributes": {
            "NORMAL": 13,
            "POSITION": 12,
            "TEXCOORD_0": 14
          },
          "indices": 15,
          "material": 0,
          "mode": 4
        }
      ]
    },
    {
      "primitives": [
        {
          "attributes": {
            "NORMAL": 17,
            "POSITION": 16,
            "TEXCOORD_0": 18
          },
          "indices": 19,
          "material": 0,
          "mode": 4
        }
      ]
    },
    {
      "primitives": [
        {
          "attributes": {
            "NORMAL": 21,
            "POSITION": 20,
            "TEXCOORD_0": 22
          },
          "indices": 23,
          "material": 0,
          "mode": 4
        }
      ]
    },
    {
      "primitives": [
        {
          "attributes": {
            "NORMAL": 25,
            "POSITION": 24,
            "TEXCOORD_0": 26
          },
          "indices": 27,
          "material": 0,
          "mode": 4
        }
      ]
    },
    {
      "primitives": [
        {
          "attributes": {
            "NORMAL": 29,
            "POSITION": 28,
            "TEXCOORD_0": 30
          },
          "indices": 31,
          "material": 0,
          "mode": 4
        }
      ]
    },
    {
      "primitives": [
        {
          "attributes": {
            "NORMAL": 33,
            "POSITION": 32,
            "TEXCOORD_0": 34
          },
          "indices": 35,
          "material": 0,
          "mode": 4
        }
      ]
    },
    {
      "primitives": [
        {
          "attributes": {
            "NORMAL": 37,
            "POSITION": 36,
            "TEXCOORD_0": 38
          },
          "indices": 39,
          "material": 0,
          "mode": 4
        }
      ]
    }
  ],
  "nodes": [
    {
      "children": [
        1
      ],
      "name": "RootNode (gltf orientation matrix)",
      "rotation": [
        -0.70710678118654746,
        -0,
        -0,
        0.70710678118654757
      ]
    },
    {
      "children": [
        2
      ],
      "matrix": [
        0.0082448637112975121,
        0,
        0,
        0,
        0,
        0.0082448637112975121,
        0,
        0,
        0,
        0,
        0.0082448637112975121,
        0,
        0,
        0,
        0,
        1
      ],
      "name": "RootNode (model correction matrix)"
    },
    {
      "children": [
        3,
        4,
        5,
        6,
        7,
        8,
        9,
        10,
        11,
        12
      ],
      "name": "Salon_OLD_EDIT.obj.cleaner.materialmerger.gles"
    },
    {
      "mesh": 0,
      "name": ""
    },
    {
      "mesh": 1,
      "name": ""
    },
    {
      "mesh": 2,
      "name": ""
    },
    {
      "mesh": 3,
      "name": ""
    },
    {
      "mesh": 4,
      "name": ""
    },
    {
      "mesh": 5,
      "name": ""
    },
    {
      "mesh": 6,
      "name": ""
    },
    {
      "mesh": 7,
      "name": ""
    },
    {
      "mesh": 8,
      "name": ""
    },
    {
      "mesh": 9,
      "name": ""
    }
  ],
  "samplers": [
    {
      "magFilter": 9729,
      "minFilter": 9987,
      "wrapS": 10497,
      "wrapT": 10497
    }
  ],
  "scene": 0,
  "scenes": [
    {
      "name": "OSG_Scene",
      "nodes": [
        0
      ]
    }
  ],
  "textures": [
    {
      "sampler": 0,
      "source": 0
    },
    {
      "sampler": 0,
      "source": 1
    }
  ]
}

