{
	"asset":{
		"generator":"Khronos glTF Blender I/O v4.3.47",
		"version":"2.0"
	},
	"scene":0,
	"scenes":[
		{
			"name":"Scene",
			"nodes":[
				8
			]
		}
	],
	"nodes":[
		{
			"mesh":0,
			"name":"pCylinder1.006",
			"translation":[
				0,
				0,
				-2.3081665858626366e-06
			]
		},
		{
			"children":[
				0
			],
			"name":"pCylinder1.005",
			"rotation":[
				0.0004069575807079673,
				0.0007378736045211554,
				0.5692252516746521,
				0.822181224822998
			],
			"scale":[
				0.14824698865413666,
				3.2808637619018555,
				0.14824695885181427
			],
			"translation":[
				-7.031895160675049,
				1.5719348192214966,
				-11.340143203735352
			]
		},
		{
			"mesh":1,
			"name":"pCylinder2.006"
		},
		{
			"children":[
				2
			],
			"name":"pCylinder2.005",
			"rotation":[
				0,
				0,
				0.5629997849464417,
				0.8264570236206055
			],
			"scale":[
				0.14824692904949188,
				3.2808635234832764,
				0.14824695885181427
			],
			"translation":[
				-7.031895160675049,
				1.5719348192214966,
				-13.59445571899414
			]
		},
		{
			"mesh":2,
			"name":"sled.006"
		},
		{
			"children":[
				4
			],
			"name":"sled.005",
			"scale":[
				0.8701498508453369,
				1.2698757648468018,
				1
			],
			"translation":[
				-5.813913822174072,
				-0.5145137310028076,
				-12.467455863952637
			]
		},
		{
			"mesh":3,
			"name":"sled2_skates_polySurface3.001"
		},
		{
			"children":[
				6
			],
			"name":"sled2_skates_polySurface3",
			"translation":[
				0,
				0,
				-15.041929244995117
			]
		},
		{
			"children":[
				1,
				3,
				5,
				7
			],
			"name":"sled2",
			"scale":[
				0.009999999776482582,
				0.009999999776482582,
				0.009999999776482582
			],
			"translation":[
				0,
				0,
				0.1515483260154724
			]
		}
	],
	"materials":[
		{
			"name":"sled5_1001.007.1001",
			"pbrMetallicRoughness":{
				"baseColorTexture":{
					"index":0
				},
				"metallicRoughnessTexture":{
					"index":1
				}
			}
		},
		{
			"name":"sled5_1001.007.1001",
			"pbrMetallicRoughness":{
				"baseColorTexture":{
					"index":0
				},
				"metallicRoughnessTexture":{
					"index":1
				}
			}
		},
		{
			"name":"sled5_1001.007.1001",
			"pbrMetallicRoughness":{
				"baseColorTexture":{
					"index":0
				},
				"metallicRoughnessTexture":{
					"index":1
				}
			}
		},
		{
			"name":"sled5_1001.007.1001",
			"pbrMetallicRoughness":{
				"baseColorTexture":{
					"index":0
				},
				"metallicRoughnessTexture":{
					"index":1
				}
			}
		}
	],
	"meshes":[
		{
			"name":"pCylinder1.007",
			"primitives":[
				{
					"attributes":{
						"POSITION":0,
						"NORMAL":1,
						"TEXCOORD_0":2
					},
					"indices":3,
					"material":0
				}
			]
		},
		{
			"name":"pCylinder2.007",
			"primitives":[
				{
					"attributes":{
						"POSITION":4,
						"NORMAL":5,
						"TEXCOORD_0":6
					},
					"indices":3,
					"material":1
				}
			]
		},
		{
			"name":"sled.011",
			"primitives":[
				{
					"attributes":{
						"POSITION":7,
						"NORMAL":8,
						"TEXCOORD_0":9
					},
					"indices":10,
					"material":2
				}
			]
		},
		{
			"name":"sled2_skates_polySurface3",
			"primitives":[
				{
					"attributes":{
						"POSITION":11,
						"NORMAL":12,
						"TEXCOORD_0":13
					},
					"indices":14,
					"material":3
				}
			]
		}
	],
	"textures":[
		{
			"sampler":0,
			"source":0
		},
		{
			"sampler":0,
			"source":1
		}
	],
	"images":[
		{
			"mimeType":"image/jpeg",
			"name":"sled5_baseColor_1001",
			"uri":"textures/sled5_baseColor_1001.jpg"
		},
		{
			"mimeType":"image/jpeg",
			"name":"sled5_occlusionRoughnessMetallic_1001",
			"uri":"textures/sled5_occlusionRoughnessMetallic_1001.jpg"
		}
	],
	"accessors":[
		{
			"bufferView":0,
			"componentType":5126,
			"count":98,
			"max":[
				0.9999990463256836,
				0.48586535453796387,
				10.549253463745117
			],
			"min":[
				-13.850082397460938,
				-1.000000238418579,
				-1
			],
			"type":"VEC3"
		},
		{
			"bufferView":1,
			"componentType":5126,
			"count":98,
			"type":"VEC3"
		},
		{
			"bufferView":2,
			"componentType":5126,
			"count":98,
			"type":"VEC2"
		},
		{
			"bufferView":3,
			"componentType":5123,
			"count":240,
			"type":"SCALAR"
		},
		{
			"bufferView":4,
			"componentType":5126,
			"count":98,
			"max":[
				1.0000028610229492,
				1.000000238418579,
				1.0000019073486328
			],
			"min":[
				-1.0000009536743164,
				-1,
				-0.9999980926513672
			],
			"type":"VEC3"
		},
		{
			"bufferView":5,
			"componentType":5126,
			"count":98,
			"type":"VEC3"
		},
		{
			"bufferView":6,
			"componentType":5126,
			"count":98,
			"type":"VEC2"
		},
		{
			"bufferView":7,
			"componentType":5126,
			"count":498,
			"max":[
				11.424530029296875,
				2.069770336151123,
				2.3269386291503906
			],
			"min":[
				1.938484787940979,
				0.5830239653587341,
				-2.3269381523132324
			],
			"type":"VEC3"
		},
		{
			"bufferView":8,
			"componentType":5126,
			"count":498,
			"type":"VEC3"
		},
		{
			"bufferView":9,
			"componentType":5126,
			"count":498,
			"type":"VEC2"
		},
		{
			"bufferView":10,
			"componentType":5123,
			"count":1944,
			"type":"SCALAR"
		},
		{
			"bufferView":11,
			"componentType":5126,
			"count":198,
			"max":[
				3.430607318878174,
				0.2265949249267578,
				3.730586290359497
			],
			"min":[
				-3.430607557296753,
				0.028668761253356934,
				1.3591936826705933
			],
			"type":"VEC3"
		},
		{
			"bufferView":12,
			"componentType":5126,
			"count":198,
			"type":"VEC3"
		},
		{
			"bufferView":13,
			"componentType":5126,
			"count":198,
			"type":"VEC2"
		},
		{
			"bufferView":14,
			"componentType":5123,
			"count":672,
			"type":"SCALAR"
		}
	],
	"bufferViews":[
		{
			"buffer":0,
			"byteLength":1176,
			"byteOffset":0,
			"target":34962
		},
		{
			"buffer":0,
			"byteLength":1176,
			"byteOffset":1176,
			"target":34962
		},
		{
			"buffer":0,
			"byteLength":784,
			"byteOffset":2352,
			"target":34962
		},
		{
			"buffer":0,
			"byteLength":480,
			"byteOffset":3136,
			"target":34963
		},
		{
			"buffer":0,
			"byteLength":1176,
			"byteOffset":3616,
			"target":34962
		},
		{
			"buffer":0,
			"byteLength":1176,
			"byteOffset":4792,
			"target":34962
		},
		{
			"buffer":0,
			"byteLength":784,
			"byteOffset":5968,
			"target":34962
		},
		{
			"buffer":0,
			"byteLength":5976,
			"byteOffset":6752,
			"target":34962
		},
		{
			"buffer":0,
			"byteLength":5976,
			"byteOffset":12728,
			"target":34962
		},
		{
			"buffer":0,
			"byteLength":3984,
			"byteOffset":18704,
			"target":34962
		},
		{
			"buffer":0,
			"byteLength":3888,
			"byteOffset":22688,
			"target":34963
		},
		{
			"buffer":0,
			"byteLength":2376,
			"byteOffset":26576,
			"target":34962
		},
		{
			"buffer":0,
			"byteLength":2376,
			"byteOffset":28952,
			"target":34962
		},
		{
			"buffer":0,
			"byteLength":1584,
			"byteOffset":31328,
			"target":34962
		},
		{
			"buffer":0,
			"byteLength":1344,
			"byteOffset":32912,
			"target":34963
		}
	],
	"samplers":[
		{
			"magFilter":9729,
			"minFilter":9987
		}
	],
	"buffers":[
		{
			"byteLength":34256,
			"uri":"sled2.bin"
		}
	]
}
