{
    "asset" : {
        "generator" : "Khronos glTF Blender I/O v1.5.17",
        "version" : "2.0"
    },
    "scene" : 0,
    "scenes" : [
        {
            "name" : "Scene",
            "nodes" : [
                2
            ]
        }
    ],
    "nodes" : [
        {
            "mesh" : 0,
            "name" : "ujnjdj_12345:main_Cube1.001"
        },
        {
            "children" : [
                0
            ],
            "name" : "ujnjdj_12345:main_Cube1"
        },
        {
            "children" : [
                1
            ],
            "name" : "Wallet.obj"
        }
    ],
    "materials" : [
        {
            "name" : "initialShadingGroup",
            "normalTexture" : {
                "index" : 0
            },
            "occlusionTexture" : {
                "index" : 1
            },
            "pbrMetallicRoughness" : {
                "baseColorTexture" : {
                    "index" : 2
                },
                "metallicRoughnessTexture" : {
                    "index" : 1
                }
            }
        }
    ],
    "meshes" : [
        {
            "name" : "ujnjdj_12345:main_Cube1",
            "primitives" : [
                {
                    "attributes" : {
                        "POSITION" : 0,
                        "NORMAL" : 1,
                        "TEXCOORD_0" : 2
                    },
                    "indices" : 3,
                    "material" : 0
                }
            ]
        }
    ],
    "textures" : [
        {
            "sampler" : 0,
            "source" : 0
        },
        {
            "sampler" : 0,
            "source" : 1
        },
        {
            "sampler" : 0,
            "source" : 2
        }
    ],
    "images" : [
        {
            "mimeType" : "image/jpeg",
            "name" : "initialShadingGroup_normal",
            "uri" : "textures/initialShadingGroup_normal.jpg"
        },
        {
            "mimeType" : "image/jpeg",
            "name" : "initialShadingGroup_occlusionRoughnessMetallic",
            "uri" : "textures/initialShadingGroup_occlusionRoughnessMetallic.jpg"
        },
        {
            "mimeType" : "image/jpeg",
            "name" : "initialShadingGroup_baseColor",
            "uri" : "textures/initialShadingGroup_baseColor.jpg"
        }
    ],
    "accessors" : [
        {
            "bufferView" : 0,
            "componentType" : 5126,
            "count" : 848,
            "max" : [
                0.04061831906437874,
                0.050132133066654205,
                0.013569101691246033
            ],
            "min" : [
                -0.04101550951600075,
                -0.06276969611644745,
                -0.0001276210241485387
            ],
            "type" : "VEC3"
        },
        {
            "bufferView" : 1,
            "componentType" : 5126,
            "count" : 848,
            "type" : "VEC3"
        },
        {
            "bufferView" : 2,
            "componentType" : 5126,
            "count" : 848,
            "type" : "VEC2"
        },
        {
            "bufferView" : 3,
            "componentType" : 5123,
            "count" : 2964,
            "type" : "SCALAR"
        }
    ],
    "bufferViews" : [
        {
            "buffer" : 0,
            "byteLength" : 10176,
            "byteOffset" : 0
        },
        {
            "buffer" : 0,
            "byteLength" : 10176,
            "byteOffset" : 10176
        },
        {
            "buffer" : 0,
            "byteLength" : 6784,
            "byteOffset" : 20352
        },
        {
            "buffer" : 0,
            "byteLength" : 5928,
            "byteOffset" : 27136
        }
    ],
    "samplers" : [
        {
            "magFilter" : 9729,
            "minFilter" : 9987
        }
    ],
    "buffers" : [
        {
            "byteLength" : 33064,
            "uri" : "scene.bin"
        }
    ]
}
