{
    "asset" : {
        "generator" : "Khronos glTF Blender I/O v1.5.17",
        "version" : "2.0"
    },
    "scene" : 0,
    "scenes" : [
        {
            "name" : "Scene",
            "nodes" : [
                2
            ]
        }
    ],
    "nodes" : [
        {
            "mesh" : 0,
            "name" : "polySurface101"
        },
        {
            "children" : [
                0
            ],
            "name" : "g polySurface101"
        },
        {
            "children" : [
                1
            ],
            "name" : "TestWall_ALL.obj"
        }
    ],
    "materials" : [
        {
            "name" : "lambert6SG",
            "normalTexture" : {
                "index" : 0
            },
            "occlusionTexture" : {
                "index" : 1
            },
            "pbrMetallicRoughness" : {
                "baseColorTexture" : {
                    "index" : 2
                },
                "metallicRoughnessTexture" : {
                    "index" : 1
                }
            }
        }
    ],
    "meshes" : [
        {
            "name" : "polySurface101",
            "primitives" : [
                {
                    "attributes" : {
                        "POSITION" : 0,
                        "NORMAL" : 1,
                        "TEXCOORD_0" : 2
                    },
                    "indices" : 3,
                    "material" : 0
                }
            ]
        }
    ],
    "textures" : [
        {
            "sampler" : 0,
            "source" : 0
        },
        {
            "sampler" : 0,
            "source" : 1
        },
        {
            "sampler" : 0,
            "source" : 2
        }
    ],
    "images" : [
        {
            "mimeType" : "image/png",
            "name" : "lambert6SG_normal",
            "uri" : "textures/lambert6SG_normal.png"
        },
        {
            "mimeType" : "image/png",
            "name" : "lambert6SG_occlusionRoughnessMetallic",
            "uri" : "textures/lambert6SG_occlusionRoughnessMetallic.png"
        },
        {
            "mimeType" : "image/jpeg",
            "name" : "lambert6SG_baseColor",
            "uri" : "textures/lambert6SG_baseColor.jpg"
        }
    ],
    "accessors" : [
        {
            "bufferView" : 0,
            "componentType" : 5126,
            "count" : 7587,
            "max" : [
                -2.6006176471710205,
                1.8517791032791138,
                5.999994277954102
            ],
            "min" : [
                -5,
                -0.0036820219829678535,
                -4.998039245605469
            ],
            "type" : "VEC3"
        },
        {
            "bufferView" : 1,
            "componentType" : 5126,
            "count" : 7587,
            "type" : "VEC3"
        },
        {
            "bufferView" : 2,
            "componentType" : 5126,
            "count" : 7587,
            "type" : "VEC2"
        },
        {
            "bufferView" : 3,
            "componentType" : 5123,
            "count" : 14076,
            "type" : "SCALAR"
        }
    ],
    "bufferViews" : [
        {
            "buffer" : 0,
            "byteLength" : 91044,
            "byteOffset" : 0
        },
        {
            "buffer" : 0,
            "byteLength" : 91044,
            "byteOffset" : 91044
        },
        {
            "buffer" : 0,
            "byteLength" : 60696,
            "byteOffset" : 182088
        },
        {
            "buffer" : 0,
            "byteLength" : 28152,
            "byteOffset" : 242784
        }
    ],
    "samplers" : [
        {
            "magFilter" : 9729,
            "minFilter" : 9987
        }
    ],
    "buffers" : [
        {
            "byteLength" : 270936,
            "uri" : "scene.bin"
        }
    ]
}
