{"accessors":[{"bufferView":0,"componentType":5125,"count":648,"type":"SCALAR"},{"bufferView":1,"componentType":5126,"count":192,"max":[0.51697003841400146,1,0.27034845948219299],"min":[-0.51697003841400146,-1,-0.27034845948219299],"type":"VEC3"},{"bufferView":2,"componentType":5126,"count":192,"type":"VEC3"},{"bufferView":3,"componentType":5126,"count":192,"type":"VEC2"}],"asset":{"generator":"Substance Painter 2017.4.1","version":"2.0"},"bufferViews":[{"buffer":0,"byteLength":2592,"byteOffset":0,"target":34963},{"buffer":0,"byteLength":2304,"byteOffset":2592,"target":34962},{"buffer":0,"byteLength":2304,"byteOffset":4896,"target":34962},{"buffer":0,"byteLength":1536,"byteOffset":7200,"target":34962}],"buffers":[{"byteLength":8736,"uri":"UserHead.bin"}],"images":[{"uri":"initialShadingGroup_baseColor.png"},{"uri":"initialShadingGroup_occlusionRoughnessMetallic.png"},{"uri":"initialShadingGroup_normal.png"}],"materials":[{"alphaMode":"OPAQUE","name":"initialShadingGroup","normalTexture":{"index":2},"occlusionTexture":{"index":1},"pbrMetallicRoughness":{"baseColorTexture":{"index":0},"metallicRoughnessTexture":{"index":1}}}],"meshes":[{"name":"polySurface5","primitives":[{"attributes":{"NORMAL":2,"POSITION":1,"TEXCOORD_0":3},"indices":0,"material":0,"mode":4}]}],"nodes":[{"children":[1],"name":"Head_L.obj","scale":[0.45631849765777588,0.45631849765777588,0.45631849765777588],"translation":[0,-0.2936515212059021,0.023120999336242676]},{"children":[2],"name":"g polySurface5"},{"mesh":0,"name":"polySurface5"}],"samplers":[{"magFilter":9729,"minFilter":9985,"wrapS":10497,"wrapT":10497}],"scene":0,"scenes":[{"name":"Scene","nodes":[0]}],"textures":[{"sampler":0,"source":0},{"sampler":0,"source":1},{"sampler":0,"source":2}]}
