{
  "accessors": [
    {
      "bufferView": 2,
      "componentType": 5126,
      "count": 17481,
      "max": [
        0.3877798914909363,
        0.5028839111328125,
        0.3220830261707306
      ],
      "min": [
        -0.4519001245498657,
        -0.4007098972797394,
        -0.31793996691703796
      ],
      "type": "VEC3"
    },
    {
      "bufferView": 2,
      "byteOffset": 209772,
      "componentType": 5126,
      "count": 17481,
      "max": [
        1.0,
        1.0,
        1.0
      ],
      "min": [
        -1.0,
        -1.0,
        -1.0
      ],
      "type": "VEC3"
    },
    {
      "bufferView": 1,
      "componentType": 5126,
      "count": 17481,
      "max": [
        1.0,
        1.1510339975357056
      ],
      "min": [
        0.0,
        -0.06233099848031998
      ],
      "type": "VEC2"
    },
    {
      "bufferView": 0,
      "componentType": 5125,
      "count": 76290,
      "type": "SCALAR"
    },
    {
      "bufferView": 2,
      "byteOffset": 419544,
      "componentType": 5126,
      "count": 1133,
      "max": [
        0.36738795042037964,
        -0.043134838342666626,
        0.19039499759674072
      ],
      "min": [
        -0.3075939416885376,
        -0.25663989782333374,
        -0.1857839971780777
      ],
      "type": "VEC3"
    },
    {
      "bufferView": 2,
      "byteOffset": 433140,
      "componentType": 5126,
      "count": 1133,
      "max": [
        0.998596727848053,
        0.9972602128982544,
        0.9985859394073486
      ],
      "min": [
        -0.9998422265052795,
        -0.9984471797943115,
        -0.9985878467559814
      ],
      "type": "VEC3"
    },
    {
      "bufferView": 1,
      "byteOffset": 139848,
      "componentType": 5126,
      "count": 1133,
      "max": [
        0.875,
        1.0
      ],
      "min": [
        0.125,
        0.0
      ],
      "type": "VEC2"
    },
    {
      "bufferView": 0,
      "byteOffset": 305160,
      "componentType": 5125,
      "count": 5628,
      "type": "SCALAR"
    },
    {
      "bufferView": 2,
      "byteOffset": 446736,
      "componentType": 5126,
      "count": 616,
      "max": [
        0.2444210648536682,
        -0.23992085456848145,
        0.19052399694919586
      ],
      "min": [
        -0.3075939416885376,
        -0.26172584295272827,
        -0.18591199815273285
      ],
      "type": "VEC3"
    },
    {
      "bufferView": 2,
      "byteOffset": 454128,
      "componentType": 5126,
      "count": 616,
      "max": [
        0.9964629411697388,
        0.7222504615783691,
        0.9964739084243774
      ],
      "min": [
        -0.9998422265052795,
        -0.9969173669815063,
        -0.9975312352180481
      ],
      "type": "VEC3"
    },
    {
      "bufferView": 1,
      "byteOffset": 148912,
      "componentType": 5126,
      "count": 616,
      "max": [
        0.3971239924430847,
        0.993565022945404
      ],
      "min": [
        0.125,
        0.0
      ],
      "type": "VEC2"
    },
    {
      "bufferView": 0,
      "byteOffset": 327672,
      "componentType": 5125,
      "count": 2988,
      "type": "SCALAR"
    },
    {
      "bufferView": 2,
      "byteOffset": 461520,
      "componentType": 5126,
      "count": 10408,
      "max": [
        0.45200496912002563,
        -0.32311388850212097,
        0.34224602580070496
      ],
      "min": [
        -0.4589499831199646,
        -0.47238388657569885,
        -0.3422459661960602
      ],
      "type": "VEC3"
    },
    {
      "bufferView": 2,
      "byteOffset": 586416,
      "componentType": 5126,
      "count": 10408,
      "max": [
        0.9980024695396423,
        0.9983043074607849,
        0.9838308095932007
      ],
      "min": [
        -0.997368335723877,
        -0.9977741837501526,
        -0.9955286383628845
      ],
      "type": "VEC3"
    },
    {
      "bufferView": 1,
      "byteOffset": 153840,
      "componentType": 5126,
      "count": 10408,
      "max": [
        0.7989829778671265,
        1.0
      ],
      "min": [
        0.12495700269937515,
        0.0
      ],
      "type": "VEC2"
    },
    {
      "bufferView": 0,
      "byteOffset": 339624,
      "componentType": 5125,
      "count": 48192,
      "type": "SCALAR"
    },
    {
      "bufferView": 2,
      "byteOffset": 711312,
      "componentType": 5126,
      "count": 3054,
      "max": [
        0.459464967250824,
        -0.05635184794664383,
        0.35304901003837585
      ],
      "min": [
        -0.4594719707965851,
        -0.47618988156318665,
        -0.3530489504337311
      ],
      "type": "VEC3"
    },
    {
      "bufferView": 2,
      "byteOffset": 747960,
      "componentType": 5126,
      "count": 3054,
      "max": [
        0.9999771118164063,
        1.0,
        0.9999666213989258
      ],
      "min": [
        -0.9999768733978271,
        -1.0,
        -0.999966561794281
      ],
      "type": "VEC3"
    },
    {
      "bufferView": 1,
      "byteOffset": 237104,
      "componentType": 5126,
      "count": 3054,
      "max": [
        1.0,
        1.0
      ],
      "min": [
        0.0,
        0.0
      ],
      "type": "VEC2"
    },
    {
      "bufferView": 0,
      "byteOffset": 532392,
      "componentType": 5125,
      "count": 16344,
      "type": "SCALAR"
    },
    {
      "bufferView": 2,
      "byteOffset": 784608,
      "componentType": 5126,
      "count": 13623,
      "max": [
        0.4861599802970886,
        -0.29273489117622375,
        0.3423810303211212
      ],
      "min": [
        -0.4861599802970886,
        -0.5028839111328125,
        -0.3423819839954376
      ],
      "type": "VEC3"
    },
    {
      "bufferView": 2,
      "byteOffset": 948084,
      "componentType": 5126,
      "count": 13623,
      "max": [
        0.9999662637710571,
        1.0,
        0.9944011569023132
      ],
      "min": [
        -0.9999662041664124,
        -1.0,
        -0.9946221709251404
      ],
      "type": "VEC3"
    },
    {
      "bufferView": 1,
      "byteOffset": 261536,
      "componentType": 5126,
      "count": 13623,
      "max": [
        1.0,
        1.0
      ],
      "min": [
        0.0,
        0.009999999776482582
      ],
      "type": "VEC2"
    },
    {
      "bufferView": 0,
      "byteOffset": 597768,
      "componentType": 5125,
      "count": 80064,
      "type": "SCALAR"
    },
    {
      "bufferView": 2,
      "byteOffset": 1111560,
      "componentType": 5126,
      "count": 15644,
      "max": [
        0.36557692289352417,
        -0.02986290492117405,
        0.2792229652404785
      ],
      "min": [
        -0.4324120879173279,
        -0.1228228360414505,
        -0.27493804693222046
      ],
      "type": "VEC3"
    },
    {
      "bufferView": 2,
      "byteOffset": 1299288,
      "componentType": 5126,
      "count": 15644,
      "max": [
        0.9587323665618896,
        1.0,
        0.9587448239326477
      ],
      "min": [
        -0.958687961101532,
        -0.9045138955116272,
        -0.9586746096611023
      ],
      "type": "VEC3"
    },
    {
      "bufferView": 1,
      "byteOffset": 370520,
      "componentType": 5126,
      "count": 15644,
      "max": [
        1.0009260177612305,
        1.0186890363693237
      ],
      "min": [
        -0.0066019999794662,
        -0.0013010000111535192
      ],
      "type": "VEC2"
    },
    {
      "bufferView": 0,
      "byteOffset": 918024,
      "componentType": 5125,
      "count": 58872,
      "type": "SCALAR"
    },
    {
      "bufferView": 2,
      "byteOffset": 1487016,
      "componentType": 5126,
      "count": 98,
      "max": [
        0.2737349271774292,
        -0.09980185329914093,
        -0.11024601012468338
      ],
      "min": [
        0.25208592414855957,
        -0.12145085632801056,
        -0.12669900059700012
      ],
      "type": "VEC3"
    },
    {
      "bufferView": 2,
      "byteOffset": 1488192,
      "componentType": 5126,
      "count": 98,
      "max": [
        0.9189603924751282,
        0.9409188628196716,
        0.7278733849525452
      ],
      "min": [
        -0.919044554233551,
        -0.940929114818573,
        -0.7278728485107422
      ],
      "type": "VEC3"
    },
    {
      "bufferView": 1,
      "byteOffset": 495672,
      "componentType": 5126,
      "count": 98,
      "max": [
        1.0,
        1.0
      ],
      "min": [
        0.0,
        0.009999999776482582
      ],
      "type": "VEC2"
    },
    {
      "bufferView": 0,
      "byteOffset": 1153512,
      "componentType": 5125,
      "count": 282,
      "type": "SCALAR"
    },
    {
      "bufferView": 2,
      "byteOffset": 1489368,
      "componentType": 5126,
      "count": 5739,
      "max": [
        0.3697909116744995,
        -0.03256290405988693,
        0.28157395124435425
      ],
      "min": [
        -0.43688005208969116,
        -0.04875294119119644,
        -0.277288019657135
      ],
      "type": "VEC3"
    },
    {
      "bufferView": 2,
      "byteOffset": 1558236,
      "componentType": 5126,
      "count": 5739,
      "max": [
        0.9914427399635315,
        1.0,
        0.9924284219741821
      ],
      "min": [
        -0.9914653897285461,
        -1.0,
        -0.9924306869506836
      ],
      "type": "VEC3"
    },
    {
      "bufferView": 1,
      "byteOffset": 496456,
      "componentType": 5126,
      "count": 5739,
      "max": [
        1.0,
        1.0
      ],
      "min": [
        0.0,
        0.0
      ],
      "type": "VEC2"
    },
    {
      "bufferView": 0,
      "byteOffset": 1154640,
      "componentType": 5125,
      "count": 20724,
      "type": "SCALAR"
    }
  ],
  "asset": {
    "extras": {
      "author": "PatrickStevens (https://sketchfab.com/PatrickStevens)",
      "license": "CC-BY-4.0 (http://creativecommons.org/licenses/by/4.0/)",
      "source": "https://sketchfab.com/3d-models/sojurner-base-model-no-parts-fcdb8ed8595a4e5380a41ccba9ec3fbf",
      "title": "Sojurner Base Model NO PARTS"
    },
    "generator": "Sketchfab-15.17.0",
    "version": "2.0"
  },
  "bufferViews": [
    {
      "buffer": 0,
      "byteLength": 1237536,
      "name": "floatBufferViews",
      "target": 34963
    },
    {
      "buffer": 0,
      "byteLength": 542368,
      "byteOffset": 1237536,
      "byteStride": 8,
      "name": "floatBufferViews",
      "target": 34962
    },
    {
      "buffer": 0,
      "byteLength": 1627104,
      "byteOffset": 1779904,
      "byteStride": 12,
      "name": "floatBufferViews",
      "target": 34962
    }
  ],
  "buffers": [
    {
      "byteLength": 3407008,
      "uri": "scene.bin"
    }
  ],
  "materials": [
    {
      "doubleSided": true,
      "name": "Material.007",
      "pbrMetallicRoughness": {
        "baseColorFactor": [
          0.209647,
          0.209647,
          0.209647,
          1.0
        ],
        "metallicFactor": 0.0,
        "roughnessFactor": 0.5
      }
    },
    {
      "doubleSided": true,
      "name": "Material.006",
      "pbrMetallicRoughness": {
        "baseColorFactor": [
          0.8,
          0.346616,
          0.194231,
          1.0
        ],
        "metallicFactor": 0.5,
        "roughnessFactor": 0.5
      }
    },
    {
      "doubleSided": true,
      "name": "Material.002",
      "pbrMetallicRoughness": {
        "baseColorFactor": [
          0.099111,
          0.099111,
          0.099111,
          1.0
        ],
        "metallicFactor": 0.0,
        "roughnessFactor": 0.5
      }
    },
    {
      "doubleSided": true,
      "name": "Material.010",
      "pbrMetallicRoughness": {
        "baseColorFactor": [
          0.23765,
          0.23765,
          0.23765,
          1.0
        ],
        "metallicFactor": 0.0,
        "roughnessFactor": 0.5
      }
    },
    {
      "doubleSided": true,
      "name": "Material.008",
      "pbrMetallicRoughness": {
        "baseColorFactor": [
          0.117444,
          0.117444,
          0.117444,
          1.0
        ],
        "metallicFactor": 0.0,
        "roughnessFactor": 0.5
      }
    },
    {
      "doubleSided": true,
      "name": "Material.009",
      "pbrMetallicRoughness": {
        "baseColorFactor": [
          0.023593,
          0.023593,
          0.023593,
          1.0
        ],
        "metallicFactor": 0.0,
        "roughnessFactor": 0.90303
      }
    },
    {
      "doubleSided": true,
      "name": "Material.003",
      "pbrMetallicRoughness": {
        "baseColorFactor": [
          0.003355,
          0.003355,
          0.003355,
          1.0
        ],
        "metallicFactor": 0.0,
        "roughnessFactor": 0.5
      }
    },
    {
      "doubleSided": true,
      "name": "Material.001",
      "pbrMetallicRoughness": {
        "baseColorFactor": [
          0.30949,
          0.111012,
          0.109512,
          1.0
        ],
        "metallicFactor": 0.0,
        "roughnessFactor": 0.5
      }
    },
    {
      "doubleSided": true,
      "name": "Material.005",
      "pbrMetallicRoughness": {
        "baseColorFactor": [
          0.438562,
          0.438562,
          0.438562,
          1.0
        ],
        "metallicFactor": 0.0,
        "roughnessFactor": 0.5
      }
    }
  ],
  "meshes": [
    {
      "name": "Object_0",
      "primitives": [
        {
          "attributes": {
            "NORMAL": 1,
            "POSITION": 0,
            "TEXCOORD_0": 2
          },
          "indices": 3,
          "material": 0,
          "mode": 4
        }
      ]
    },
    {
      "name": "Object_1",
      "primitives": [
        {
          "attributes": {
            "NORMAL": 5,
            "POSITION": 4,
            "TEXCOORD_0": 6
          },
          "indices": 7,
          "material": 1,
          "mode": 4
        }
      ]
    },
    {
      "name": "Object_2",
      "primitives": [
        {
          "attributes": {
            "NORMAL": 9,
            "POSITION": 8,
            "TEXCOORD_0": 10
          },
          "indices": 11,
          "material": 2,
          "mode": 4
        }
      ]
    },
    {
      "name": "Object_3",
      "primitives": [
        {
          "attributes": {
            "NORMAL": 13,
            "POSITION": 12,
            "TEXCOORD_0": 14
          },
          "indices": 15,
          "material": 3,
          "mode": 4
        }
      ]
    },
    {
      "name": "Object_4",
      "primitives": [
        {
          "attributes": {
            "NORMAL": 17,
            "POSITION": 16,
            "TEXCOORD_0": 18
          },
          "indices": 19,
          "material": 4,
          "mode": 4
        }
      ]
    },
    {
      "name": "Object_5",
      "primitives": [
        {
          "attributes": {
            "NORMAL": 21,
            "POSITION": 20,
            "TEXCOORD_0": 22
          },
          "indices": 23,
          "material": 5,
          "mode": 4
        }
      ]
    },
    {
      "name": "Object_6",
      "primitives": [
        {
          "attributes": {
            "NORMAL": 25,
            "POSITION": 24,
            "TEXCOORD_0": 26
          },
          "indices": 27,
          "material": 6,
          "mode": 4
        }
      ]
    },
    {
      "name": "Object_7",
      "primitives": [
        {
          "attributes": {
            "NORMAL": 29,
            "POSITION": 28,
            "TEXCOORD_0": 30
          },
          "indices": 31,
          "material": 7,
          "mode": 4
        }
      ]
    },
    {
      "name": "Object_8",
      "primitives": [
        {
          "attributes": {
            "NORMAL": 33,
            "POSITION": 32,
            "TEXCOORD_0": 34
          },
          "indices": 35,
          "material": 8,
          "mode": 4
        }
      ]
    }
  ],
  "nodes": [
    {
      "children": [
        1
      ],
      "matrix": [
        1.0,
        0.0,
        0.0,
        0.0,
        0.0,
        2.220446049250313e-16,
        -1.0,
        0.0,
        0.0,
        1.0,
        2.220446049250313e-16,
        0.0,
        0.0,
        0.0,
        0.0,
        1.0
      ],
      "name": "Sketchfab_model"
    },
    {
      "children": [
        2
      ],
      "name": "root"
    },
    {
      "children": [
        3
      ],
      "matrix": [
        1.0,
        0.0,
        0.0,
        0.0,
        0.0,
        2.220446049250313e-16,
        1.0,
        0.0,
        0.0,
        -1.0,
        2.220446049250313e-16,
        0.0,
        0.0,
        0.0,
        0.0,
        1.0
      ],
      "name": "GLTF_SceneRootNode"
    },
    {
      "children": [
        4,
        5,
        6,
        7,
        8,
        9,
        10,
        11,
        12
      ],
      "name": "Cylinder.017_Cylinder.023_4"
    },
    {
      "mesh": 0,
      "name": "Object_4"
    },
    {
      "mesh": 1,
      "name": "Object_5"
    },
    {
      "mesh": 2,
      "name": "Object_6"
    },
    {
      "mesh": 3,
      "name": "Object_7"
    },
    {
      "mesh": 4,
      "name": "Object_8"
    },
    {
      "mesh": 5,
      "name": "Object_9"
    },
    {
      "mesh": 6,
      "name": "Object_10"
    },
    {
      "mesh": 7,
      "name": "Object_11"
    },
    {
      "mesh": 8,
      "name": "Object_12"
    }
  ],
  "scene": 0,
  "scenes": [
    {
      "name": "Sketchfab_Scene",
      "nodes": [
        0
      ]
    }
  ]
}
