{
  "accessors": [
    {
      "bufferView": 2,
      "componentType": 5126,
      "count": 913,
      "max": [
        17.353796005249023,
        0.5631170272827148,
        2.4654829502105713
      ],
      "min": [
        -12.590411186218262,
        0.44936496019363403,
        -2.745130777359009
      ],
      "type": "VEC3"
    },
    {
      "bufferView": 2,
      "byteOffset": 10956,
      "componentType": 5126,
      "count": 913,
      "max": [
        0.963477373123169,
        1.0,
        0.9993973970413208
      ],
      "min": [
        -0.943494439125061,
        -1.0,
        -0.9993979334831238
      ],
      "type": "VEC3"
    },
    {
      "bufferView": 1,
      "componentType": 5126,
      "count": 913,
      "max": [
        1.0,
        1.0000008344650269
      ],
      "min": [
        0.0,
        0.0
      ],
      "type": "VEC2"
    },
    {
      "bufferView": 1,
      "byteOffset": 7304,
      "componentType": 5126,
      "count": 913,
      "max": [
        0.9034669995307922,
        0.9745683670043945
      ],
      "min": [
        0.0,
        0.0
      ],
      "type": "VEC2"
    },
    {
      "bufferView": 0,
      "componentType": 5125,
      "count": 2391,
      "type": "SCALAR"
    },
    {
      "bufferView": 2,
      "byteOffset": 21912,
      "componentType": 5126,
      "count": 275,
      "max": [
        -9.517178535461426,
        0.4552793502807617,
        3.157902479171753
      ],
      "min": [
        -24.67586898803711,
        0.4552793502807617,
        0.4078054428100586
      ],
      "type": "VEC3"
    },
    {
      "bufferView": 2,
      "byteOffset": 25212,
      "componentType": 5126,
      "count": 275,
      "max": [
        2.2519884623761754e-06,
        1.0,
        -0.0
      ],
      "min": [
        -2.053826847259188e-06,
        -1.0,
        -0.0
      ],
      "type": "VEC3"
    },
    {
      "bufferView": 1,
      "byteOffset": 14608,
      "componentType": 5126,
      "count": 275,
      "max": [
        0.9904886484146118,
        0.9905718564987183
      ],
      "min": [
        0.0,
        -2.384185791015625e-07
      ],
      "type": "VEC2"
    },
    {
      "bufferView": 1,
      "byteOffset": 16808,
      "componentType": 5126,
      "count": 275,
      "max": [
        0.9904886484146118,
        1.0
      ],
      "min": [
        0.0,
        0.9905718564987183
      ],
      "type": "VEC2"
    },
    {
      "bufferView": 0,
      "byteOffset": 9564,
      "componentType": 5125,
      "count": 375,
      "type": "SCALAR"
    },
    {
      "bufferView": 2,
      "byteOffset": 28512,
      "componentType": 5126,
      "count": 764,
      "max": [
        7.959840774536133,
        0.4423086643218994,
        -2.5298752784729004
      ],
      "min": [
        -6.934345245361328,
        0.4423086643218994,
        -5.270730018615723
      ],
      "type": "VEC3"
    },
    {
      "bufferView": 2,
      "byteOffset": 37680,
      "componentType": 5126,
      "count": 764,
      "max": [
        0.0039062201976776123,
        0.9995120763778687,
        -0.0
      ],
      "min": [
        -0.031234752386808395,
        -1.0,
        -0.0
      ],
      "type": "VEC3"
    },
    {
      "bufferView": 1,
      "byteOffset": 19008,
      "componentType": 5126,
      "count": 764,
      "max": [
        0.0,
        2.980232238769531e-07
      ],
      "min": [
        0.0,
        -2.384185791015625e-07
      ],
      "type": "VEC2"
    },
    {
      "bufferView": 1,
      "byteOffset": 25120,
      "componentType": 5126,
      "count": 764,
      "max": [
        0.0,
        1.0
      ],
      "min": [
        0.0,
        1.0
      ],
      "type": "VEC2"
    },
    {
      "bufferView": 0,
      "byteOffset": 11064,
      "componentType": 5125,
      "count": 942,
      "type": "SCALAR"
    }
  ],
  "asset": {
    "extras": {
      "author": "jellyduckii (https://sketchfab.com/jellyduckii)",
      "license": "CC-BY-4.0 (http://creativecommons.org/licenses/by/4.0/)",
      "source": "https://sketchfab.com/3d-models/jordan-final-navmesh-25e0b9ae1fe24e3a8180abbe35ea0260",
      "title": "jordan_final_navMesh"
    },
    "generator": "Sketchfab-15.17.0",
    "version": "2.0"
  },
  "bufferViews": [
    {
      "buffer": 0,
      "byteLength": 14832,
      "name": "floatBufferViews",
      "target": 34963
    },
    {
      "buffer": 0,
      "byteLength": 31232,
      "byteOffset": 14832,
      "byteStride": 8,
      "name": "floatBufferViews",
      "target": 34962
    },
    {
      "buffer": 0,
      "byteLength": 46848,
      "byteOffset": 46064,
      "byteStride": 12,
      "name": "floatBufferViews",
      "target": 34962
    }
  ],
  "buffers": [
    {
      "byteLength": 92912,
      "uri": "scene.bin"
    }
  ],
  "materials": [
    {
      "doubleSided": true,
      "name": "Scene_-_Root",
      "pbrMetallicRoughness": {
        "metallicFactor": 0.0,
        "roughnessFactor": 0.6
      }
    },
    {
      "doubleSided": true,
      "name": "Scene_-_Root.002",
      "pbrMetallicRoughness": {
        "metallicFactor": 0.0,
        "roughnessFactor": 0.6
      }
    },
    {
      "doubleSided": true,
      "name": "Scene_-_Root.003",
      "pbrMetallicRoughness": {
        "metallicFactor": 0.0,
        "roughnessFactor": 0.6
      }
    }
  ],
  "meshes": [
    {
      "name": "Object_0",
      "primitives": [
        {
          "attributes": {
            "NORMAL": 1,
            "POSITION": 0,
            "TEXCOORD_0": 2,
            "TEXCOORD_1": 3
          },
          "indices": 4,
          "material": 0,
          "mode": 4
        }
      ]
    },
    {
      "name": "Object_1",
      "primitives": [
        {
          "attributes": {
            "NORMAL": 6,
            "POSITION": 5,
            "TEXCOORD_0": 7,
            "TEXCOORD_1": 8
          },
          "indices": 9,
          "material": 1,
          "mode": 4
        }
      ]
    },
    {
      "name": "Object_2",
      "primitives": [
        {
          "attributes": {
            "NORMAL": 11,
            "POSITION": 10,
            "TEXCOORD_0": 12,
            "TEXCOORD_1": 13
          },
          "indices": 14,
          "material": 2,
          "mode": 4
        }
      ]
    }
  ],
  "nodes": [
    {
      "children": [
        1
      ],
      "matrix": [
        1.0,
        0.0,
        0.0,
        0.0,
        0.0,
        2.220446049250313e-16,
        -1.0,
        0.0,
        0.0,
        1.0,
        2.220446049250313e-16,
        0.0,
        0.0,
        0.0,
        0.0,
        1.0
      ],
      "name": "Sketchfab_model"
    },
    {
      "children": [
        2
      ],
      "name": "root"
    },
    {
      "children": [
        3
      ],
      "matrix": [
        1.0,
        0.0,
        0.0,
        0.0,
        0.0,
        2.220446049250313e-16,
        1.0,
        0.0,
        0.0,
        -1.0,
        2.220446049250313e-16,
        0.0,
        0.0,
        0.0,
        0.0,
        1.0
      ],
      "name": "GLTF_SceneRootNode"
    },
    {
      "children": [
        4,
        5,
        6
      ],
      "matrix": [
        -0.5346468546255605,
        -0.0,
        -0.8450755829149217,
        0.0,
        0.0,
        1.0,
        -0.0,
        0.0,
        4.154846820808786,
        0.0,
        -2.6286119598133806,
        0.0,
        0.0,
        0.0,
        0.0,
        1.0
      ],
      "name": "Plane.002_18"
    },
    {
      "mesh": 0,
      "name": "Object_4"
    },
    {
      "mesh": 1,
      "name": "Object_5"
    },
    {
      "mesh": 2,
      "name": "Object_6"
    }
  ],
  "scene": 0,
  "scenes": [
    {
      "name": "Sketchfab_Scene",
      "nodes": [
        0
      ]
    }
  ]
}
