{
	"asset":{
		"generator":"Khronos glTF Blender I/O v3.6.27",
		"version":"2.0"
	},
	"scene":0,
	"scenes":[
		{
			"name":"Scene",
			"nodes":[
				0
			]
		}
	],
	"nodes":[
		{
			"mesh":0,
			"name":"podium",
			"rotation":[
				0.70710688829422,
				0,
				0,
				0.7071066498756409
			]
		}
	],
	"materials":[
		{
			"alphaMode":"BLEND",
			"doubleSided":true,
			"name":"phong1SG",
			"pbrMetallicRoughness":{
				"baseColorTexture":{
					"index":0
				},
				"metallicFactor":0,
				"roughnessFactor":0.8658359050750732
			}
		}
	],
	"meshes":[
		{
			"name":"podium",
			"primitives":[
				{
					"attributes":{
						"POSITION":0,
						"NORMAL":1,
						"TEXCOORD_0":2
					},
					"indices":3,
					"material":0
				}
			]
		}
	],
	"textures":[
		{
			"sampler":0,
			"source":0
		}
	],
	"images":[
		{
			"mimeType":"image/png",
			"name":"podiumTX",
			"uri":"podiumTX.png"
		}
	],
	"accessors":[
		{
			"bufferView":0,
			"componentType":5126,
			"count":181,
			"max":[
				1.0156019926071167,
				0.2806200087070465,
				0
			],
			"min":[
				-1.0156019926071167,
				-0.4614830017089844,
				-1.3273919820785522
			],
			"type":"VEC3"
		},
		{
			"bufferView":1,
			"componentType":5126,
			"count":181,
			"type":"VEC3"
		},
		{
			"bufferView":2,
			"componentType":5126,
			"count":181,
			"type":"VEC2"
		},
		{
			"bufferView":3,
			"componentType":5123,
			"count":684,
			"type":"SCALAR"
		}
	],
	"bufferViews":[
		{
			"buffer":0,
			"byteLength":2172,
			"byteOffset":0,
			"target":34962
		},
		{
			"buffer":0,
			"byteLength":2172,
			"byteOffset":2172,
			"target":34962
		},
		{
			"buffer":0,
			"byteLength":1448,
			"byteOffset":4344,
			"target":34962
		},
		{
			"buffer":0,
			"byteLength":1368,
			"byteOffset":5792,
			"target":34963
		}
	],
	"samplers":[
		{
			"magFilter":9729,
			"minFilter":9987
		}
	],
	"buffers":[
		{
			"byteLength":7160,
			"uri":"podium.bin"
		}
	]
}
