{
	"asset":{
		"generator":"Khronos glTF Blender I/O v4.3.47",
		"version":"2.0"
	},
	"scene":0,
	"scenes":[
		{
			"name":"Scene",
			"nodes":[
				1,
				3
			]
		}
	],
	"nodes":[
		{
			"mesh":0,
			"name":"easel.001"
		},
		{
			"children":[
				0
			],
			"name":"easel",
			"scale":[
				0.009999999776482582,
				0.009999999776482582,
				0.009999999776482582
			],
			"translation":[
				0,
				-0.006114404648542404,
				0
			]
		},
		{
			"mesh":1,
			"name":"painting1.001"
		},
		{
			"children":[
				2
			],
			"name":"painting1",
			"rotation":[
				0,
				0,
				0.13052618503570557,
				0.9914448857307434
			],
			"scale":[
				0.002399752615019679,
				0.06021016463637352,
				0.04172458499670029
			],
			"translation":[
				-0.002147675957530737,
				0.06450792402029037,
				0
			]
		}
	],
	"materials":[
		{
			"name":"easel_painting_1001.004.1001",
			"pbrMetallicRoughness":{
				"baseColorTexture":{
					"index":0
				},
				"metallicRoughnessTexture":{
					"index":1
				}
			}
		},
		{
			"name":"easel_painting_1001.004.1001",
			"pbrMetallicRoughness":{
				"baseColorTexture":{
					"index":0
				},
				"metallicRoughnessTexture":{
					"index":1
				}
			}
		}
	],
	"meshes":[
		{
			"name":"easel.004",
			"primitives":[
				{
					"attributes":{
						"POSITION":0,
						"NORMAL":1,
						"TEXCOORD_0":2
					},
					"indices":3,
					"material":0
				}
			]
		},
		{
			"name":"painting1.003",
			"primitives":[
				{
					"attributes":{
						"POSITION":4,
						"NORMAL":5,
						"TEXCOORD_0":6
					},
					"indices":7,
					"material":1
				}
			]
		}
	],
	"textures":[
		{
			"sampler":0,
			"source":0
		},
		{
			"sampler":0,
			"source":1
		}
	],
	"images":[
		{
			"mimeType":"image/jpeg",
			"name":"easel_painting_baseColor_1001",
			"uri":"textures/easel_painting_baseColor_1001.jpg"
		},
		{
			"mimeType":"image/jpeg",
			"name":"easel_painting_occlusionRoughnessMetallic_1001",
			"uri":"textures/easel_painting_occlusionRoughnessMetallic_1001.jpg"
		}
	],
	"accessors":[
		{
			"bufferView":0,
			"componentType":5126,
			"count":933,
			"max":[
				1.3547468185424805,
				11.536428451538086,
				2.0000007152557373
			],
			"min":[
				-4.1466264724731445,
				0.6100749969482422,
				-2
			],
			"type":"VEC3"
		},
		{
			"bufferView":1,
			"componentType":5126,
			"count":933,
			"type":"VEC3"
		},
		{
			"bufferView":2,
			"componentType":5126,
			"count":933,
			"type":"VEC2"
		},
		{
			"bufferView":3,
			"componentType":5123,
			"count":2760,
			"type":"SCALAR"
		},
		{
			"bufferView":4,
			"componentType":5126,
			"count":2076,
			"max":[
				0.5000014305114746,
				0.5000003576278687,
				0.5
			],
			"min":[
				-0.5000019073486328,
				-0.5000000596046448,
				-0.5
			],
			"type":"VEC3"
		},
		{
			"bufferView":5,
			"componentType":5126,
			"count":2076,
			"type":"VEC3"
		},
		{
			"bufferView":6,
			"componentType":5126,
			"count":2076,
			"type":"VEC2"
		},
		{
			"bufferView":7,
			"componentType":5123,
			"count":6048,
			"type":"SCALAR"
		}
	],
	"bufferViews":[
		{
			"buffer":0,
			"byteLength":11196,
			"byteOffset":0,
			"target":34962
		},
		{
			"buffer":0,
			"byteLength":11196,
			"byteOffset":11196,
			"target":34962
		},
		{
			"buffer":0,
			"byteLength":7464,
			"byteOffset":22392,
			"target":34962
		},
		{
			"buffer":0,
			"byteLength":5520,
			"byteOffset":29856,
			"target":34963
		},
		{
			"buffer":0,
			"byteLength":24912,
			"byteOffset":35376,
			"target":34962
		},
		{
			"buffer":0,
			"byteLength":24912,
			"byteOffset":60288,
			"target":34962
		},
		{
			"buffer":0,
			"byteLength":16608,
			"byteOffset":85200,
			"target":34962
		},
		{
			"buffer":0,
			"byteLength":12096,
			"byteOffset":101808,
			"target":34963
		}
	],
	"samplers":[
		{
			"magFilter":9729,
			"minFilter":9987
		}
	],
	"buffers":[
		{
			"byteLength":113904,
			"uri":"painting.bin"
		}
	]
}
