{
  "accessors": [
    {
      "bufferView": 0,
      "componentType": 5125,
      "count": 2148,
      "type": "SCALAR"
    },
    {
      "bufferView": 1,
      "componentType": 5126,
      "count": 858,
      "max": [
        -10.7129030227661,
        10.6799745559692,
        4.76130628585815
      ],
      "min": [
        -13.4532976150513,
        0.0261139869689941,
        -4.68061065673828
      ],
      "type": "VEC3"
    },
    {
      "bufferView": 2,
      "componentType": 5126,
      "count": 858,
      "type": "VEC3"
    },
    {
      "bufferView": 3,
      "componentType": 5126,
      "count": 858,
      "type": "VEC4"
    },
    {
      "bufferView": 4,
      "componentType": 5126,
      "count": 858,
      "type": "VEC2"
    },
    {
      "bufferView": 5,
      "componentType": 5125,
      "count": 216,
      "type": "SCALAR"
    },
    {
      "bufferView": 6,
      "componentType": 5126,
      "count": 136,
      "max": [
        -11.0904703140259,
        9.1705904006958,
        4.57889556884766
      ],
      "min": [
        -12.9632043838501,
        1.12100172042847,
        -4.57889556884766
      ],
      "type": "VEC3"
    },
    {
      "bufferView": 7,
      "componentType": 5126,
      "count": 136,
      "type": "VEC3"
    },
    {
      "bufferView": 8,
      "componentType": 5126,
      "count": 136,
      "type": "VEC4"
    },
    {
      "bufferView": 9,
      "componentType": 5126,
      "count": 136,
      "type": "VEC2"
    },
    {
      "bufferView": 10,
      "componentType": 5125,
      "count": 918,
      "type": "SCALAR"
    },
    {
      "bufferView": 11,
      "componentType": 5126,
      "count": 536,
      "max": [
        12.8937406539917,
        10.527624130249,
        4.56613922119141
      ],
      "min": [
        11.0306463241577,
        -0.209623336791992,
        -4.89203548431396
      ],
      "type": "VEC3"
    },
    {
      "bufferView": 12,
      "componentType": 5126,
      "count": 536,
      "type": "VEC3"
    },
    {
      "bufferView": 13,
      "componentType": 5126,
      "count": 536,
      "type": "VEC4"
    },
    {
      "bufferView": 14,
      "componentType": 5126,
      "count": 536,
      "type": "VEC2"
    },
    {
      "bufferView": 15,
      "componentType": 5125,
      "count": 396,
      "type": "SCALAR"
    },
    {
      "bufferView": 16,
      "componentType": 5126,
      "count": 200,
      "max": [
        5.69794702529907,
        1.30132699012756,
        5.63995027542114
      ],
      "min": [
        -5.46714115142822,
        0.0597648620605469,
        -5.63995027542114
      ],
      "type": "VEC3"
    },
    {
      "bufferView": 17,
      "componentType": 5126,
      "count": 200,
      "type": "VEC3"
    },
    {
      "bufferView": 18,
      "componentType": 5126,
      "count": 200,
      "type": "VEC4"
    },
    {
      "bufferView": 19,
      "componentType": 5126,
      "count": 200,
      "type": "VEC2"
    }
  ],
  "asset": {
    "generator": "Adobe Substance 3D Painter 11.0.0",
    "version": "2.0"
  },
  "bufferViews": [
    {
      "buffer": 0,
      "byteLength": 8592,
      "target": 34963
    },
    {
      "buffer": 0,
      "byteLength": 10296,
      "byteOffset": 8592,
      "target": 34962
    },
    {
      "buffer": 0,
      "byteLength": 10296,
      "byteOffset": 18888,
      "target": 34962
    },
    {
      "buffer": 0,
      "byteLength": 13728,
      "byteOffset": 29184,
      "target": 34962
    },
    {
      "buffer": 0,
      "byteLength": 6864,
      "byteOffset": 42912,
      "target": 34962
    },
    {
      "buffer": 0,
      "byteLength": 864,
      "byteOffset": 49776,
      "target": 34963
    },
    {
      "buffer": 0,
      "byteLength": 1632,
      "byteOffset": 50640,
      "target": 34962
    },
    {
      "buffer": 0,
      "byteLength": 1632,
      "byteOffset": 52272,
      "target": 34962
    },
    {
      "buffer": 0,
      "byteLength": 2176,
      "byteOffset": 53904,
      "target": 34962
    },
    {
      "buffer": 0,
      "byteLength": 1088,
      "byteOffset": 56080,
      "target": 34962
    },
    {
      "buffer": 0,
      "byteLength": 3672,
      "byteOffset": 57168,
      "target": 34963
    },
    {
      "buffer": 0,
      "byteLength": 6432,
      "byteOffset": 60840,
      "target": 34962
    },
    {
      "buffer": 0,
      "byteLength": 6432,
      "byteOffset": 67272,
      "target": 34962
    },
    {
      "buffer": 0,
      "byteLength": 8576,
      "byteOffset": 73704,
      "target": 34962
    },
    {
      "buffer": 0,
      "byteLength": 4288,
      "byteOffset": 82280,
      "target": 34962
    },
    {
      "buffer": 0,
      "byteLength": 1584,
      "byteOffset": 86568,
      "target": 34963
    },
    {
      "buffer": 0,
      "byteLength": 2400,
      "byteOffset": 88152,
      "target": 34962
    },
    {
      "buffer": 0,
      "byteLength": 2400,
      "byteOffset": 90552,
      "target": 34962
    },
    {
      "buffer": 0,
      "byteLength": 3200,
      "byteOffset": 92952,
      "target": 34962
    },
    {
      "buffer": 0,
      "byteLength": 1600,
      "byteOffset": 96152,
      "target": 34962
    }
  ],
  "buffers": [
    {
      "byteLength": 97752,
      "uri": "portals.bin"
    }
  ],
  "images": [
    {
      "uri": "standardSurface1_baseColor.png"
    },
    {
      "uri": "standardSurface1_occlusionRoughnessMetallic.png"
    },
    {
      "uri": "standardSurface1_normal.png"
    },
    {
      "uri": "standardSurface2_baseColor.png"
    },
    {
      "uri": "standardSurface2_occlusionRoughnessMetallic.png"
    },
    {
      "uri": "standardSurface2_normal.png"
    }
  ],
  "materials": [
    {
      "alphaMode": "OPAQUE",
      "name": "standardSurface1",
      "normalTexture": {
        "index": 2
      },
      "occlusionTexture": {
        "index": 1
      },
      "pbrMetallicRoughness": {
        "baseColorTexture": {
          "index": 0
        },
        "metallicRoughnessTexture": {
          "index": 1
        }
      }
    },
    {
      "alphaMode": "OPAQUE",
      "name": "standardSurface2",
      "normalTexture": {
        "index": 5
      },
      "occlusionTexture": {
        "index": 4
      },
      "pbrMetallicRoughness": {
        "baseColorTexture": {
          "index": 3
        },
        "metallicRoughnessTexture": {
          "index": 4
        }
      }
    }
  ],
  "meshes": [
    {
      "name": "cave_portal",
      "primitives": [
        {
          "attributes": {
            "NORMAL": 2,
            "POSITION": 1,
            "TANGENT": 3,
            "TEXCOORD_0": 4
          },
          "indices": 0,
          "material": 1,
          "mode": 4
        }
      ]
    },
    {
      "name": "cave_portal",
      "primitives": [
        {
          "attributes": {
            "NORMAL": 7,
            "POSITION": 6,
            "TANGENT": 8,
            "TEXCOORD_0": 9
          },
          "indices": 5,
          "material": 0,
          "mode": 4
        }
      ]
    },
    {
      "name": "future_portal",
      "primitives": [
        {
          "attributes": {
            "NORMAL": 12,
            "POSITION": 11,
            "TANGENT": 13,
            "TEXCOORD_0": 14
          },
          "indices": 10,
          "material": 1,
          "mode": 4
        }
      ]
    },
    {
      "name": "pCylinder1",
      "primitives": [
        {
          "attributes": {
            "NORMAL": 17,
            "POSITION": 16,
            "TANGENT": 18,
            "TEXCOORD_0": 19
          },
          "indices": 15,
          "material": 1,
          "mode": 4
        }
      ]
    }
  ],
  "nodes": [
    {
      "children": [
        1
      ],
      "name": "RootNode",
      "scale": [
        0.00999999977648258,
        0.00999999977648258,
        0.00999999977648258
      ]
    },
    {
      "children": [
        2,
        5,
        7
      ],
      "name": "lobby"
    },
    {
      "children": [
        3,
        4
      ],
      "name": "cave_portal"
    },
    {
      "mesh": 0,
      "name": "cave_portal"
    },
    {
      "mesh": 1,
      "name": "cave_portal"
    },
    {
      "children": [
        6
      ],
      "name": "future_portal"
    },
    {
      "mesh": 2,
      "name": "future_portal"
    },
    {
      "children": [
        8
      ],
      "name": "pCylinder1"
    },
    {
      "mesh": 3,
      "name": "pCylinder1"
    }
  ],
  "samplers": [
    {
      "magFilter": 9729,
      "minFilter": 9985,
      "wrapS": 10497,
      "wrapT": 10497
    }
  ],
  "scene": 0,
  "scenes": [
    {
      "name": "Scene",
      "nodes": [
        0
      ]
    }
  ],
  "textures": [
    {
      "sampler": 0,
      "source": 0
    },
    {
      "sampler": 0,
      "source": 1
    },
    {
      "sampler": 0,
      "source": 2
    },
    {
      "sampler": 0,
      "source": 3
    },
    {
      "sampler": 0,
      "source": 4
    },
    {
      "sampler": 0,
      "source": 5
    }
  ]
}