{
    "asset" : {
        "generator" : "Khronos glTF Blender I/O v1.5.17",
        "version" : "2.0"
    },
    "scene" : 0,
    "scenes" : [
        {
            "name" : "Scene",
            "nodes" : [
                2
            ]
        }
    ],
    "nodes" : [
        {
            "mesh" : 0,
            "name" : "pCube91"
        },
        {
            "children" : [
                0
            ],
            "name" : "g pCube91"
        },
        {
            "children" : [
                1
            ],
            "name" : "Gloves.obj"
        }
    ],
    "materials" : [
        {
            "name" : "checker_shader",
            "normalTexture" : {
                "index" : 0
            },
            "occlusionTexture" : {
                "index" : 1
            },
            "pbrMetallicRoughness" : {
                "baseColorTexture" : {
                    "index" : 2
                },
                "metallicRoughnessTexture" : {
                    "index" : 1
                }
            }
        }
    ],
    "meshes" : [
        {
            "name" : "pCube91",
            "primitives" : [
                {
                    "attributes" : {
                        "POSITION" : 0,
                        "NORMAL" : 1,
                        "TEXCOORD_0" : 2
                    },
                    "indices" : 3,
                    "material" : 0
                }
            ]
        }
    ],
    "textures" : [
        {
            "sampler" : 0,
            "source" : 0
        },
        {
            "sampler" : 0,
            "source" : 1
        },
        {
            "sampler" : 0,
            "source" : 2
        }
    ],
    "images" : [
        {
            "mimeType" : "image/jpeg",
            "name" : "Image_2",
            "uri" : "textures/Image_2.jpg"
        },
        {
            "mimeType" : "image/jpeg",
            "name" : "Image_1",
            "uri" : "textures/Image_1.jpg"
        },
        {
            "mimeType" : "image/jpeg",
            "name" : "Image_0",
            "uri" : "textures/Image_0.jpg"
        }
    ],
    "accessors" : [
        {
            "bufferView" : 0,
            "componentType" : 5126,
            "count" : 652,
            "max" : [
                0.06176358461380005,
                0.1375741958618164,
                0.03994287922978401
            ],
            "min" : [
                -0.12245453149080276,
                -0.10253874212503433,
                -0.031389739364385605
            ],
            "type" : "VEC3"
        },
        {
            "bufferView" : 1,
            "componentType" : 5126,
            "count" : 652,
            "type" : "VEC3"
        },
        {
            "bufferView" : 2,
            "componentType" : 5126,
            "count" : 652,
            "type" : "VEC2"
        },
        {
            "bufferView" : 3,
            "componentType" : 5123,
            "count" : 1920,
            "type" : "SCALAR"
        }
    ],
    "bufferViews" : [
        {
            "buffer" : 0,
            "byteLength" : 7824,
            "byteOffset" : 0
        },
        {
            "buffer" : 0,
            "byteLength" : 7824,
            "byteOffset" : 7824
        },
        {
            "buffer" : 0,
            "byteLength" : 5216,
            "byteOffset" : 15648
        },
        {
            "buffer" : 0,
            "byteLength" : 3840,
            "byteOffset" : 20864
        }
    ],
    "samplers" : [
        {
            "magFilter" : 9729,
            "minFilter" : 9987
        }
    ],
    "buffers" : [
        {
            "byteLength" : 24704,
            "uri" : "scene.bin"
        }
    ]
}
