# This file uses centimeters as units for non-parametric coordinates.

mtllib ladderStep.mtl
g default
v 0.383994 0.004437 -2.232215
v 0.221699 0.004437 -2.069920
v 0.000000 0.004437 -2.010516
v -0.221699 0.004437 -2.069920
v -0.383994 0.004437 -2.232215
v -0.443398 0.004437 -2.453914
v -0.383994 0.004437 -2.675613
v -0.221699 0.004437 -2.837908
v 0.000000 0.004437 -2.897312
v 0.221699 0.004437 -2.837908
v 0.383994 0.004437 -2.675613
v 0.443398 0.004437 -2.453914
v 0.383994 3.998975 -2.232215
v 0.221699 3.998975 -2.069920
v 0.000000 3.998975 -2.010516
v -0.221699 3.998975 -2.069920
v -0.383994 3.998975 -2.232215
v -0.443398 3.998975 -2.453914
v -0.383994 3.998975 -2.675613
v -0.221699 3.998975 -2.837908
v 0.000000 3.998975 -2.897312
v 0.221699 3.998975 -2.837908
v 0.383994 3.998975 -2.675613
v 0.443398 3.998975 -2.453914
v 0.000000 0.004437 -2.453914
v 0.000000 3.998975 -2.453914
v 0.383994 1.590101 -2.232215
v 0.221699 1.590101 -2.069920
v 0.000000 1.590101 -2.010516
v -0.221699 1.590101 -2.069920
v -0.383994 1.590101 -2.232215
v -0.443398 1.590101 -2.453914
v -0.383994 1.590101 -2.675613
v -0.221699 1.590101 -2.837908
v 0.000000 1.590101 -2.897312
v 0.221699 1.590101 -2.837908
v 0.383994 1.590101 -2.675613
v 0.443398 1.590101 -2.453914
v 0.383994 2.437823 -2.232215
v 0.443398 2.437823 -2.453914
v 0.383994 2.437823 -2.675613
v 0.221699 2.437823 -2.837908
v 0.000000 2.437823 -2.897312
v -0.221699 2.437823 -2.837908
v -0.383994 2.437823 -2.675613
v -0.443398 2.437823 -2.453914
v -0.383994 2.437823 -2.232215
v -0.221699 2.437823 -2.069920
v 0.000000 2.437823 -2.010516
v 0.221699 2.437823 -2.069920
v 0.383994 0.004437 2.232215
v 0.221699 0.004437 2.069920
v 0.000000 0.004437 2.010516
v -0.221699 0.004437 2.069920
v -0.383994 0.004437 2.232215
v -0.443398 0.004437 2.453914
v -0.383994 0.004437 2.675613
v -0.221699 0.004437 2.837908
v 0.000000 0.004437 2.897312
v 0.221699 0.004437 2.837908
v 0.383994 0.004437 2.675613
v 0.443398 0.004437 2.453914
v 0.383994 3.998975 2.232215
v 0.221699 3.998975 2.069920
v 0.000000 3.998975 2.010516
v -0.221699 3.998975 2.069920
v -0.383994 3.998975 2.232215
v -0.443398 3.998975 2.453914
v -0.383994 3.998975 2.675613
v -0.221699 3.998975 2.837908
v 0.000000 3.998975 2.897312
v 0.221699 3.998975 2.837908
v 0.383994 3.998975 2.675613
v 0.443398 3.998975 2.453914
v 0.000000 0.004437 2.453914
v 0.000000 3.998975 2.453914
v 0.383994 1.590101 2.232215
v 0.221699 1.590101 2.069920
v 0.000000 1.590101 2.010516
v -0.221699 1.590101 2.069920
v -0.383994 1.590101 2.232215
v -0.443398 1.590101 2.453914
v -0.383994 1.590101 2.675613
v -0.221699 1.590101 2.837908
v 0.000000 1.590101 2.897312
v 0.221699 1.590101 2.837908
v 0.383994 1.590101 2.675613
v 0.443398 1.590101 2.453914
v 0.383994 2.437823 2.232215
v 0.443398 2.437823 2.453914
v 0.383994 2.437823 2.675613
v 0.221699 2.437823 2.837908
v 0.000000 2.437823 2.897312
v -0.221699 2.437823 2.837908
v -0.383994 2.437823 2.675613
v -0.443398 2.437823 2.453914
v -0.383994 2.437823 2.232215
v -0.221699 2.437823 2.069920
v 0.000000 2.437823 2.010516
v 0.221699 2.437823 2.069920
v 0.221699 1.590101 -0.000117
v 0.000000 1.590101 -0.000117
v 0.000000 2.437823 -0.000117
v 0.221699 2.437823 -0.000117
v -0.221699 1.590101 -0.000117
v -0.221699 2.437823 -0.000117
vt 0.386790 0.226368
vt 0.369588 0.209166
vt 0.346090 0.202870
vt 0.322591 0.209166
vt 0.305389 0.226368
vt 0.299093 0.249866
vt 0.305389 0.273365
vt 0.322591 0.290567
vt 0.346090 0.296863
vt 0.369588 0.290567
vt 0.386790 0.273365
vt 0.393086 0.249866
vt 0.017763 0.421531
vt 0.038597 0.421531
vt 0.059430 0.421531
vt 0.080263 0.421531
vt 0.101097 0.421531
vt 0.121930 0.421531
vt 0.142763 0.421531
vt 0.163597 0.421531
vt 0.184430 0.421531
vt 0.205263 0.421531
vt 0.226097 0.421531
vt 0.246930 0.421531
vt 0.267763 0.421531
vt 0.017763 0.797471
vt 0.038597 0.797471
vt 0.059430 0.797471
vt 0.080263 0.797471
vt 0.101097 0.797471
vt 0.121930 0.797471
vt 0.142763 0.797471
vt 0.163597 0.797471
vt 0.184430 0.797471
vt 0.205263 0.797471
vt 0.226097 0.797471
vt 0.246930 0.797471
vt 0.267763 0.797471
vt 0.487748 0.325144
vt 0.470455 0.307851
vt 0.446832 0.301521
vt 0.423209 0.307851
vt 0.405916 0.325144
vt 0.399586 0.348767
vt 0.405916 0.372390
vt 0.423209 0.389684
vt 0.446832 0.396013
vt 0.470455 0.389684
vt 0.487748 0.372390
vt 0.494078 0.348767
vt 0.346090 0.247987
vt 0.446832 0.346878
vt 0.267763 0.571188
vt 0.017763 0.571188
vt 0.101097 0.571188
vt 0.121930 0.571188
vt 0.142763 0.571188
vt 0.163597 0.571188
vt 0.184430 0.571188
vt 0.205263 0.571188
vt 0.226097 0.571188
vt 0.246930 0.571188
vt 0.267763 0.651197
vt 0.017763 0.651197
vt 0.246930 0.651197
vt 0.226097 0.651197
vt 0.205263 0.651197
vt 0.184430 0.651197
vt 0.163597 0.651197
vt 0.142763 0.651197
vt 0.121930 0.651197
vt 0.101097 0.651197
vt 0.276606 0.571188
vt 0.276606 0.651197
vt 0.359939 0.571188
vt 0.359939 0.651197
vt 0.380773 0.571188
vt 0.380773 0.651197
vt 0.401606 0.571188
vt 0.401606 0.651197
vt 0.422439 0.571188
vt 0.422439 0.651197
vt 0.443273 0.571188
vt 0.443273 0.651197
vt 0.464106 0.571188
vt 0.464106 0.651197
vt 0.484939 0.571188
vt 0.484939 0.651197
vt 0.505773 0.571188
vt 0.505773 0.651197
vt 0.526606 0.571188
vt 0.526606 0.651197
vt 0.446679 0.202913
vt 0.470302 0.209242
vt 0.446679 0.248269
vt 0.423056 0.209242
vt 0.405763 0.226536
vt 0.399433 0.250159
vt 0.405763 0.273782
vt 0.423056 0.291075
vt 0.446679 0.297405
vt 0.470302 0.291075
vt 0.487596 0.273782
vt 0.493925 0.250159
vt 0.487596 0.226536
vt 0.345761 0.347232
vt 0.369365 0.390004
vt 0.345761 0.396329
vt 0.322157 0.390004
vt 0.304877 0.372725
vt 0.298552 0.349121
vt 0.304877 0.325516
vt 0.322157 0.308237
vt 0.345761 0.301912
vt 0.369365 0.308237
vt 0.386644 0.325516
vt 0.392969 0.349121
vt 0.386644 0.372725
vt 0.276606 0.421531
vt 0.297439 0.421531
vt 0.318273 0.421531
vt 0.339106 0.421531
vt 0.359939 0.421531
vt 0.380773 0.421531
vt 0.401606 0.421531
vt 0.422439 0.421531
vt 0.443273 0.421531
vt 0.464106 0.421531
vt 0.484939 0.421531
vt 0.505773 0.421531
vt 0.526606 0.421531
vt 0.526606 0.797471
vt 0.505773 0.797471
vt 0.484939 0.797471
vt 0.464106 0.797471
vt 0.443273 0.797471
vt 0.422439 0.797471
vt 0.401606 0.797471
vt 0.380773 0.797471
vt 0.359939 0.797471
vt 0.339106 0.797471
vt 0.318273 0.797471
vt 0.297439 0.797471
vt 0.276606 0.797471
vt 0.059430 0.651197
vt 0.038597 0.651197
vt 0.080263 0.651197
vt 0.059430 0.571188
vt 0.080263 0.571188
vt 0.038597 0.571188
vt 0.318273 0.651197
vt 0.297439 0.651197
vt 0.339106 0.651197
vt 0.318273 0.571188
vt 0.339106 0.571188
vt 0.297439 0.571188
vt 0.185279 0.412130
vt 0.101074 0.412130
vt 0.101074 0.208818
vt 0.185279 0.208818
vt 0.101074 0.005483
vt 0.185279 0.005483
vt 0.271892 0.412130
vt 0.187687 0.412130
vt 0.187687 0.208795
vt 0.271892 0.208795
vt 0.271892 0.005483
vt 0.187687 0.005483
vt 0.029609 0.011319
vt 0.051386 0.005483
vt 0.051386 0.208795
vt 0.029609 0.208795
vt 0.051386 0.412130
vt 0.029609 0.406295
vt 0.007832 0.005483
vt 0.007832 0.208795
vt 0.007832 0.412130
vt 0.098044 0.412130
vt 0.076267 0.406295
vt 0.076267 0.208818
vt 0.098044 0.208818
vt 0.054490 0.412130
vt 0.054490 0.208818
vt 0.076267 0.011319
vt 0.098044 0.005483
vt 0.054490 0.005483
vn 0.707107 0.000000 0.707107
vn 0.707106 0.000000 0.707107
vn 0.707106 0.000000 0.707107
vn 0.707107 0.000000 0.707107
vn -0.707107 0.000000 0.707107
vn -0.707106 0.000000 0.707107
vn -0.707106 0.000000 0.707107
vn -0.707107 0.000000 0.707107
vn -0.965926 0.000000 0.258819
vn -0.965926 0.000000 0.258819
vn -0.965926 0.000000 0.258819
vn -0.965926 0.000000 0.258819
vn -0.965926 0.000000 -0.258819
vn -0.965926 0.000000 -0.258819
vn -0.965926 0.000000 -0.258819
vn -0.965926 0.000000 -0.258819
vn -0.707107 0.000000 -0.707107
vn -0.707107 0.000000 -0.707107
vn -0.707107 0.000000 -0.707107
vn -0.707107 0.000000 -0.707107
vn -0.258819 0.000000 -0.965926
vn -0.258819 0.000000 -0.965926
vn -0.258819 0.000000 -0.965926
vn -0.258819 0.000000 -0.965926
vn 0.258819 0.000000 -0.965926
vn 0.258819 0.000000 -0.965926
vn 0.258819 0.000000 -0.965926
vn 0.258819 0.000000 -0.965926
vn 0.707107 0.000000 -0.707107
vn 0.707107 0.000000 -0.707107
vn 0.707107 0.000000 -0.707107
vn 0.707107 0.000000 -0.707107
vn 0.965926 0.000000 -0.258819
vn 0.965926 0.000000 -0.258819
vn 0.965926 0.000000 -0.258819
vn 0.965926 0.000000 -0.258819
vn 0.965926 0.000000 0.258819
vn 0.965926 0.000000 0.258819
vn 0.965926 0.000000 0.258819
vn 0.965926 0.000000 0.258819
vn 0.000000 -1.000000 0.000000
vn 0.000000 -1.000000 0.000000
vn 0.000000 -1.000000 0.000000
vn 0.000000 -1.000000 0.000000
vn 0.000000 -1.000000 0.000000
vn 0.000000 -1.000000 -0.000000
vn 0.000000 -1.000000 -0.000000
vn 0.000000 -1.000000 -0.000000
vn 0.000000 -1.000000 0.000000
vn 0.000000 -1.000000 0.000000
vn 0.000000 -1.000000 0.000000
vn 0.000000 -1.000000 0.000000
vn 0.000000 -1.000000 0.000000
vn 0.000000 1.000000 0.000000
vn 0.000000 1.000000 0.000000
vn 0.000000 1.000000 0.000000
vn 0.000000 1.000000 0.000000
vn 0.000000 1.000000 0.000000
vn 0.000000 1.000000 0.000000
vn 0.000000 1.000000 0.000000
vn 0.000000 1.000000 0.000000
vn 0.000000 1.000000 0.000000
vn 0.000000 1.000000 0.000000
vn 0.000000 1.000000 0.000000
vn 0.000000 1.000000 0.000000
vn 0.000000 1.000000 0.000000
vn 0.707107 0.000000 0.707107
vn 0.707107 0.000000 0.707107
vn 0.258819 0.000000 0.965926
vn 0.258819 0.000000 0.965926
vn 0.258819 0.000000 0.965926
vn 0.258819 0.000000 0.965926
vn -0.258819 0.000000 0.965926
vn -0.258819 0.000000 0.965926
vn -0.258819 0.000000 0.965926
vn -0.258819 0.000000 0.965926
vn -0.707107 0.000000 0.707107
vn -0.707107 0.000000 0.707107
vn -0.965926 0.000000 0.258819
vn -0.965926 0.000000 0.258819
vn -0.965926 0.000000 -0.258819
vn -0.965926 0.000000 -0.258819
vn -0.707107 0.000000 -0.707107
vn -0.707107 0.000000 -0.707107
vn -0.258819 0.000000 -0.965926
vn -0.258819 0.000000 -0.965926
vn 0.258819 0.000000 -0.965926
vn 0.258819 0.000000 -0.965926
vn 0.707107 0.000000 -0.707107
vn 0.707107 0.000000 -0.707107
vn 0.965926 0.000000 -0.258819
vn 0.965926 0.000000 -0.258819
vn 0.965926 0.000000 0.258819
vn 0.965926 0.000000 0.258819
vn 0.965926 0.000000 0.258819
vn 0.965926 0.000000 0.258819
vn 0.965926 0.000000 -0.258819
vn 0.965926 0.000000 -0.258819
vn 0.707107 0.000000 -0.707107
vn 0.707107 0.000000 -0.707107
vn 0.258819 0.000000 -0.965926
vn 0.258819 0.000000 -0.965926
vn -0.258819 0.000000 -0.965926
vn -0.258819 0.000000 -0.965926
vn -0.707107 0.000000 -0.707107
vn -0.707107 0.000000 -0.707107
vn -0.965926 0.000000 -0.258819
vn -0.965926 0.000000 -0.258819
vn -0.965926 0.000000 0.258819
vn -0.965926 0.000000 0.258819
vn -0.707106 0.000000 0.707107
vn -0.707106 0.000000 0.707107
vn -0.258819 0.000000 0.965926
vn -0.258819 0.000000 0.965926
vn -0.258819 0.000000 0.965926
vn -0.258819 0.000000 0.965926
vn 0.258819 0.000000 0.965926
vn 0.258819 0.000000 0.965926
vn 0.258819 0.000000 0.965926
vn 0.258819 0.000000 0.965926
vn 0.707106 0.000000 0.707107
vn 0.707106 0.000000 0.707107
vn 0.000000 -1.000000 0.000000
vn 0.000000 -1.000000 0.000000
vn 0.000000 -1.000000 0.000000
vn 0.000000 -1.000000 0.000000
vn 0.000000 1.000000 0.000000
vn 0.000000 1.000000 0.000000
vn 0.000000 1.000000 0.000000
vn 0.000000 1.000000 0.000000
vn 0.000000 -1.000000 0.000000
vn 0.000000 -1.000000 0.000000
vn 0.000000 -1.000000 0.000000
vn 0.000000 -1.000000 0.000000
vn -1.000000 0.000000 0.000000
vn -1.000000 0.000000 0.000000
vn -1.000000 0.000000 0.000000
vn -1.000000 0.000000 0.000000
vn 0.000000 1.000000 0.000000
vn 0.000000 1.000000 0.000000
vn 0.000000 1.000000 0.000000
vn 0.000000 1.000000 0.000000
vn 0.707107 0.000000 -0.707107
vn 0.707107 0.000000 -0.707107
vn 0.707106 0.000000 -0.707107
vn 0.707106 0.000000 -0.707107
vn -0.707107 0.000000 -0.707107
vn -0.707107 0.000000 -0.707107
vn -0.707106 0.000000 -0.707107
vn -0.707106 0.000000 -0.707107
vn -0.965926 0.000000 -0.258819
vn -0.965926 0.000000 -0.258819
vn -0.965926 0.000000 -0.258819
vn -0.965926 0.000000 -0.258819
vn -0.965926 0.000000 0.258819
vn -0.965926 0.000000 0.258819
vn -0.965926 0.000000 0.258819
vn -0.965926 0.000000 0.258819
vn -0.707107 0.000000 0.707107
vn -0.707107 0.000000 0.707107
vn -0.707107 0.000000 0.707107
vn -0.707107 0.000000 0.707107
vn -0.258819 0.000000 0.965926
vn -0.258819 0.000000 0.965926
vn -0.258819 0.000000 0.965926
vn -0.258819 0.000000 0.965926
vn 0.258819 0.000000 0.965926
vn 0.258819 0.000000 0.965926
vn 0.258819 0.000000 0.965926
vn 0.258819 0.000000 0.965926
vn 0.707107 0.000000 0.707107
vn 0.707107 0.000000 0.707107
vn 0.707107 0.000000 0.707107
vn 0.707107 0.000000 0.707107
vn 0.965926 0.000000 0.258819
vn 0.965926 0.000000 0.258819
vn 0.965926 0.000000 0.258819
vn 0.965926 0.000000 0.258819
vn 0.965926 0.000000 -0.258819
vn 0.965926 0.000000 -0.258819
vn 0.965926 0.000000 -0.258819
vn 0.965926 0.000000 -0.258819
vn 0.000000 -1.000000 0.000000
vn 0.000000 -1.000000 0.000000
vn 0.000000 -1.000000 -0.000000
vn 0.000000 -1.000000 -0.000000
vn 0.000000 -1.000000 -0.000000
vn 0.000000 -1.000000 -0.000000
vn 0.000000 -1.000000 0.000000
vn 0.000000 -1.000000 0.000000
vn 0.000000 -1.000000 0.000000
vn 0.000000 -1.000000 0.000000
vn 0.000000 -1.000000 0.000000
vn 0.000000 -1.000000 0.000000
vn 0.000000 -1.000000 0.000000
vn 0.000000 1.000000 0.000000
vn 0.000000 1.000000 0.000000
vn 0.000000 1.000000 0.000000
vn 0.000000 1.000000 0.000000
vn 0.000000 1.000000 0.000000
vn 0.000000 1.000000 0.000000
vn 0.000000 1.000000 0.000000
vn 0.000000 1.000000 0.000000
vn 0.000000 1.000000 0.000000
vn 0.000000 1.000000 0.000000
vn 0.000000 1.000000 0.000000
vn 0.000000 1.000000 0.000000
vn 0.000000 1.000000 0.000000
vn 0.707107 0.000000 -0.707107
vn 0.707107 0.000000 -0.707107
vn 0.258819 0.000000 -0.965926
vn 0.258819 0.000000 -0.965926
vn 0.258819 0.000000 -0.965926
vn 0.258819 0.000000 -0.965926
vn -0.258819 0.000000 -0.965926
vn -0.258819 0.000000 -0.965926
vn -0.258819 0.000000 -0.965926
vn -0.258819 0.000000 -0.965926
vn -0.707107 0.000000 -0.707107
vn -0.707107 0.000000 -0.707107
vn -0.965926 0.000000 -0.258819
vn -0.965926 0.000000 -0.258819
vn -0.965926 0.000000 0.258819
vn -0.965926 0.000000 0.258819
vn -0.707107 0.000000 0.707107
vn -0.707107 0.000000 0.707107
vn -0.258819 0.000000 0.965926
vn -0.258819 0.000000 0.965926
vn 0.258819 0.000000 0.965926
vn 0.258819 0.000000 0.965926
vn 0.707107 0.000000 0.707107
vn 0.707107 0.000000 0.707107
vn 0.965926 0.000000 0.258819
vn 0.965926 0.000000 0.258819
vn 0.965926 0.000000 -0.258819
vn 0.965926 0.000000 -0.258819
vn 0.965926 0.000000 -0.258819
vn 0.965926 0.000000 -0.258819
vn 0.965926 0.000000 0.258819
vn 0.965926 0.000000 0.258819
vn 0.707107 0.000000 0.707107
vn 0.707107 0.000000 0.707107
vn 0.258819 0.000000 0.965926
vn 0.258819 0.000000 0.965926
vn -0.258819 0.000000 0.965926
vn -0.258819 0.000000 0.965926
vn -0.707107 0.000000 0.707107
vn -0.707107 0.000000 0.707107
vn -0.965926 0.000000 0.258819
vn -0.965926 0.000000 0.258819
vn -0.965926 0.000000 -0.258819
vn -0.965926 0.000000 -0.258819
vn -0.707106 0.000000 -0.707107
vn -0.707106 0.000000 -0.707107
vn -0.258819 0.000000 -0.965926
vn -0.258819 0.000000 -0.965926
vn -0.258819 0.000000 -0.965926
vn -0.258819 0.000000 -0.965926
vn 0.258819 0.000000 -0.965926
vn 0.258819 0.000000 -0.965926
vn 0.258819 0.000000 -0.965926
vn 0.258819 0.000000 -0.965926
vn 0.707106 0.000000 -0.707107
vn 0.707106 0.000000 -0.707107
vn 0.000000 -1.000000 0.000000
vn 0.000000 -1.000000 0.000000
vn 0.000000 -1.000000 0.000000
vn 0.000000 -1.000000 0.000000
vn 0.000000 1.000000 0.000000
vn 0.000000 1.000000 0.000000
vn 0.000000 1.000000 0.000000
vn 0.000000 1.000000 0.000000
vn 1.000000 0.000000 0.000000
vn 1.000000 0.000000 0.000000
vn 1.000000 0.000000 0.000000
vn 1.000000 0.000000 0.000000
vn 0.000000 -1.000000 0.000000
vn 0.000000 -1.000000 0.000000
vn -1.000000 0.000000 0.000000
vn -1.000000 0.000000 0.000000
vn -1.000000 0.000000 0.000000
vn -1.000000 0.000000 0.000000
vn 0.000000 1.000000 0.000000
vn 0.000000 1.000000 0.000000
vn 1.000000 0.000000 0.000000
vn 1.000000 0.000000 0.000000
vn 1.000000 0.000000 0.000000
vn 1.000000 0.000000 0.000000
s 1
g ladderStep
usemtl initialShadingGroup
f 27/54/1 39/64/2 50/146/3 28/150/4
s 2
f 30/149/5 48/147/6 47/72/7 31/55/8
s 3
f 31/55/9 47/72/10 46/71/11 32/56/12
s 4
f 32/56/13 46/71/14 45/70/15 33/57/16
s 5
f 33/57/17 45/70/18 44/69/19 34/58/20
s 6
f 34/58/21 44/69/22 43/68/23 35/59/24
s 7
f 35/59/25 43/68/26 42/67/27 36/60/28
s 8
f 36/60/29 42/67/30 41/66/31 37/61/32
s 9
f 37/61/33 41/66/34 40/65/35 38/62/36
s 10
f 38/62/37 40/65/38 39/63/39 27/53/40
s 11
f 3/3/41 4/4/42 25/51/43 2/2/44
f 5/5/45 6/6/46 25/51/43 4/4/42
f 7/7/47 8/8/48 25/51/43 6/6/46
f 9/9/49 10/10/50 25/51/43 8/8/48
f 11/11/51 12/12/52 25/51/43 10/10/50
f 1/1/53 2/2/44 25/51/43 12/12/52
s 12
f 26/52/54 16/46/55 15/47/56 14/48/57
f 26/52/54 18/44/58 17/45/59 16/46/55
f 26/52/54 20/42/60 19/43/61 18/44/58
f 26/52/54 22/40/62 21/41/63 20/42/60
f 26/52/54 24/50/64 23/39/65 22/40/62
f 26/52/54 14/48/57 13/49/66 24/50/64
s 1
f 1/13/67 27/54/1 28/150/4 2/14/68
s off
f 2/14/69 28/150/70 29/148/71 3/15/72
f 3/15/73 29/148/74 30/149/75 4/16/76
s 2
f 4/16/77 30/149/5 31/55/8 5/17/78
s 3
f 5/17/79 31/55/9 32/56/12 6/18/80
s 4
f 6/18/81 32/56/13 33/57/16 7/19/82
s 5
f 7/19/83 33/57/17 34/58/20 8/20/84
s 6
f 8/20/85 34/58/21 35/59/24 9/21/86
s 7
f 9/21/87 35/59/25 36/60/28 10/22/88
s 8
f 10/22/89 36/60/29 37/61/32 11/23/90
s 9
f 11/23/91 37/61/33 38/62/36 12/24/92
s 10
f 12/24/93 38/62/37 27/53/40 1/25/94
f 40/65/38 24/37/95 13/38/96 39/63/39
s 9
f 41/66/34 23/36/97 24/37/98 40/65/35
s 8
f 42/67/30 22/35/99 23/36/100 41/66/31
s 7
f 43/68/26 21/34/101 22/35/102 42/67/27
s 6
f 44/69/22 20/33/103 21/34/104 43/68/23
s 5
f 45/70/18 19/32/105 20/33/106 44/69/19
s 4
f 46/71/14 18/31/107 19/32/108 45/70/15
s 3
f 47/72/10 17/30/109 18/31/110 46/71/11
s 2
f 48/147/6 16/29/111 17/30/112 47/72/7
s off
f 49/145/113 15/28/114 16/29/115 48/147/116
f 50/146/117 14/27/118 15/28/119 49/145/120
s 1
f 39/64/2 13/26/121 14/27/122 50/146/3
s off
f 29/169/123 28/170/124 101/171/125 102/172/126
f 50/178/127 49/179/128 103/180/129 104/181/130
f 30/175/131 29/169/132 102/172/133 105/176/134
f 48/157/135 30/158/136 105/159/137 106/160/138
f 49/179/139 48/182/140 106/183/141 103/180/142
s 13
f 77/73/143 78/156/144 100/152/145 89/74/146
s 14
f 80/155/147 81/75/148 97/76/149 98/153/150
s 15
f 81/75/151 82/77/152 96/78/153 97/76/154
s 16
f 82/77/155 83/79/156 95/80/157 96/78/158
s 17
f 83/79/159 84/81/160 94/82/161 95/80/162
s 18
f 84/81/163 85/83/164 93/84/165 94/82/166
s 19
f 85/83/167 86/85/168 92/86/169 93/84/170
s 20
f 86/85/171 87/87/172 91/88/173 92/86/174
s 21
f 87/87/175 88/89/176 90/90/177 91/88/178
s 22
f 88/89/179 77/91/180 89/92/181 90/90/182
s 23
f 53/93/183 52/94/184 75/95/185 54/96/186
f 55/97/187 54/96/186 75/95/185 56/98/188
f 57/99/189 56/98/188 75/95/185 58/100/190
f 59/101/191 58/100/190 75/95/185 60/102/192
f 61/103/193 60/102/192 75/95/185 62/104/194
f 51/105/195 62/104/194 75/95/185 52/94/184
s 24
f 76/106/196 64/107/197 65/108/198 66/109/199
f 76/106/196 66/109/199 67/110/200 68/111/201
f 76/106/196 68/111/201 69/112/202 70/113/203
f 76/106/196 70/113/203 71/114/204 72/115/205
f 76/106/196 72/115/205 73/116/206 74/117/207
f 76/106/196 74/117/207 63/118/208 64/107/197
s 13
f 51/119/209 52/120/210 78/156/144 77/73/143
s off
f 52/120/211 53/121/212 79/154/213 78/156/214
f 53/121/215 54/122/216 80/155/217 79/154/218
s 14
f 54/122/219 55/123/220 81/75/148 80/155/147
s 15
f 55/123/221 56/124/222 82/77/152 81/75/151
s 16
f 56/124/223 57/125/224 83/79/156 82/77/155
s 17
f 57/125/225 58/126/226 84/81/160 83/79/159
s 18
f 58/126/227 59/127/228 85/83/164 84/81/163
s 19
f 59/127/229 60/128/230 86/85/168 85/83/167
s 20
f 60/128/231 61/129/232 87/87/172 86/85/171
s 21
f 61/129/233 62/130/234 88/89/176 87/87/175
s 22
f 62/130/235 51/131/236 77/91/180 88/89/179
f 90/90/182 89/92/181 63/132/237 74/133/238
s 21
f 91/88/178 90/90/177 74/133/239 73/134/240
s 20
f 92/86/174 91/88/173 73/134/241 72/135/242
s 19
f 93/84/170 92/86/169 72/135/243 71/136/244
s 18
f 94/82/166 93/84/165 71/136/245 70/137/246
s 17
f 95/80/162 94/82/161 70/137/247 69/138/248
s 16
f 96/78/158 95/80/157 69/138/249 68/139/250
s 15
f 97/76/154 96/78/153 68/139/251 67/140/252
s 14
f 98/153/150 97/76/149 67/140/253 66/141/254
s off
f 99/151/255 98/153/256 66/141/257 65/142/258
f 100/152/259 99/151/260 65/142/261 64/143/262
s 13
f 89/74/146 100/152/145 64/143/263 63/144/264
s 25
f 78/173/265 79/174/266 102/172/267 101/171/268
s 26
f 99/184/269 100/185/270 104/181/271 103/180/272
s off
f 100/163/273 78/164/274 101/165/275 104/166/276
s 25
f 79/174/266 80/177/277 105/176/278 102/172/267
s off
f 80/161/279 98/162/280 106/160/281 105/159/282
s 26
f 98/186/283 99/184/269 103/180/272 106/183/284
s off
f 50/167/285 104/166/286 101/165/287 28/168/288
