{
	"asset":{
		"generator":"Khronos glTF Blender I/O v3.6.27",
		"version":"2.0"
	},
	"extensionsUsed":[
		"KHR_materials_transmission",
		"KHR_materials_specular",
		"KHR_materials_ior"
	],
	"scene":0,
	"scenes":[
		{
			"name":"Scene",
			"nodes":[
				0
			]
		}
	],
	"nodes":[
		{
			"mesh":0,
			"name":"remadeClock",
			"rotation":[
				0,
				0.7087856531143188,
				0,
				0.705423891544342
			],
			"scale":[
				0.014500000514090061,
				0.014499999582767487,
				0.014500000514090061
			]
		}
	],
	"materials":[
		{
			"alphaMode":"BLEND",
			"doubleSided":true,
			"extensions":{
				"KHR_materials_transmission":{
					"transmissionFactor":1
				},
				"KHR_materials_specular":{
					"specularColorFactor":[
						1,
						1,
						1
					]
				},
				"KHR_materials_ior":{
					"ior":1
				}
			},
			"name":"lambert3SG",
			"pbrMetallicRoughness":{
				"baseColorFactor":[
					0.5799999833106995,
					0.5799999833106995,
					0.5799999833106995,
					1
				],
				"metallicFactor":0
			}
		},
		{
			"alphaMode":"BLEND",
			"doubleSided":true,
			"extensions":{
				"KHR_materials_specular":{
					"specularColorFactor":[
						1,
						1,
						1
					]
				},
				"KHR_materials_ior":{
					"ior":0
				}
			},
			"name":"standardSurface2SG",
			"pbrMetallicRoughness":{
				"baseColorFactor":[
					0,
					0,
					0,
					1
				],
				"metallicFactor":0
			}
		},
		{
			"alphaMode":"BLEND",
			"doubleSided":true,
			"extensions":{
				"KHR_materials_specular":{
					"specularColorFactor":[
						1,
						1,
						1
					]
				},
				"KHR_materials_ior":{
					"ior":1
				}
			},
			"name":"initialShadingGroup",
			"pbrMetallicRoughness":{
				"metallicFactor":0
			}
		},
		{
			"alphaMode":"BLEND",
			"doubleSided":true,
			"extensions":{
				"KHR_materials_specular":{
					"specularColorFactor":[
						1,
						1,
						1
					]
				},
				"KHR_materials_ior":{
					"ior":1
				}
			},
			"name":"lambert2SG",
			"pbrMetallicRoughness":{
				"baseColorFactor":[
					0.10999999940395355,
					0.07000000029802322,
					0.05000000074505806,
					1
				],
				"metallicFactor":0,
				"roughnessFactor":0.8722110986709595
			}
		}
	],
	"meshes":[
		{
			"name":"remadeClock",
			"primitives":[
				{
					"attributes":{
						"POSITION":0,
						"NORMAL":1,
						"TEXCOORD_0":2
					},
					"indices":3,
					"material":0
				},
				{
					"attributes":{
						"POSITION":4,
						"NORMAL":5,
						"TEXCOORD_0":6
					},
					"indices":7,
					"material":1
				},
				{
					"attributes":{
						"POSITION":8,
						"NORMAL":9,
						"TEXCOORD_0":10
					},
					"indices":11,
					"material":2
				},
				{
					"attributes":{
						"POSITION":12,
						"NORMAL":13,
						"TEXCOORD_0":14
					},
					"indices":15,
					"material":3
				}
			]
		}
	],
	"accessors":[
		{
			"bufferView":0,
			"componentType":5126,
			"count":322,
			"max":[
				6.288324356079102,
				18.1097469329834,
				4.787590980529785
			],
			"min":[
				-6.156464576721191,
				5.665985107421875,
				3.342374324798584
			],
			"type":"VEC3"
		},
		{
			"bufferView":1,
			"componentType":5126,
			"count":322,
			"type":"VEC3"
		},
		{
			"bufferView":2,
			"componentType":5126,
			"count":322,
			"type":"VEC2"
		},
		{
			"bufferView":3,
			"componentType":5123,
			"count":1536,
			"type":"SCALAR"
		},
		{
			"bufferView":4,
			"componentType":5126,
			"count":1348,
			"max":[
				3.0188136100769043,
				16.28570556640625,
				3.7439208030700684
			],
			"min":[
				-3.7685370445251465,
				11.790777206420898,
				3.622828722000122
			],
			"type":"VEC3"
		},
		{
			"bufferView":5,
			"componentType":5126,
			"count":1348,
			"type":"VEC3"
		},
		{
			"bufferView":6,
			"componentType":5126,
			"count":1348,
			"type":"VEC2"
		},
		{
			"bufferView":7,
			"componentType":5123,
			"count":7296,
			"type":"SCALAR"
		},
		{
			"bufferView":8,
			"componentType":5126,
			"count":144,
			"max":[
				5.961134433746338,
				17.73741912841797,
				4.009389400482178
			],
			"min":[
				-5.961134433746338,
				5.75285005569458,
				3.1122355461120605
			],
			"type":"VEC3"
		},
		{
			"bufferView":9,
			"componentType":5126,
			"count":144,
			"type":"VEC3"
		},
		{
			"bufferView":10,
			"componentType":5126,
			"count":144,
			"type":"VEC2"
		},
		{
			"bufferView":11,
			"componentType":5123,
			"count":240,
			"type":"SCALAR"
		},
		{
			"bufferView":12,
			"componentType":5126,
			"count":5285,
			"max":[
				19.167625427246094,
				19.897136688232422,
				5.199095726013184
			],
			"min":[
				-19.167625427246094,
				0.013757902197539806,
				-5.057684421539307
			],
			"type":"VEC3"
		},
		{
			"bufferView":13,
			"componentType":5126,
			"count":5285,
			"type":"VEC3"
		},
		{
			"bufferView":14,
			"componentType":5126,
			"count":5285,
			"type":"VEC2"
		},
		{
			"bufferView":15,
			"componentType":5123,
			"count":11742,
			"type":"SCALAR"
		}
	],
	"bufferViews":[
		{
			"buffer":0,
			"byteLength":3864,
			"byteOffset":0,
			"target":34962
		},
		{
			"buffer":0,
			"byteLength":3864,
			"byteOffset":3864,
			"target":34962
		},
		{
			"buffer":0,
			"byteLength":2576,
			"byteOffset":7728,
			"target":34962
		},
		{
			"buffer":0,
			"byteLength":3072,
			"byteOffset":10304,
			"target":34963
		},
		{
			"buffer":0,
			"byteLength":16176,
			"byteOffset":13376,
			"target":34962
		},
		{
			"buffer":0,
			"byteLength":16176,
			"byteOffset":29552,
			"target":34962
		},
		{
			"buffer":0,
			"byteLength":10784,
			"byteOffset":45728,
			"target":34962
		},
		{
			"buffer":0,
			"byteLength":14592,
			"byteOffset":56512,
			"target":34963
		},
		{
			"buffer":0,
			"byteLength":1728,
			"byteOffset":71104,
			"target":34962
		},
		{
			"buffer":0,
			"byteLength":1728,
			"byteOffset":72832,
			"target":34962
		},
		{
			"buffer":0,
			"byteLength":1152,
			"byteOffset":74560,
			"target":34962
		},
		{
			"buffer":0,
			"byteLength":480,
			"byteOffset":75712,
			"target":34963
		},
		{
			"buffer":0,
			"byteLength":63420,
			"byteOffset":76192,
			"target":34962
		},
		{
			"buffer":0,
			"byteLength":63420,
			"byteOffset":139612,
			"target":34962
		},
		{
			"buffer":0,
			"byteLength":42280,
			"byteOffset":203032,
			"target":34962
		},
		{
			"buffer":0,
			"byteLength":23484,
			"byteOffset":245312,
			"target":34963
		}
	],
	"buffers":[
		{
			"byteLength":268796,
			"uri":"data:application/octet-stream;base64,"
		}
	]
}
