{
	"asset":{
		"generator":"Khronos glTF Blender I/O v3.6.27",
		"version":"2.0"
	},
	"extensionsUsed":[
		"KHR_materials_specular",
		"KHR_materials_ior"
	],
	"scene":0,
	"scenes":[
		{
			"name":"Scene",
			"nodes":[
				0
			]
		}
	],
	"nodes":[
		{
			"mesh":0,
			"name":"CPUterminal",
			"rotation":[
				0.7071068286895752,
				0,
				0,
				0.7071068286895752
			]
		}
	],
	"materials":[
		{
			"doubleSided":true,
			"extensions":{
				"KHR_materials_specular":{
					"specularColorFactor":[
						1,
						1,
						1
					]
				},
				"KHR_materials_ior":{
					"ior":1
				}
			},
			"name":"rename",
			"pbrMetallicRoughness":{
				"baseColorFactor":[
					0.03999999910593033,
					0.03999999910593033,
					0.05000000074505806,
					1
				],
				"metallicFactor":0
			}
		},
		{
			"doubleSided":true,
			"extensions":{
				"KHR_materials_specular":{
					"specularColorFactor":[
						1,
						1,
						1
					]
				},
				"KHR_materials_ior":{
					"ior":1
				}
			},
			"name":"lambert3SG",
			"pbrMetallicRoughness":{
				"baseColorFactor":[
					0.8100000023841858,
					0.7799999713897705,
					0.6000000238418579,
					1
				],
				"metallicFactor":0
			}
		},
		{
			"doubleSided":true,
			"extensions":{
				"KHR_materials_specular":{
					"specularColorFactor":[
						0.08,
						0.08,
						0.08
					]
				},
				"KHR_materials_ior":{
					"ior":0
				}
			},
			"name":"standardSurface4SG",
			"pbrMetallicRoughness":{
				"baseColorFactor":[
					0,
					0,
					0,
					1
				],
				"metallicFactor":0
			}
		},
		{
			"doubleSided":true,
			"extensions":{
				"KHR_materials_specular":{
					"specularColorFactor":[
						1,
						1,
						1
					]
				},
				"KHR_materials_ior":{
					"ior":1
				}
			},
			"name":"initialShadingGroup",
			"pbrMetallicRoughness":{
				"baseColorFactor":[
					0.5,
					0.5,
					0.5,
					1
				],
				"metallicFactor":0
			}
		}
	],
	"meshes":[
		{
			"name":"CPUterminal",
			"primitives":[
				{
					"attributes":{
						"POSITION":0,
						"NORMAL":1,
						"TEXCOORD_0":2
					},
					"indices":3,
					"material":0
				},
				{
					"attributes":{
						"POSITION":4,
						"NORMAL":5,
						"TEXCOORD_0":6
					},
					"indices":7,
					"material":1
				},
				{
					"attributes":{
						"POSITION":8,
						"NORMAL":9,
						"TEXCOORD_0":10
					},
					"indices":11,
					"material":2
				},
				{
					"attributes":{
						"POSITION":12,
						"NORMAL":13,
						"TEXCOORD_0":14
					},
					"indices":15,
					"material":3
				}
			]
		}
	],
	"accessors":[
		{
			"bufferView":0,
			"componentType":5126,
			"count":2092,
			"max":[
				0.3417699933052063,
				0.6043400168418884,
				0
			],
			"min":[
				-0.34038999676704407,
				-0.22403299808502197,
				-0.43284299969673157
			],
			"type":"VEC3"
		},
		{
			"bufferView":1,
			"componentType":5126,
			"count":2092,
			"type":"VEC3"
		},
		{
			"bufferView":2,
			"componentType":5126,
			"count":2092,
			"type":"VEC2"
		},
		{
			"bufferView":3,
			"componentType":5123,
			"count":8046,
			"type":"SCALAR"
		},
		{
			"bufferView":4,
			"componentType":5126,
			"count":2714,
			"max":[
				0.3679890036582947,
				0.6355720162391663,
				0
			],
			"min":[
				-0.3679890036582947,
				-0.22403299808502197,
				-0.45925000309944153
			],
			"type":"VEC3"
		},
		{
			"bufferView":5,
			"componentType":5126,
			"count":2714,
			"type":"VEC3"
		},
		{
			"bufferView":6,
			"componentType":5126,
			"count":2714,
			"type":"VEC2"
		},
		{
			"bufferView":7,
			"componentType":5123,
			"count":9090,
			"type":"SCALAR"
		},
		{
			"bufferView":8,
			"componentType":5126,
			"count":25,
			"max":[
				0.19972699880599976,
				0.2436169981956482,
				-0.10085099935531616
			],
			"min":[
				-0.19972699880599976,
				0.18476399779319763,
				-0.3389270007610321
			],
			"type":"VEC3"
		},
		{
			"bufferView":9,
			"componentType":5126,
			"count":25,
			"type":"VEC3"
		},
		{
			"bufferView":10,
			"componentType":5126,
			"count":25,
			"type":"VEC2"
		},
		{
			"bufferView":11,
			"componentType":5123,
			"count":96,
			"type":"SCALAR"
		},
		{
			"bufferView":12,
			"componentType":5126,
			"count":1405,
			"max":[
				0.16977299749851227,
				0.5444980263710022,
				-0.05483600124716759
			],
			"min":[
				-0.26969000697135925,
				0.4439679980278015,
				-0.07246699929237366
			],
			"type":"VEC3"
		},
		{
			"bufferView":13,
			"componentType":5126,
			"count":1405,
			"type":"VEC3"
		},
		{
			"bufferView":14,
			"componentType":5126,
			"count":1405,
			"type":"VEC2"
		},
		{
			"bufferView":15,
			"componentType":5123,
			"count":3456,
			"type":"SCALAR"
		}
	],
	"bufferViews":[
		{
			"buffer":0,
			"byteLength":25104,
			"byteOffset":0,
			"target":34962
		},
		{
			"buffer":0,
			"byteLength":25104,
			"byteOffset":25104,
			"target":34962
		},
		{
			"buffer":0,
			"byteLength":16736,
			"byteOffset":50208,
			"target":34962
		},
		{
			"buffer":0,
			"byteLength":16092,
			"byteOffset":66944,
			"target":34963
		},
		{
			"buffer":0,
			"byteLength":32568,
			"byteOffset":83036,
			"target":34962
		},
		{
			"buffer":0,
			"byteLength":32568,
			"byteOffset":115604,
			"target":34962
		},
		{
			"buffer":0,
			"byteLength":21712,
			"byteOffset":148172,
			"target":34962
		},
		{
			"buffer":0,
			"byteLength":18180,
			"byteOffset":169884,
			"target":34963
		},
		{
			"buffer":0,
			"byteLength":300,
			"byteOffset":188064,
			"target":34962
		},
		{
			"buffer":0,
			"byteLength":300,
			"byteOffset":188364,
			"target":34962
		},
		{
			"buffer":0,
			"byteLength":200,
			"byteOffset":188664,
			"target":34962
		},
		{
			"buffer":0,
			"byteLength":192,
			"byteOffset":188864,
			"target":34963
		},
		{
			"buffer":0,
			"byteLength":16860,
			"byteOffset":189056,
			"target":34962
		},
		{
			"buffer":0,
			"byteLength":16860,
			"byteOffset":205916,
			"target":34962
		},
		{
			"buffer":0,
			"byteLength":11240,
			"byteOffset":222776,
			"target":34962
		},
		{
			"buffer":0,
			"byteLength":6912,
			"byteOffset":234016,
			"target":34963
		}
	],
	"buffers":[
		{
			"byteLength":240928,
			"uri":"data:application/octet-stream;base64,"
		}
	]
}
