{
	"asset":{
		"generator":"Khronos glTF Blender I/O v3.6.27",
		"version":"2.0"
	},
	"extensionsUsed":[
		"KHR_materials_specular",
		"KHR_materials_ior"
	],
	"scene":0,
	"scenes":[
		{
			"name":"Scene",
			"nodes":[
				0,
				1,
				2,
				3,
				4,
				5,
				6,
				7,
				8
			]
		}
	],
	"nodes":[
		{
			"mesh":0,
			"name":"Room",
			"scale":[
				6,
				2.5,
				8
			]
		},
		{
			"mesh":1,
			"name":"Chalkboard",
			"scale":[
				0.06500530242919922,
				1,
				3
			],
			"translation":[
				-5.912694454193115,
				2,
				0
			]
		},
		{
			"mesh":2,
			"name":"Chalk",
			"rotation":[
				0.7058586478233337,
				-0.04199453070759773,
				0.041994523257017136,
				0.7058587074279785
			],
			"scale":[
				0.02238120511174202,
				0.10872098803520203,
				0.02238120324909687
			],
			"translation":[
				-5.807794094085693,
				1.1778682470321655,
				-2.1613686084747314
			]
		},
		{
			"mesh":3,
			"name":"Cube.011",
			"scale":[
				0.25,
				0.125,
				3
			],
			"translation":[
				5.742987632751465,
				2,
				4
			]
		},
		{
			"mesh":4,
			"name":"Cube.012",
			"scale":[
				0.25,
				0.125,
				3
			],
			"translation":[
				5.742987632751465,
				3.0545220375061035,
				4
			]
		},
		{
			"mesh":5,
			"name":"Cube.013",
			"scale":[
				0.25,
				0.125,
				3
			],
			"translation":[
				5.742987632751465,
				1.0434284210205078,
				4
			]
		},
		{
			"mesh":6,
			"name":"Cylinder",
			"scale":[
				0.4760645627975464,
				0.4760645627975464,
				0.4760645627975464
			],
			"translation":[
				0,
				0,
				-5
			]
		},
		{
			"mesh":7,
			"name":"Cylinder.003",
			"scale":[
				0.4760645627975464,
				0.4760645627975464,
				0.4760645627975464
			],
			"translation":[
				3,
				0,
				-5
			]
		},
		{
			"mesh":8,
			"name":"Cylinder.001",
			"scale":[
				0.4760645627975464,
				0.4760645627975464,
				0.4760645627975464
			],
			"translation":[
				-3,
				0,
				-5
			]
		}
	],
	"materials":[
		{
			"doubleSided":true,
			"name":"CreativeRoomWalls.002",
			"pbrMetallicRoughness":{
				"baseColorFactor":[
					0.9559723734855652,
					0.9473055005073547,
					0.9215818643569946,
					1
				],
				"metallicFactor":0,
				"roughnessFactor":0.5
			}
		},
		{
			"doubleSided":true,
			"name":"CreativeRoomFloor.002",
			"pbrMetallicRoughness":{
				"baseColorFactor":[
					0.09305892884731293,
					0.046665046364068985,
					0.026241227984428406,
					1
				],
				"metallicFactor":0,
				"roughnessFactor":0.5
			}
		},
		{
			"doubleSided":true,
			"name":"CreativeRoomCeiling.002",
			"pbrMetallicRoughness":{
				"baseColorFactor":[
					0.015620948746800423,
					0.015620948746800423,
					0.015620948746800423,
					1
				],
				"metallicFactor":0,
				"roughnessFactor":0.5
			}
		},
		{
			"doubleSided":true,
			"extensions":{
				"KHR_materials_specular":{
					"specularColorFactor":[
						0.7796736030645874,
						0.7796736030645874,
						0.7796736030645874
					]
				},
				"KHR_materials_ior":{
					"ior":1.4500000476837158
				}
			},
			"name":"Chalkboard.004",
			"pbrMetallicRoughness":{
				"baseColorFactor":[
					0.017593856900930405,
					0.017593856900930405,
					0.017593856900930405,
					1
				],
				"metallicFactor":0,
				"roughnessFactor":0.5242424011230469
			}
		},
		{
			"doubleSided":true,
			"extensions":{
				"KHR_materials_specular":{
					"specularColorFactor":[
						0.7796736030645874,
						0.7796736030645874,
						0.7796736030645874
					]
				},
				"KHR_materials_ior":{
					"ior":1.4500000476837158
				}
			},
			"name":"Chalkboard.005",
			"pbrMetallicRoughness":{
				"baseColorFactor":[
					0.16634702682495117,
					0.15587455034255981,
					0.0366688072681427,
					1
				],
				"metallicFactor":0,
				"roughnessFactor":0.5242424011230469
			}
		},
		{
			"doubleSided":true,
			"extensions":{
				"KHR_materials_specular":{
					"specularColorFactor":[
						0.7796736030645874,
						0.7796736030645874,
						0.7796736030645874
					]
				},
				"KHR_materials_ior":{
					"ior":1.4500000476837158
				}
			},
			"name":"Shelf.002",
			"pbrMetallicRoughness":{
				"baseColorFactor":[
					0.16634702682495117,
					0.15587455034255981,
					0.0366688072681427,
					1
				],
				"metallicFactor":0,
				"roughnessFactor":0.5242424011230469
			}
		},
		{
			"doubleSided":true,
			"name":"CreativeRoomPedestal.002",
			"pbrMetallicRoughness":{
				"baseColorFactor":[
					0.015483850613236427,
					0.015483850613236427,
					0.015483850613236427,
					1
				],
				"metallicFactor":0,
				"roughnessFactor":0.5
			}
		}
	],
	"meshes":[
		{
			"name":"Cube.020",
			"primitives":[
				{
					"attributes":{
						"POSITION":0,
						"NORMAL":1,
						"TEXCOORD_0":2
					},
					"indices":3,
					"material":0
				},
				{
					"attributes":{
						"POSITION":4,
						"NORMAL":5,
						"TEXCOORD_0":6
					},
					"indices":7,
					"material":1
				},
				{
					"attributes":{
						"POSITION":8,
						"NORMAL":9,
						"TEXCOORD_0":10
					},
					"indices":11,
					"material":2
				}
			]
		},
		{
			"name":"Cube.021",
			"primitives":[
				{
					"attributes":{
						"POSITION":12,
						"NORMAL":13,
						"TEXCOORD_0":14
					},
					"indices":15,
					"material":3
				},
				{
					"attributes":{
						"POSITION":16,
						"NORMAL":17,
						"TEXCOORD_0":18
					},
					"indices":19,
					"material":4
				}
			]
		},
		{
			"name":"Cylinder.008",
			"primitives":[
				{
					"attributes":{
						"POSITION":20,
						"NORMAL":21,
						"TEXCOORD_0":22
					},
					"indices":23
				}
			]
		},
		{
			"name":"Cube.022",
			"primitives":[
				{
					"attributes":{
						"POSITION":24,
						"NORMAL":25,
						"TEXCOORD_0":26
					},
					"indices":27,
					"material":5
				}
			]
		},
		{
			"name":"Cube.023",
			"primitives":[
				{
					"attributes":{
						"POSITION":28,
						"NORMAL":29,
						"TEXCOORD_0":30
					},
					"indices":27,
					"material":5
				}
			]
		},
		{
			"name":"Cube.024",
			"primitives":[
				{
					"attributes":{
						"POSITION":31,
						"NORMAL":32,
						"TEXCOORD_0":33
					},
					"indices":27,
					"material":5
				}
			]
		},
		{
			"name":"Cylinder.009",
			"primitives":[
				{
					"attributes":{
						"POSITION":34,
						"NORMAL":35,
						"TEXCOORD_0":36
					},
					"indices":37,
					"material":6
				}
			]
		},
		{
			"name":"Cylinder.010",
			"primitives":[
				{
					"attributes":{
						"POSITION":38,
						"NORMAL":39,
						"TEXCOORD_0":40
					},
					"indices":37,
					"material":6
				}
			]
		},
		{
			"name":"Cylinder.011",
			"primitives":[
				{
					"attributes":{
						"POSITION":41,
						"NORMAL":42,
						"TEXCOORD_0":43
					},
					"indices":37,
					"material":6
				}
			]
		}
	],
	"accessors":[
		{
			"bufferView":0,
			"componentType":5126,
			"count":36,
			"max":[
				1,
				2,
				1
			],
			"min":[
				-1,
				0,
				-1
			],
			"type":"VEC3"
		},
		{
			"bufferView":1,
			"componentType":5126,
			"count":36,
			"type":"VEC3"
		},
		{
			"bufferView":2,
			"componentType":5126,
			"count":36,
			"type":"VEC2"
		},
		{
			"bufferView":3,
			"componentType":5123,
			"count":90,
			"type":"SCALAR"
		},
		{
			"bufferView":4,
			"componentType":5126,
			"count":8,
			"max":[
				1,
				0,
				1
			],
			"min":[
				-1,
				0,
				-1
			],
			"type":"VEC3"
		},
		{
			"bufferView":5,
			"componentType":5126,
			"count":8,
			"type":"VEC3"
		},
		{
			"bufferView":6,
			"componentType":5126,
			"count":8,
			"type":"VEC2"
		},
		{
			"bufferView":7,
			"componentType":5123,
			"count":18,
			"type":"SCALAR"
		},
		{
			"bufferView":8,
			"componentType":5126,
			"count":8,
			"max":[
				1,
				2,
				1
			],
			"min":[
				-1,
				2,
				-1
			],
			"type":"VEC3"
		},
		{
			"bufferView":9,
			"componentType":5126,
			"count":8,
			"type":"VEC3"
		},
		{
			"bufferView":10,
			"componentType":5126,
			"count":8,
			"type":"VEC2"
		},
		{
			"bufferView":11,
			"componentType":5123,
			"count":18,
			"type":"SCALAR"
		},
		{
			"bufferView":12,
			"componentType":5126,
			"count":20,
			"max":[
				1,
				1,
				1
			],
			"min":[
				-1,
				-0.8413641452789307,
				-1
			],
			"type":"VEC3"
		},
		{
			"bufferView":13,
			"componentType":5126,
			"count":20,
			"type":"VEC3"
		},
		{
			"bufferView":14,
			"componentType":5126,
			"count":20,
			"type":"VEC2"
		},
		{
			"bufferView":15,
			"componentType":5123,
			"count":30,
			"type":"SCALAR"
		},
		{
			"bufferView":16,
			"componentType":5126,
			"count":30,
			"max":[
				2.8056344985961914,
				-0.8413641452789307,
				1
			],
			"min":[
				-1,
				-1,
				-1
			],
			"type":"VEC3"
		},
		{
			"bufferView":17,
			"componentType":5126,
			"count":30,
			"type":"VEC3"
		},
		{
			"bufferView":18,
			"componentType":5126,
			"count":30,
			"type":"VEC2"
		},
		{
			"bufferView":19,
			"componentType":5123,
			"count":54,
			"type":"SCALAR"
		},
		{
			"bufferView":20,
			"componentType":5126,
			"count":192,
			"max":[
				1,
				1,
				1
			],
			"min":[
				-1,
				-1,
				-1
			],
			"type":"VEC3"
		},
		{
			"bufferView":21,
			"componentType":5126,
			"count":192,
			"type":"VEC3"
		},
		{
			"bufferView":22,
			"componentType":5126,
			"count":192,
			"type":"VEC2"
		},
		{
			"bufferView":23,
			"componentType":5123,
			"count":372,
			"type":"SCALAR"
		},
		{
			"bufferView":24,
			"componentType":5126,
			"count":24,
			"max":[
				1,
				1,
				1
			],
			"min":[
				-1,
				-1,
				-1
			],
			"type":"VEC3"
		},
		{
			"bufferView":25,
			"componentType":5126,
			"count":24,
			"type":"VEC3"
		},
		{
			"bufferView":26,
			"componentType":5126,
			"count":24,
			"type":"VEC2"
		},
		{
			"bufferView":27,
			"componentType":5123,
			"count":36,
			"type":"SCALAR"
		},
		{
			"bufferView":28,
			"componentType":5126,
			"count":24,
			"max":[
				1,
				1,
				1
			],
			"min":[
				-1,
				-1,
				-1
			],
			"type":"VEC3"
		},
		{
			"bufferView":29,
			"componentType":5126,
			"count":24,
			"type":"VEC3"
		},
		{
			"bufferView":30,
			"componentType":5126,
			"count":24,
			"type":"VEC2"
		},
		{
			"bufferView":31,
			"componentType":5126,
			"count":24,
			"max":[
				1,
				1,
				1
			],
			"min":[
				-1,
				-1,
				-1
			],
			"type":"VEC3"
		},
		{
			"bufferView":32,
			"componentType":5126,
			"count":24,
			"type":"VEC3"
		},
		{
			"bufferView":33,
			"componentType":5126,
			"count":24,
			"type":"VEC2"
		},
		{
			"bufferView":34,
			"componentType":5126,
			"count":384,
			"max":[
				1,
				2.1725943088531494,
				1
			],
			"min":[
				-1,
				0,
				-1
			],
			"type":"VEC3"
		},
		{
			"bufferView":35,
			"componentType":5126,
			"count":384,
			"type":"VEC3"
		},
		{
			"bufferView":36,
			"componentType":5126,
			"count":384,
			"type":"VEC2"
		},
		{
			"bufferView":37,
			"componentType":5123,
			"count":744,
			"type":"SCALAR"
		},
		{
			"bufferView":38,
			"componentType":5126,
			"count":384,
			"max":[
				1,
				2.1725943088531494,
				1
			],
			"min":[
				-1,
				0,
				-1
			],
			"type":"VEC3"
		},
		{
			"bufferView":39,
			"componentType":5126,
			"count":384,
			"type":"VEC3"
		},
		{
			"bufferView":40,
			"componentType":5126,
			"count":384,
			"type":"VEC2"
		},
		{
			"bufferView":41,
			"componentType":5126,
			"count":384,
			"max":[
				1,
				2.1725943088531494,
				1
			],
			"min":[
				-1,
				0,
				-1
			],
			"type":"VEC3"
		},
		{
			"bufferView":42,
			"componentType":5126,
			"count":384,
			"type":"VEC3"
		},
		{
			"bufferView":43,
			"componentType":5126,
			"count":384,
			"type":"VEC2"
		}
	],
	"bufferViews":[
		{
			"buffer":0,
			"byteLength":432,
			"byteOffset":0,
			"target":34962
		},
		{
			"buffer":0,
			"byteLength":432,
			"byteOffset":432,
			"target":34962
		},
		{
			"buffer":0,
			"byteLength":288,
			"byteOffset":864,
			"target":34962
		},
		{
			"buffer":0,
			"byteLength":180,
			"byteOffset":1152,
			"target":34963
		},
		{
			"buffer":0,
			"byteLength":96,
			"byteOffset":1332,
			"target":34962
		},
		{
			"buffer":0,
			"byteLength":96,
			"byteOffset":1428,
			"target":34962
		},
		{
			"buffer":0,
			"byteLength":64,
			"byteOffset":1524,
			"target":34962
		},
		{
			"buffer":0,
			"byteLength":36,
			"byteOffset":1588,
			"target":34963
		},
		{
			"buffer":0,
			"byteLength":96,
			"byteOffset":1624,
			"target":34962
		},
		{
			"buffer":0,
			"byteLength":96,
			"byteOffset":1720,
			"target":34962
		},
		{
			"buffer":0,
			"byteLength":64,
			"byteOffset":1816,
			"target":34962
		},
		{
			"buffer":0,
			"byteLength":36,
			"byteOffset":1880,
			"target":34963
		},
		{
			"buffer":0,
			"byteLength":240,
			"byteOffset":1916,
			"target":34962
		},
		{
			"buffer":0,
			"byteLength":240,
			"byteOffset":2156,
			"target":34962
		},
		{
			"buffer":0,
			"byteLength":160,
			"byteOffset":2396,
			"target":34962
		},
		{
			"buffer":0,
			"byteLength":60,
			"byteOffset":2556,
			"target":34963
		},
		{
			"buffer":0,
			"byteLength":360,
			"byteOffset":2616,
			"target":34962
		},
		{
			"buffer":0,
			"byteLength":360,
			"byteOffset":2976,
			"target":34962
		},
		{
			"buffer":0,
			"byteLength":240,
			"byteOffset":3336,
			"target":34962
		},
		{
			"buffer":0,
			"byteLength":108,
			"byteOffset":3576,
			"target":34963
		},
		{
			"buffer":0,
			"byteLength":2304,
			"byteOffset":3684,
			"target":34962
		},
		{
			"buffer":0,
			"byteLength":2304,
			"byteOffset":5988,
			"target":34962
		},
		{
			"buffer":0,
			"byteLength":1536,
			"byteOffset":8292,
			"target":34962
		},
		{
			"buffer":0,
			"byteLength":744,
			"byteOffset":9828,
			"target":34963
		},
		{
			"buffer":0,
			"byteLength":288,
			"byteOffset":10572,
			"target":34962
		},
		{
			"buffer":0,
			"byteLength":288,
			"byteOffset":10860,
			"target":34962
		},
		{
			"buffer":0,
			"byteLength":192,
			"byteOffset":11148,
			"target":34962
		},
		{
			"buffer":0,
			"byteLength":72,
			"byteOffset":11340,
			"target":34963
		},
		{
			"buffer":0,
			"byteLength":288,
			"byteOffset":11412,
			"target":34962
		},
		{
			"buffer":0,
			"byteLength":288,
			"byteOffset":11700,
			"target":34962
		},
		{
			"buffer":0,
			"byteLength":192,
			"byteOffset":11988,
			"target":34962
		},
		{
			"buffer":0,
			"byteLength":288,
			"byteOffset":12180,
			"target":34962
		},
		{
			"buffer":0,
			"byteLength":288,
			"byteOffset":12468,
			"target":34962
		},
		{
			"buffer":0,
			"byteLength":192,
			"byteOffset":12756,
			"target":34962
		},
		{
			"buffer":0,
			"byteLength":4608,
			"byteOffset":12948,
			"target":34962
		},
		{
			"buffer":0,
			"byteLength":4608,
			"byteOffset":17556,
			"target":34962
		},
		{
			"buffer":0,
			"byteLength":3072,
			"byteOffset":22164,
			"target":34962
		},
		{
			"buffer":0,
			"byteLength":1488,
			"byteOffset":25236,
			"target":34963
		},
		{
			"buffer":0,
			"byteLength":4608,
			"byteOffset":26724,
			"target":34962
		},
		{
			"buffer":0,
			"byteLength":4608,
			"byteOffset":31332,
			"target":34962
		},
		{
			"buffer":0,
			"byteLength":3072,
			"byteOffset":35940,
			"target":34962
		},
		{
			"buffer":0,
			"byteLength":4608,
			"byteOffset":39012,
			"target":34962
		},
		{
			"buffer":0,
			"byteLength":4608,
			"byteOffset":43620,
			"target":34962
		},
		{
			"buffer":0,
			"byteLength":3072,
			"byteOffset":48228,
			"target":34962
		}
	],
	"buffers":[
		{
			"byteLength":51300,
			"uri":"data:application/octet-stream;base64,"
		}
	]
}
