{
	"asset":{
		"generator":"Khronos glTF Blender I/O v3.6.27",
		"version":"2.0"
	},
	"extensionsUsed":[
		"KHR_materials_specular",
		"KHR_materials_ior"
	],
	"scene":0,
	"scenes":[
		{
			"name":"Scene",
			"nodes":[
				0
			]
		}
	],
	"nodes":[
		{
			"mesh":0,
			"name":"Main Room",
			"rotation":[
				0,
				0.7066959738731384,
				0,
				0.7075173258781433
			],
			"scale":[
				6,
				2.5,
				7.999999523162842
			]
		}
	],
	"materials":[
		{
			"doubleSided":true,
			"name":"CreativeRoomWalls.002",
			"pbrMetallicRoughness":{
				"baseColorFactor":[
					0.07809392362833023,
					0.46238863468170166,
					0.12923474609851837,
					1
				],
				"metallicFactor":0,
				"roughnessFactor":0.5
			}
		},
		{
			"doubleSided":true,
			"name":"CreativeRoomFloor.002",
			"pbrMetallicRoughness":{
				"baseColorFactor":[
					0.041338007897138596,
					0.021834630519151688,
					0.012974593788385391,
					1
				],
				"metallicFactor":0,
				"roughnessFactor":0.5
			}
		},
		{
			"doubleSided":true,
			"name":"CreativeRoomCeiling.002",
			"pbrMetallicRoughness":{
				"baseColorFactor":[
					0.18842528760433197,
					0.18842528760433197,
					0.18842528760433197,
					1
				],
				"metallicFactor":0,
				"roughnessFactor":0.5
			}
		},
		{
			"doubleSided":true,
			"extensions":{
				"KHR_materials_specular":{
					"specularColorFactor":[
						0.7796736030645874,
						0.7796736030645874,
						0.7796736030645874
					]
				},
				"KHR_materials_ior":{
					"ior":1.4500000476837158
				}
			},
			"name":"Chalkboard.004",
			"pbrMetallicRoughness":{
				"baseColorFactor":[
					0.017593856900930405,
					0.017593856900930405,
					0.017593856900930405,
					1
				],
				"metallicFactor":0,
				"roughnessFactor":0.5242424011230469
			}
		},
		{
			"doubleSided":true,
			"extensions":{
				"KHR_materials_specular":{
					"specularColorFactor":[
						0.7796736030645874,
						0.7796736030645874,
						0.7796736030645874
					]
				},
				"KHR_materials_ior":{
					"ior":1.4500000476837158
				}
			},
			"name":"Chalkboard.005",
			"pbrMetallicRoughness":{
				"baseColorFactor":[
					0.16634702682495117,
					0.15587455034255981,
					0.0366688072681427,
					1
				],
				"metallicFactor":0,
				"roughnessFactor":0.5242424011230469
			}
		},
		{
			"doubleSided":true,
			"extensions":{
				"KHR_materials_specular":{
					"specularColorFactor":[
						0.7796736030645874,
						0.7796736030645874,
						0.7796736030645874
					]
				},
				"KHR_materials_ior":{
					"ior":1.4500000476837158
				}
			},
			"name":"Shelf.002",
			"pbrMetallicRoughness":{
				"baseColorFactor":[
					0.16634702682495117,
					0.15587455034255981,
					0.0366688072681427,
					1
				],
				"metallicFactor":0,
				"roughnessFactor":0.5242424011230469
			}
		},
		{
			"doubleSided":true,
			"name":"CreativeRoomPedestal.002",
			"pbrMetallicRoughness":{
				"baseColorFactor":[
					0.5776962041854858,
					0.5776962041854858,
					0.5776962041854858,
					1
				],
				"metallicFactor":0,
				"roughnessFactor":0.5
			}
		}
	],
	"meshes":[
		{
			"name":"Cube.003",
			"primitives":[
				{
					"attributes":{
						"POSITION":0,
						"NORMAL":1,
						"TEXCOORD_0":2
					},
					"indices":3,
					"material":0
				},
				{
					"attributes":{
						"POSITION":4,
						"NORMAL":5,
						"TEXCOORD_0":6
					},
					"indices":7,
					"material":1
				},
				{
					"attributes":{
						"POSITION":8,
						"NORMAL":9,
						"TEXCOORD_0":10
					},
					"indices":11,
					"material":2
				},
				{
					"attributes":{
						"POSITION":12,
						"NORMAL":13,
						"TEXCOORD_0":14
					},
					"indices":15,
					"material":3
				},
				{
					"attributes":{
						"POSITION":16,
						"NORMAL":17,
						"TEXCOORD_0":18
					},
					"indices":19,
					"material":4
				},
				{
					"attributes":{
						"POSITION":20,
						"NORMAL":21,
						"TEXCOORD_0":22
					},
					"indices":23,
					"material":5
				},
				{
					"attributes":{
						"POSITION":24,
						"NORMAL":25,
						"TEXCOORD_0":26
					},
					"indices":27,
					"material":6
				}
			]
		}
	],
	"accessors":[
		{
			"bufferView":0,
			"componentType":5126,
			"count":72,
			"max":[
				2.961747646331787,
				2.000000238418579,
				0.6114562749862671
			],
			"min":[
				-1.0382527112960815,
				0,
				-2.2715859413146973
			],
			"type":"VEC3"
		},
		{
			"bufferView":1,
			"componentType":5126,
			"count":72,
			"type":"VEC3"
		},
		{
			"bufferView":2,
			"componentType":5126,
			"count":72,
			"type":"VEC2"
		},
		{
			"bufferView":3,
			"componentType":5123,
			"count":180,
			"type":"SCALAR"
		},
		{
			"bufferView":4,
			"componentType":5126,
			"count":16,
			"max":[
				2.961747646331787,
				0,
				0.6114562749862671
			],
			"min":[
				-1.0382527112960815,
				0,
				-2.2715859413146973
			],
			"type":"VEC3"
		},
		{
			"bufferView":5,
			"componentType":5126,
			"count":16,
			"type":"VEC3"
		},
		{
			"bufferView":6,
			"componentType":5126,
			"count":16,
			"type":"VEC2"
		},
		{
			"bufferView":7,
			"componentType":5123,
			"count":36,
			"type":"SCALAR"
		},
		{
			"bufferView":8,
			"componentType":5126,
			"count":303,
			"max":[
				2.961747646331787,
				2.000000238418579,
				0.6114562749862671
			],
			"min":[
				-1.0382527112960815,
				0.46219485998153687,
				-2.2715859413146973
			],
			"type":"VEC3"
		},
		{
			"bufferView":9,
			"componentType":5126,
			"count":303,
			"type":"VEC3"
		},
		{
			"bufferView":10,
			"componentType":5126,
			"count":303,
			"type":"VEC2"
		},
		{
			"bufferView":11,
			"componentType":5123,
			"count":408,
			"type":"SCALAR"
		},
		{
			"bufferView":12,
			"componentType":5126,
			"count":164,
			"max":[
				2.5055346488952637,
				1.6289732456207275,
				0.4438389539718628
			],
			"min":[
				0.9396921396255493,
				0.46345439553260803,
				-1.9791455268859863
			],
			"type":"VEC3"
		},
		{
			"bufferView":13,
			"componentType":5126,
			"count":164,
			"type":"VEC3"
		},
		{
			"bufferView":14,
			"componentType":5126,
			"count":164,
			"type":"VEC2"
		},
		{
			"bufferView":15,
			"componentType":5123,
			"count":246,
			"type":"SCALAR"
		},
		{
			"bufferView":16,
			"componentType":5126,
			"count":30,
			"max":[
				0.9613608121871948,
				0.46345439553260803,
				0.4438389539718628
			],
			"min":[
				0.9201294183731079,
				0.40000003576278687,
				-0.3061610460281372
			],
			"type":"VEC3"
		},
		{
			"bufferView":17,
			"componentType":5126,
			"count":30,
			"type":"VEC3"
		},
		{
			"bufferView":18,
			"componentType":5126,
			"count":30,
			"type":"VEC2"
		},
		{
			"bufferView":19,
			"componentType":5123,
			"count":54,
			"type":"SCALAR"
		},
		{
			"bufferView":20,
			"componentType":5126,
			"count":96,
			"max":[
				0.9855501651763916,
				1.1095929145812988,
				0.6107275485992432
			],
			"min":[
				-1.0712555646896362,
				0.3673713803291321,
				-0.9442138075828552
			],
			"type":"VEC3"
		},
		{
			"bufferView":21,
			"componentType":5126,
			"count":96,
			"type":"VEC3"
		},
		{
			"bufferView":22,
			"componentType":5126,
			"count":96,
			"type":"VEC2"
		},
		{
			"bufferView":23,
			"componentType":5123,
			"count":144,
			"type":"SCALAR"
		},
		{
			"bufferView":24,
			"componentType":5126,
			"count":1022,
			"max":[
				2.8356900215148926,
				1.1951937675476074,
				-0.37205857038497925
			],
			"min":[
				0.9498599767684937,
				-0.014210091903805733,
				-2.1283159255981445
			],
			"type":"VEC3"
		},
		{
			"bufferView":25,
			"componentType":5126,
			"count":1022,
			"type":"VEC3"
		},
		{
			"bufferView":26,
			"componentType":5126,
			"count":1022,
			"type":"VEC2"
		},
		{
			"bufferView":27,
			"componentType":5123,
			"count":1812,
			"type":"SCALAR"
		}
	],
	"bufferViews":[
		{
			"buffer":0,
			"byteLength":864,
			"byteOffset":0,
			"target":34962
		},
		{
			"buffer":0,
			"byteLength":864,
			"byteOffset":864,
			"target":34962
		},
		{
			"buffer":0,
			"byteLength":576,
			"byteOffset":1728,
			"target":34962
		},
		{
			"buffer":0,
			"byteLength":360,
			"byteOffset":2304,
			"target":34963
		},
		{
			"buffer":0,
			"byteLength":192,
			"byteOffset":2664,
			"target":34962
		},
		{
			"buffer":0,
			"byteLength":192,
			"byteOffset":2856,
			"target":34962
		},
		{
			"buffer":0,
			"byteLength":128,
			"byteOffset":3048,
			"target":34962
		},
		{
			"buffer":0,
			"byteLength":72,
			"byteOffset":3176,
			"target":34963
		},
		{
			"buffer":0,
			"byteLength":3636,
			"byteOffset":3248,
			"target":34962
		},
		{
			"buffer":0,
			"byteLength":3636,
			"byteOffset":6884,
			"target":34962
		},
		{
			"buffer":0,
			"byteLength":2424,
			"byteOffset":10520,
			"target":34962
		},
		{
			"buffer":0,
			"byteLength":816,
			"byteOffset":12944,
			"target":34963
		},
		{
			"buffer":0,
			"byteLength":1968,
			"byteOffset":13760,
			"target":34962
		},
		{
			"buffer":0,
			"byteLength":1968,
			"byteOffset":15728,
			"target":34962
		},
		{
			"buffer":0,
			"byteLength":1312,
			"byteOffset":17696,
			"target":34962
		},
		{
			"buffer":0,
			"byteLength":492,
			"byteOffset":19008,
			"target":34963
		},
		{
			"buffer":0,
			"byteLength":360,
			"byteOffset":19500,
			"target":34962
		},
		{
			"buffer":0,
			"byteLength":360,
			"byteOffset":19860,
			"target":34962
		},
		{
			"buffer":0,
			"byteLength":240,
			"byteOffset":20220,
			"target":34962
		},
		{
			"buffer":0,
			"byteLength":108,
			"byteOffset":20460,
			"target":34963
		},
		{
			"buffer":0,
			"byteLength":1152,
			"byteOffset":20568,
			"target":34962
		},
		{
			"buffer":0,
			"byteLength":1152,
			"byteOffset":21720,
			"target":34962
		},
		{
			"buffer":0,
			"byteLength":768,
			"byteOffset":22872,
			"target":34962
		},
		{
			"buffer":0,
			"byteLength":288,
			"byteOffset":23640,
			"target":34963
		},
		{
			"buffer":0,
			"byteLength":12264,
			"byteOffset":23928,
			"target":34962
		},
		{
			"buffer":0,
			"byteLength":12264,
			"byteOffset":36192,
			"target":34962
		},
		{
			"buffer":0,
			"byteLength":8176,
			"byteOffset":48456,
			"target":34962
		},
		{
			"buffer":0,
			"byteLength":3624,
			"byteOffset":56632,
			"target":34963
		}
	],
	"buffers":[
		{
			"byteLength":60256,
			"uri":"data:application/octet-stream;base64,"
		}
	]
}
