{
	"asset":{
		"generator":"Khronos glTF Blender I/O v3.6.27",
		"version":"2.0"
	},
	"extensionsUsed":[
		"KHR_materials_specular",
		"KHR_materials_ior"
	],
	"scene":0,
	"scenes":[
		{
			"name":"Scene",
			"nodes":[
				0,
				1,
				2,
				3,
				4,
				5,
				6,
				7,
				8,
				9,
				10,
				11,
				12
			]
		}
	],
	"nodes":[
		{
			"mesh":0,
			"name":"Room.001",
			"rotation":[
				0,
				0.7097333073616028,
				0,
				0.7044704556465149
			],
			"scale":[
				6,
				2.5,
				7.999999523162842
			],
			"translation":[
				-10.472755432128906,
				0,
				-12.012681007385254
			]
		},
		{
			"mesh":1,
			"name":"Room.002",
			"rotation":[
				0,
				-0.7044703960418701,
				0,
				0.7097333669662476
			],
			"scale":[
				6.000001430511475,
				2.5,
				8.000000953674316
			],
			"translation":[
				1.5188343524932861,
				0,
				-0.1016014814376831
			]
		},
		{
			"mesh":2,
			"name":"Chalkboard",
			"rotation":[
				0,
				-0.7044703960418701,
				0,
				0.7097334265708923
			],
			"scale":[
				0.06500531733036041,
				1,
				3.0000007152557373
			],
			"translation":[
				0.29550525546073914,
				1.999999761581421,
				-6.025332927703857
			]
		},
		{
			"mesh":3,
			"name":"Chalk",
			"rotation":[
				0.4713875353336334,
				-0.5270614624023438,
				0.527061402797699,
				0.4713875949382782
			],
			"scale":[
				0.02238120511174202,
				0.10872098803520203,
				0.02238120138645172
			],
			"translation":[
				2.457594156265259,
				1.1778680086135864,
				-5.936522006988525
			]
		},
		{
			"mesh":4,
			"name":"Cube.011",
			"rotation":[
				0,
				-0.999993085861206,
				0,
				0.003721470246091485
			],
			"scale":[
				0.25000008940696716,
				0.125,
				6.170419692993164
			],
			"translation":[
				4.424861431121826,
				1.999999761581421,
				-0.09562766551971436
			]
		},
		{
			"mesh":5,
			"name":"Cube.012",
			"rotation":[
				0,
				-0.999993085861206,
				0,
				0.003721470246091485
			],
			"scale":[
				0.25000008940696716,
				0.125,
				6.170419692993164
			],
			"translation":[
				4.424861431121826,
				3.0545217990875244,
				-0.09562766551971436
			]
		},
		{
			"mesh":6,
			"name":"Cube.013",
			"rotation":[
				0,
				-0.999993085861206,
				0,
				0.003721470246091485
			],
			"scale":[
				0.25000008940696716,
				0.125,
				6.170419692993164
			],
			"translation":[
				4.424861431121826,
				1.0434281826019287,
				-0.09562766551971436
			]
		},
		{
			"mesh":7,
			"name":"Cube.009",
			"rotation":[
				0,
				-0.7044703960418701,
				0,
				0.7097334265708923
			],
			"scale":[
				0.2500000298023224,
				0.125,
				6.170418739318848
			],
			"translation":[
				-1.5515518188476562,
				1.999999761581421,
				5.663695335388184
			]
		},
		{
			"mesh":8,
			"name":"Cube.010",
			"rotation":[
				0,
				-0.7044703960418701,
				0,
				0.7097334265708923
			],
			"scale":[
				0.2500000298023224,
				0.125,
				6.170418739318848
			],
			"translation":[
				-1.5515518188476562,
				3.0545217990875244,
				5.663695335388184
			]
		},
		{
			"mesh":9,
			"name":"Cube.014",
			"rotation":[
				0,
				-0.7044703960418701,
				0,
				0.7097334265708923
			],
			"scale":[
				0.2500000298023224,
				0.125,
				6.170418739318848
			],
			"translation":[
				-1.5515518188476562,
				1.0434281826019287,
				5.663695335388184
			]
		},
		{
			"mesh":10,
			"name":"Cylinder",
			"rotation":[
				0,
				0.7097333073616028,
				0,
				0.7044705152511597
			],
			"scale":[
				0.476064532995224,
				0.4760645627975464,
				0.476064532995224
			],
			"translation":[
				-15.472617149353027,
				0,
				-11.975467681884766
			]
		},
		{
			"mesh":11,
			"name":"Cylinder.003",
			"rotation":[
				0,
				0.7097333073616028,
				0,
				0.7044705152511597
			],
			"scale":[
				0.476064532995224,
				0.4760645627975464,
				0.476064532995224
			],
			"translation":[
				-15.494945526123047,
				0,
				-14.975384712219238
			]
		},
		{
			"mesh":12,
			"name":"Cylinder.001",
			"rotation":[
				0,
				0.7097333073616028,
				0,
				0.7044705152511597
			],
			"scale":[
				0.476064532995224,
				0.4760645627975464,
				0.476064532995224
			],
			"translation":[
				-15.450288772583008,
				0,
				-8.975550651550293
			]
		}
	],
	"materials":[
		{
			"doubleSided":true,
			"name":"CreativeRoomWalls.002",
			"pbrMetallicRoughness":{
				"baseColorFactor":[
					0.9559723734855652,
					0.9473055005073547,
					0.9215818643569946,
					1
				],
				"metallicFactor":0,
				"roughnessFactor":0.5
			}
		},
		{
			"doubleSided":true,
			"name":"CreativeRoomFloor.002",
			"pbrMetallicRoughness":{
				"baseColorFactor":[
					0.09305892884731293,
					0.046665046364068985,
					0.026241227984428406,
					1
				],
				"metallicFactor":0,
				"roughnessFactor":0.5
			}
		},
		{
			"doubleSided":true,
			"name":"CreativeRoomCeiling.002",
			"pbrMetallicRoughness":{
				"baseColorFactor":[
					0.015620948746800423,
					0.015620948746800423,
					0.015620948746800423,
					1
				],
				"metallicFactor":0,
				"roughnessFactor":0.5
			}
		},
		{
			"doubleSided":true,
			"extensions":{
				"KHR_materials_specular":{
					"specularColorFactor":[
						0.7796736030645874,
						0.7796736030645874,
						0.7796736030645874
					]
				},
				"KHR_materials_ior":{
					"ior":1.4500000476837158
				}
			},
			"name":"Chalkboard.004",
			"pbrMetallicRoughness":{
				"baseColorFactor":[
					0.017593856900930405,
					0.017593856900930405,
					0.017593856900930405,
					1
				],
				"metallicFactor":0,
				"roughnessFactor":0.5242424011230469
			}
		},
		{
			"doubleSided":true,
			"extensions":{
				"KHR_materials_specular":{
					"specularColorFactor":[
						0.7796736030645874,
						0.7796736030645874,
						0.7796736030645874
					]
				},
				"KHR_materials_ior":{
					"ior":1.4500000476837158
				}
			},
			"name":"Chalkboard.005",
			"pbrMetallicRoughness":{
				"baseColorFactor":[
					0.16634702682495117,
					0.15587455034255981,
					0.0366688072681427,
					1
				],
				"metallicFactor":0,
				"roughnessFactor":0.5242424011230469
			}
		},
		{
			"doubleSided":true,
			"extensions":{
				"KHR_materials_specular":{
					"specularColorFactor":[
						0.7796736030645874,
						0.7796736030645874,
						0.7796736030645874
					]
				},
				"KHR_materials_ior":{
					"ior":1.4500000476837158
				}
			},
			"name":"Shelf.002",
			"pbrMetallicRoughness":{
				"baseColorFactor":[
					0.16634702682495117,
					0.15587455034255981,
					0.0366688072681427,
					1
				],
				"metallicFactor":0,
				"roughnessFactor":0.5242424011230469
			}
		},
		{
			"doubleSided":true,
			"name":"CreativeRoomPedestal.002",
			"pbrMetallicRoughness":{
				"baseColorFactor":[
					0.015483850613236427,
					0.015483850613236427,
					0.015483850613236427,
					1
				],
				"metallicFactor":0,
				"roughnessFactor":0.5
			}
		}
	],
	"meshes":[
		{
			"name":"Cube.037",
			"primitives":[
				{
					"attributes":{
						"POSITION":0,
						"NORMAL":1,
						"TEXCOORD_0":2
					},
					"indices":3,
					"material":0
				},
				{
					"attributes":{
						"POSITION":4,
						"NORMAL":5,
						"TEXCOORD_0":6
					},
					"indices":7,
					"material":1
				},
				{
					"attributes":{
						"POSITION":8,
						"NORMAL":9,
						"TEXCOORD_0":10
					},
					"indices":11,
					"material":2
				}
			]
		},
		{
			"name":"Cube.038",
			"primitives":[
				{
					"attributes":{
						"POSITION":12,
						"NORMAL":13,
						"TEXCOORD_0":14
					},
					"indices":3,
					"material":0
				},
				{
					"attributes":{
						"POSITION":15,
						"NORMAL":16,
						"TEXCOORD_0":17
					},
					"indices":7,
					"material":1
				},
				{
					"attributes":{
						"POSITION":18,
						"NORMAL":19,
						"TEXCOORD_0":20
					},
					"indices":11,
					"material":2
				}
			]
		},
		{
			"name":"Cube.039",
			"primitives":[
				{
					"attributes":{
						"POSITION":21,
						"NORMAL":22,
						"TEXCOORD_0":23
					},
					"indices":24,
					"material":3
				},
				{
					"attributes":{
						"POSITION":25,
						"NORMAL":26,
						"TEXCOORD_0":27
					},
					"indices":28,
					"material":4
				}
			]
		},
		{
			"name":"Cylinder.008",
			"primitives":[
				{
					"attributes":{
						"POSITION":29,
						"NORMAL":30,
						"TEXCOORD_0":31
					},
					"indices":32
				}
			]
		},
		{
			"name":"Cube.040",
			"primitives":[
				{
					"attributes":{
						"POSITION":33,
						"NORMAL":34,
						"TEXCOORD_0":35
					},
					"indices":36,
					"material":5
				}
			]
		},
		{
			"name":"Cube.041",
			"primitives":[
				{
					"attributes":{
						"POSITION":37,
						"NORMAL":38,
						"TEXCOORD_0":39
					},
					"indices":36,
					"material":5
				}
			]
		},
		{
			"name":"Cube.042",
			"primitives":[
				{
					"attributes":{
						"POSITION":40,
						"NORMAL":41,
						"TEXCOORD_0":42
					},
					"indices":36,
					"material":5
				}
			]
		},
		{
			"name":"Cube.043",
			"primitives":[
				{
					"attributes":{
						"POSITION":43,
						"NORMAL":44,
						"TEXCOORD_0":45
					},
					"indices":36,
					"material":5
				}
			]
		},
		{
			"name":"Cube.044",
			"primitives":[
				{
					"attributes":{
						"POSITION":46,
						"NORMAL":47,
						"TEXCOORD_0":48
					},
					"indices":36,
					"material":5
				}
			]
		},
		{
			"name":"Cube.045",
			"primitives":[
				{
					"attributes":{
						"POSITION":49,
						"NORMAL":50,
						"TEXCOORD_0":51
					},
					"indices":36,
					"material":5
				}
			]
		},
		{
			"name":"Cylinder.009",
			"primitives":[
				{
					"attributes":{
						"POSITION":52,
						"NORMAL":53,
						"TEXCOORD_0":54
					},
					"indices":55,
					"material":6
				}
			]
		},
		{
			"name":"Cylinder.010",
			"primitives":[
				{
					"attributes":{
						"POSITION":56,
						"NORMAL":57,
						"TEXCOORD_0":58
					},
					"indices":55,
					"material":6
				}
			]
		},
		{
			"name":"Cylinder.011",
			"primitives":[
				{
					"attributes":{
						"POSITION":59,
						"NORMAL":60,
						"TEXCOORD_0":61
					},
					"indices":55,
					"material":6
				}
			]
		}
	],
	"accessors":[
		{
			"bufferView":0,
			"componentType":5126,
			"count":36,
			"max":[
				1,
				2,
				1
			],
			"min":[
				-1,
				0,
				-1
			],
			"type":"VEC3"
		},
		{
			"bufferView":1,
			"componentType":5126,
			"count":36,
			"type":"VEC3"
		},
		{
			"bufferView":2,
			"componentType":5126,
			"count":36,
			"type":"VEC2"
		},
		{
			"bufferView":3,
			"componentType":5123,
			"count":90,
			"type":"SCALAR"
		},
		{
			"bufferView":4,
			"componentType":5126,
			"count":8,
			"max":[
				1,
				0,
				1
			],
			"min":[
				-1,
				0,
				-1
			],
			"type":"VEC3"
		},
		{
			"bufferView":5,
			"componentType":5126,
			"count":8,
			"type":"VEC3"
		},
		{
			"bufferView":6,
			"componentType":5126,
			"count":8,
			"type":"VEC2"
		},
		{
			"bufferView":7,
			"componentType":5123,
			"count":18,
			"type":"SCALAR"
		},
		{
			"bufferView":8,
			"componentType":5126,
			"count":8,
			"max":[
				1,
				2,
				1
			],
			"min":[
				-1,
				2,
				-1
			],
			"type":"VEC3"
		},
		{
			"bufferView":9,
			"componentType":5126,
			"count":8,
			"type":"VEC3"
		},
		{
			"bufferView":10,
			"componentType":5126,
			"count":8,
			"type":"VEC2"
		},
		{
			"bufferView":11,
			"componentType":5123,
			"count":18,
			"type":"SCALAR"
		},
		{
			"bufferView":12,
			"componentType":5126,
			"count":36,
			"max":[
				1,
				2,
				1
			],
			"min":[
				-1.000000238418579,
				0,
				-0.39521610736846924
			],
			"type":"VEC3"
		},
		{
			"bufferView":13,
			"componentType":5126,
			"count":36,
			"type":"VEC3"
		},
		{
			"bufferView":14,
			"componentType":5126,
			"count":36,
			"type":"VEC2"
		},
		{
			"bufferView":15,
			"componentType":5126,
			"count":8,
			"max":[
				1,
				0,
				1
			],
			"min":[
				-1.000000238418579,
				0,
				-0.39521610736846924
			],
			"type":"VEC3"
		},
		{
			"bufferView":16,
			"componentType":5126,
			"count":8,
			"type":"VEC3"
		},
		{
			"bufferView":17,
			"componentType":5126,
			"count":8,
			"type":"VEC2"
		},
		{
			"bufferView":18,
			"componentType":5126,
			"count":8,
			"max":[
				1,
				2,
				1
			],
			"min":[
				-1.000000238418579,
				2,
				-0.39521610736846924
			],
			"type":"VEC3"
		},
		{
			"bufferView":19,
			"componentType":5126,
			"count":8,
			"type":"VEC3"
		},
		{
			"bufferView":20,
			"componentType":5126,
			"count":8,
			"type":"VEC2"
		},
		{
			"bufferView":21,
			"componentType":5126,
			"count":20,
			"max":[
				1,
				1,
				1
			],
			"min":[
				-1,
				-0.8413641452789307,
				-1
			],
			"type":"VEC3"
		},
		{
			"bufferView":22,
			"componentType":5126,
			"count":20,
			"type":"VEC3"
		},
		{
			"bufferView":23,
			"componentType":5126,
			"count":20,
			"type":"VEC2"
		},
		{
			"bufferView":24,
			"componentType":5123,
			"count":30,
			"type":"SCALAR"
		},
		{
			"bufferView":25,
			"componentType":5126,
			"count":30,
			"max":[
				2.8056344985961914,
				-0.8413641452789307,
				1
			],
			"min":[
				-1,
				-1,
				-1
			],
			"type":"VEC3"
		},
		{
			"bufferView":26,
			"componentType":5126,
			"count":30,
			"type":"VEC3"
		},
		{
			"bufferView":27,
			"componentType":5126,
			"count":30,
			"type":"VEC2"
		},
		{
			"bufferView":28,
			"componentType":5123,
			"count":54,
			"type":"SCALAR"
		},
		{
			"bufferView":29,
			"componentType":5126,
			"count":192,
			"max":[
				1,
				1,
				1
			],
			"min":[
				-1,
				-1,
				-1
			],
			"type":"VEC3"
		},
		{
			"bufferView":30,
			"componentType":5126,
			"count":192,
			"type":"VEC3"
		},
		{
			"bufferView":31,
			"componentType":5126,
			"count":192,
			"type":"VEC2"
		},
		{
			"bufferView":32,
			"componentType":5123,
			"count":372,
			"type":"SCALAR"
		},
		{
			"bufferView":33,
			"componentType":5126,
			"count":24,
			"max":[
				1,
				1,
				1
			],
			"min":[
				-1,
				-1,
				-1
			],
			"type":"VEC3"
		},
		{
			"bufferView":34,
			"componentType":5126,
			"count":24,
			"type":"VEC3"
		},
		{
			"bufferView":35,
			"componentType":5126,
			"count":24,
			"type":"VEC2"
		},
		{
			"bufferView":36,
			"componentType":5123,
			"count":36,
			"type":"SCALAR"
		},
		{
			"bufferView":37,
			"componentType":5126,
			"count":24,
			"max":[
				1,
				1,
				1
			],
			"min":[
				-1,
				-1,
				-1
			],
			"type":"VEC3"
		},
		{
			"bufferView":38,
			"componentType":5126,
			"count":24,
			"type":"VEC3"
		},
		{
			"bufferView":39,
			"componentType":5126,
			"count":24,
			"type":"VEC2"
		},
		{
			"bufferView":40,
			"componentType":5126,
			"count":24,
			"max":[
				1,
				1,
				1
			],
			"min":[
				-1,
				-1,
				-1
			],
			"type":"VEC3"
		},
		{
			"bufferView":41,
			"componentType":5126,
			"count":24,
			"type":"VEC3"
		},
		{
			"bufferView":42,
			"componentType":5126,
			"count":24,
			"type":"VEC2"
		},
		{
			"bufferView":43,
			"componentType":5126,
			"count":24,
			"max":[
				1,
				1,
				1
			],
			"min":[
				-1,
				-1,
				-1
			],
			"type":"VEC3"
		},
		{
			"bufferView":44,
			"componentType":5126,
			"count":24,
			"type":"VEC3"
		},
		{
			"bufferView":45,
			"componentType":5126,
			"count":24,
			"type":"VEC2"
		},
		{
			"bufferView":46,
			"componentType":5126,
			"count":24,
			"max":[
				1,
				1,
				1
			],
			"min":[
				-1,
				-1,
				-1
			],
			"type":"VEC3"
		},
		{
			"bufferView":47,
			"componentType":5126,
			"count":24,
			"type":"VEC3"
		},
		{
			"bufferView":48,
			"componentType":5126,
			"count":24,
			"type":"VEC2"
		},
		{
			"bufferView":49,
			"componentType":5126,
			"count":24,
			"max":[
				1,
				1,
				1
			],
			"min":[
				-1,
				-1,
				-1
			],
			"type":"VEC3"
		},
		{
			"bufferView":50,
			"componentType":5126,
			"count":24,
			"type":"VEC3"
		},
		{
			"bufferView":51,
			"componentType":5126,
			"count":24,
			"type":"VEC2"
		},
		{
			"bufferView":52,
			"componentType":5126,
			"count":384,
			"max":[
				1,
				2.1725943088531494,
				1
			],
			"min":[
				-1,
				0,
				-1
			],
			"type":"VEC3"
		},
		{
			"bufferView":53,
			"componentType":5126,
			"count":384,
			"type":"VEC3"
		},
		{
			"bufferView":54,
			"componentType":5126,
			"count":384,
			"type":"VEC2"
		},
		{
			"bufferView":55,
			"componentType":5123,
			"count":744,
			"type":"SCALAR"
		},
		{
			"bufferView":56,
			"componentType":5126,
			"count":384,
			"max":[
				1,
				2.1725943088531494,
				1
			],
			"min":[
				-1,
				0,
				-1
			],
			"type":"VEC3"
		},
		{
			"bufferView":57,
			"componentType":5126,
			"count":384,
			"type":"VEC3"
		},
		{
			"bufferView":58,
			"componentType":5126,
			"count":384,
			"type":"VEC2"
		},
		{
			"bufferView":59,
			"componentType":5126,
			"count":384,
			"max":[
				1,
				2.1725943088531494,
				1
			],
			"min":[
				-1,
				0,
				-1
			],
			"type":"VEC3"
		},
		{
			"bufferView":60,
			"componentType":5126,
			"count":384,
			"type":"VEC3"
		},
		{
			"bufferView":61,
			"componentType":5126,
			"count":384,
			"type":"VEC2"
		}
	],
	"bufferViews":[
		{
			"buffer":0,
			"byteLength":432,
			"byteOffset":0,
			"target":34962
		},
		{
			"buffer":0,
			"byteLength":432,
			"byteOffset":432,
			"target":34962
		},
		{
			"buffer":0,
			"byteLength":288,
			"byteOffset":864,
			"target":34962
		},
		{
			"buffer":0,
			"byteLength":180,
			"byteOffset":1152,
			"target":34963
		},
		{
			"buffer":0,
			"byteLength":96,
			"byteOffset":1332,
			"target":34962
		},
		{
			"buffer":0,
			"byteLength":96,
			"byteOffset":1428,
			"target":34962
		},
		{
			"buffer":0,
			"byteLength":64,
			"byteOffset":1524,
			"target":34962
		},
		{
			"buffer":0,
			"byteLength":36,
			"byteOffset":1588,
			"target":34963
		},
		{
			"buffer":0,
			"byteLength":96,
			"byteOffset":1624,
			"target":34962
		},
		{
			"buffer":0,
			"byteLength":96,
			"byteOffset":1720,
			"target":34962
		},
		{
			"buffer":0,
			"byteLength":64,
			"byteOffset":1816,
			"target":34962
		},
		{
			"buffer":0,
			"byteLength":36,
			"byteOffset":1880,
			"target":34963
		},
		{
			"buffer":0,
			"byteLength":432,
			"byteOffset":1916,
			"target":34962
		},
		{
			"buffer":0,
			"byteLength":432,
			"byteOffset":2348,
			"target":34962
		},
		{
			"buffer":0,
			"byteLength":288,
			"byteOffset":2780,
			"target":34962
		},
		{
			"buffer":0,
			"byteLength":96,
			"byteOffset":3068,
			"target":34962
		},
		{
			"buffer":0,
			"byteLength":96,
			"byteOffset":3164,
			"target":34962
		},
		{
			"buffer":0,
			"byteLength":64,
			"byteOffset":3260,
			"target":34962
		},
		{
			"buffer":0,
			"byteLength":96,
			"byteOffset":3324,
			"target":34962
		},
		{
			"buffer":0,
			"byteLength":96,
			"byteOffset":3420,
			"target":34962
		},
		{
			"buffer":0,
			"byteLength":64,
			"byteOffset":3516,
			"target":34962
		},
		{
			"buffer":0,
			"byteLength":240,
			"byteOffset":3580,
			"target":34962
		},
		{
			"buffer":0,
			"byteLength":240,
			"byteOffset":3820,
			"target":34962
		},
		{
			"buffer":0,
			"byteLength":160,
			"byteOffset":4060,
			"target":34962
		},
		{
			"buffer":0,
			"byteLength":60,
			"byteOffset":4220,
			"target":34963
		},
		{
			"buffer":0,
			"byteLength":360,
			"byteOffset":4280,
			"target":34962
		},
		{
			"buffer":0,
			"byteLength":360,
			"byteOffset":4640,
			"target":34962
		},
		{
			"buffer":0,
			"byteLength":240,
			"byteOffset":5000,
			"target":34962
		},
		{
			"buffer":0,
			"byteLength":108,
			"byteOffset":5240,
			"target":34963
		},
		{
			"buffer":0,
			"byteLength":2304,
			"byteOffset":5348,
			"target":34962
		},
		{
			"buffer":0,
			"byteLength":2304,
			"byteOffset":7652,
			"target":34962
		},
		{
			"buffer":0,
			"byteLength":1536,
			"byteOffset":9956,
			"target":34962
		},
		{
			"buffer":0,
			"byteLength":744,
			"byteOffset":11492,
			"target":34963
		},
		{
			"buffer":0,
			"byteLength":288,
			"byteOffset":12236,
			"target":34962
		},
		{
			"buffer":0,
			"byteLength":288,
			"byteOffset":12524,
			"target":34962
		},
		{
			"buffer":0,
			"byteLength":192,
			"byteOffset":12812,
			"target":34962
		},
		{
			"buffer":0,
			"byteLength":72,
			"byteOffset":13004,
			"target":34963
		},
		{
			"buffer":0,
			"byteLength":288,
			"byteOffset":13076,
			"target":34962
		},
		{
			"buffer":0,
			"byteLength":288,
			"byteOffset":13364,
			"target":34962
		},
		{
			"buffer":0,
			"byteLength":192,
			"byteOffset":13652,
			"target":34962
		},
		{
			"buffer":0,
			"byteLength":288,
			"byteOffset":13844,
			"target":34962
		},
		{
			"buffer":0,
			"byteLength":288,
			"byteOffset":14132,
			"target":34962
		},
		{
			"buffer":0,
			"byteLength":192,
			"byteOffset":14420,
			"target":34962
		},
		{
			"buffer":0,
			"byteLength":288,
			"byteOffset":14612,
			"target":34962
		},
		{
			"buffer":0,
			"byteLength":288,
			"byteOffset":14900,
			"target":34962
		},
		{
			"buffer":0,
			"byteLength":192,
			"byteOffset":15188,
			"target":34962
		},
		{
			"buffer":0,
			"byteLength":288,
			"byteOffset":15380,
			"target":34962
		},
		{
			"buffer":0,
			"byteLength":288,
			"byteOffset":15668,
			"target":34962
		},
		{
			"buffer":0,
			"byteLength":192,
			"byteOffset":15956,
			"target":34962
		},
		{
			"buffer":0,
			"byteLength":288,
			"byteOffset":16148,
			"target":34962
		},
		{
			"buffer":0,
			"byteLength":288,
			"byteOffset":16436,
			"target":34962
		},
		{
			"buffer":0,
			"byteLength":192,
			"byteOffset":16724,
			"target":34962
		},
		{
			"buffer":0,
			"byteLength":4608,
			"byteOffset":16916,
			"target":34962
		},
		{
			"buffer":0,
			"byteLength":4608,
			"byteOffset":21524,
			"target":34962
		},
		{
			"buffer":0,
			"byteLength":3072,
			"byteOffset":26132,
			"target":34962
		},
		{
			"buffer":0,
			"byteLength":1488,
			"byteOffset":29204,
			"target":34963
		},
		{
			"buffer":0,
			"byteLength":4608,
			"byteOffset":30692,
			"target":34962
		},
		{
			"buffer":0,
			"byteLength":4608,
			"byteOffset":35300,
			"target":34962
		},
		{
			"buffer":0,
			"byteLength":3072,
			"byteOffset":39908,
			"target":34962
		},
		{
			"buffer":0,
			"byteLength":4608,
			"byteOffset":42980,
			"target":34962
		},
		{
			"buffer":0,
			"byteLength":4608,
			"byteOffset":47588,
			"target":34962
		},
		{
			"buffer":0,
			"byteLength":3072,
			"byteOffset":52196,
			"target":34962
		}
	],
	"buffers":[
		{
			"byteLength":55268,
			"uri":"data:application/octet-stream;base64,"
		}
	]
}
