{
	"asset":{
		"generator":"Khronos glTF Blender I/O v3.6.27",
		"version":"2.0"
	},
	"extensionsUsed":[
		"KHR_materials_specular",
		"KHR_materials_ior"
	],
	"scene":0,
	"scenes":[
		{
			"name":"Scene",
			"nodes":[
				0
			]
		}
	],
	"nodes":[
		{
			"mesh":0,
			"name":"lemWood",
			"rotation":[
				0.7071068286895752,
				0,
				0,
				0.7071068286895752
			]
		}
	],
	"materials":[
		{
			"alphaMode":"BLEND",
			"doubleSided":true,
			"extensions":{
				"KHR_materials_specular":{
					"specularColorFactor":[
						1,
						1,
						1
					]
				},
				"KHR_materials_ior":{
					"ior":1
				}
			},
			"name":"aiStandardSurface2SG",
			"pbrMetallicRoughness":{
				"baseColorTexture":{
					"index":0
				},
				"metallicFactor":0,
				"roughnessFactor":0.8658359050750732
			}
		}
	],
	"meshes":[
		{
			"name":"lemWood",
			"primitives":[
				{
					"attributes":{
						"POSITION":0,
						"NORMAL":1,
						"TEXCOORD_0":2
					},
					"indices":3,
					"material":0
				}
			]
		}
	],
	"textures":[
		{
			"sampler":0,
			"source":0
		}
	],
	"images":[
		{
			"mimeType":"image/jpeg",
			"name":"LEM_Wood",
			"uri":"LEM_Wood.jpg"
		}
	],
	"accessors":[
		{
			"bufferView":0,
			"componentType":5126,
			"count":6888884,
			"max":[
				0.33131399750709534,
				-0.01737000048160553,
				0.00016199999663513154
			],
			"min":[
				-0.33131399750709534,
				-0.6806359887123108,
				-0.4503600001335144
			],
			"type":"VEC3"
		},
		{
			"bufferView":1,
			"componentType":5126,
			"count":6888884,
			"type":"VEC3"
		},
		{
			"bufferView":2,
			"componentType":5126,
			"count":6888884,
			"type":"VEC2"
		},
		{
			"bufferView":3,
			"componentType":5125,
			"count":6898593,
			"type":"SCALAR"
		}
	],
	"bufferViews":[
		{
			"buffer":0,
			"byteLength":82666608,
			"byteOffset":0,
			"target":34962
		},
		{
			"buffer":0,
			"byteLength":82666608,
			"byteOffset":82666608,
			"target":34962
		},
		{
			"buffer":0,
			"byteLength":55111072,
			"byteOffset":165333216,
			"target":34962
		},
		{
			"buffer":0,
			"byteLength":27594372,
			"byteOffset":220444288,
			"target":34963
		}
	],
	"samplers":[
		{
			"magFilter":9729,
			"minFilter":9987
		}
	],
	"buffers":[
		{
			"byteLength":248038660,
			"uri":"lemWood.bin"
		}
	]
}
