{
	"asset":{
		"generator":"Khronos glTF Blender I/O v3.6.27",
		"version":"2.0"
	},
	"extensionsUsed":[
		"KHR_materials_specular",
		"KHR_materials_ior"
	],
	"scene":0,
	"scenes":[
		{
			"name":"Scene",
			"nodes":[
				0
			]
		}
	],
	"nodes":[
		{
			"mesh":0,
			"name":"adjusted",
			"rotation":[
				0.7071068286895752,
				0,
				0,
				0.7071068286895752
			],
			"scale":[
				1.600000023841858,
				1.600000023841858,
				1.600000023841858
			]
		}
	],
	"materials":[
		{
			"alphaMode":"BLEND",
			"doubleSided":true,
			"extensions":{
				"KHR_materials_specular":{
					"specularColorFactor":[
						1,
						1,
						1
					]
				},
				"KHR_materials_ior":{
					"ior":1
				}
			},
			"name":"aiStandardSurface2SG.004",
			"pbrMetallicRoughness":{
				"baseColorTexture":{
					"index":0
				},
				"metallicFactor":0,
				"roughnessFactor":0.8658359050750732
			}
		}
	],
	"meshes":[
		{
			"name":"adjusted.004",
			"primitives":[
				{
					"attributes":{
						"POSITION":0,
						"NORMAL":1,
						"TEXCOORD_0":2
					},
					"indices":3,
					"material":0
				}
			]
		}
	],
	"textures":[
		{
			"sampler":0,
			"source":0
		}
	],
	"images":[
		{
			"mimeType":"image/jpeg",
			"name":"LEM_Wood",
			"uri":"LEM_Wood.jpg"
		}
	],
	"accessors":[
		{
			"bufferView":0,
			"componentType":5126,
			"count":6843850,
			"max":[
				0.1102679967880249,
				0.10733799636363983,
				0.00012199999764561653
			],
			"min":[
				-0.10801699757575989,
				-0.1111529991030693,
				-0.14829300343990326
			],
			"type":"VEC3"
		},
		{
			"bufferView":1,
			"componentType":5126,
			"count":6843850,
			"type":"VEC3"
		},
		{
			"bufferView":2,
			"componentType":5126,
			"count":6843850,
			"type":"VEC2"
		},
		{
			"bufferView":3,
			"componentType":5125,
			"count":6898593,
			"type":"SCALAR"
		}
	],
	"bufferViews":[
		{
			"buffer":0,
			"byteLength":82126200,
			"byteOffset":0,
			"target":34962
		},
		{
			"buffer":0,
			"byteLength":82126200,
			"byteOffset":82126200,
			"target":34962
		},
		{
			"buffer":0,
			"byteLength":54750800,
			"byteOffset":164252400,
			"target":34962
		},
		{
			"buffer":0,
			"byteLength":27594372,
			"byteOffset":219003200,
			"target":34963
		}
	],
	"samplers":[
		{
			"magFilter":9729,
			"minFilter":9987
		}
	],
	"buffers":[
		{
			"byteLength":246597572,
			"uri":"lemWood.bin"
		}
	]
}
