{
	"asset":{
		"generator":"Khronos glTF Blender I/O v3.6.27",
		"version":"2.0"
	},
	"extensionsUsed":[
		"KHR_materials_specular",
		"KHR_materials_ior"
	],
	"scene":0,
	"scenes":[
		{
			"name":"Scene",
			"nodes":[
				0
			]
		}
	],
	"nodes":[
		{
			"mesh":0,
			"name":"majesticCamera",
			"rotation":[
				0.7071068286895752,
				0,
				0,
				0.7071068286895752
			]
		}
	],
	"materials":[
		{
			"doubleSided":true,
			"extensions":{
				"KHR_materials_specular":{
					"specularColorFactor":[
						1,
						1,
						1
					]
				},
				"KHR_materials_ior":{
					"ior":1
				}
			},
			"name":"lambert2SG.003",
			"pbrMetallicRoughness":{
				"baseColorFactor":[
					0.03999999910593033,
					0.03999999910593033,
					0.05000000074505806,
					1
				],
				"metallicFactor":0
			}
		},
		{
			"doubleSided":true,
			"extensions":{
				"KHR_materials_specular":{
					"specularColorFactor":[
						1,
						1,
						1
					]
				},
				"KHR_materials_ior":{
					"ior":1
				}
			},
			"name":"lambert4SG.002",
			"pbrMetallicRoughness":{
				"baseColorFactor":[
					0.949999988079071,
					0.949999988079071,
					0.9200000166893005,
					1
				],
				"metallicFactor":0
			}
		},
		{
			"doubleSided":true,
			"extensions":{
				"KHR_materials_specular":{
					"specularColorFactor":[
						1,
						1,
						1
					]
				},
				"KHR_materials_ior":{
					"ior":1
				}
			},
			"name":"lambert3SG.002",
			"pbrMetallicRoughness":{
				"baseColorFactor":[
					0.8100000023841858,
					0.7799999713897705,
					0.6000000238418579,
					1
				],
				"metallicFactor":0
			}
		},
		{
			"doubleSided":true,
			"extensions":{
				"KHR_materials_specular":{
					"specularColorFactor":[
						0.08,
						0.08,
						0.08
					]
				},
				"KHR_materials_ior":{
					"ior":0
				}
			},
			"name":"standardSurface4SG.002",
			"pbrMetallicRoughness":{
				"baseColorFactor":[
					0,
					0,
					0,
					1
				],
				"metallicFactor":0
			}
		},
		{
			"doubleSided":true,
			"extensions":{
				"KHR_materials_specular":{
					"specularColorFactor":[
						0.08,
						0.08,
						0.08
					]
				},
				"KHR_materials_ior":{
					"ior":0
				}
			},
			"name":"standardSurface3SG.001",
			"pbrMetallicRoughness":{
				"baseColorFactor":[
					0,
					0,
					0,
					1
				],
				"metallicFactor":0
			}
		}
	],
	"meshes":[
		{
			"name":"majesticCamera.001",
			"primitives":[
				{
					"attributes":{
						"POSITION":0,
						"NORMAL":1,
						"TEXCOORD_0":2
					},
					"indices":3,
					"material":0
				},
				{
					"attributes":{
						"POSITION":4,
						"NORMAL":5,
						"TEXCOORD_0":6
					},
					"indices":7,
					"material":1
				},
				{
					"attributes":{
						"POSITION":8,
						"NORMAL":9,
						"TEXCOORD_0":10
					},
					"indices":11,
					"material":2
				},
				{
					"attributes":{
						"POSITION":12,
						"NORMAL":13,
						"TEXCOORD_0":14
					},
					"indices":15,
					"material":3
				},
				{
					"attributes":{
						"POSITION":16,
						"NORMAL":17,
						"TEXCOORD_0":18
					},
					"indices":19,
					"material":4
				}
			]
		}
	],
	"accessors":[
		{
			"bufferView":0,
			"componentType":5126,
			"count":1208,
			"max":[
				0.09944400191307068,
				0.02748199924826622,
				-0.0011569999624043703
			],
			"min":[
				-0.09944400191307068,
				-0.03044299967586994,
				-0.1320279985666275
			],
			"type":"VEC3"
		},
		{
			"bufferView":1,
			"componentType":5126,
			"count":1208,
			"type":"VEC3"
		},
		{
			"bufferView":2,
			"componentType":5126,
			"count":1208,
			"type":"VEC2"
		},
		{
			"bufferView":3,
			"componentType":5123,
			"count":4548,
			"type":"SCALAR"
		},
		{
			"bufferView":4,
			"componentType":5126,
			"count":51,
			"max":[
				0.04278099909424782,
				0.02744399942457676,
				-0.08587100356817245
			],
			"min":[
				-0.08787299692630768,
				0.01877100020647049,
				-0.12241200357675552
			],
			"type":"VEC3"
		},
		{
			"bufferView":5,
			"componentType":5126,
			"count":51,
			"type":"VEC3"
		},
		{
			"bufferView":6,
			"componentType":5126,
			"count":51,
			"type":"VEC2"
		},
		{
			"bufferView":7,
			"componentType":5123,
			"count":78,
			"type":"SCALAR"
		},
		{
			"bufferView":8,
			"componentType":5126,
			"count":113,
			"max":[
				0.09763699769973755,
				0.02744399942457676,
				-0.0053980001248419285
			],
			"min":[
				-0.09763699769973755,
				0.01877100020647049,
				-0.0867530032992363
			],
			"type":"VEC3"
		},
		{
			"bufferView":9,
			"componentType":5126,
			"count":113,
			"type":"VEC3"
		},
		{
			"bufferView":10,
			"componentType":5126,
			"count":113,
			"type":"VEC2"
		},
		{
			"bufferView":11,
			"componentType":5123,
			"count":282,
			"type":"SCALAR"
		},
		{
			"bufferView":12,
			"componentType":5126,
			"count":40,
			"max":[
				0.08555299788713455,
				0.02230300009250641,
				-0.027439000084996223
			],
			"min":[
				-0.02178500033915043,
				0.014213000424206257,
				-0.10887999832630157
			],
			"type":"VEC3"
		},
		{
			"bufferView":13,
			"componentType":5126,
			"count":40,
			"type":"VEC3"
		},
		{
			"bufferView":14,
			"componentType":5126,
			"count":40,
			"type":"VEC2"
		},
		{
			"bufferView":15,
			"componentType":5123,
			"count":60,
			"type":"SCALAR"
		},
		{
			"bufferView":16,
			"componentType":5126,
			"count":112,
			"max":[
				0.04278099909424782,
				0.02748199924826622,
				-0.010452000424265862
			],
			"min":[
				-0.0422930009663105,
				0.018631000071763992,
				-0.12241200357675552
			],
			"type":"VEC3"
		},
		{
			"bufferView":17,
			"componentType":5126,
			"count":112,
			"type":"VEC3"
		},
		{
			"bufferView":18,
			"componentType":5126,
			"count":112,
			"type":"VEC2"
		},
		{
			"bufferView":19,
			"componentType":5123,
			"count":168,
			"type":"SCALAR"
		}
	],
	"bufferViews":[
		{
			"buffer":0,
			"byteLength":14496,
			"byteOffset":0,
			"target":34962
		},
		{
			"buffer":0,
			"byteLength":14496,
			"byteOffset":14496,
			"target":34962
		},
		{
			"buffer":0,
			"byteLength":9664,
			"byteOffset":28992,
			"target":34962
		},
		{
			"buffer":0,
			"byteLength":9096,
			"byteOffset":38656,
			"target":34963
		},
		{
			"buffer":0,
			"byteLength":612,
			"byteOffset":47752,
			"target":34962
		},
		{
			"buffer":0,
			"byteLength":612,
			"byteOffset":48364,
			"target":34962
		},
		{
			"buffer":0,
			"byteLength":408,
			"byteOffset":48976,
			"target":34962
		},
		{
			"buffer":0,
			"byteLength":156,
			"byteOffset":49384,
			"target":34963
		},
		{
			"buffer":0,
			"byteLength":1356,
			"byteOffset":49540,
			"target":34962
		},
		{
			"buffer":0,
			"byteLength":1356,
			"byteOffset":50896,
			"target":34962
		},
		{
			"buffer":0,
			"byteLength":904,
			"byteOffset":52252,
			"target":34962
		},
		{
			"buffer":0,
			"byteLength":564,
			"byteOffset":53156,
			"target":34963
		},
		{
			"buffer":0,
			"byteLength":480,
			"byteOffset":53720,
			"target":34962
		},
		{
			"buffer":0,
			"byteLength":480,
			"byteOffset":54200,
			"target":34962
		},
		{
			"buffer":0,
			"byteLength":320,
			"byteOffset":54680,
			"target":34962
		},
		{
			"buffer":0,
			"byteLength":120,
			"byteOffset":55000,
			"target":34963
		},
		{
			"buffer":0,
			"byteLength":1344,
			"byteOffset":55120,
			"target":34962
		},
		{
			"buffer":0,
			"byteLength":1344,
			"byteOffset":56464,
			"target":34962
		},
		{
			"buffer":0,
			"byteLength":896,
			"byteOffset":57808,
			"target":34962
		},
		{
			"buffer":0,
			"byteLength":336,
			"byteOffset":58704,
			"target":34963
		}
	],
	"buffers":[
		{
			"byteLength":59040,
			"uri":"data:application/octet-stream;base64,"
		}
	]
}
