{
	"asset":{
		"generator":"Khronos glTF Blender I/O v3.6.27",
		"version":"2.0"
	},
	"scene":0,
	"scenes":[
		{
			"name":"Scene",
			"nodes":[
				0
			]
		}
	],
	"nodes":[
		{
			"mesh":0,
			"name":"Main Room",
			"rotation":[
				0,
				0.7056713700294495,
				0,
				0.7085393071174622
			],
			"scale":[
				5.279360771179199,
				2.5,
				7.039146900177002
			]
		}
	],
	"materials":[
		{
			"doubleSided":true,
			"name":"CreativeRoomFloor.001",
			"pbrMetallicRoughness":{
				"baseColorFactor":[
					0.041338007897138596,
					0.021834630519151688,
					0.012974593788385391,
					1
				],
				"metallicFactor":0,
				"roughnessFactor":0.5
			}
		},
		{
			"doubleSided":true,
			"name":"CreativeRoomPedestal.001",
			"pbrMetallicRoughness":{
				"baseColorFactor":[
					0.5776962041854858,
					0.5776962041854858,
					0.5776962041854858,
					1
				],
				"metallicFactor":0,
				"roughnessFactor":0.5
			}
		}
	],
	"meshes":[
		{
			"name":"Cube.002",
			"primitives":[
				{
					"attributes":{
						"POSITION":0,
						"NORMAL":1,
						"TEXCOORD_0":2
					},
					"indices":3,
					"material":0
				},
				{
					"attributes":{
						"POSITION":4,
						"NORMAL":5,
						"TEXCOORD_0":6
					},
					"indices":7,
					"material":1
				}
			]
		}
	],
	"accessors":[
		{
			"bufferView":0,
			"componentType":5126,
			"count":16,
			"max":[
				2.961747646331787,
				0,
				0.6114562749862671
			],
			"min":[
				-1.0382527112960815,
				0,
				-2.2715859413146973
			],
			"type":"VEC3"
		},
		{
			"bufferView":1,
			"componentType":5126,
			"count":16,
			"type":"VEC3"
		},
		{
			"bufferView":2,
			"componentType":5126,
			"count":16,
			"type":"VEC2"
		},
		{
			"bufferView":3,
			"componentType":5123,
			"count":36,
			"type":"SCALAR"
		},
		{
			"bufferView":4,
			"componentType":5126,
			"count":8,
			"max":[
				0.9767931699752808,
				0,
				-0.37205857038497925
			],
			"min":[
				0.9498599767684937,
				-0.014210091903805733,
				-0.6858891248703003
			],
			"type":"VEC3"
		},
		{
			"bufferView":5,
			"componentType":5126,
			"count":8,
			"type":"VEC3"
		},
		{
			"bufferView":6,
			"componentType":5126,
			"count":8,
			"type":"VEC2"
		},
		{
			"bufferView":7,
			"componentType":5123,
			"count":12,
			"type":"SCALAR"
		}
	],
	"bufferViews":[
		{
			"buffer":0,
			"byteLength":192,
			"byteOffset":0,
			"target":34962
		},
		{
			"buffer":0,
			"byteLength":192,
			"byteOffset":192,
			"target":34962
		},
		{
			"buffer":0,
			"byteLength":128,
			"byteOffset":384,
			"target":34962
		},
		{
			"buffer":0,
			"byteLength":72,
			"byteOffset":512,
			"target":34963
		},
		{
			"buffer":0,
			"byteLength":96,
			"byteOffset":584,
			"target":34962
		},
		{
			"buffer":0,
			"byteLength":96,
			"byteOffset":680,
			"target":34962
		},
		{
			"buffer":0,
			"byteLength":64,
			"byteOffset":776,
			"target":34962
		},
		{
			"buffer":0,
			"byteLength":24,
			"byteOffset":840,
			"target":34963
		}
	],
	"buffers":[
		{
			"byteLength":864,
			"uri":"data:application/octet-stream;base64,"
		}
	]
}
