{
	"asset":{
		"generator":"Khronos glTF Blender I/O v3.6.27",
		"version":"2.0"
	},
	"extensionsUsed":[
		"KHR_materials_specular",
		"KHR_materials_ior"
	],
	"scene":0,
	"scenes":[
		{
			"name":"Scene",
			"nodes":[
				0
			]
		}
	],
	"nodes":[
		{
			"mesh":0,
			"name":"northernElectricPhone",
			"rotation":[
				0.7071068286895752,
				0,
				0,
				0.7071068286895752
			]
		}
	],
	"materials":[
		{
			"doubleSided":true,
			"extensions":{
				"KHR_materials_specular":{
					"specularColorFactor":[
						1,
						1,
						1
					]
				},
				"KHR_materials_ior":{
					"ior":1
				}
			},
			"name":"lambert2SG.005",
			"pbrMetallicRoughness":{
				"baseColorFactor":[
					0.03999999910593033,
					0.03999999910593033,
					0.05000000074505806,
					1
				],
				"metallicFactor":0
			}
		},
		{
			"doubleSided":true,
			"extensions":{
				"KHR_materials_specular":{
					"specularColorFactor":[
						1,
						1,
						1
					]
				},
				"KHR_materials_ior":{
					"ior":1
				}
			},
			"name":"lambert4SG.004",
			"pbrMetallicRoughness":{
				"baseColorFactor":[
					0.949999988079071,
					0.949999988079071,
					0.9200000166893005,
					1
				],
				"metallicFactor":0
			}
		}
	],
	"meshes":[
		{
			"name":"northernElectricPhone.002",
			"primitives":[
				{
					"attributes":{
						"POSITION":0,
						"NORMAL":1,
						"TEXCOORD_0":2
					},
					"indices":3,
					"material":0
				},
				{
					"attributes":{
						"POSITION":4,
						"NORMAL":5,
						"TEXCOORD_0":6
					},
					"indices":7,
					"material":1
				}
			]
		}
	],
	"accessors":[
		{
			"bufferView":0,
			"componentType":5126,
			"count":6026,
			"max":[
				0.20205000042915344,
				0.14565500617027283,
				0
			],
			"min":[
				-0.2010820060968399,
				-0.14565399289131165,
				-0.28382599353790283
			],
			"type":"VEC3"
		},
		{
			"bufferView":1,
			"componentType":5126,
			"count":6026,
			"type":"VEC3"
		},
		{
			"bufferView":2,
			"componentType":5126,
			"count":6026,
			"type":"VEC2"
		},
		{
			"bufferView":3,
			"componentType":5123,
			"count":16884,
			"type":"SCALAR"
		},
		{
			"bufferView":4,
			"componentType":5126,
			"count":135,
			"max":[
				0.058389000594615936,
				0.12128899991512299,
				-0.08563300222158432
			],
			"min":[
				-0.058389000594615936,
				0.07699800282716751,
				-0.19368499517440796
			],
			"type":"VEC3"
		},
		{
			"bufferView":5,
			"componentType":5126,
			"count":135,
			"type":"VEC3"
		},
		{
			"bufferView":6,
			"componentType":5126,
			"count":135,
			"type":"VEC2"
		},
		{
			"bufferView":7,
			"componentType":5123,
			"count":288,
			"type":"SCALAR"
		}
	],
	"bufferViews":[
		{
			"buffer":0,
			"byteLength":72312,
			"byteOffset":0,
			"target":34962
		},
		{
			"buffer":0,
			"byteLength":72312,
			"byteOffset":72312,
			"target":34962
		},
		{
			"buffer":0,
			"byteLength":48208,
			"byteOffset":144624,
			"target":34962
		},
		{
			"buffer":0,
			"byteLength":33768,
			"byteOffset":192832,
			"target":34963
		},
		{
			"buffer":0,
			"byteLength":1620,
			"byteOffset":226600,
			"target":34962
		},
		{
			"buffer":0,
			"byteLength":1620,
			"byteOffset":228220,
			"target":34962
		},
		{
			"buffer":0,
			"byteLength":1080,
			"byteOffset":229840,
			"target":34962
		},
		{
			"buffer":0,
			"byteLength":576,
			"byteOffset":230920,
			"target":34963
		}
	],
	"buffers":[
		{
			"byteLength":231496,
			"uri":"data:application/octet-stream;base64,"
		}
	]
}
