{
	"asset":{
		"generator":"Khronos glTF Blender I/O v3.6.27",
		"version":"2.0"
	},
	"extensionsUsed":[
		"KHR_materials_specular",
		"KHR_materials_ior"
	],
	"scene":0,
	"scenes":[
		{
			"name":"Scene",
			"nodes":[
				0
			]
		}
	],
	"nodes":[
		{
			"mesh":0,
			"name":"singerSewingMachine",
			"rotation":[
				0.7071068286895752,
				0,
				0,
				0.7071068286895752
			]
		}
	],
	"materials":[
		{
			"alphaMode":"BLEND",
			"doubleSided":true,
			"extensions":{
				"KHR_materials_specular":{
					"specularColorFactor":[
						1,
						1,
						1
					]
				},
				"KHR_materials_ior":{
					"ior":1
				}
			},
			"name":"aiStandardSurface1SG",
			"pbrMetallicRoughness":{
				"baseColorTexture":{
					"index":0
				},
				"metallicFactor":0,
				"roughnessFactor":0.8658359050750732
			}
		}
	],
	"meshes":[
		{
			"name":"singerSewingMachine",
			"primitives":[
				{
					"attributes":{
						"POSITION":0,
						"NORMAL":1,
						"TEXCOORD_0":2
					},
					"indices":3,
					"material":0
				}
			]
		}
	],
	"textures":[
		{
			"sampler":0,
			"source":0
		}
	],
	"images":[
		{
			"mimeType":"image/jpeg",
			"name":"singerSewingMachine_tex",
			"uri":"singerSewingMachine_tex.jpg"
		}
	],
	"accessors":[
		{
			"bufferView":0,
			"componentType":5126,
			"count":12019615,
			"max":[
				0.30872300267219543,
				0.7035980224609375,
				0.0010679999832063913
			],
			"min":[
				-0.28752899169921875,
				-0.5672609806060791,
				-0.8955990076065063
			],
			"type":"VEC3"
		},
		{
			"bufferView":1,
			"componentType":5126,
			"count":12019615,
			"type":"VEC3"
		},
		{
			"bufferView":2,
			"componentType":5126,
			"count":12019615,
			"type":"VEC2"
		},
		{
			"bufferView":3,
			"componentType":5125,
			"count":12063090,
			"type":"SCALAR"
		}
	],
	"bufferViews":[
		{
			"buffer":0,
			"byteLength":144235380,
			"byteOffset":0,
			"target":34962
		},
		{
			"buffer":0,
			"byteLength":144235380,
			"byteOffset":144235380,
			"target":34962
		},
		{
			"buffer":0,
			"byteLength":96156920,
			"byteOffset":288470760,
			"target":34962
		},
		{
			"buffer":0,
			"byteLength":48252360,
			"byteOffset":384627680,
			"target":34963
		}
	],
	"samplers":[
		{
			"magFilter":9729,
			"minFilter":9987
		}
	],
	"buffers":[
		{
			"byteLength":432880040,
			"uri":"singerSewingMachine.bin"
		}
	]
}
