{
	"asset":{
		"generator":"Khronos glTF Blender I/O v4.3.47",
		"version":"2.0"
	},
	"scene":0,
	"scenes":[
		{
			"name":"Scene",
			"nodes":[
				0
			]
		}
	],
	"nodes":[
		{
			"mesh":0,
			"name":"Mesh_0.009",
			"translation":[
				6.612706661224365,
				0,
				0
			]
		}
	],
	"materials":[
		{
			"name":"Material_0.009",
			"pbrMetallicRoughness":{
				"baseColorFactor":[
					0.5,
					0.5,
					0.5,
					1
				],
				"metallicFactor":0
			}
		}
	],
	"meshes":[
		{
			"name":"Mesh_0.009",
			"primitives":[
				{
					"attributes":{
						"POSITION":0,
						"NORMAL":1,
						"TEXCOORD_0":2
					},
					"indices":3,
					"material":0
				}
			]
		}
	],
	"accessors":[
		{
			"bufferView":0,
			"componentType":5126,
			"count":4617,
			"max":[
				-5.390582084655762,
				0.6144737005233765,
				5.578431129455566
			],
			"min":[
				-9.548251152038574,
				-0.6219057440757751,
				-5.587132930755615
			],
			"type":"VEC3"
		},
		{
			"bufferView":1,
			"componentType":5126,
			"count":4617,
			"type":"VEC3"
		},
		{
			"bufferView":2,
			"componentType":5126,
			"count":4617,
			"type":"VEC2"
		},
		{
			"bufferView":3,
			"componentType":5123,
			"count":15588,
			"type":"SCALAR"
		}
	],
	"bufferViews":[
		{
			"buffer":0,
			"byteLength":55404,
			"byteOffset":0,
			"target":34962
		},
		{
			"buffer":0,
			"byteLength":55404,
			"byteOffset":55404,
			"target":34962
		},
		{
			"buffer":0,
			"byteLength":36936,
			"byteOffset":110808,
			"target":34962
		},
		{
			"buffer":0,
			"byteLength":31176,
			"byteOffset":147744,
			"target":34963
		}
	],
	"buffers":[
		{
			"byteLength":178920,
			"uri":"Raft4.bin"
		}
	]
}
