{
	"asset":{
		"generator":"Khronos glTF Blender I/O v4.3.47",
		"version":"2.0"
	},
	"scene":0,
	"scenes":[
		{
			"name":"Scene",
			"nodes":[
				0
			]
		}
	],
	"nodes":[
		{
			"mesh":0,
			"name":"Mesh_0.007",
			"translation":[
				-11.480277061462402,
				0,
				0
			]
		}
	],
	"materials":[
		{
			"name":"Material_0.007",
			"pbrMetallicRoughness":{
				"baseColorFactor":[
					0.5,
					0.5,
					0.5,
					1
				],
				"metallicFactor":0
			}
		}
	],
	"meshes":[
		{
			"name":"Mesh_0.007",
			"primitives":[
				{
					"attributes":{
						"POSITION":0,
						"NORMAL":1,
						"TEXCOORD_0":2
					},
					"indices":3,
					"material":0
				}
			]
		}
	],
	"accessors":[
		{
			"bufferView":0,
			"componentType":5126,
			"count":2008,
			"max":[
				12.648962020874023,
				0.6144737005233765,
				5.578431129455566
			],
			"min":[
				10.450138092041016,
				-0.549943745136261,
				-5.578431129455566
			],
			"type":"VEC3"
		},
		{
			"bufferView":1,
			"componentType":5126,
			"count":2008,
			"type":"VEC3"
		},
		{
			"bufferView":2,
			"componentType":5126,
			"count":2008,
			"type":"VEC2"
		},
		{
			"bufferView":3,
			"componentType":5123,
			"count":7434,
			"type":"SCALAR"
		}
	],
	"bufferViews":[
		{
			"buffer":0,
			"byteLength":24096,
			"byteOffset":0,
			"target":34962
		},
		{
			"buffer":0,
			"byteLength":24096,
			"byteOffset":24096,
			"target":34962
		},
		{
			"buffer":0,
			"byteLength":16064,
			"byteOffset":48192,
			"target":34962
		},
		{
			"buffer":0,
			"byteLength":14868,
			"byteOffset":64256,
			"target":34963
		}
	],
	"buffers":[
		{
			"byteLength":79124,
			"uri":"Raft2.bin"
		}
	]
}
