{
	"asset":{
		"generator":"Khronos glTF Blender I/O v4.3.47",
		"version":"2.0"
	},
	"scene":0,
	"scenes":[
		{
			"name":"Scene",
			"nodes":[
				1
			]
		}
	],
	"nodes":[
		{
			"mesh":0,
			"name":"Mesh_0.001"
		},
		{
			"children":[
				0
			],
			"name":"Mesh_0.009",
			"translation":[
				6.612706661224365,
				0,
				0
			]
		}
	],
	"materials":[
		{
			"name":"Raft4",
			"occlusionTexture":{
				"index":0
			},
			"pbrMetallicRoughness":{
				"baseColorTexture":{
					"index":1
				},
				"metallicRoughnessTexture":{
					"index":0
				}
			}
		}
	],
	"meshes":[
		{
			"name":"Mesh_0.009",
			"primitives":[
				{
					"attributes":{
						"POSITION":0,
						"NORMAL":1,
						"TEXCOORD_0":2
					},
					"indices":3,
					"material":0
				}
			]
		}
	],
	"textures":[
		{
			"sampler":0,
			"source":0
		},
		{
			"sampler":0,
			"source":1
		}
	],
	"images":[
		{
			"mimeType":"image/png",
			"name":"Raft4_occlusionRoughnessMetallic",
			"uri":"textures/Raft4_occlusionRoughnessMetallic.png"
		},
		{
			"mimeType":"image/png",
			"name":"Raft4_baseColor",
			"uri":"textures/Raft4_baseColor.png"
		}
	],
	"accessors":[
		{
			"bufferView":0,
			"componentType":5126,
			"count":4273,
			"max":[
				-5.390582084655762,
				0.6144737005233765,
				5.578430652618408
			],
			"min":[
				-9.548251152038574,
				-0.6219057440757751,
				-5.587132453918457
			],
			"type":"VEC3"
		},
		{
			"bufferView":1,
			"componentType":5126,
			"count":4273,
			"type":"VEC3"
		},
		{
			"bufferView":2,
			"componentType":5126,
			"count":4273,
			"type":"VEC2"
		},
		{
			"bufferView":3,
			"componentType":5123,
			"count":15588,
			"type":"SCALAR"
		}
	],
	"bufferViews":[
		{
			"buffer":0,
			"byteLength":51276,
			"byteOffset":0,
			"target":34962
		},
		{
			"buffer":0,
			"byteLength":51276,
			"byteOffset":51276,
			"target":34962
		},
		{
			"buffer":0,
			"byteLength":34184,
			"byteOffset":102552,
			"target":34962
		},
		{
			"buffer":0,
			"byteLength":31176,
			"byteOffset":136736,
			"target":34963
		}
	],
	"samplers":[
		{
			"magFilter":9729,
			"minFilter":9987
		}
	],
	"buffers":[
		{
			"byteLength":167912,
			"uri":"raft4.bin"
		}
	]
}
