{
	"asset":{
		"generator":"Khronos glTF Blender I/O v4.3.47",
		"version":"2.0"
	},
	"scene":0,
	"scenes":[
		{
			"name":"Scene",
			"nodes":[
				0
			]
		}
	],
	"nodes":[
		{
			"mesh":0,
			"name":"Mesh_0.006",
			"scale":[
				1,
				1,
				0.837517261505127
			]
		}
	],
	"materials":[
		{
			"name":"Material_0.006",
			"pbrMetallicRoughness":{
				"baseColorFactor":[
					0.5,
					0.5,
					0.5,
					1
				],
				"metallicFactor":0
			}
		}
	],
	"meshes":[
		{
			"name":"Mesh_0.006",
			"primitives":[
				{
					"attributes":{
						"POSITION":0,
						"NORMAL":1,
						"TEXCOORD_0":2
					},
					"indices":3,
					"material":0
				}
			]
		}
	],
	"accessors":[
		{
			"bufferView":0,
			"componentType":5126,
			"count":805,
			"max":[
				-0.5790568590164185,
				0.6144737005233765,
				6.660676002502441
			],
			"min":[
				-1.7413774728775024,
				-0.5458444356918335,
				-6.660676002502441
			],
			"type":"VEC3"
		},
		{
			"bufferView":1,
			"componentType":5126,
			"count":805,
			"type":"VEC3"
		},
		{
			"bufferView":2,
			"componentType":5126,
			"count":805,
			"type":"VEC2"
		},
		{
			"bufferView":3,
			"componentType":5123,
			"count":3552,
			"type":"SCALAR"
		}
	],
	"bufferViews":[
		{
			"buffer":0,
			"byteLength":9660,
			"byteOffset":0,
			"target":34962
		},
		{
			"buffer":0,
			"byteLength":9660,
			"byteOffset":9660,
			"target":34962
		},
		{
			"buffer":0,
			"byteLength":6440,
			"byteOffset":19320,
			"target":34962
		},
		{
			"buffer":0,
			"byteLength":7104,
			"byteOffset":25760,
			"target":34963
		}
	],
	"buffers":[
		{
			"byteLength":32864,
			"uri":"Raft1.bin"
		}
	]
}
