{
	"asset":{
		"generator":"Khronos glTF Blender I/O v4.3.47",
		"version":"2.0"
	},
	"scene":0,
	"scenes":[
		{
			"name":"Scene",
			"nodes":[
				0
			]
		}
	],
	"nodes":[
		{
			"mesh":0,
			"name":"Mesh_0.002",
			"scale":[
				1,
				1,
				0.837517261505127
			]
		}
	],
	"materials":[
		{
			"alphaMode":"BLEND",
			"name":"Raft1.001",
			"occlusionTexture":{
				"index":0
			},
			"pbrMetallicRoughness":{
				"baseColorTexture":{
					"index":1
				},
				"metallicRoughnessTexture":{
					"index":0
				}
			}
		}
	],
	"meshes":[
		{
			"name":"Mesh_0.009",
			"primitives":[
				{
					"attributes":{
						"POSITION":0,
						"NORMAL":1,
						"TEXCOORD_0":2
					},
					"indices":3,
					"material":0
				}
			]
		}
	],
	"textures":[
		{
			"sampler":0,
			"source":0
		},
		{
			"sampler":0,
			"source":1
		}
	],
	"images":[
		{
			"mimeType":"image/png",
			"name":"Raft1_occlusionRoughnessMetallic",
			"uri":"textures/Raft1_occlusionRoughnessMetallic.png"
		},
		{
			"mimeType":"image/png",
			"name":"Raft1_baseColor",
			"uri":"textures/Raft1_baseColor.png"
		}
	],
	"accessors":[
		{
			"bufferView":0,
			"componentType":5126,
			"count":744,
			"max":[
				-0.5790568590164185,
				0.6144737005233765,
				6.660675048828125
			],
			"min":[
				-1.7413774728775024,
				-0.5458444356918335,
				-6.660675048828125
			],
			"type":"VEC3"
		},
		{
			"bufferView":1,
			"componentType":5126,
			"count":744,
			"type":"VEC3"
		},
		{
			"bufferView":2,
			"componentType":5126,
			"count":744,
			"type":"VEC2"
		},
		{
			"bufferView":3,
			"componentType":5123,
			"count":3552,
			"type":"SCALAR"
		}
	],
	"bufferViews":[
		{
			"buffer":0,
			"byteLength":8928,
			"byteOffset":0,
			"target":34962
		},
		{
			"buffer":0,
			"byteLength":8928,
			"byteOffset":8928,
			"target":34962
		},
		{
			"buffer":0,
			"byteLength":5952,
			"byteOffset":17856,
			"target":34962
		},
		{
			"buffer":0,
			"byteLength":7104,
			"byteOffset":23808,
			"target":34963
		}
	],
	"samplers":[
		{
			"magFilter":9729,
			"minFilter":9987
		}
	],
	"buffers":[
		{
			"byteLength":30912,
			"uri":"raft1.bin"
		}
	]
}
