{
	"asset":{
		"generator":"Khronos glTF Blender I/O v4.3.47",
		"version":"2.0"
	},
	"scene":0,
	"scenes":[
		{
			"name":"Scene",
			"nodes":[
				0
			]
		}
	],
	"nodes":[
		{
			"mesh":0,
			"name":"Mesh_0.008",
			"translation":[
				-6.8820366859436035,
				0,
				0
			]
		}
	],
	"materials":[
		{
			"name":"Material_0.008",
			"pbrMetallicRoughness":{
				"baseColorFactor":[
					0.5,
					0.5,
					0.5,
					1
				],
				"metallicFactor":0
			}
		}
	],
	"meshes":[
		{
			"name":"Mesh_0.008",
			"primitives":[
				{
					"attributes":{
						"POSITION":0,
						"NORMAL":1,
						"TEXCOORD_0":2
					},
					"indices":3,
					"material":0
				}
			]
		}
	],
	"accessors":[
		{
			"bufferView":0,
			"componentType":5126,
			"count":3231,
			"max":[
				8.285699844360352,
				0.6144737005233765,
				5.578431129455566
			],
			"min":[
				5.07541561126709,
				-0.6103030443191528,
				-5.578431129455566
			],
			"type":"VEC3"
		},
		{
			"bufferView":1,
			"componentType":5126,
			"count":3231,
			"type":"VEC3"
		},
		{
			"bufferView":2,
			"componentType":5126,
			"count":3231,
			"type":"VEC2"
		},
		{
			"bufferView":3,
			"componentType":5123,
			"count":11400,
			"type":"SCALAR"
		}
	],
	"bufferViews":[
		{
			"buffer":0,
			"byteLength":38772,
			"byteOffset":0,
			"target":34962
		},
		{
			"buffer":0,
			"byteLength":38772,
			"byteOffset":38772,
			"target":34962
		},
		{
			"buffer":0,
			"byteLength":25848,
			"byteOffset":77544,
			"target":34962
		},
		{
			"buffer":0,
			"byteLength":22800,
			"byteOffset":103392,
			"target":34963
		}
	],
	"buffers":[
		{
			"byteLength":126192,
			"uri":"Raft3.bin"
		}
	]
}
