{
	"asset":{
		"generator":"Khronos glTF Blender I/O v4.3.47",
		"version":"2.0"
	},
	"scene":0,
	"scenes":[
		{
			"name":"Scene",
			"nodes":[
				1
			]
		}
	],
	"nodes":[
		{
			"mesh":0,
			"name":"Mesh_0.001"
		},
		{
			"children":[
				0
			],
			"name":"Mesh_0.008",
			"translation":[
				-6.8820366859436035,
				0,
				0
			]
		}
	],
	"materials":[
		{
			"name":"Raft3",
			"occlusionTexture":{
				"index":0
			},
			"pbrMetallicRoughness":{
				"baseColorTexture":{
					"index":1
				},
				"metallicRoughnessTexture":{
					"index":0
				}
			}
		}
	],
	"meshes":[
		{
			"name":"Mesh_0.008",
			"primitives":[
				{
					"attributes":{
						"POSITION":0,
						"NORMAL":1,
						"TEXCOORD_0":2
					},
					"indices":3,
					"material":0
				}
			]
		}
	],
	"textures":[
		{
			"sampler":0,
			"source":0
		},
		{
			"sampler":0,
			"source":1
		}
	],
	"images":[
		{
			"mimeType":"image/png",
			"name":"Raft3_occlusionRoughnessMetallic",
			"uri":"textures/Raft3_occlusionRoughnessMetallic.png"
		},
		{
			"mimeType":"image/png",
			"name":"Raft3_baseColor",
			"uri":"textures/Raft3_baseColor.png"
		}
	],
	"accessors":[
		{
			"bufferView":0,
			"componentType":5126,
			"count":2962,
			"max":[
				8.285699844360352,
				0.6144737005233765,
				5.578430652618408
			],
			"min":[
				5.075415134429932,
				-0.6103030443191528,
				-5.578430652618408
			],
			"type":"VEC3"
		},
		{
			"bufferView":1,
			"componentType":5126,
			"count":2962,
			"type":"VEC3"
		},
		{
			"bufferView":2,
			"componentType":5126,
			"count":2962,
			"type":"VEC2"
		},
		{
			"bufferView":3,
			"componentType":5123,
			"count":11400,
			"type":"SCALAR"
		}
	],
	"bufferViews":[
		{
			"buffer":0,
			"byteLength":35544,
			"byteOffset":0,
			"target":34962
		},
		{
			"buffer":0,
			"byteLength":35544,
			"byteOffset":35544,
			"target":34962
		},
		{
			"buffer":0,
			"byteLength":23696,
			"byteOffset":71088,
			"target":34962
		},
		{
			"buffer":0,
			"byteLength":22800,
			"byteOffset":94784,
			"target":34963
		}
	],
	"samplers":[
		{
			"magFilter":9729,
			"minFilter":9987
		}
	],
	"buffers":[
		{
			"byteLength":117584,
			"uri":"raft3.bin"
		}
	]
}
